<?xml version="1.0" encoding="UTF-8" standalone="no"?>
<!-- Created with Inkscape (http://www.inkscape.org/) -->

<svg
   xmlns:dc="http://purl.org/dc/elements/1.1/"
   xmlns:cc="http://creativecommons.org/ns#"
   xmlns:rdf="http://www.w3.org/1999/02/22-rdf-syntax-ns#"
   xmlns:svg="http://www.w3.org/2000/svg"
   xmlns="http://www.w3.org/2000/svg"
   xmlns:sodipodi="http://sodipodi.sourceforge.net/DTD/sodipodi-0.dtd"
   xmlns:inkscape="http://www.inkscape.org/namespaces/inkscape"
   width="38.633232mm"
   height="38.518642mm"
   viewBox="0 0 38.633232 38.518642"
   version="1.1"
   id="svg7741"
   inkscape:version="0.92.3 (2405546, 2018-03-11)"
   sodipodi:docname="associations.svg">
  <defs
     id="defs7735" />
  <sodipodi:namedview
     id="base"
     pagecolor="#ffffff"
     bordercolor="#666666"
     borderopacity="1.0"
     inkscape:pageopacity="0.0"
     inkscape:pageshadow="2"
     inkscape:zoom="1.4"
     inkscape:cx="-218.41888"
     inkscape:cy="-76.710368"
     inkscape:document-units="mm"
     inkscape:current-layer="layer1"
     showgrid="false"
     inkscape:window-width="3706"
     inkscape:window-height="2049"
     inkscape:window-x="134"
     inkscape:window-y="55"
     inkscape:window-maximized="1"
     fit-margin-top="0"
     fit-margin-left="0"
     fit-margin-right="0"
     fit-margin-bottom="0" />
  <metadata
     id="metadata7738">
    <rdf:RDF>
      <cc:Work
         rdf:about="">
        <dc:format>image/svg+xml</dc:format>
        <dc:type
           rdf:resource="http://purl.org/dc/dcmitype/StillImage" />
        <dc:title></dc:title>
      </cc:Work>
    </rdf:RDF>
  </metadata>
  <g
     inkscape:label="Layer 1"
     inkscape:groupmode="layer"
     id="layer1"
     transform="translate(-154.60819,-91.453682)">
    <g
       id="g12527"
       transform="matrix(1.8178554,0,0,1.8178554,87.807679,-93.738992)">
      <path
         inkscape:connector-curvature="0"
         d="m 50.548618,102.62344 c -1.007691,-0.49712 -2.09057,-0.74918 -3.218409,-0.74918 -1.127838,0 -2.210717,0.25206 -3.218408,0.74918 -0.130999,0.0647 -0.185001,0.22337 -0.120147,0.35437 0.06459,0.13113 0.222983,0.18488 0.354242,0.12028 0.934309,-0.46095 1.938383,-0.69466 2.984313,-0.69466 1.045931,0 2.050005,0.23371 2.984314,0.69466 0.03772,0.0185 0.07751,0.0273 0.116789,0.0273 0.09767,0 0.191461,-0.0541 0.237453,-0.14754 0.06485,-0.131 0.01085,-0.28964 -0.120147,-0.35437 z"
         id="path12328"
         style="stroke-width:0.26458332" />
      <path
         inkscape:connector-curvature="0"
         d="m 37.733638,115.82354 c 0.03927,0 0.07906,-0.009 0.116788,-0.0273 0.131,-0.0647 0.185002,-0.22337 0.120148,-0.35437 -0.460953,-0.93418 -0.694531,-1.93825 -0.694531,-2.98431 0,-1.04606 0.233578,-2.05014 0.694531,-2.98432 0.06485,-0.131 0.01085,-0.28964 -0.120148,-0.35437 -0.131516,-0.0641 -0.289646,-0.0106 -0.354242,0.12028 -0.497127,1.00769 -0.749308,2.09044 -0.749308,3.21841 0,1.12796 0.252181,2.21071 0.749308,3.2184 0.04599,0.0934 0.139785,0.14754 0.237454,0.14754 z"
         id="path12330"
         style="stroke-width:0.26458332" />
      <path
         inkscape:connector-curvature="0"
         d="m 43.991654,121.93738 c -0.06485,0.131 -0.01085,0.28965 0.120147,0.35437 1.007691,0.49713 2.09057,0.74918 3.218408,0.74918 1.127839,0 2.210718,-0.25205 3.218409,-0.74918 0.130999,-0.0647 0.185001,-0.22337 0.120147,-0.35437 -0.06459,-0.131 -0.222467,-0.18449 -0.354242,-0.12028 -0.934309,0.46096 -1.938383,0.69466 -2.984314,0.69466 -1.04593,0 -2.050004,-0.2337 -2.984313,-0.69466 -0.131259,-0.0641 -0.289647,-0.0106 -0.354242,0.12028 z"
         id="path12332"
         style="stroke-width:0.26458332" />
      <path
         inkscape:connector-curvature="0"
         d="m 56.809993,109.11891 c -0.131,0.0647 -0.185002,0.22337 -0.120148,0.35437 0.460953,0.93418 0.694531,1.93826 0.694531,2.98432 0,1.04606 -0.233578,2.05013 -0.694531,2.98431 -0.06485,0.131 -0.01085,0.28965 0.120148,0.35437 0.03772,0.0185 0.07751,0.0273 0.116788,0.0273 0.09767,0 0.191462,-0.0541 0.237454,-0.14754 0.497127,-1.00769 0.749308,-2.09044 0.749308,-3.2184 0,-1.12797 -0.252181,-2.21072 -0.749308,-3.21841 -0.0646,-0.131 -0.222726,-0.18462 -0.354242,-0.12028 z"
         id="path12334"
         style="stroke-width:0.26458332" />
      <g
         id="g12356"
         transform="matrix(0.16450371,0,0,0.16450371,34.812367,89.815033)">
        <path
           style="stroke-width:0.26458332"
           inkscape:connector-curvature="0"
           d="m 29.749862,90.91912 c -0.146116,0 -0.264584,0.118469 -0.264584,0.264584 v 0.805894 c 0,0.146115 0.118468,0.264583 0.264584,0.264583 0.146115,0 0.264583,-0.118468 0.264583,-0.264583 v -0.805894 c 0,-0.146115 -0.118468,-0.264584 -0.264583,-0.264584 z"
           id="path12336" />
        <path
           style="stroke-width:0.26458332"
           inkscape:connector-curvature="0"
           d="m 31.135824,90.91912 c -0.146115,0 -0.264584,0.118469 -0.264584,0.264584 v 0.805894 c 0,0.146115 0.118469,0.264583 0.264584,0.264583 0.146115,0 0.264583,-0.118468 0.264583,-0.264583 v -0.805894 c 0,-0.146115 -0.118468,-0.264584 -0.264583,-0.264584 z"
           id="path12338" />
        <path
           style="stroke-width:0.26458332"
           inkscape:connector-curvature="0"
           d="m 32.521785,90.91912 c -0.146115,0 -0.264583,0.118469 -0.264583,0.264584 v 0.805894 c 0,0.146115 0.118468,0.264583 0.264583,0.264583 0.146116,0 0.264584,-0.118468 0.264584,-0.264583 v -0.805894 c 0,-0.146115 -0.118468,-0.264584 -0.264584,-0.264584 z"
           id="path12340" />
        <path
           style="stroke-width:0.26458332"
           inkscape:connector-curvature="0"
           d="m 33.907747,90.91912 c -0.146115,0 -0.264583,0.118469 -0.264583,0.264584 v 0.805894 c 0,0.146115 0.118468,0.264583 0.264583,0.264583 0.146115,0 0.264584,-0.118468 0.264584,-0.264583 v -0.805894 c 0,-0.146115 -0.118469,-0.264584 -0.264584,-0.264584 z"
           id="path12342" />
        <path
           style="stroke-width:0.26458332"
           inkscape:connector-curvature="0"
           d="m 35.293709,90.91912 c -0.146115,0 -0.264583,0.118469 -0.264583,0.264584 v 0.805894 c 0,0.146115 0.118468,0.264583 0.264583,0.264583 0.146116,0 0.264583,-0.118468 0.264583,-0.264583 v -0.805894 c 0,-0.146115 -0.118467,-0.264584 -0.264583,-0.264584 z"
           id="path12344" />
        <path
           style="stroke-width:0.26458332"
           inkscape:connector-curvature="0"
           d="m 22.203036,104.12852 h 20.637499 c 0.146115,0 0.264584,-0.11847 0.264584,-0.26458 v -1.4149 c 0,-0.14612 -0.118469,-0.26459 -0.264584,-0.26459 h -0.323236 v -5.817083 h 0.323236 c 0.146115,0 0.264584,-0.118469 0.264584,-0.264584 v -1.537374 c 0,-0.115109 -0.07429,-0.216911 -0.183969,-0.252051 l -4.370663,-1.39901 c -0.02597,-0.0083 -0.05323,-0.01253 -0.08061,-0.01253 h -1.438801 v -2.698414 h 0.162264 c 0.146115,0 0.264583,-0.118468 0.264583,-0.264583 v -0.179318 c 0,-2.432797 -1.979336,-4.412133 -4.412263,-4.412133 h -0.259286 v -0.237324 h 2.289912 c 0.146115,0 0.264583,-0.118469 0.264583,-0.264584 v -1.429757 c 0,-0.146115 -0.118468,-0.264584 -0.264583,-0.264584 h -2.305173 c -0.03301,-0.108537 -0.130014,-0.189007 -0.249323,-0.189007 -0.146115,0 -0.264583,0.118468 -0.264583,0.264583 v 2.120672 h -0.259286 c -2.432927,0 -4.412263,1.979336 -4.412263,4.412133 v 0.179318 c 0,0.146115 0.118468,0.264583 0.264583,0.264583 H 28.0125 v 2.698414 h -1.438801 c -0.02739,0 -0.05465,0.0043 -0.08062,0.01253 l -4.370663,1.399012 c -0.109684,0.03514 -0.183969,0.136942 -0.183969,0.252051 v 1.537374 c 0,0.146115 0.118469,0.264584 0.264584,0.264584 h 0.404368 v 5.817082 h -0.404368 c -0.146115,0 -0.264584,0.11847 -0.264584,0.26459 v 1.4149 c 0,0.14611 0.118469,0.26458 0.264584,0.26458 z M 34.811697,84.580877 h -2.025328 v -0.900591 h 2.025328 z m 7.176436,17.603573 h -4.772706 v -5.199679 h 0.402688 c 0.146115,0 0.264584,-0.118468 0.264584,-0.264584 v -0.35282 h 4.105434 z M 27.690039,96.455604 v -0.535368 l 4.831746,-0.964282 4.831747,0.964282 v 0.535368 z m 3.144899,0.529167 v 5.199679 h -2.396624 v -5.199679 z m 0.529166,0 h 2.396495 v 5.199679 h -2.396495 z m 2.925661,0 h 2.396495 v 5.199679 H 34.289765 Z M 31.997916,85.876534 h 1.047739 c 2.112662,0 3.836717,1.695891 3.882192,3.797701 h -8.812123 c 0.04547,-2.10181 1.76953,-3.797701 3.882192,-3.797701 z m -3.456249,4.326868 h 7.960237 v 2.698414 h -7.960237 z m -6.074048,4.555148 4.147421,-1.327568 h 11.813491 l 4.147421,1.327568 v 1.07965 h -4.693253 v -0.135005 c 0,-0.126219 -0.08914,-0.23474 -0.212778,-0.259415 l -5.09633,-1.016993 c -0.03411,-0.007 -0.0695,-0.007 -0.103611,0 l -5.09633,1.016993 c -0.123636,0.02468 -0.212778,0.133196 -0.212778,0.259415 V 95.8382 h -4.693253 z m 0.668951,1.608817 h 4.024302 v 0.35282 c 0,0.146116 0.118469,0.264584 0.264584,0.264584 h 0.483691 v 5.199679 H 23.13657 Z m -0.668951,6.346253 h 20.108333 v 0.88573 H 22.467619 Z"
           id="path12346" />
        <path
           style="stroke-width:0.26458332"
           inkscape:connector-curvature="0"
           d="m 26.083548,96.962679 h -1.344879 c -0.146115,0 -0.264583,0.118468 -0.264583,0.264583 v 1.345009 c 0,0.146115 0.118468,0.264583 0.264583,0.264583 h 1.344879 c 0.146115,0 0.264583,-0.118468 0.264583,-0.264583 v -1.345009 c 0,-0.146115 -0.118468,-0.264583 -0.264583,-0.264583 z m -0.264583,1.345008 h -0.815713 v -0.815841 h 0.815713 z"
           id="path12348" />
        <path
           style="stroke-width:0.26458332"
           inkscape:connector-curvature="0"
           d="m 26.083548,99.573502 h -1.344879 c -0.146115,0 -0.264583,0.118468 -0.264583,0.264583 v 1.345005 c 0,0.14612 0.118468,0.26459 0.264583,0.26459 h 1.344879 c 0.146115,0 0.264583,-0.11847 0.264583,-0.26459 v -1.345005 c 0,-0.146115 -0.118468,-0.264583 -0.264583,-0.264583 z m -0.264583,1.345008 h -0.815713 v -0.81584 h 0.815713 z"
           id="path12350" />
        <path
           style="stroke-width:0.26458332"
           inkscape:connector-curvature="0"
           d="m 38.929275,98.836854 h 1.345009 c 0.146115,0 0.264583,-0.118468 0.264583,-0.264583 v -1.345009 c 0,-0.146115 -0.118468,-0.264583 -0.264583,-0.264583 h -1.345009 c -0.146115,0 -0.264583,0.118468 -0.264583,0.264583 v 1.345009 c 0,0.146115 0.118468,0.264583 0.264583,0.264583 z m 0.264584,-1.345008 H 40.0097 v 0.815841 h -0.815841 z"
           id="path12352" />
        <path
           style="stroke-width:0.26458332"
           inkscape:connector-curvature="0"
           d="m 38.929275,101.44768 h 1.345009 c 0.146115,0 0.264583,-0.11847 0.264583,-0.26459 v -1.345005 c 0,-0.146115 -0.118468,-0.264583 -0.264583,-0.264583 h -1.345009 c -0.146115,0 -0.264583,0.118468 -0.264583,0.264583 v 1.345005 c 0,0.14612 0.118468,0.26459 0.264583,0.26459 z m 0.264584,-1.34501 H 40.0097 v 0.81584 h -0.815841 z"
           id="path12354" />
      </g>
      <circle
         r="3.1314106"
         cy="105.41331"
         cx="40.207214"
         id="path12379"
         style="opacity:1;fill:none;fill-opacity:1;stroke:#000000;stroke-width:0.5;stroke-miterlimit:4;stroke-dasharray:none;stroke-opacity:1" />
      <circle
         style="opacity:1;fill:none;fill-opacity:1;stroke:#000000;stroke-width:0.5;stroke-miterlimit:4;stroke-dasharray:none;stroke-opacity:1"
         id="circle12381"
         cx="40.207214"
         cy="119.68191"
         r="3.1314106" />
      <circle
         style="opacity:1;fill:none;fill-opacity:1;stroke:#000000;stroke-width:0.5;stroke-miterlimit:4;stroke-dasharray:none;stroke-opacity:1"
         id="circle12383"
         cx="54.617558"
         cy="105.41331"
         r="3.1314106" />
      <circle
         r="3.1314106"
         cy="119.68191"
         cx="54.617558"
         id="circle12385"
         style="opacity:1;fill:none;fill-opacity:1;stroke:#000000;stroke-width:0.5;stroke-miterlimit:4;stroke-dasharray:none;stroke-opacity:1" />
      <g
         transform="matrix(0.16450371,0,0,0.16450371,49.317203,89.815033)"
         id="g12429">
        <path
           id="path12409"
           d="m 29.749862,90.91912 c -0.146116,0 -0.264584,0.118469 -0.264584,0.264584 v 0.805894 c 0,0.146115 0.118468,0.264583 0.264584,0.264583 0.146115,0 0.264583,-0.118468 0.264583,-0.264583 v -0.805894 c 0,-0.146115 -0.118468,-0.264584 -0.264583,-0.264584 z"
           inkscape:connector-curvature="0"
           style="stroke-width:0.26458332" />
        <path
           id="path12411"
           d="m 31.135824,90.91912 c -0.146115,0 -0.264584,0.118469 -0.264584,0.264584 v 0.805894 c 0,0.146115 0.118469,0.264583 0.264584,0.264583 0.146115,0 0.264583,-0.118468 0.264583,-0.264583 v -0.805894 c 0,-0.146115 -0.118468,-0.264584 -0.264583,-0.264584 z"
           inkscape:connector-curvature="0"
           style="stroke-width:0.26458332" />
        <path
           id="path12413"
           d="m 32.521785,90.91912 c -0.146115,0 -0.264583,0.118469 -0.264583,0.264584 v 0.805894 c 0,0.146115 0.118468,0.264583 0.264583,0.264583 0.146116,0 0.264584,-0.118468 0.264584,-0.264583 v -0.805894 c 0,-0.146115 -0.118468,-0.264584 -0.264584,-0.264584 z"
           inkscape:connector-curvature="0"
           style="stroke-width:0.26458332" />
        <path
           id="path12415"
           d="m 33.907747,90.91912 c -0.146115,0 -0.264583,0.118469 -0.264583,0.264584 v 0.805894 c 0,0.146115 0.118468,0.264583 0.264583,0.264583 0.146115,0 0.264584,-0.118468 0.264584,-0.264583 v -0.805894 c 0,-0.146115 -0.118469,-0.264584 -0.264584,-0.264584 z"
           inkscape:connector-curvature="0"
           style="stroke-width:0.26458332" />
        <path
           id="path12417"
           d="m 35.293709,90.91912 c -0.146115,0 -0.264583,0.118469 -0.264583,0.264584 v 0.805894 c 0,0.146115 0.118468,0.264583 0.264583,0.264583 0.146116,0 0.264583,-0.118468 0.264583,-0.264583 v -0.805894 c 0,-0.146115 -0.118467,-0.264584 -0.264583,-0.264584 z"
           inkscape:connector-curvature="0"
           style="stroke-width:0.26458332" />
        <path
           id="path12419"
           d="m 22.203036,104.12852 h 20.637499 c 0.146115,0 0.264584,-0.11847 0.264584,-0.26458 v -1.4149 c 0,-0.14612 -0.118469,-0.26459 -0.264584,-0.26459 h -0.323236 v -5.817083 h 0.323236 c 0.146115,0 0.264584,-0.118469 0.264584,-0.264584 v -1.537374 c 0,-0.115109 -0.07429,-0.216911 -0.183969,-0.252051 l -4.370663,-1.39901 c -0.02597,-0.0083 -0.05323,-0.01253 -0.08061,-0.01253 h -1.438801 v -2.698414 h 0.162264 c 0.146115,0 0.264583,-0.118468 0.264583,-0.264583 v -0.179318 c 0,-2.432797 -1.979336,-4.412133 -4.412263,-4.412133 h -0.259286 v -0.237324 h 2.289912 c 0.146115,0 0.264583,-0.118469 0.264583,-0.264584 v -1.429757 c 0,-0.146115 -0.118468,-0.264584 -0.264583,-0.264584 h -2.305173 c -0.03301,-0.108537 -0.130014,-0.189007 -0.249323,-0.189007 -0.146115,0 -0.264583,0.118468 -0.264583,0.264583 v 2.120672 h -0.259286 c -2.432927,0 -4.412263,1.979336 -4.412263,4.412133 v 0.179318 c 0,0.146115 0.118468,0.264583 0.264583,0.264583 H 28.0125 v 2.698414 h -1.438801 c -0.02739,0 -0.05465,0.0043 -0.08062,0.01253 l -4.370663,1.399012 c -0.109684,0.03514 -0.183969,0.136942 -0.183969,0.252051 v 1.537374 c 0,0.146115 0.118469,0.264584 0.264584,0.264584 h 0.404368 v 5.817082 h -0.404368 c -0.146115,0 -0.264584,0.11847 -0.264584,0.26459 v 1.4149 c 0,0.14611 0.118469,0.26458 0.264584,0.26458 z M 34.811697,84.580877 h -2.025328 v -0.900591 h 2.025328 z m 7.176436,17.603573 h -4.772706 v -5.199679 h 0.402688 c 0.146115,0 0.264584,-0.118468 0.264584,-0.264584 v -0.35282 h 4.105434 z M 27.690039,96.455604 v -0.535368 l 4.831746,-0.964282 4.831747,0.964282 v 0.535368 z m 3.144899,0.529167 v 5.199679 h -2.396624 v -5.199679 z m 0.529166,0 h 2.396495 v 5.199679 h -2.396495 z m 2.925661,0 h 2.396495 v 5.199679 H 34.289765 Z M 31.997916,85.876534 h 1.047739 c 2.112662,0 3.836717,1.695891 3.882192,3.797701 h -8.812123 c 0.04547,-2.10181 1.76953,-3.797701 3.882192,-3.797701 z m -3.456249,4.326868 h 7.960237 v 2.698414 h -7.960237 z m -6.074048,4.555148 4.147421,-1.327568 h 11.813491 l 4.147421,1.327568 v 1.07965 h -4.693253 v -0.135005 c 0,-0.126219 -0.08914,-0.23474 -0.212778,-0.259415 l -5.09633,-1.016993 c -0.03411,-0.007 -0.0695,-0.007 -0.103611,0 l -5.09633,1.016993 c -0.123636,0.02468 -0.212778,0.133196 -0.212778,0.259415 V 95.8382 h -4.693253 z m 0.668951,1.608817 h 4.024302 v 0.35282 c 0,0.146116 0.118469,0.264584 0.264584,0.264584 h 0.483691 v 5.199679 H 23.13657 Z m -0.668951,6.346253 h 20.108333 v 0.88573 H 22.467619 Z"
           inkscape:connector-curvature="0"
           style="stroke-width:0.26458332" />
        <path
           id="path12421"
           d="m 26.083548,96.962679 h -1.344879 c -0.146115,0 -0.264583,0.118468 -0.264583,0.264583 v 1.345009 c 0,0.146115 0.118468,0.264583 0.264583,0.264583 h 1.344879 c 0.146115,0 0.264583,-0.118468 0.264583,-0.264583 v -1.345009 c 0,-0.146115 -0.118468,-0.264583 -0.264583,-0.264583 z m -0.264583,1.345008 h -0.815713 v -0.815841 h 0.815713 z"
           inkscape:connector-curvature="0"
           style="stroke-width:0.26458332" />
        <path
           id="path12423"
           d="m 26.083548,99.573502 h -1.344879 c -0.146115,0 -0.264583,0.118468 -0.264583,0.264583 v 1.345005 c 0,0.14612 0.118468,0.26459 0.264583,0.26459 h 1.344879 c 0.146115,0 0.264583,-0.11847 0.264583,-0.26459 v -1.345005 c 0,-0.146115 -0.118468,-0.264583 -0.264583,-0.264583 z m -0.264583,1.345008 h -0.815713 v -0.81584 h 0.815713 z"
           inkscape:connector-curvature="0"
           style="stroke-width:0.26458332" />
        <path
           id="path12425"
           d="m 38.929275,98.836854 h 1.345009 c 0.146115,0 0.264583,-0.118468 0.264583,-0.264583 v -1.345009 c 0,-0.146115 -0.118468,-0.264583 -0.264583,-0.264583 h -1.345009 c -0.146115,0 -0.264583,0.118468 -0.264583,0.264583 v 1.345009 c 0,0.146115 0.118468,0.264583 0.264583,0.264583 z m 0.264584,-1.345008 H 40.0097 v 0.815841 h -0.815841 z"
           inkscape:connector-curvature="0"
           style="stroke-width:0.26458332" />
        <path
           id="path12427"
           d="m 38.929275,101.44768 h 1.345009 c 0.146115,0 0.264583,-0.11847 0.264583,-0.26459 v -1.345005 c 0,-0.146115 -0.118468,-0.264583 -0.264583,-0.264583 h -1.345009 c -0.146115,0 -0.264583,0.118468 -0.264583,0.264583 v 1.345005 c 0,0.14612 0.118468,0.26459 0.264583,0.26459 z m 0.264584,-1.34501 H 40.0097 v 0.81584 h -0.815841 z"
           inkscape:connector-curvature="0"
           style="stroke-width:0.26458332" />
      </g>
      <g
         transform="matrix(0.16450371,0,0,0.16450371,34.812367,104.249)"
         id="g12451">
        <path
           id="path12431"
           d="m 29.749862,90.91912 c -0.146116,0 -0.264584,0.118469 -0.264584,0.264584 v 0.805894 c 0,0.146115 0.118468,0.264583 0.264584,0.264583 0.146115,0 0.264583,-0.118468 0.264583,-0.264583 v -0.805894 c 0,-0.146115 -0.118468,-0.264584 -0.264583,-0.264584 z"
           inkscape:connector-curvature="0"
           style="stroke-width:0.26458332" />
        <path
           id="path12433"
           d="m 31.135824,90.91912 c -0.146115,0 -0.264584,0.118469 -0.264584,0.264584 v 0.805894 c 0,0.146115 0.118469,0.264583 0.264584,0.264583 0.146115,0 0.264583,-0.118468 0.264583,-0.264583 v -0.805894 c 0,-0.146115 -0.118468,-0.264584 -0.264583,-0.264584 z"
           inkscape:connector-curvature="0"
           style="stroke-width:0.26458332" />
        <path
           id="path12435"
           d="m 32.521785,90.91912 c -0.146115,0 -0.264583,0.118469 -0.264583,0.264584 v 0.805894 c 0,0.146115 0.118468,0.264583 0.264583,0.264583 0.146116,0 0.264584,-0.118468 0.264584,-0.264583 v -0.805894 c 0,-0.146115 -0.118468,-0.264584 -0.264584,-0.264584 z"
           inkscape:connector-curvature="0"
           style="stroke-width:0.26458332" />
        <path
           id="path12437"
           d="m 33.907747,90.91912 c -0.146115,0 -0.264583,0.118469 -0.264583,0.264584 v 0.805894 c 0,0.146115 0.118468,0.264583 0.264583,0.264583 0.146115,0 0.264584,-0.118468 0.264584,-0.264583 v -0.805894 c 0,-0.146115 -0.118469,-0.264584 -0.264584,-0.264584 z"
           inkscape:connector-curvature="0"
           style="stroke-width:0.26458332" />
        <path
           id="path12439"
           d="m 35.293709,90.91912 c -0.146115,0 -0.264583,0.118469 -0.264583,0.264584 v 0.805894 c 0,0.146115 0.118468,0.264583 0.264583,0.264583 0.146116,0 0.264583,-0.118468 0.264583,-0.264583 v -0.805894 c 0,-0.146115 -0.118467,-0.264584 -0.264583,-0.264584 z"
           inkscape:connector-curvature="0"
           style="stroke-width:0.26458332" />
        <path
           id="path12441"
           d="m 22.203036,104.12852 h 20.637499 c 0.146115,0 0.264584,-0.11847 0.264584,-0.26458 v -1.4149 c 0,-0.14612 -0.118469,-0.26459 -0.264584,-0.26459 h -0.323236 v -5.817083 h 0.323236 c 0.146115,0 0.264584,-0.118469 0.264584,-0.264584 v -1.537374 c 0,-0.115109 -0.07429,-0.216911 -0.183969,-0.252051 l -4.370663,-1.39901 c -0.02597,-0.0083 -0.05323,-0.01253 -0.08061,-0.01253 h -1.438801 v -2.698414 h 0.162264 c 0.146115,0 0.264583,-0.118468 0.264583,-0.264583 v -0.179318 c 0,-2.432797 -1.979336,-4.412133 -4.412263,-4.412133 h -0.259286 v -0.237324 h 2.289912 c 0.146115,0 0.264583,-0.118469 0.264583,-0.264584 v -1.429757 c 0,-0.146115 -0.118468,-0.264584 -0.264583,-0.264584 h -2.305173 c -0.03301,-0.108537 -0.130014,-0.189007 -0.249323,-0.189007 -0.146115,0 -0.264583,0.118468 -0.264583,0.264583 v 2.120672 h -0.259286 c -2.432927,0 -4.412263,1.979336 -4.412263,4.412133 v 0.179318 c 0,0.146115 0.118468,0.264583 0.264583,0.264583 H 28.0125 v 2.698414 h -1.438801 c -0.02739,0 -0.05465,0.0043 -0.08062,0.01253 l -4.370663,1.399012 c -0.109684,0.03514 -0.183969,0.136942 -0.183969,0.252051 v 1.537374 c 0,0.146115 0.118469,0.264584 0.264584,0.264584 h 0.404368 v 5.817082 h -0.404368 c -0.146115,0 -0.264584,0.11847 -0.264584,0.26459 v 1.4149 c 0,0.14611 0.118469,0.26458 0.264584,0.26458 z M 34.811697,84.580877 h -2.025328 v -0.900591 h 2.025328 z m 7.176436,17.603573 h -4.772706 v -5.199679 h 0.402688 c 0.146115,0 0.264584,-0.118468 0.264584,-0.264584 v -0.35282 h 4.105434 z M 27.690039,96.455604 v -0.535368 l 4.831746,-0.964282 4.831747,0.964282 v 0.535368 z m 3.144899,0.529167 v 5.199679 h -2.396624 v -5.199679 z m 0.529166,0 h 2.396495 v 5.199679 h -2.396495 z m 2.925661,0 h 2.396495 v 5.199679 H 34.289765 Z M 31.997916,85.876534 h 1.047739 c 2.112662,0 3.836717,1.695891 3.882192,3.797701 h -8.812123 c 0.04547,-2.10181 1.76953,-3.797701 3.882192,-3.797701 z m -3.456249,4.326868 h 7.960237 v 2.698414 h -7.960237 z m -6.074048,4.555148 4.147421,-1.327568 h 11.813491 l 4.147421,1.327568 v 1.07965 h -4.693253 v -0.135005 c 0,-0.126219 -0.08914,-0.23474 -0.212778,-0.259415 l -5.09633,-1.016993 c -0.03411,-0.007 -0.0695,-0.007 -0.103611,0 l -5.09633,1.016993 c -0.123636,0.02468 -0.212778,0.133196 -0.212778,0.259415 V 95.8382 h -4.693253 z m 0.668951,1.608817 h 4.024302 v 0.35282 c 0,0.146116 0.118469,0.264584 0.264584,0.264584 h 0.483691 v 5.199679 H 23.13657 Z m -0.668951,6.346253 h 20.108333 v 0.88573 H 22.467619 Z"
           inkscape:connector-curvature="0"
           style="stroke-width:0.26458332" />
        <path
           id="path12443"
           d="m 26.083548,96.962679 h -1.344879 c -0.146115,0 -0.264583,0.118468 -0.264583,0.264583 v 1.345009 c 0,0.146115 0.118468,0.264583 0.264583,0.264583 h 1.344879 c 0.146115,0 0.264583,-0.118468 0.264583,-0.264583 v -1.345009 c 0,-0.146115 -0.118468,-0.264583 -0.264583,-0.264583 z m -0.264583,1.345008 h -0.815713 v -0.815841 h 0.815713 z"
           inkscape:connector-curvature="0"
           style="stroke-width:0.26458332" />
        <path
           id="path12445"
           d="m 26.083548,99.573502 h -1.344879 c -0.146115,0 -0.264583,0.118468 -0.264583,0.264583 v 1.345005 c 0,0.14612 0.118468,0.26459 0.264583,0.26459 h 1.344879 c 0.146115,0 0.264583,-0.11847 0.264583,-0.26459 v -1.345005 c 0,-0.146115 -0.118468,-0.264583 -0.264583,-0.264583 z m -0.264583,1.345008 h -0.815713 v -0.81584 h 0.815713 z"
           inkscape:connector-curvature="0"
           style="stroke-width:0.26458332" />
        <path
           id="path12447"
           d="m 38.929275,98.836854 h 1.345009 c 0.146115,0 0.264583,-0.118468 0.264583,-0.264583 v -1.345009 c 0,-0.146115 -0.118468,-0.264583 -0.264583,-0.264583 h -1.345009 c -0.146115,0 -0.264583,0.118468 -0.264583,0.264583 v 1.345009 c 0,0.146115 0.118468,0.264583 0.264583,0.264583 z m 0.264584,-1.345008 H 40.0097 v 0.815841 h -0.815841 z"
           inkscape:connector-curvature="0"
           style="stroke-width:0.26458332" />
        <path
           id="path12449"
           d="m 38.929275,101.44768 h 1.345009 c 0.146115,0 0.264583,-0.11847 0.264583,-0.26459 v -1.345005 c 0,-0.146115 -0.118468,-0.264583 -0.264583,-0.264583 h -1.345009 c -0.146115,0 -0.264583,0.118468 -0.264583,0.264583 v 1.345005 c 0,0.14612 0.118468,0.26459 0.264583,0.26459 z m 0.264584,-1.34501 H 40.0097 v 0.81584 h -0.815841 z"
           inkscape:connector-curvature="0"
           style="stroke-width:0.26458332" />
      </g>
      <g
         id="g12473"
         transform="matrix(0.16450371,0,0,0.16450371,49.317203,104.249)">
        <path
           style="stroke-width:0.26458332"
           inkscape:connector-curvature="0"
           d="m 29.749862,90.91912 c -0.146116,0 -0.264584,0.118469 -0.264584,0.264584 v 0.805894 c 0,0.146115 0.118468,0.264583 0.264584,0.264583 0.146115,0 0.264583,-0.118468 0.264583,-0.264583 v -0.805894 c 0,-0.146115 -0.118468,-0.264584 -0.264583,-0.264584 z"
           id="path12453" />
        <path
           style="stroke-width:0.26458332"
           inkscape:connector-curvature="0"
           d="m 31.135824,90.91912 c -0.146115,0 -0.264584,0.118469 -0.264584,0.264584 v 0.805894 c 0,0.146115 0.118469,0.264583 0.264584,0.264583 0.146115,0 0.264583,-0.118468 0.264583,-0.264583 v -0.805894 c 0,-0.146115 -0.118468,-0.264584 -0.264583,-0.264584 z"
           id="path12455" />
        <path
           style="stroke-width:0.26458332"
           inkscape:connector-curvature="0"
           d="m 32.521785,90.91912 c -0.146115,0 -0.264583,0.118469 -0.264583,0.264584 v 0.805894 c 0,0.146115 0.118468,0.264583 0.264583,0.264583 0.146116,0 0.264584,-0.118468 0.264584,-0.264583 v -0.805894 c 0,-0.146115 -0.118468,-0.264584 -0.264584,-0.264584 z"
           id="path12457" />
        <path
           style="stroke-width:0.26458332"
           inkscape:connector-curvature="0"
           d="m 33.907747,90.91912 c -0.146115,0 -0.264583,0.118469 -0.264583,0.264584 v 0.805894 c 0,0.146115 0.118468,0.264583 0.264583,0.264583 0.146115,0 0.264584,-0.118468 0.264584,-0.264583 v -0.805894 c 0,-0.146115 -0.118469,-0.264584 -0.264584,-0.264584 z"
           id="path12459" />
        <path
           style="stroke-width:0.26458332"
           inkscape:connector-curvature="0"
           d="m 35.293709,90.91912 c -0.146115,0 -0.264583,0.118469 -0.264583,0.264584 v 0.805894 c 0,0.146115 0.118468,0.264583 0.264583,0.264583 0.146116,0 0.264583,-0.118468 0.264583,-0.264583 v -0.805894 c 0,-0.146115 -0.118467,-0.264584 -0.264583,-0.264584 z"
           id="path12461" />
        <path
           style="stroke-width:0.26458332"
           inkscape:connector-curvature="0"
           d="m 22.203036,104.12852 h 20.637499 c 0.146115,0 0.264584,-0.11847 0.264584,-0.26458 v -1.4149 c 0,-0.14612 -0.118469,-0.26459 -0.264584,-0.26459 h -0.323236 v -5.817083 h 0.323236 c 0.146115,0 0.264584,-0.118469 0.264584,-0.264584 v -1.537374 c 0,-0.115109 -0.07429,-0.216911 -0.183969,-0.252051 l -4.370663,-1.39901 c -0.02597,-0.0083 -0.05323,-0.01253 -0.08061,-0.01253 h -1.438801 v -2.698414 h 0.162264 c 0.146115,0 0.264583,-0.118468 0.264583,-0.264583 v -0.179318 c 0,-2.432797 -1.979336,-4.412133 -4.412263,-4.412133 h -0.259286 v -0.237324 h 2.289912 c 0.146115,0 0.264583,-0.118469 0.264583,-0.264584 v -1.429757 c 0,-0.146115 -0.118468,-0.264584 -0.264583,-0.264584 h -2.305173 c -0.03301,-0.108537 -0.130014,-0.189007 -0.249323,-0.189007 -0.146115,0 -0.264583,0.118468 -0.264583,0.264583 v 2.120672 h -0.259286 c -2.432927,0 -4.412263,1.979336 -4.412263,4.412133 v 0.179318 c 0,0.146115 0.118468,0.264583 0.264583,0.264583 H 28.0125 v 2.698414 h -1.438801 c -0.02739,0 -0.05465,0.0043 -0.08062,0.01253 l -4.370663,1.399012 c -0.109684,0.03514 -0.183969,0.136942 -0.183969,0.252051 v 1.537374 c 0,0.146115 0.118469,0.264584 0.264584,0.264584 h 0.404368 v 5.817082 h -0.404368 c -0.146115,0 -0.264584,0.11847 -0.264584,0.26459 v 1.4149 c 0,0.14611 0.118469,0.26458 0.264584,0.26458 z M 34.811697,84.580877 h -2.025328 v -0.900591 h 2.025328 z m 7.176436,17.603573 h -4.772706 v -5.199679 h 0.402688 c 0.146115,0 0.264584,-0.118468 0.264584,-0.264584 v -0.35282 h 4.105434 z M 27.690039,96.455604 v -0.535368 l 4.831746,-0.964282 4.831747,0.964282 v 0.535368 z m 3.144899,0.529167 v 5.199679 h -2.396624 v -5.199679 z m 0.529166,0 h 2.396495 v 5.199679 h -2.396495 z m 2.925661,0 h 2.396495 v 5.199679 H 34.289765 Z M 31.997916,85.876534 h 1.047739 c 2.112662,0 3.836717,1.695891 3.882192,3.797701 h -8.812123 c 0.04547,-2.10181 1.76953,-3.797701 3.882192,-3.797701 z m -3.456249,4.326868 h 7.960237 v 2.698414 h -7.960237 z m -6.074048,4.555148 4.147421,-1.327568 h 11.813491 l 4.147421,1.327568 v 1.07965 h -4.693253 v -0.135005 c 0,-0.126219 -0.08914,-0.23474 -0.212778,-0.259415 l -5.09633,-1.016993 c -0.03411,-0.007 -0.0695,-0.007 -0.103611,0 l -5.09633,1.016993 c -0.123636,0.02468 -0.212778,0.133196 -0.212778,0.259415 V 95.8382 h -4.693253 z m 0.668951,1.608817 h 4.024302 v 0.35282 c 0,0.146116 0.118469,0.264584 0.264584,0.264584 h 0.483691 v 5.199679 H 23.13657 Z m -0.668951,6.346253 h 20.108333 v 0.88573 H 22.467619 Z"
           id="path12463" />
        <path
           style="stroke-width:0.26458332"
           inkscape:connector-curvature="0"
           d="m 26.083548,96.962679 h -1.344879 c -0.146115,0 -0.264583,0.118468 -0.264583,0.264583 v 1.345009 c 0,0.146115 0.118468,0.264583 0.264583,0.264583 h 1.344879 c 0.146115,0 0.264583,-0.118468 0.264583,-0.264583 v -1.345009 c 0,-0.146115 -0.118468,-0.264583 -0.264583,-0.264583 z m -0.264583,1.345008 h -0.815713 v -0.815841 h 0.815713 z"
           id="path12465" />
        <path
           style="stroke-width:0.26458332"
           inkscape:connector-curvature="0"
           d="m 26.083548,99.573502 h -1.344879 c -0.146115,0 -0.264583,0.118468 -0.264583,0.264583 v 1.345005 c 0,0.14612 0.118468,0.26459 0.264583,0.26459 h 1.344879 c 0.146115,0 0.264583,-0.11847 0.264583,-0.26459 v -1.345005 c 0,-0.146115 -0.118468,-0.264583 -0.264583,-0.264583 z m -0.264583,1.345008 h -0.815713 v -0.81584 h 0.815713 z"
           id="path12467" />
        <path
           style="stroke-width:0.26458332"
           inkscape:connector-curvature="0"
           d="m 38.929275,98.836854 h 1.345009 c 0.146115,0 0.264583,-0.118468 0.264583,-0.264583 v -1.345009 c 0,-0.146115 -0.118468,-0.264583 -0.264583,-0.264583 h -1.345009 c -0.146115,0 -0.264583,0.118468 -0.264583,0.264583 v 1.345009 c 0,0.146115 0.118468,0.264583 0.264583,0.264583 z m 0.264584,-1.345008 H 40.0097 v 0.815841 h -0.815841 z"
           id="path12469" />
        <path
           style="stroke-width:0.26458332"
           inkscape:connector-curvature="0"
           d="m 38.929275,101.44768 h 1.345009 c 0.146115,0 0.264583,-0.11847 0.264583,-0.26459 v -1.345005 c 0,-0.146115 -0.118468,-0.264583 -0.264583,-0.264583 h -1.345009 c -0.146115,0 -0.264583,0.118468 -0.264583,0.264583 v 1.345005 c 0,0.14612 0.118468,0.26459 0.264583,0.26459 z m 0.264584,-1.34501 H 40.0097 v 0.81584 h -0.815841 z"
           id="path12471" />
      </g>
    </g>
  </g>
</svg>
