<?xml version="1.0" encoding="UTF-8" standalone="no"?>
<svg
   sodipodi:docname="calamity-back.svg"
   inkscape:version="1.2 (1:1.2+202206011326+fc4e4096c5)"
   id="svg8"
   version="1.1"
   viewBox="0 0 69 94"
   height="94mm"
   width="69mm"
   xmlns:inkscape="http://www.inkscape.org/namespaces/inkscape"
   xmlns:sodipodi="http://sodipodi.sourceforge.net/DTD/sodipodi-0.dtd"
   xmlns="http://www.w3.org/2000/svg"
   xmlns:svg="http://www.w3.org/2000/svg"
   xmlns:rdf="http://www.w3.org/1999/02/22-rdf-syntax-ns#"
   xmlns:cc="http://creativecommons.org/ns#"
   xmlns:dc="http://purl.org/dc/elements/1.1/">
  <defs
     id="defs2" />
  <sodipodi:namedview
     inkscape:window-maximized="1"
     inkscape:window-y="0"
     inkscape:window-x="0"
     inkscape:window-height="1088"
     inkscape:window-width="2048"
     showgrid="false"
     inkscape:document-rotation="0"
     inkscape:current-layer="layer1"
     inkscape:document-units="mm"
     inkscape:cy="332.84526"
     inkscape:cx="422.74884"
     inkscape:zoom="0.98994949"
     inkscape:pageshadow="2"
     inkscape:pageopacity="0.0"
     borderopacity="1.0"
     bordercolor="#666666"
     pagecolor="#ffffff"
     id="base"
     inkscape:showpageshadow="2"
     inkscape:pagecheckerboard="0"
     inkscape:deskcolor="#d1d1d1" />
  <metadata
     id="metadata5">
    <rdf:RDF>
      <cc:Work
         rdf:about="">
        <dc:format>image/svg+xml</dc:format>
        <dc:type
           rdf:resource="http://purl.org/dc/dcmitype/StillImage" />
      </cc:Work>
    </rdf:RDF>
  </metadata>
  <g
     id="layer1"
     inkscape:groupmode="layer"
     inkscape:label="Layer 1">
    <rect
       style="stroke-width:0.191891"
       id="rect964"
       fill="#56ccf2"
       height="94"
       width="69.099998"
       x="0"
       y="-1.7763568e-15" />
    <g
       transform="translate(-0.51786464,0.88914031)"
       id="g4486">
      <circle
         cx="43.365898"
         cy="54.174046"
         r="1.2525333"
         fill="#ff0f00"
         id="circle966"
         style="stroke-width:0.156567" />
      <rect
         style="fill:none"
         x="25.986996"
         y="49.477043"
         width="15.5001"
         height="19.570833"
         stroke="#ffffff"
         stroke-width="0.313133"
         id="rect968" />
      <rect
         x="38.825462"
         y="23.173843"
         width="15.5001"
         height="19.570833"
         fill="#ffffff"
         id="rect970"
         style="stroke-width:0.156567" />
      <rect
         x="40.391129"
         y="24.739511"
         width="15.5001"
         height="19.570833"
         fill="#000000"
         id="rect972"
         style="stroke-width:0.156567" />
      <rect
         style="fill:none"
         x="27.552662"
         y="51.042709"
         width="15.5001"
         height="19.570833"
         stroke="#000000"
         stroke-width="0.313133"
         id="rect974" />
      <line
         style="fill:none"
         x1="33.143188"
         y1="51.922302"
         x2="28.401411"
         y2="56.664078"
         stroke="#ffffff"
         stroke-width="0.313133"
         id="line976" />
      <line
         style="fill:none"
         x1="28.401411"
         y1="51.898506"
         x2="33.143188"
         y2="56.640129"
         stroke="#ffffff"
         stroke-width="0.313133"
         id="line978" />
      <rect
         style="fill:none"
         x="27.552662"
         y="51.042709"
         width="6.2626667"
         height="6.2626667"
         stroke="#ffffff"
         stroke-width="0.313133"
         id="rect980" />
      <path
         style="fill:none"
         d="M 38.668896,32.850134 H 21.616751 c -4.590379,0 -8.311655,3.721276 -8.311655,8.311655 0,4.590378 3.721276,8.311654 8.311655,8.311654 h 4.448528"
         stroke="#ffffff"
         stroke-width="0.313133"
         stroke-linecap="round"
         stroke-linejoin="round"
         id="path982" />
      <path
         style="fill:none"
         d="m 36.71056,30.689044 2.169545,2.169544 -2.169545,2.169545"
         stroke="#ffffff"
         stroke-width="0.313133"
         id="path984" />
      <path
         style="fill:none"
         d="m 55.897962,44.153778 c 2.763246,0 5.003401,2.24313 5.003401,5.010133 0,2.767003 -2.240155,5.010134 -5.003401,5.010134 H 43.365896"
         stroke="#000000"
         stroke-width="0.313133"
         id="path986" />
      <path
         style="fill:none"
         d="m 44.658824,55.466189 -1.292928,-1.292927 1.292928,-1.293084"
         stroke="#000000"
         stroke-width="0.313133"
         id="path988" />
      <rect
         x="19.213274"
         y="17.06016"
         width="15.5001"
         height="19.570833"
         transform="rotate(15.000001)"
         fill="#fff500"
         id="rect990"
         style="stroke-width:0.156567" />
      <line
         style="fill:none;stroke-width:0.156567"
         x1="19.121391"
         y1="27.401144"
         x2="19.121391"
         y2="38.331219"
         stroke="#ff6666"
         id="line992" />
      <line
         style="fill:none;stroke-width:0.156567"
         x1="24.108196"
         y1="32.81115"
         x2="14.244495"
         y2="32.81115"
         stroke="#ff6666"
         id="line994" />
      <line
         style="fill:none;stroke-width:0.156567"
         x1="21.457209"
         y1="34.991184"
         x2="17.121565"
         y2="30.655539"
         stroke="#ff6666"
         id="line996" />
      <line
         style="fill:none;stroke-width:0.156567"
         x1="21.30127"
         y1="30.655539"
         x2="16.96578"
         y2="34.991184"
         stroke="#ff6666"
         id="line998" />
      <path
         d="m 48.066341,28.1211 c 0.03507,-0.165319 0.271173,-0.165319 0.306244,1.6e-5 l 0.655858,3.083659 c 0.02521,0.117894 0.168466,0.164395 0.258022,0.08376 l 2.343177,-2.10911 c 0.125566,-0.113197 0.316421,0.02552 0.247688,0.179895 l -1.281811,2.880357 c -0.04901,0.110067 0.03945,0.231876 0.159385,0.21935 l 3.135404,-0.329103 c 0.167996,-0.01769 0.240956,0.206825 0.09457,0.291371 l -2.730053,1.576626 c -0.104273,0.06028 -0.104273,0.210895 0,0.271174 l 2.730053,1.576626 c 0.14639,0.08455 0.07343,0.309062 -0.09457,0.29137 l -3.135404,-0.329103 c -0.11993,-0.01253 -0.20839,0.109284 -0.159385,0.21935 l 1.281811,2.880357 c 0.06873,0.154375 -0.122122,0.293093 -0.247688,0.179895 l -2.343177,-2.109109 c -0.08956,-0.08063 -0.232815,-0.03413 -0.258022,0.08376 l -0.655858,3.083737 c -0.03507,0.165178 -0.271173,0.165178 -0.306244,0 l -0.655858,-3.083737 c -0.02521,-0.117895 -0.168466,-0.164395 -0.258022,-0.08376 l -2.343176,2.109109 c -0.125567,0.113198 -0.316422,-0.02552 -0.247689,-0.179895 l 1.281811,-2.880357 c 0.04901,-0.110066 -0.03945,-0.231875 -0.159384,-0.21935 l -3.135405,0.329103 c -0.167996,0.01769 -0.240956,-0.206824 -0.09457,-0.29137 l 2.730053,-1.576626 c 0.104274,-0.06028 0.104274,-0.210896 0,-0.271174 l -2.730053,-1.576626 c -0.14639,-0.08455 -0.07343,-0.309063 0.09457,-0.291371 l 3.135405,0.329103 c 0.11993,0.01253 0.20839,-0.109283 0.159384,-0.21935 L 44.561596,29.35932 c -0.06873,-0.154374 0.122122,-0.293092 0.247689,-0.179895 l 2.343176,2.10911 c 0.08956,0.08063 0.232815,0.03413 0.258022,-0.08376 z"
         fill="#fff500"
         id="path1000"
         style="stroke-width:0.156567" />
      <circle
         cx="38.825462"
         cy="32.880978"
         r="1.2525333"
         fill="#fff500"
         id="circle1002"
         style="stroke-width:0.156567" />
      <path
         style="fill:none;stroke-width:0.156567"
         d="m 33.280341,59.454412 c 5.743648,-0.727878 7.591135,2.278358 2.0886,2.278358 -5.502536,0 -4.458236,-1.259422 0,-1.259422 4.458236,0 4.177198,3.165935 0,3.165935 -2.731149,0 -3.213218,-0.96633 -0.04024,-0.96633 2.741013,0 3.651761,1.991058 -0.806632,1.991058"
         stroke="#fff500"
         id="path1004" />
    </g>
  </g>
</svg>
