<?xml version="1.0" encoding="UTF-8" standalone="no"?>
<svg
   xmlns:dc="http://purl.org/dc/elements/1.1/"
   xmlns:cc="http://creativecommons.org/ns#"
   xmlns:rdf="http://www.w3.org/1999/02/22-rdf-syntax-ns#"
   xmlns:svg="http://www.w3.org/2000/svg"
   xmlns="http://www.w3.org/2000/svg"
   xmlns:sodipodi="http://sodipodi.sourceforge.net/DTD/sodipodi-0.dtd"
   xmlns:inkscape="http://www.inkscape.org/namespaces/inkscape"
   version="1.1"
   x="0px"
   y="0px"
   viewBox="0 0 80 79.999023"
   xml:space="preserve"
   id="svg7101"
   sodipodi:docname="noun_Government_1984944.svg"
   width="80"
   height="79.999023"
   inkscape:version="0.92.3 (2405546, 2018-03-11)"><metadata
     id="metadata7107"><rdf:RDF><cc:Work
         rdf:about=""><dc:format>image/svg+xml</dc:format><dc:type
           rdf:resource="http://purl.org/dc/dcmitype/StillImage" /><dc:title></dc:title></cc:Work></rdf:RDF></metadata><defs
     id="defs7105" /><sodipodi:namedview
     pagecolor="#ffffff"
     bordercolor="#666666"
     borderopacity="1"
     objecttolerance="10"
     gridtolerance="10"
     guidetolerance="10"
     inkscape:pageopacity="0"
     inkscape:pageshadow="2"
     inkscape:window-width="1853"
     inkscape:window-height="2049"
     id="namedview7103"
     showgrid="false"
     fit-margin-top="0"
     fit-margin-left="0"
     fit-margin-right="0"
     fit-margin-bottom="0"
     inkscape:zoom="1.888"
     inkscape:cx="-97.182203"
     inkscape:cy="27.5"
     inkscape:window-x="134"
     inkscape:window-y="55"
     inkscape:window-maximized="0"
     inkscape:current-layer="svg7101" /><path
     d="m 29.523437,30.07373 c -0.552246,0 -1,0.447754 -1,1 v 3.045898 c 0,0.552246 0.447754,1 1,1 0.552247,0 1,-0.447754 1,-1 V 31.07373 c 0,-0.552246 -0.447753,-1 -1,-1 z"
     id="path7077"
     inkscape:connector-curvature="0" /><path
     d="m 34.761719,30.07373 c -0.552246,0 -1,0.447754 -1,1 v 3.045898 c 0,0.552246 0.447754,1 1,1 0.552246,0 1,-0.447754 1,-1 V 31.07373 c 0,-0.552246 -0.447754,-1 -1,-1 z"
     id="path7079"
     inkscape:connector-curvature="0" /><path
     d="m 40,30.07373 c -0.552246,0 -1,0.447754 -1,1 v 3.045898 c 0,0.552246 0.447754,1 1,1 0.552246,0 1,-0.447754 1,-1 V 31.07373 c 0,-0.552246 -0.447754,-1 -1,-1 z"
     id="path7081"
     inkscape:connector-curvature="0" /><path
     d="m 45.238281,30.07373 c -0.552246,0 -1,0.447754 -1,1 v 3.045898 c 0,0.552246 0.447754,1 1,1 0.552246,0 1,-0.447754 1,-1 V 31.07373 c 0,-0.552246 -0.447754,-1 -1,-1 z"
     id="path7083"
     inkscape:connector-curvature="0" /><path
     d="m 50.476562,30.07373 c -0.552246,0 -1,0.447754 -1,1 v 3.045898 c 0,0.552246 0.447754,1 1,1 0.552247,0 1,-0.447754 1,-1 V 31.07373 c 0,-0.552246 -0.447753,-1 -1,-1 z"
     id="path7085"
     inkscape:connector-curvature="0" /><path
     d="m 1,79.999023 h 78 c 0.552246,0 1,-0.447754 1,-1 v -5.347656 c 0,-0.552246 -0.447754,-1 -1,-1 H 77.77832 V 50.665527 H 79 c 0.552246,0 1,-0.447754 1,-1 V 43.85498 c 0,-0.435059 -0.280762,-0.819824 -0.695313,-0.952637 L 62.785645,37.614746 c -0.09815,-0.03125 -0.201172,-0.04736 -0.304688,-0.04736 h -5.437988 v -10.19873 h 0.613281 c 0.552246,0 1,-0.447754 1,-1 v -0.677734 c 0,-9.194825 -7.480957,-16.6757816 -16.67627,-16.6757816 H 41 v -0.896972 h 8.654785 c 0.552246,0 1,-0.447754 1,-1 v -5.403809 c 0,-0.552246 -0.447754,-1 -1,-1 H 40.942322 C 40.817566,0.3041384 40.450928,4e-7 40,4e-7 c -0.552246,0 -1,0.447754 -1,1 v 8.015136 h -0.979981 c -9.195312,0 -16.676269,7.4809566 -16.676269,16.6757816 v 0.677734 c 0,0.552246 0.447754,1 1,1 h 0.613281 v 10.19873 h -5.437988 c -0.103516,0 -0.206543,0.01611 -0.304688,0.04736 L 0.695313,42.902343 C 0.280762,43.035156 0,43.419921 0,43.85498 v 5.810547 c 0,0.552246 0.447754,1 1,1 h 1.52832 v 21.98584 H 1 c -0.552246,0 -1,0.447754 -1,1 v 5.347656 c 0,0.552246 0.447754,1 1,1 z M 48.654785,6.1181644 H 41 v -3.403809 h 7.654785 z M 75.77832,72.651367 H 57.739746 V 52.999023 h 1.521973 c 0.552246,0 1,-0.447754 1,-1 V 50.665527 H 75.77832 Z M 21.738281,50.999023 V 48.975585 L 40,45.331054 58.261719,48.975585 v 2.023438 z m 11.886231,2 V 72.651367 H 24.566406 V 52.999023 Z m 2,0 h 9.057617 v 19.652344 h -9.057617 z m 11.057617,0 h 9.057617 v 19.652344 h -9.057617 z m -8.66211,-41.983887 h 3.959961 c 7.984864,0 14.500977,6.409668 14.672852,14.353516 H 23.347168 C 23.519043,17.424804 30.035156,11.015136 38.020019,11.015136 Z M 24.957031,27.368652 h 30.085938 v 10.19873 H 24.957031 Z M 2,44.58496 17.675293,39.567382 H 62.324707 L 78,44.58496 v 4.080567 H 60.261719 v -0.510254 c 0,-0.477051 -0.336914,-0.887207 -0.804199,-0.980469 l -19.261719,-3.84375 c -0.128906,-0.02637 -0.262695,-0.02637 -0.391602,0 l -19.261719,3.84375 c -0.467285,0.09326 -0.804199,0.503418 -0.804199,0.980469 v 0.510254 H 2 Z m 2.52832,6.080567 h 15.209961 v 1.333496 c 0,0.552246 0.447754,1 1,1 h 1.828125 V 72.651367 H 4.52832 Z M 2,74.651367 h 76 v 3.347656 H 2 Z"
     id="path7087"
     inkscape:connector-curvature="0" /><path
     d="m 15.666504,52.915527 h -5.083008 c -0.552246,0 -1,0.447754 -1,1 v 5.083496 c 0,0.552246 0.447754,1 1,1 h 5.083008 c 0.552246,0 1,-0.447754 1,-1 v -5.083496 c 0,-0.552246 -0.447754,-1 -1,-1 z m -1,5.083496 h -3.083008 v -3.083496 h 3.083008 z"
     id="path7089"
     inkscape:connector-curvature="0" /><path
     d="m 15.666504,62.783203 h -5.083008 c -0.552246,0 -1,0.447754 -1,1 v 5.083496 c 0,0.552246 0.447754,1 1,1 h 5.083008 c 0.552246,0 1,-0.447754 1,-1 v -5.083496 c 0,-0.552246 -0.447754,-1 -1,-1 z m -1,5.083496 h -3.083008 v -3.083496 h 3.083008 z"
     id="path7091"
     inkscape:connector-curvature="0" /><path
     d="m 64.217285,59.999023 h 5.083496 c 0.552246,0 1,-0.447754 1,-1 v -5.083496 c 0,-0.552246 -0.447754,-1 -1,-1 h -5.083496 c -0.552246,0 -1,0.447754 -1,1 v 5.083496 c 0,0.552246 0.447754,1 1,1 z m 1,-5.083496 h 3.083496 v 3.083496 h -3.083496 z"
     id="path7093"
     inkscape:connector-curvature="0" /><path
     d="m 64.217285,69.866699 h 5.083496 c 0.552246,0 1,-0.447754 1,-1 v -5.083496 c 0,-0.552246 -0.447754,-1 -1,-1 h -5.083496 c -0.552246,0 -1,0.447754 -1,1 v 5.083496 c 0,0.552246 0.447754,1 1,1 z m 1,-5.083496 h 3.083496 v 3.083496 h -3.083496 z"
     id="path7095"
     inkscape:connector-curvature="0" /></svg>