<?xml version="1.0" encoding="UTF-8" standalone="no"?>
<svg
   xmlns:dc="http://purl.org/dc/elements/1.1/"
   xmlns:cc="http://creativecommons.org/ns#"
   xmlns:rdf="http://www.w3.org/1999/02/22-rdf-syntax-ns#"
   xmlns:svg="http://www.w3.org/2000/svg"
   xmlns="http://www.w3.org/2000/svg"
   xmlns:sodipodi="http://sodipodi.sourceforge.net/DTD/sodipodi-0.dtd"
   xmlns:inkscape="http://www.inkscape.org/namespaces/inkscape"
   data-name="Layer 1"
   viewBox="0 0 464.01266 444.0025"
   x="0px"
   y="0px"
   version="1.1"
   id="svg10239"
   sodipodi:docname="noun_monitor bug_2607404.svg"
   width="464.01266"
   height="444.0025"
   inkscape:version="0.92.3 (2405546, 2018-03-11)">
  <metadata
     id="metadata10245">
    <rdf:RDF>
      <cc:Work
         rdf:about="">
        <dc:format>image/svg+xml</dc:format>
        <dc:type
           rdf:resource="http://purl.org/dc/dcmitype/StillImage" />
        <dc:title>Monitor Bug</dc:title>
      </cc:Work>
    </rdf:RDF>
  </metadata>
  <defs
     id="defs10243" />
  <sodipodi:namedview
     pagecolor="#ffffff"
     bordercolor="#666666"
     borderopacity="1"
     objecttolerance="10"
     gridtolerance="10"
     guidetolerance="10"
     inkscape:pageopacity="0"
     inkscape:pageshadow="2"
     inkscape:window-width="1853"
     inkscape:window-height="2049"
     id="namedview10241"
     showgrid="false"
     fit-margin-top="0"
     fit-margin-left="0"
     fit-margin-right="0"
     fit-margin-bottom="0"
     inkscape:zoom="0.36875"
     inkscape:cx="-470.36654"
     inkscape:cy="158"
     inkscape:window-x="134"
     inkscape:window-y="55"
     inkscape:window-maximized="0"
     inkscape:current-layer="svg10239" />
  <title
     id="title10229">Monitor Bug</title>
  <path
     d="M 5.6893372,373.00251 H 164.08934 l -16.635,59 h -28.981 a 6,6 0 1 0 0,12 h 227.066 a 6,6 0 0 0 0,-12 h -28.984 l -16.635,-59 h 158.4 a 5.8,5.8 0 0 0 5.686,-6.07 v -69 0 -12 0 V 5.744512 a 5.522,5.522 0 0 0 -5.684,-5.74200002 H 5.6893372 A 5.521,5.521 0 0 0 0.00633719,5.744512 V 366.93251 a 5.8,5.8 0 0 0 5.68300001,6.07 z m 298.4000028,59 h -144.169 l 16.635,-59 h 110.9 z M 12.006337,12.002512 H 452.00634 V 286.00251 H 12.006337 Z M 452.00634,298.00251 v 63 H 12.006337 v -63 z"
     id="path10231"
     inkscape:connector-curvature="0" />
  <path
     d="m 338.00634,167.75151 a 6,6 0 0 0 6,-6 v -10.523 c 0,-13.547 -11.49,-24.226 -25.037,-24.226 h -14.963 v -2.079 a 42.807,42.807 0 0 0 -42.909,-42.920998 h -9.091 v -14.333 a 12.871,12.871 0 0 1 12.805,-12.667 h 10.522 a 6,6 0 0 0 0,-12 h -10.522 a 24.884,24.884 0 0 0 -24.805,24.667 v 14.333 h -16 v -14.333 a 24.884,24.884 0 0 0 -24.8,-24.667 h -10.527 a 6,6 0 0 0 0,12 h 10.527 a 12.871,12.871 0 0 1 12.8,12.667 v 14.333 h -9.091 a 42.807,42.807 0 0 0 -42.909,42.920998 v 2.079 h -14.963 c -13.547,0 -25.037,10.679 -25.037,24.226 v 10.523 a 6,6 0 1 0 12,0 v -10.523 c 0,-6.926 6.107,-12.226 13.037,-12.226 h 14.963 v 53 h -14.963 c -13.547,0 -25.037,10.669 -25.037,24.216 v 10.523 a 6,6 0 0 0 12,0 v -10.523 c 0,-6.93 6.107,-12.216 13.037,-12.216 h 14.963 v 13.764 a 43.076,43.076 0 0 0 42.909,43.236 h 58.182 a 43.076,43.076 0 0 0 42.909,-43.236 v -13.764 h 14.963 c 6.93,0 13.037,5.286 13.037,12.216 v 10.523 a 6,6 0 1 0 12,0 v -10.523 c 0,-13.547 -11.49,-24.216 -25.037,-24.216 h -14.963 v -53 h 14.963 c 6.93,0 13.037,5.3 13.037,12.226 v 10.523 a 6,6 0 0 0 6,6 z m -135.091,-73.748998 h 58.182 a 30.794,30.794 0 0 1 30.909,30.920998 v 22.079 h -120 v -22.079 a 30.794,30.794 0 0 1 30.909,-30.920998 z m -30.909,123.763998 v -58.764 h 54 v 90 h -23.091 a 31.063,31.063 0 0 1 -30.909,-31.236 z m 89.091,31.236 h -23.091 v -90 h 54 v 58.764 a 31.063,31.063 0 0 1 -30.909,31.236 z"
     id="path10233"
     inkscape:connector-curvature="0" />
</svg>
