<?xml version="1.0" encoding="UTF-8" standalone="no"?>
<svg
   xmlns:dc="http://purl.org/dc/elements/1.1/"
   xmlns:cc="http://creativecommons.org/ns#"
   xmlns:rdf="http://www.w3.org/1999/02/22-rdf-syntax-ns#"
   xmlns:svg="http://www.w3.org/2000/svg"
   xmlns="http://www.w3.org/2000/svg"
   xmlns:sodipodi="http://sodipodi.sourceforge.net/DTD/sodipodi-0.dtd"
   xmlns:inkscape="http://www.inkscape.org/namespaces/inkscape"
   version="1.1"
   x="0px"
   y="0px"
   viewBox="0 0 80.000977 80"
   xml:space="preserve"
   id="svg8861"
   sodipodi:docname="noun_political_2003975.svg"
   width="80.000977"
   height="80"
   inkscape:version="0.92.3 (2405546, 2018-03-11)"><metadata
     id="metadata8867"><rdf:RDF><cc:Work
         rdf:about=""><dc:format>image/svg+xml</dc:format><dc:type
           rdf:resource="http://purl.org/dc/dcmitype/StillImage" /><dc:title></dc:title></cc:Work></rdf:RDF></metadata><defs
     id="defs8865" /><sodipodi:namedview
     pagecolor="#ffffff"
     bordercolor="#666666"
     borderopacity="1"
     objecttolerance="10"
     gridtolerance="10"
     guidetolerance="10"
     inkscape:pageopacity="0"
     inkscape:pageshadow="2"
     inkscape:window-width="1853"
     inkscape:window-height="2049"
     id="namedview8863"
     showgrid="false"
     fit-margin-top="0"
     fit-margin-left="0"
     fit-margin-right="0"
     fit-margin-bottom="0"
     inkscape:zoom="1.888"
     inkscape:cx="-97.181227"
     inkscape:cy="27.5"
     inkscape:window-x="134"
     inkscape:window-y="55"
     inkscape:window-maximized="0"
     inkscape:current-layer="svg8861" /><path
     d="m 32.720704,70.868164 h 39.29248 c 0.552246,0 1,-0.447265 1,-1 V 64.5 c 0,-0.552734 -0.447754,-1 -1,-1 H 71.512696 V 49.348633 h 0.500488 c 0.552246,0 1,-0.447266 1,-1 v -3.671875 c 0,-0.378906 -0.214355,-0.725586 -0.554199,-0.895508 l -6.70459,-3.34082 c -0.138184,-0.06836 -0.291016,-0.104493 -0.445801,-0.104493 h -2.283203 v -7.103515 h 0.498535 c 0.552246,0 1,-0.5 1,-1.052735 0,-6.3656 -4.920776,-11.595031 -11.156738,-12.106567 v -1.535034 c 0,-0.552734 -0.447754,-1 -1,-1 -0.552246,0 -1,0.447266 -1,1 v 1.535095 c -6.235962,0.511658 -11.156738,5.743591 -11.156738,12.159241 0,0.552734 0.447754,1 1,1 h 0.498047 v 7.103515 h -2.283203 c -0.154786,0 -0.307618,0.03613 -0.445801,0.104493 l -6.70459,3.34082 c -0.339844,0.169922 -0.554199,0.516602 -0.554199,0.895508 v 3.671875 c 0,0.552734 0.447754,1 1,1 H 33.22168 V 63.5 h -0.500976 c -0.552246,0 -1,0.447266 -1,1 v 5.368164 c 0,0.552734 0.447754,1 1,1 z m 38.29248,-2 H 33.720704 V 65.5 h 37.29248 z M 56.86084,63.5 V 51.818359 h 4.987305 V 63.5 Z m -2,-11.681641 V 63.5 H 49.873536 V 51.818359 Z m 8.677735,-2 H 41.195801 v -1.603515 l 11.171387,-2.229492 11.171387,2.229492 z m -15.665039,2 V 63.5 H 42.886231 V 51.818359 Z M 69.512696,63.5 H 63.848145 V 51.818359 h 0.69043 c 0.552246,0 1,-0.447265 1,-1 v -1.469726 h 3.974121 z M 61.025391,40.335937 h -4.438965 v -7.103515 h 4.438965 z m -6.438965,-7.103515 v 7.103515 H 50.147461 V 33.232422 Z M 52.367188,22.022461 c 5.28125,0 9.633789,4.051758 10.112793,9.209961 H 42.254395 c 0.479004,-5.158203 4.831543,-9.209961 10.112793,-9.209961 z m -8.658692,11.209961 h 4.438965 v 7.103515 h -4.438965 z m -9.987792,12.063476 5.939941,-2.959961 h 25.412598 l 5.939941,2.959961 v 2.052735 h -5.482666 c -0.02173,-0.456055 -0.344543,-0.84491 -0.796142,-0.934571 l -12.171387,-2.42871 c -0.129883,-0.02539 -0.261719,-0.02539 -0.391602,0 l -12.171386,2.42871 c -0.4516,0.08966 -0.774415,0.478516 -0.796143,0.934571 h -5.483154 z m 1.500976,4.052735 h 3.974121 v 1.469726 c 0,0.552735 0.447754,1 1,1 h 0.69043 V 63.5 H 35.22168 Z"
     id="path8849"
     inkscape:connector-curvature="0" /><path
     d="m 80.000977,9.40625 c 0,-0.552734 -0.447754,-1 -1,-1 H 55.267579 V 1 c 0,-0.552734 -0.447754,-1 -1,-1 H 0.9999996 C 0.4477536,0 0,0.447266 0,1 v 69.59375 c 0,0.552734 0.4477536,1 0.9999996,1 H 24.732911 V 79 c 0,0.552734 0.447753,1 1,1 h 53.268066 c 0.552246,0 1,-0.447266 1,-1 z M 1.9999996,69.59375 V 2 H 53.267578 V 8.40625 H 25.73291 c -0.552246,0 -1,0.447266 -1,1 v 2.417969 H 10.395508 c -0.5522464,0 -1.0000004,0.447265 -1.0000004,1 0,0.552734 0.447754,1 1.0000004,1 H 24.73291 v 4.751953 H 10.395508 c -0.5522464,0 -1.0000004,0.447265 -1.0000004,1 0,0.552734 0.447754,1 1.0000004,1 H 24.73291 v 4.751953 H 10.395508 c -0.5522464,0 -1.0000004,0.447266 -1.0000004,1 0,0.552734 0.447754,1 1.0000004,1 H 24.73291 v 4.75293 H 10.395508 c -0.5522464,0 -1.0000004,0.447265 -1.0000004,1 0,0.552734 0.447754,1 1.0000004,1 H 24.73291 V 69.59375 Z M 78.000977,78 H 26.732911 V 10.40625 h 51.268066 z"
     id="path8851"
     inkscape:connector-curvature="0" /><path
     d="m 10.395508,53.195312 h 6.854004 c 0.552246,0 1,-0.447265 1,-1 0,-0.552734 -0.447754,-1 -1,-1 h -6.854004 c -0.5522464,0 -1.0000004,0.447266 -1.0000004,1 0,0.552735 0.447754,1 1.0000004,1 z"
     id="path8853"
     inkscape:connector-curvature="0" /><path
     d="m 17.249512,57.947266 h -6.854004 c -0.5522464,0 -1.0000004,0.447265 -1.0000004,1 0,0.552734 0.447754,1 1.0000004,1 h 6.854004 c 0.552246,0 1,-0.447266 1,-1 0,-0.552735 -0.447754,-1 -1,-1 z"
     id="path8855"
     inkscape:connector-curvature="0" /></svg>