<?xml version="1.0" encoding="UTF-8" standalone="no"?>
<svg
   xmlns:dc="http://purl.org/dc/elements/1.1/"
   xmlns:cc="http://creativecommons.org/ns#"
   xmlns:rdf="http://www.w3.org/1999/02/22-rdf-syntax-ns#"
   xmlns:svg="http://www.w3.org/2000/svg"
   xmlns="http://www.w3.org/2000/svg"
   xmlns:sodipodi="http://sodipodi.sourceforge.net/DTD/sodipodi-0.dtd"
   xmlns:inkscape="http://www.inkscape.org/namespaces/inkscape"
   version="1.1"
   x="0px"
   y="0px"
   viewBox="0 0 80 80"
   xml:space="preserve"
   id="svg6462"
   sodipodi:docname="noun_Government_1989687.svg"
   width="80"
   height="80"
   inkscape:version="0.92.3 (2405546, 2018-03-11)"><metadata
     id="metadata6468"><rdf:RDF><cc:Work
         rdf:about=""><dc:format>image/svg+xml</dc:format><dc:type
           rdf:resource="http://purl.org/dc/dcmitype/StillImage" /><dc:title></dc:title></cc:Work></rdf:RDF></metadata><defs
     id="defs6466" /><sodipodi:namedview
     pagecolor="#ffffff"
     bordercolor="#666666"
     borderopacity="1"
     objecttolerance="10"
     gridtolerance="10"
     guidetolerance="10"
     inkscape:pageopacity="0"
     inkscape:pageshadow="2"
     inkscape:window-width="1853"
     inkscape:window-height="2049"
     id="namedview6464"
     showgrid="false"
     fit-margin-top="0"
     fit-margin-left="0"
     fit-margin-right="0"
     fit-margin-bottom="0"
     inkscape:zoom="1.888"
     inkscape:cx="-97.203688"
     inkscape:cy="27.5"
     inkscape:window-x="134"
     inkscape:window-y="55"
     inkscape:window-maximized="0"
     inkscape:current-layer="svg6462" /><path
     d="m 40,22.328125 c -9.74414,0 -17.671875,7.927734 -17.671875,17.671875 0,2.038025 0.364319,3.988281 1.002015,5.811462 0.01086,0.194641 0.0827,0.366639 0.189209,0.515869 2.552429,6.623902 8.968139,11.344544 16.480651,11.344544 2.45e-4,0 5.5e-4,-6.1e-5 7.94e-4,-6.1e-5 6.1e-5,0 1.22e-4,6.1e-5 1.83e-4,6.1e-5 1.83e-4,0 3.05e-4,-6.1e-5 4.88e-4,-6.1e-5 C 49.744996,57.670959 57.671875,49.743652 57.671875,40 57.671875,30.255859 49.744141,22.328125 40,22.328125 Z m 14.004517,10.678223 h -5.526001 c -1.307556,-3.763184 -3.434998,-6.565552 -5.042297,-8.286621 4.634887,1.042175 8.489257,4.140991 10.568298,8.286621 z M 24.328125,40 c 0,-1.747315 0.299805,-3.422913 0.829834,-4.993652 h 5.792054 C 30.573548,36.543579 30.333985,38.20166 30.333985,40 c 0,1.702576 0.23291,3.281494 0.597107,4.757812 H 25.071473 C 24.591736,43.256104 24.328125,41.658813 24.328125,40 Z m 8.00586,0 c 0,-1.804504 0.263794,-3.469605 0.685547,-4.993652 H 39 v 9.751464 H 32.993287 C 32.585144,43.293945 32.333985,41.706604 32.333985,40 Z M 46.327027,33.006348 H 41 v -7.887696 c 1.327088,1.253235 3.791565,3.959656 5.327027,7.887696 z M 39,25.207519 v 7.798829 H 33.694214 C 35.212525,29.187439 37.634156,26.50415 39,25.207519 Z m 0,21.550293 v 7.734375 c -1.546203,-1.48352 -3.866638,-4.136169 -5.322509,-7.734375 z m 2,7.722779 v -7.722779 h 5.317505 C 44.85846,50.354126 42.544312,52.995666 41,54.480591 Z m 0,-9.722779 v -9.751464 h 5.995362 c 0.413391,1.522461 0.669677,3.188537 0.669677,4.993652 0,1.707275 -0.259216,3.291748 -0.669983,4.757812 z m 8.056824,-9.751464 h 5.785217 c 0.53003,1.570739 0.829834,3.246338 0.829834,4.993652 0,1.658813 -0.26361,3.256104 -0.743347,4.757812 H 49.067993 C 49.43219,43.281494 49.665039,41.702576 49.665039,40 c 0,-1.798279 -0.236511,-3.456421 -0.608215,-4.993652 z M 36.667847,24.692871 c -1.631653,1.719727 -3.801514,4.532593 -5.13208,8.313477 h -5.540283 c 2.094787,-4.177002 5.990722,-7.294922 10.672363,-8.313477 z M 25.881714,46.757812 h 5.647278 c 1.395081,3.894227 3.733398,6.822205 5.51178,8.625 -4.934937,-0.947753 -9.040894,-4.218505 -11.159058,-8.625 z m 17.07721,8.625 c 1.778259,-1.802795 4.116211,-4.730712 5.511169,-8.625 h 5.648193 c -2.118225,4.406556 -6.224365,7.677308 -11.159362,8.625 z"
     id="path6440"
     inkscape:connector-curvature="0" /><path
     d="m 78.635743,14.390625 c 0,-7.182617 -5.84375,-13.026367 -13.026368,-13.026367 -7.182617,0 -13.026367,5.84375 -13.026367,13.026367 0,7.182617 5.84375,13.026367 13.026367,13.026367 7.182618,0 13.026368,-5.84375 13.026368,-13.026367 z m -19.603638,8.82904 c 0.121704,-2.801513 1.952148,-5.202514 4.657348,-6.023864 0.384766,-0.117188 0.663086,-0.45459 0.704102,-0.855469 0.04102,-0.400879 -0.163086,-0.787109 -0.516602,-0.979981 -1.27246,-0.692871 -2.063476,-2.021484 -2.063476,-3.468261 0,-2.175781 1.770508,-3.946289 3.946289,-3.946289 2.175781,0 3.946289,1.770507 3.946289,3.946289 0,1.489746 -0.828125,2.836426 -2.161133,3.515136 -0.360351,0.182618 -0.574219,0.563965 -0.543945,0.966309 0.03027,0.402344 0.299805,0.74707 0.682617,0.874023 2.61322,0.865906 4.38263,3.244812 4.503235,5.971924 -1.838806,1.373535 -4.110901,2.19751 -6.577454,2.19751 -2.46643,0 -4.738464,-0.823913 -6.57727,-2.197327 z m -4.449097,-8.82904 c 0,-6.080078 4.946289,-11.026367 11.026367,-11.026367 6.080078,0 11.026368,4.946289 11.026368,11.026367 0,2.736389 -1.007874,5.237671 -2.664063,7.167236 C 73.438172,19.267395 71.998536,17.287048 69.964844,16.095703 71.06543,15 71.706055,13.501465 71.706055,11.89209 c 0,-3.278809 -2.667969,-5.946289 -5.946289,-5.946289 -3.27832,0 -5.946289,2.66748 -5.946289,5.946289 0,1.54541 0.598633,3.000976 1.629883,4.089355 -2.140808,1.174927 -3.650574,3.201355 -4.197083,5.575562 -1.655762,-1.929383 -2.663269,-4.43042 -2.663269,-7.166382 z"
     id="path6442"
     inkscape:connector-curvature="0" /><path
     d="m 14.390625,1.364258 c -7.1826174,0 -13.0263674,5.84375 -13.0263674,13.026367 0,7.182617 5.84375,13.026367 13.0263674,13.026367 7.182618,0 13.026368,-5.84375 13.026368,-13.026367 0,-7.182617 -5.84375,-13.026367 -13.026368,-13.026367 z M 7.8124386,23.218933 c 0.122071,-2.800781 1.952332,-5.201843 4.6582644,-6.023132 0.384766,-0.117188 0.663086,-0.45459 0.704102,-0.855469 0.04102,-0.400879 -0.163086,-0.787109 -0.516602,-0.979981 -1.27246,-0.692871 -2.063476,-2.021484 -2.063476,-3.468261 0,-2.175781 1.770508,-3.946289 3.946268,-3.946289 2.175802,0 3.94631,1.770507 3.94631,3.946289 0,1.489258 -0.828125,2.836426 -2.162109,3.515136 -0.359375,0.183106 -0.573243,0.564454 -0.542969,0.966797 0.03027,0.402344 0.299804,0.746582 0.682617,0.873536 2.61322,0.865905 4.382629,3.244812 4.503235,5.971923 -1.838806,1.373536 -4.110901,2.19751 -6.577454,2.19751 -2.466858,0 -4.7392574,-0.824219 -6.5781864,-2.198059 z M 22.75293,21.5578 c -0.533508,-2.290588 -1.973266,-4.270691 -4.007812,-5.462097 1.101562,-1.096191 1.742187,-2.594727 1.742187,-4.203613 0,-3.278809 -2.667969,-5.946289 -5.94631,-5.946289 -3.278299,0 -5.9462684,2.66748 -5.9462684,5.946289 0,1.54541 0.598633,3.000976 1.6289064,4.089355 -2.1397704,1.174805 -3.6499024,3.200928 -4.1967774,5.574768 -1.655335,-1.929321 -2.662598,-4.429992 -2.662598,-7.165588 0,-6.080078 4.946289,-11.026367 11.0263674,-11.026367 6.080078,0 11.026368,4.946289 11.026368,11.026367 0,2.736389 -1.007874,5.237671 -2.664063,7.167175 z"
     id="path6444"
     inkscape:connector-curvature="0" /><path
     d="m 65.609375,78.741211 c 7.182618,0 13.026368,-5.84375 13.026368,-13.026367 0,-7.182617 -5.84375,-13.026367 -13.026368,-13.026367 -7.182617,0 -13.026367,5.84375 -13.026367,13.026367 0,7.182617 5.84375,13.026367 13.026367,13.026367 z m -6.57727,-4.197327 c 0.121704,-2.801513 1.952148,-5.202514 4.657348,-6.023864 0.384766,-0.117188 0.663086,-0.45459 0.704102,-0.855469 0.04102,-0.400879 -0.163086,-0.78711 -0.516602,-0.979981 -1.27246,-0.692871 -2.063476,-2.021484 -2.063476,-3.468261 0,-2.175782 1.770508,-3.946289 3.946289,-3.946289 2.175781,0 3.946289,1.770507 3.946289,3.946289 0,1.489746 -0.828125,2.836425 -2.161133,3.515136 -0.360351,0.182617 -0.574219,0.563965 -0.543945,0.966309 0.03027,0.402344 0.299805,0.74707 0.682617,0.874023 2.61322,0.865906 4.38263,3.244812 4.503235,5.971924 -1.838806,1.373535 -4.110901,2.19751 -6.577454,2.19751 -2.46643,0 -4.738464,-0.823914 -6.57727,-2.197327 z m 6.57727,-19.855407 c 6.080078,0 11.026368,4.946289 11.026368,11.026367 0,2.736389 -1.007874,5.237671 -2.664063,7.167236 -0.533508,-2.290466 -1.973144,-4.270813 -4.006836,-5.462158 1.100586,-1.095703 1.741211,-2.594238 1.741211,-4.203613 0,-3.278809 -2.667969,-5.94629 -5.946289,-5.94629 -3.27832,0 -5.946289,2.667481 -5.946289,5.94629 0,1.54541 0.598633,3.000976 1.629883,4.089355 -2.140808,1.174927 -3.650574,3.201355 -4.197083,5.575562 -1.655761,-1.929383 -2.663269,-4.43042 -2.663269,-7.166382 0,-6.080078 4.946289,-11.026367 11.026367,-11.026367 z"
     id="path6446"
     inkscape:connector-curvature="0" /><path
     d="m 14.390625,78.741211 c 7.182618,0 13.026368,-5.84375 13.026368,-13.026367 0,-7.182617 -5.84375,-13.026367 -13.026368,-13.026367 -7.1826174,0 -13.0263674,5.84375 -13.0263674,13.026367 0,7.182617 5.84375,13.026367 13.0263674,13.026367 z M 7.8124386,74.543152 c 0.122071,-2.800781 1.952332,-5.201843 4.6582644,-6.023132 0.384766,-0.117188 0.663086,-0.45459 0.704102,-0.855469 0.04102,-0.400879 -0.163086,-0.78711 -0.516602,-0.979981 -1.27246,-0.692871 -2.063476,-2.021484 -2.063476,-3.468261 0,-2.175782 1.770508,-3.946289 3.946268,-3.946289 2.175802,0 3.94631,1.770507 3.94631,3.946289 0,1.489257 -0.828125,2.836425 -2.162109,3.515136 -0.359375,0.183106 -0.573243,0.564453 -0.542969,0.966797 0.03027,0.402344 0.299804,0.746582 0.682617,0.873535 2.61322,0.865906 4.382629,3.244812 4.503235,5.971924 -1.838806,1.373535 -4.110901,2.19751 -6.577454,2.19751 -2.466858,0 -4.7392574,-0.824219 -6.5781864,-2.198059 z M 14.390625,54.688477 c 6.080078,0 11.026368,4.946289 11.026368,11.026367 0,2.736389 -1.007874,5.237671 -2.664063,7.167175 -0.533508,-2.290588 -1.973266,-4.270691 -4.007812,-5.462097 1.101562,-1.096192 1.742187,-2.594727 1.742187,-4.203613 0,-3.278809 -2.667969,-5.94629 -5.94631,-5.94629 -3.278299,0 -5.9462684,2.667481 -5.9462684,5.94629 0,1.54541 0.598633,3.000976 1.6289064,4.089355 -2.1397704,1.174805 -3.6499024,3.200928 -4.1967774,5.574768 -1.655335,-1.929321 -2.662598,-4.429993 -2.662598,-7.165588 0,-6.080078 4.946289,-11.026367 11.0263674,-11.026367 z"
     id="path6448"
     inkscape:connector-curvature="0" /><path
     d="M 52.164063,2.831543 C 48.355469,0.952637 44.262696,0 40,0 35.737305,0 31.644532,0.952637 27.835938,2.831543 c -0.495117,0.244629 -0.699219,0.844238 -0.454102,1.339356 0.244141,0.495605 0.84375,0.69873 1.338867,0.454589 C 32.251953,2.883301 36.046875,2 40,2 c 3.953125,0 7.748047,0.883301 11.279297,2.625488 0.142578,0.06982 0.292969,0.103028 0.441406,0.103028 0.369141,0 0.723633,-0.20459 0.897461,-0.557618 0.245118,-0.495117 0.04102,-1.094726 -0.454101,-1.339355 z"
     id="path6450"
     inkscape:connector-curvature="0" /><path
     d="m 2.8320316,52.164062 c 0.173828,0.353028 0.52832,0.557618 0.897461,0.557618 0.148437,0 0.298828,-0.0332 0.441406,-0.103028 0.495095,-0.244629 0.699219,-0.844238 0.454101,-1.339355 -1.742187,-3.530762 -2.625,-7.325684 -2.625,-11.279297 0,-3.953613 0.882813,-7.748535 2.625,-11.279297 0.245117,-0.495117 0.04099,-1.094726 -0.454101,-1.339355 -0.497071,-0.242188 -1.094727,-0.04004 -1.338867,0.454589 C 0.9531246,31.644531 -4e-7,35.736816 -4e-7,40 c 0,4.263184 0.953125,8.355469 2.832032,12.164062 z"
     id="path6452"
     inkscape:connector-curvature="0" /><path
     d="M 27.835938,77.168457 C 31.644532,79.047363 35.737305,80 40,80 c 4.262696,0 8.355469,-0.952637 12.164063,-2.831543 0.495117,-0.244629 0.699219,-0.844238 0.454101,-1.339355 -0.24414,-0.495118 -0.842773,-0.697266 -1.338867,-0.45459 C 47.748047,77.116699 43.953125,78 40,78 c -3.953125,0 -7.748047,-0.883301 -11.279297,-2.625488 -0.496093,-0.2417 -1.094726,-0.04004 -1.338867,0.454589 -0.245117,0.495118 -0.04102,1.094727 0.454102,1.339356 z"
     id="path6454"
     inkscape:connector-curvature="0" /><path
     d="M 77.167969,27.835937 C 76.924805,27.341309 76.326172,27.138672 75.829102,27.381348 75.333985,27.625977 75.129883,28.225586 75.375,28.720703 77.117188,32.251465 78,36.046387 78,40 c 0,3.953613 -0.882812,7.748535 -2.625,11.279297 -0.245117,0.495117 -0.04102,1.094727 0.454102,1.339355 0.142578,0.06983 0.292969,0.103028 0.441406,0.103028 0.369141,0 0.723633,-0.20459 0.897461,-0.557617 C 79.046875,48.355469 80,44.263184 80,40 80,35.736816 79.046875,31.644531 77.167969,27.835937 Z"
     id="path6456"
     inkscape:connector-curvature="0" /></svg>