<?xml version="1.0" encoding="UTF-8" standalone="no"?>
<svg
   xmlns:dc="http://purl.org/dc/elements/1.1/"
   xmlns:cc="http://creativecommons.org/ns#"
   xmlns:rdf="http://www.w3.org/1999/02/22-rdf-syntax-ns#"
   xmlns:svg="http://www.w3.org/2000/svg"
   xmlns="http://www.w3.org/2000/svg"
   xmlns:sodipodi="http://sodipodi.sourceforge.net/DTD/sodipodi-0.dtd"
   xmlns:inkscape="http://www.inkscape.org/namespaces/inkscape"
   data-name="Layer 1"
   viewBox="0 0 504.00909 436"
   x="0px"
   y="0px"
   version="1.1"
   id="svg2391"
   sodipodi:docname="noun_Laptop_2607397.svg"
   width="504.00909"
   height="436"
   inkscape:version="0.92.3 (2405546, 2018-03-11)">
  <metadata
     id="metadata2397">
    <rdf:RDF>
      <cc:Work
         rdf:about="">
        <dc:format>image/svg+xml</dc:format>
        <dc:type
           rdf:resource="http://purl.org/dc/dcmitype/StillImage" />
        <dc:title>Laptop Coding Mobile</dc:title>
      </cc:Work>
    </rdf:RDF>
  </metadata>
  <defs
     id="defs2395" />
  <sodipodi:namedview
     pagecolor="#ffffff"
     bordercolor="#666666"
     borderopacity="1"
     objecttolerance="10"
     gridtolerance="10"
     guidetolerance="10"
     inkscape:pageopacity="0"
     inkscape:pageshadow="2"
     inkscape:window-width="3706"
     inkscape:window-height="2049"
     id="namedview2393"
     showgrid="false"
     fit-margin-top="0"
     fit-margin-left="0"
     fit-margin-right="0"
     fit-margin-bottom="0"
     inkscape:zoom="0.36875"
     inkscape:cx="-450.36519"
     inkscape:cy="154"
     inkscape:window-x="134"
     inkscape:window-y="55"
     inkscape:window-maximized="1"
     inkscape:current-layer="svg2391" />
  <title
     id="title2353">Laptop Coding Mobile</title>
  <path
     d="m 149.55269,156.421 52.2,39.472 a 6,6 0 0 0 7.237,-9.572 l -45.87,-34.685 45.87,-34.686 a 6,6 0 0 0 -7.237,-9.571 l -52.2,39.471 a 6,6 0 0 0 0,9.571 z"
     id="path2355"
     inkscape:connector-curvature="0" />
  <path
     d="m 251.49469,194.726 a 6,6 0 0 0 8.405,1.167 l 52.2,-39.472 a 6,6 0 0 0 0,-9.571 l -52.2,-39.471 a 6,6 0 1 0 -7.238,9.571 l 45.87,34.686 -45.87,34.685 a 6,6 0 0 0 -1.167,8.405 z"
     id="path2357"
     inkscape:connector-curvature="0" />
  <path
     d="m 221.01769,216.752 a 6,6 0 0 0 6.831,-5.035 l 17.819,-117.731 a 6.000874,6.000874 0 0 0 -11.866,-1.8 l -17.818,117.735 a 6,6 0 0 0 5.034,6.831 z"
     id="path2359"
     inkscape:connector-curvature="0" />
  <path
     d="m 474.89569,147 h -32.888 V 45.047 A 45.413,45.413 0 0 0 396.91769,0 H 64.732693 c -24.625,0 -44.725,20.422 -44.725,45.047 V 283 H 5.6496931 a 5.711,5.711 0 0 0 -5.64200004,6.007 v 29.725 A 44.072,44.072 0 0 0 44.307693,363 H 333.00769 v 43.142 c 0,16.25 12.815,29.858 29.065,29.858 h 112.823 c 16.25,0 29.112,-13.608 29.112,-29.858 V 176.569 A 29.284,29.284 0 0 0 474.89569,147 Z m -83.888,0 h -28.935 a 29.245,29.245 0 0 0 -29.065,29.569 V 247 H 70.007693 V 53 H 391.00769 Z m -46,58 h 147 v 163 h -147 z m 147,-28.431 V 193 h -147 v -16.431 c 0,-9.633 7.432,-17.569 17.065,-17.569 h 112.823 a 17.272,17.272 0 0 1 17.112,17.569 z M 32.007693,45.047 c 0,-18.008 14.717,-33.047 32.725,-33.047 H 396.91769 a 33.4,33.4 0 0 1 33.09,33.047 V 147 h -27 V 47.272 c 0,-3.313 -2.267,-6.272 -5.58,-6.272 H 64.222693 a 6.425,6.425 0 0 0 -6.215,6.272 v 206.137 c 0,3.314 2.9,5.591 6.215,5.591 H 333.00769 v 24 h -45.469 a 6,6 0 0 0 -4.411,1.937 l -7.847,8.525 A 32.763,32.763 0 0 1 251.26569,304 h -40.881 a 32.761,32.761 0 0 1 -24.015,-10.536 l -7.846,-8.521 A 6.008,6.008 0 0 0 174.10769,283 H 32.007693 Z m 12.3,305.953 a 32.06,32.06 0 0 1 -32.3,-32.268 V 295 H 171.48269 l 6.064,6.594 a 44.794,44.794 0 0 0 32.838,14.406 h 40.881 a 44.794,44.794 0 0 0 32.842,-14.406 l 6.061,-6.594 h 42.839 v 56 z m 430.586997,73 h -112.822 c -9.633,0 -17.065,-8.225 -17.065,-17.858 V 380 h 147 v 26.142 c 0,9.633 -7.479,17.858 -17.112,17.858 z"
     id="path2361"
     inkscape:connector-curvature="0" />
  <path
     d="m 398.51369,181 h 39.941 a 6,6 0 0 0 0,-12 h -39.941 a 6,6 0 0 0 0,12 z"
     id="path2363"
     inkscape:connector-curvature="0" />
  <path
     d="m 418.48469,383.671 a 18.29,18.29 0 1 0 18.289,18.29 18.311,18.311 0 0 0 -18.289,-18.29 z m 0,24.579 a 6.29,6.29 0 1 1 6.289,-6.289 6.3,6.3 0 0 1 -6.289,6.289 z"
     id="path2365"
     inkscape:connector-curvature="0" />
  <path
     d="m 388.81669,233 h 91.534 a 6,6 0 1 0 0,-12 h -91.534 a 6,6 0 1 0 0,12 z"
     id="path2367"
     inkscape:connector-curvature="0" />
  <path
     d="m 480.35069,251 h -91.534 a 6,6 0 1 0 0,12 h 91.534 a 6,6 0 1 0 0,-12 z"
     id="path2369"
     inkscape:connector-curvature="0" />
  <path
     d="m 480.35069,280 h -91.534 a 6,6 0 1 0 0,12 h 91.534 a 6,6 0 1 0 0,-12 z"
     id="path2371"
     inkscape:connector-curvature="0" />
  <path
     d="m 480.35069,310 h -91.534 a 6,6 0 1 0 0,12 h 91.534 a 6,6 0 1 0 0,-12 z"
     id="path2373"
     inkscape:connector-curvature="0" />
  <path
     d="m 480.35069,340 h -91.534 a 6,6 0 1 0 0,12 h 91.534 a 6,6 0 1 0 0,-12 z"
     id="path2375"
     inkscape:connector-curvature="0" />
  <path
     d="m 369.99769,221 h -13.38 a 6,6 0 0 0 0,12 h 13.38 a 6,6 0 0 0 0,-12 z"
     id="path2377"
     inkscape:connector-curvature="0" />
  <path
     d="m 369.99769,251 h -13.38 a 6,6 0 0 0 0,12 h 13.38 a 6,6 0 0 0 0,-12 z"
     id="path2379"
     inkscape:connector-curvature="0" />
  <path
     d="m 369.99769,280 h -13.38 a 6,6 0 0 0 0,12 h 13.38 a 6,6 0 0 0 0,-12 z"
     id="path2381"
     inkscape:connector-curvature="0" />
  <path
     d="m 369.99769,310 h -13.38 a 6,6 0 0 0 0,12 h 13.38 a 6,6 0 0 0 0,-12 z"
     id="path2383"
     inkscape:connector-curvature="0" />
  <path
     d="m 369.99769,340 h -13.38 a 6,6 0 0 0 0,12 h 13.38 a 6,6 0 0 0 0,-12 z"
     id="path2385"
     inkscape:connector-curvature="0" />
</svg>
