<?xml version="1.0" encoding="UTF-8" standalone="no"?>
<svg
   xmlns:dc="http://purl.org/dc/elements/1.1/"
   xmlns:cc="http://creativecommons.org/ns#"
   xmlns:rdf="http://www.w3.org/1999/02/22-rdf-syntax-ns#"
   xmlns:svg="http://www.w3.org/2000/svg"
   xmlns="http://www.w3.org/2000/svg"
   xmlns:sodipodi="http://sodipodi.sourceforge.net/DTD/sodipodi-0.dtd"
   xmlns:inkscape="http://www.inkscape.org/namespaces/inkscape"
   version="1.1"
   x="0px"
   y="0px"
   viewBox="0 0 79.999931 79.988213"
   xml:space="preserve"
   id="svg12105"
   sodipodi:docname="noun_medical care_1997584.svg"
   width="79.999931"
   height="79.988213"
   inkscape:version="0.92.3 (2405546, 2018-03-11)"><metadata
     id="metadata12111"><rdf:RDF><cc:Work
         rdf:about=""><dc:format>image/svg+xml</dc:format><dc:type
           rdf:resource="http://purl.org/dc/dcmitype/StillImage" /><dc:title></dc:title></cc:Work></rdf:RDF></metadata><defs
     id="defs12109" /><sodipodi:namedview
     pagecolor="#ffffff"
     bordercolor="#666666"
     borderopacity="1"
     objecttolerance="10"
     gridtolerance="10"
     guidetolerance="10"
     inkscape:pageopacity="0"
     inkscape:pageshadow="2"
     inkscape:window-width="1853"
     inkscape:window-height="2049"
     id="namedview12107"
     showgrid="false"
     fit-margin-top="0"
     fit-margin-left="0"
     fit-margin-right="0"
     fit-margin-bottom="0"
     inkscape:zoom="1.888"
     inkscape:cx="-97.182271"
     inkscape:cy="27.5"
     inkscape:window-x="134"
     inkscape:window-y="55"
     inkscape:window-maximized="0"
     inkscape:current-layer="svg12105" /><path
     d="m 51.174737,22.901785 c -2.125672,0 -4.235657,0.243652 -6.29242,0.697388 C 45.265374,17.532706 43.135674,11.34844 38.461846,6.6376249 29.789971,-2.1006563 15.55169,-2.2280978 6.7216124,6.3558869 2.4408504,10.517996 0.05413136,16.081961 9.093631e-4,22.022879 -0.05231364,27.961844 2.2333314,33.565848 6.4369444,37.802664 c 4.4345696,4.468201 10.3953856,6.794739 16.4946286,6.652588 -1.099365,4.854248 -0.458313,9.730835 -0.432129,9.918213 0.320801,3.119141 1.524414,7.168457 3.071289,10.338867 1.353027,4.525391 -7.121094,7.925293 -7.20752,7.958985 -0.307617,0.121582 -0.535644,0.386718 -0.608886,0.709472 -0.07275,0.322266 0.01758,0.660156 0.242676,0.901856 6.106445,6.567383 14.440429,2.073242 16.74707,0.618164 4.836425,3.330566 10.501953,5.087402 16.430664,5.087402 15.894043,0 28.825195,-12.804199 28.825195,-28.542969 0,-15.738769 -12.931152,-28.543457 -28.825195,-28.543457 z M 7.8568664,36.393484 C 4.0321594,32.53948 1.9520804,27.441824 2.0004204,22.040457 2.0492504,16.637625 4.2211234,11.57659 8.1161434,7.7894799 16.163018,-0.03180873 29.138604,0.08244887 37.041924,8.0463159 c 7.801758,7.8632821 7.872559,20.2426761 0.160645,28.1835941 -0.136719,0.140625 -0.276368,0.280762 -0.418457,0.418457 -0.02637,0.02588 -0.05176,0.05273 -0.0752,0.08154 -1.188964,1.4375 -1.203125,2.727051 -1.005859,3.555664 0.292481,1.226074 1.188477,2.180176 2.050781,2.845215 -5.05957,1.555176 -7.859863,-1.257324 -7.985351,-1.387695 -0.191895,-0.203613 -0.456543,-0.313965 -0.72754,-0.313965 -0.101562,0 -0.204101,0.01563 -0.30371,0.04736 -7.419434,2.365723 -15.420899,0.417969 -20.8803706,-5.083008 z M 51.174737,77.988211 c -5.73877,0 -11.211914,-1.76709 -15.827149,-5.109863 -0.35205,-0.255371 -0.831054,-0.25293 -1.182129,0.0068 -0.08252,0.06104 -7.821777,5.687988 -13.659179,1.009765 2.782226,-1.378906 8.531738,-4.901367 6.949219,-9.856933 -0.01514,-0.04687 -0.0332,-0.09277 -0.05518,-0.136719 -1.467285,-2.98584 -2.610352,-6.806153 -2.915528,-9.764649 -0.0067,-0.05188 -0.670837,-5.163086 0.546204,-9.835754 1.258972,-0.146912 2.517212,-0.387634 3.76239,-0.750671 0.879395,0.717773 2.933106,2.058105 6.003418,2.058105 1.606445,0 3.491699,-0.367676 5.631836,-1.383301 0.353516,-0.16748 0.575684,-0.526367 0.570312,-0.91748 -0.0054,-0.391114 -0.239257,-0.743653 -0.597168,-0.901367 -0.665039,-0.293946 -2.457031,-1.331543 -2.753906,-2.587891 -0.131347,-0.556641 0.05469,-1.137207 0.569336,-1.773438 0.142578,-0.13916 0.283203,-0.280273 0.42041,-0.421875 3.323365,-3.422119 5.312378,-7.596008 6.010071,-11.924621 2.123108,-0.525025 4.316773,-0.79657 6.527039,-0.79657 14.791508,3.6e-5 26.825199,11.907263 26.825199,26.543493 0,14.635742 -12.033691,26.542969 -26.825195,26.542969 z"
     id="path12093"
     inkscape:connector-curvature="0" /><path
     d="m 61.115655,46.69573 h -18 c -0.552246,0 -1,0.447754 -1,1 0,0.552247 0.447754,1 1,1 h 18 c 0.552246,0 1,-0.447753 1,-1 0,-0.552246 -0.447754,-1 -1,-1 z"
     id="path12095"
     inkscape:connector-curvature="0" /><path
     d="m 61.115655,56.260184 h -18 c -0.552246,0 -1,0.447754 -1,1 0,0.552246 0.447754,1 1,1 h 18 c 0.552246,0 1,-0.447754 1,-1 0,-0.552246 -0.447754,-1 -1,-1 z"
     id="path12097"
     inkscape:connector-curvature="0" /><path
     d="m 27.802666,33.845633 v -5.687988 h 5.669922 c 0.552246,0 1,-0.447754 1,-1 v -8.731446 c 0,-0.552246 -0.447754,-1 -1,-1 h -5.669922 v -5.687988 c 0,-0.552246 -0.447754,-1 -1,-1 h -8.707031 c -0.552246,0 -1,0.447754 -1,1 v 5.687988 h -5.669433 c -0.552247,0 -1,0.447754 -1,1 v 8.731446 c 0,0.552246 0.447753,1 1,1 h 5.669433 v 5.687988 c 0,0.552246 0.447754,1 1,1 h 8.707031 c 0.552247,0 1,-0.447754 1,-1 z m -2,-6.687988 v 5.687988 h -6.707031 v -5.687988 c 0,-0.552247 -0.447754,-1 -1,-1 h -5.669433 v -6.731446 h 5.669433 c 0.552246,0 1,-0.447754 1,-1 v -5.687988 h 6.707031 v 5.687988 c 0,0.552246 0.447754,1 1,1 h 5.669922 v 6.731446 h -5.669922 c -0.552246,0 -1,0.447753 -1,1 z"
     id="path12099"
     inkscape:connector-curvature="0" /></svg>