<?xml version="1.0" encoding="UTF-8" standalone="no"?>
<svg
   xmlns:dc="http://purl.org/dc/elements/1.1/"
   xmlns:cc="http://creativecommons.org/ns#"
   xmlns:rdf="http://www.w3.org/1999/02/22-rdf-syntax-ns#"
   xmlns:svg="http://www.w3.org/2000/svg"
   xmlns="http://www.w3.org/2000/svg"
   xmlns:sodipodi="http://sodipodi.sourceforge.net/DTD/sodipodi-0.dtd"
   xmlns:inkscape="http://www.inkscape.org/namespaces/inkscape"
   id="svg1664"
   version="1.1"
   viewBox="0 0 17.573954 17.57395"
   height="17.57395mm"
   width="17.573954mm"
   sodipodi:docname="noun_financial strategy_1923375-mirrored.svg"
   inkscape:version="0.92.3 (2405546, 2018-03-11)">
  <sodipodi:namedview
     pagecolor="#ffffff"
     bordercolor="#666666"
     borderopacity="1"
     objecttolerance="10"
     gridtolerance="10"
     guidetolerance="10"
     inkscape:pageopacity="0"
     inkscape:pageshadow="2"
     inkscape:window-width="3706"
     inkscape:window-height="2049"
     id="namedview3922"
     showgrid="false"
     inkscape:zoom="1.1893044"
     inkscape:cx="-393.18677"
     inkscape:cy="286.18951"
     inkscape:window-x="134"
     inkscape:window-y="55"
     inkscape:window-maximized="1"
     inkscape:current-layer="svg1664"
     fit-margin-top="0"
     fit-margin-left="0"
     fit-margin-right="0"
     fit-margin-bottom="0" />
  <defs
     id="defs1658" />
  <metadata
     id="metadata1661">
    <rdf:RDF>
      <cc:Work
         rdf:about="">
        <dc:format>image/svg+xml</dc:format>
        <dc:type
           rdf:resource="http://purl.org/dc/dcmitype/StillImage" />
        <dc:title></dc:title>
      </cc:Work>
    </rdf:RDF>
  </metadata>
  <g
     id="g4760"
     transform="matrix(0.83026555,0,0,0.83026555,33.584936,-70.998554)">
    <g
       transform="translate(14.621071)"
       id="g4742">
      <path
         inkscape:connector-curvature="0"
         d="m -37.178167,102.642 c 1.804799,0 3.272927,-1.46813 3.272927,-3.272801 0,-1.80467 -1.468128,-3.272798 -3.272927,-3.272798 -1.804541,0 -3.272669,1.468128 -3.272669,3.272798 0,1.804671 1.468128,3.272801 3.272669,3.272801 z m 0,-6.016432 c 1.512827,0 2.74376,1.230803 2.74376,2.743631 0,1.512831 -1.230933,2.743631 -2.74376,2.743631 -1.512828,0 -2.743502,-1.2308 -2.743502,-2.743631 0,-1.512827 1.230674,-2.743631 2.743502,-2.743631 z"
         id="path4681"
         style="stroke-width:0.26458332" />
      <path
         inkscape:connector-curvature="0"
         d="m -37.214857,99.633782 h 0.03204 c 0.290421,0 0.526841,0.235645 0.526841,0.525158 0,0.28952 -0.23642,0.52517 -0.526841,0.52517 -0.290422,0 -0.526583,-0.23565 -0.526583,-0.52517 0,-0.14611 -0.118339,-0.264579 -0.264583,-0.264579 -0.146245,0 -0.264584,0.118469 -0.264584,0.264579 0,0.47783 0.321961,0.87778 0.759127,1.00674 v 0.12653 c 0,0.14611 0.118339,0.26458 0.264584,0.26458 0.146244,0 0.264583,-0.11847 0.264583,-0.26458 v -0.1066 c 0.470481,-0.10629 0.823464,-0.52529 0.823464,-1.02667 0,-0.581356 -0.473615,-1.054324 -1.056008,-1.054324 h -0.03204 c -0.290422,0 -0.526842,-0.235645 -0.526842,-0.525162 0,-0.289646 0.23642,-0.525291 0.526842,-0.525291 0.290421,0 0.526582,0.235645 0.526582,0.525291 0,0.146115 0.118339,0.264583 0.264584,0.264583 0.146244,0 0.264583,-0.118468 0.264583,-0.264583 0,-0.489683 -0.337447,-0.898702 -0.791166,-1.016814 v -0.116579 c 0,-0.146115 -0.118339,-0.264584 -0.264583,-0.264584 -0.146245,0 -0.264584,0.118469 -0.264584,0.264584 v 0.116546 c -0.453929,0.118081 -0.791424,0.527116 -0.791424,1.016847 0,0.58136 0.473614,1.054328 1.056008,1.054328 z"
         id="path4683"
         style="stroke-width:0.26458332" />
    </g>
    <path
       inkscape:connector-curvature="0"
       style="stroke-width:0.26458332"
       id="path4685"
       d="m -29.867502,97.35033 c 1.80454,0 3.272668,-1.468127 3.272668,-3.272797 0,-1.804671 -1.468128,-3.272798 -3.272668,-3.272798 -1.804542,0 -3.272669,1.468127 -3.272669,3.272798 0,1.80467 1.468127,3.272797 3.272669,3.272797 z m 0,-6.016428 c 1.512827,0 2.743501,1.230803 2.743501,2.743631 0,1.512827 -1.230674,2.743631 -2.743501,2.743631 -1.512828,0 -2.743502,-1.230804 -2.743502,-2.743631 0,-1.512828 1.230674,-2.743631 2.743502,-2.743631 z" />
    <path
       inkscape:connector-curvature="0"
       style="stroke-width:0.26458332"
       id="path4687"
       d="m -29.904451,94.342116 h 0.0323 c 0.290421,0 0.526582,0.235644 0.526582,0.525162 0,0.289517 -0.236161,0.525161 -0.526582,0.525161 -0.290422,0 -0.526842,-0.235644 -0.526842,-0.525161 0,-0.146116 -0.118339,-0.264584 -0.264583,-0.264584 -0.146244,0 -0.264583,0.118468 -0.264583,0.264584 0,0.477764 0.321879,0.877675 0.759127,1.006689 v 0.126575 c 0,0.146115 0.118339,0.264583 0.264583,0.264583 0.146244,0 0.264583,-0.118468 0.264583,-0.264583 v -0.106551 c 0.470417,-0.106227 0.823464,-0.525274 0.823464,-1.026713 0,-0.58136 -0.473614,-1.054329 -1.055749,-1.054329 h -0.0323 c -0.290422,0 -0.526583,-0.235644 -0.526583,-0.525161 0,-0.289647 0.236161,-0.525292 0.526583,-0.525292 0.290421,0 0.526841,0.235645 0.526841,0.525292 0,0.146115 0.118339,0.264583 0.264584,0.264583 0.146244,0 0.264583,-0.118468 0.264583,-0.264583 0,-0.489732 -0.337496,-0.898767 -0.791425,-1.016847 v -0.116547 c 0,-0.146115 -0.118339,-0.264583 -0.264583,-0.264583 -0.146244,0 -0.264583,0.118468 -0.264583,0.264583 v 0.116579 c -0.453719,0.118113 -0.791167,0.527132 -0.791167,1.016815 0,0.581359 0.473615,1.054328 1.05575,1.054328 z" />
    <g
       transform="translate(-14.621071)"
       id="g4746">
      <path
         inkscape:connector-curvature="0"
         d="m -22.556838,92.058664 c 1.804541,0 3.272669,-1.468128 3.272669,-3.272798 0,-1.80467 -1.468128,-3.272798 -3.272669,-3.272798 -1.804799,0 -3.272927,1.468128 -3.272927,3.272798 0,1.80467 1.468128,3.272798 3.272927,3.272798 z m 0,-6.016429 c 1.512828,0 2.743502,1.230803 2.743502,2.743631 0,1.512827 -1.230674,2.743631 -2.743502,2.743631 -1.512827,0 -2.74376,-1.230804 -2.74376,-2.743631 0,-1.512828 1.230933,-2.743631 2.74376,-2.743631 z"
         id="path4689"
         style="stroke-width:0.26458332" />
      <path
         inkscape:connector-curvature="0"
         d="m -22.593786,89.050449 h 0.03204 c 0.290422,0 0.526841,0.235645 0.526841,0.525162 0,0.289517 -0.236419,0.525162 -0.526841,0.525162 -0.290422,0 -0.526583,-0.235645 -0.526583,-0.525162 0,-0.146115 -0.118339,-0.264583 -0.264583,-0.264583 -0.146244,0 -0.264584,0.118468 -0.264584,0.264583 0,0.477829 0.321961,0.877773 0.759127,1.006738 v 0.126526 c 0,0.146115 0.118339,0.264583 0.264584,0.264583 0.146244,0 0.264583,-0.118468 0.264583,-0.264583 v -0.106599 c 0.470482,-0.106292 0.823464,-0.525291 0.823464,-1.026665 0,-0.58136 -0.473615,-1.054328 -1.056008,-1.054328 h -0.03204 c -0.290422,0 -0.526842,-0.235645 -0.526842,-0.525162 0,-0.289647 0.23642,-0.525291 0.526842,-0.525291 0.290421,0 0.526582,0.235644 0.526582,0.525291 0,0.146115 0.11834,0.264583 0.264584,0.264583 0.146244,0 0.264583,-0.118468 0.264583,-0.264583 0,-0.489683 -0.337447,-0.898702 -0.791166,-1.016815 v -0.116579 c 0,-0.146115 -0.118339,-0.264583 -0.264583,-0.264583 -0.146245,0 -0.264584,0.118468 -0.264584,0.264583 v 0.116547 c -0.453929,0.118081 -0.791424,0.527116 -0.791424,1.016847 0,0.58136 0.473614,1.054328 1.056008,1.054328 z"
         id="path4691"
         style="stroke-width:0.26458332" />
    </g>
    <g
       transform="matrix(-1,0,0,1,-59.735005,0)"
       id="g4738">
      <path
         inkscape:connector-curvature="0"
         d="m -40.186252,106.67973 h 6.016428 c 0.146244,0 0.264584,-0.11846 0.264584,-0.26458 v -2.61276 c 0,-0.14611 -0.11834,-0.26458 -0.264584,-0.26458 h -6.016428 c -0.146245,0 -0.264584,0.11847 -0.264584,0.26458 v 2.61276 c 0,0.14612 0.118339,0.26458 0.264584,0.26458 z m 0.264583,-2.61276 h 5.487262 v 2.0836 h -5.487262 z"
         id="path4693"
         style="stroke-width:0.26458332" />
      <path
         inkscape:connector-curvature="0"
         d="m -32.875588,106.67973 h 6.016171 c 0.146244,0 0.264583,-0.11846 0.264583,-0.26458 v -7.904426 c 0,-0.146115 -0.118339,-0.264583 -0.264583,-0.264583 h -6.016171 c -0.146244,0 -0.264583,0.118468 -0.264583,0.264583 v 7.904426 c 0,0.14612 0.118339,0.26458 0.264583,0.26458 z m 0.264584,-7.904422 h 5.487003 v 7.375262 h -5.487003 z"
         id="path4695"
         style="stroke-width:0.26458332" />
      <path
         inkscape:connector-curvature="0"
         d="m -25.565181,106.67973 h 6.016428 c 0.146245,0 0.264584,-0.11846 0.264584,-0.26458 V 93.219058 c 0,-0.146115 -0.118339,-0.264584 -0.264584,-0.264584 h -6.016428 c -0.146244,0 -0.264584,0.118469 -0.264584,0.264584 v 13.196092 c 0,0.14612 0.11834,0.26458 0.264584,0.26458 z m 0.264583,-13.196089 h 5.487262 v 12.666929 h -5.487262 z"
         id="path4697"
         style="stroke-width:0.26458332" />
    </g>
  </g>
</svg>
