<?xml version="1.0" encoding="UTF-8" standalone="no"?>
<svg
   xmlns:dc="http://purl.org/dc/elements/1.1/"
   xmlns:cc="http://creativecommons.org/ns#"
   xmlns:rdf="http://www.w3.org/1999/02/22-rdf-syntax-ns#"
   xmlns:svg="http://www.w3.org/2000/svg"
   xmlns="http://www.w3.org/2000/svg"
   xmlns:sodipodi="http://sodipodi.sourceforge.net/DTD/sodipodi-0.dtd"
   xmlns:inkscape="http://www.inkscape.org/namespaces/inkscape"
   version="1.1"
   x="0px"
   y="0px"
   viewBox="0 0 99.999992 99.975739"
   xml:space="preserve"
   id="svg4128"
   sodipodi:docname="noun_Mechanic_1974846.svg"
   width="99.999992"
   height="99.975739"
   inkscape:version="0.92.3 (2405546, 2018-03-11)"><metadata
     id="metadata4134"><rdf:RDF><cc:Work
         rdf:about=""><dc:format>image/svg+xml</dc:format><dc:type
           rdf:resource="http://purl.org/dc/dcmitype/StillImage" /><dc:title></dc:title></cc:Work></rdf:RDF></metadata><defs
     id="defs4132" /><sodipodi:namedview
     pagecolor="#ffffff"
     bordercolor="#666666"
     borderopacity="1"
     objecttolerance="10"
     gridtolerance="10"
     guidetolerance="10"
     inkscape:pageopacity="0"
     inkscape:pageshadow="2"
     inkscape:window-width="1853"
     inkscape:window-height="2049"
     id="namedview4130"
     showgrid="false"
     fit-margin-top="0"
     fit-margin-left="0"
     fit-margin-right="0"
     fit-margin-bottom="0"
     inkscape:zoom="1.888"
     inkscape:cx="-87.182194"
     inkscape:cy="37.48787"
     inkscape:window-x="134"
     inkscape:window-y="55"
     inkscape:window-maximized="0"
     inkscape:current-layer="svg4128" /><g
     id="g4122"
     transform="translate(8.9106449e-6,-0.01213)"><path
       d="m 50.10538,56.334 c -0.04522,0 -0.09043,-0.002 -0.13368,-0.002 C 34.63996,56.21604 27.55108,36.46801 27.41543,22.48289 c -0.0098,-0.92985 0.7372,-1.69064 1.66705,-1.69948 0.0039,-9.8e-4 0.0098,-9.8e-4 0.01573,-9.8e-4 0.92199,0 1.67491,0.7431 1.68278,1.66705 0.09829,9.9099 4.92251,30.40889 19.21431,30.51701 0.03735,0 0.07667,0 0.11205,0 14.23086,0 19.03738,-20.5393 19.13567,-30.51701 0.0079,-0.92395 0.76079,-1.66705 1.68278,-1.66705 0.0059,0 0.0118,0 0.01572,9.8e-4 0.92986,0.0088 1.67688,0.76963 1.66705,1.69948 C 72.47096,36.5663 65.39584,56.334 50.10538,56.334 Z"
       id="path4080"
       inkscape:connector-curvature="0" /><path
       d="m 91.8681,99.9859 c -0.92986,0 -1.68278,-0.75292 -1.68278,-1.68278 0,-11.53763 -2.9311,-21.95864 -8.0384,-28.58752 -2.26073,-2.94485 -5.63219,-3.4029 -9.53442,-3.93172 -3.79804,-0.51505 -7.72386,-1.0478 -10.84171,-4.04181 -2.96255,-2.88785 -2.66177,-7.63343 -2.39835,-11.82071 0.05898,-0.92788 0.86694,-1.63166 1.78697,-1.57465 0.92788,0.05898 1.63166,0.85908 1.57465,1.78696 -0.27522,4.32685 -0.33616,7.51744 1.37807,9.18843 2.31775,2.22535 5.53979,2.66374 8.95252,3.12571 4.0536,0.55044 8.64781,1.17165 11.74994,5.21543 5.55159,7.2029 8.73627,18.37292 8.73627,30.63988 1e-5,0.92986 -0.75292,1.68278 -1.68276,1.68278 z"
       id="path4082"
       inkscape:connector-curvature="0" /><path
       d="m 8.15591,99.9859 c -0.92985,0 -1.68278,-0.75292 -1.68278,-1.68278 0,-12.26499 3.18469,-23.43304 8.73825,-30.64381 3.06477,-4.03984 7.66882,-4.66301 11.73225,-5.21149 3.4206,-0.46394 6.65247,-0.90036 8.97808,-3.13554 1.79286,-1.7044 1.56876,-5.22132 1.31123,-9.29262 -0.05701,-0.92788 0.64677,-1.72799 1.57465,-1.78696 0.92002,-0.04718 1.72799,0.64677 1.78697,1.57465 0.29684,4.70823 0.57796,9.15697 -2.34724,11.93866 -3.11195,2.99007 -7.04761,3.52282 -10.85154,4.03787 -3.90813,0.52882 -7.28154,0.98489 -9.51083,3.92189 -5.11517,6.64067 -8.04626,17.06169 -8.04626,28.59735 0,0.92986 -0.75293,1.68278 -1.68278,1.68278 z"
       id="path4084"
       inkscape:connector-curvature="0" /><path
       d="M 91.8681,99.9859 H 8.15591 c -0.92985,0 -1.68278,-0.75292 -1.68278,-1.68278 0,-0.92985 0.75292,-1.68277 1.68278,-1.68277 H 91.8681 c 0.92985,0 1.68277,0.75292 1.68277,1.68277 0,0.92986 -0.75293,1.68278 -1.68277,1.68278 z"
       id="path4086"
       inkscape:connector-curvature="0" /><path
       d="m 74.46238,99.98787 c -0.72737,0 -1.39773,-0.47574 -1.61398,-1.20704 L 66.81321,78.35948 H 49.9835 c -0.92985,0 -1.68277,-0.75292 -1.68277,-1.68277 0,-0.92986 0.75292,-1.68278 1.68277,-1.68278 h 18.08787 c 0.74506,0 1.40363,0.48949 1.61398,1.20507 l 6.39101,21.62642 c 0.26343,0.89249 -0.24574,1.82825 -1.13627,2.09167 -0.15924,0.04719 -0.32045,0.07078 -0.47771,0.07078 z"
       id="path4088"
       inkscape:connector-curvature="0" /><path
       d="m 25.56163,99.98787 c -0.15727,0 -0.31847,-0.02359 -0.4777,-0.07077 -0.89053,-0.26343 -1.39969,-1.19918 -1.13627,-2.09167 l 6.39101,-21.62642 c 0.21035,-0.71558 0.86891,-1.20507 1.61397,-1.20507 H 49.9835 c 0.92985,0 1.68278,0.75292 1.68278,1.68278 0,0.92985 -0.75293,1.68277 -1.68278,1.68277 H 33.21079 L 27.1756,98.78083 c -0.21625,0.7313 -0.8866,1.20507 -1.61397,1.20704 z"
       id="path4090"
       inkscape:connector-curvature="0" /><path
       d="m 49.99136,28.27234 c -7.35428,0 -14.7007,-1.41738 -21.53795,-4.25117 -0.85908,-0.35582 -1.26601,-1.34072 -0.91019,-2.1998 0.35779,-0.86006 1.34661,-1.2611 2.1998,-0.91019 12.85279,5.32748 27.62819,5.32846 40.53995,-9.8e-4 0.85908,-0.35484 1.84201,0.05308 2.1998,0.91413 0.35385,0.85908 -0.05505,1.84299 -0.91412,2.19783 -6.8648,2.8328 -14.22498,4.25018 -21.57729,4.25018 z"
       id="path4092"
       inkscape:connector-curvature="0" /><path
       d="m 70.92383,24.14993 c -0.27325,0 -0.55044,-0.06684 -0.806,-0.2074 -3.95138,-2.16441 -8.52003,-3.53757 -13.58212,-4.08211 -0.92395,-0.09928 -1.59235,-0.92985 -1.49208,-1.85381 0.09829,-0.92494 0.90036,-1.59038 1.8538,-1.49405 5.50441,0.59271 10.49573,2.09855 14.83634,4.47725 0.81583,0.44723 1.11464,1.46948 0.66839,2.28531 -0.30668,0.55831 -0.88267,0.87481 -1.47833,0.87481 z"
       id="path4094"
       inkscape:connector-curvature="0" /><path
       d="m 29.10018,24.14993 c -0.59566,0 -1.17165,-0.3165 -1.47833,-0.87481 -0.44625,-0.81583 -0.14744,-1.83808 0.66839,-2.28531 4.34062,-2.37869 9.33193,-3.88454 14.83634,-4.47725 0.94165,-0.08158 1.75551,0.5701 1.85381,1.49405 0.10026,0.92395 -0.56813,1.75453 -1.49208,1.85381 -5.06209,0.54454 -9.63074,1.9177 -13.58212,4.08211 -0.25557,0.14057 -0.53276,0.2074 -0.80601,0.2074 z"
       id="path4096"
       inkscape:connector-curvature="0" /><path
       d="m 70.9258,24.14993 c -0.92986,0 -1.68278,-0.75391 -1.68278,-1.68376 V 12.08054 c 0,-4.79768 -3.9042,-8.70089 -8.70286,-8.70089 H 39.48384 c -4.79866,0 -8.70286,3.90321 -8.70286,8.70089 v 10.38563 c 0,0.92985 -0.75292,1.68376 -1.68278,1.68376 -0.92986,0 -1.68278,-0.75391 -1.68278,-1.68376 V 12.08054 c 0,-6.65443 5.41398,-12.06841 12.06841,-12.06841 h 21.05632 c 6.65443,0 12.06841,5.41398 12.06841,12.06841 v 10.38563 c 1e-5,0.92986 -0.75292,1.68376 -1.68276,1.68376 z"
       id="path4098"
       inkscape:connector-curvature="0" /><path
       d="m 78.68504,99.9859 c -0.92986,0 -1.68278,-0.75292 -1.68278,-1.68278 v -9.30244 c 0,-0.92985 0.75292,-1.68278 1.68278,-1.68278 0.92985,0 1.68278,0.75293 1.68278,1.68278 v 9.30244 c 0,0.92986 -0.75293,1.68278 -1.68278,1.68278 z"
       id="path4100"
       inkscape:connector-curvature="0" /><path
       d="m 21.33896,99.9859 c -0.92985,0 -1.68278,-0.75292 -1.68278,-1.68278 v -9.30244 c 0,-0.92985 0.75292,-1.68278 1.68278,-1.68278 0.92985,0 1.68278,0.75293 1.68278,1.68278 v 9.30244 c 0,0.92986 -0.75293,1.68278 -1.68278,1.68278 z"
       id="path4102"
       inkscape:connector-curvature="0" /><path
       d="m 10.85307,50.30667 c -0.90823,0 -1.81842,-0.11599 -2.71682,-0.34599 C 5.33097,49.23725 2.9798,47.45421 1.5113,44.94184 -0.40345,41.70898 -0.50567,37.7694 1.24394,34.41368 c 0.0059,-0.01376 0.01376,-0.02654 0.01966,-0.0403 0.85711,-1.5432 3.34196,-1.5432 4.19908,0 l 3.05691,5.16038 C 9.878,39.23299 11.12435,38.5066 12.06207,37.46666 L 8.98943,32.28367 C 8.54121,31.47669 8.55104,30.53602 8.9914,29.78801 c 0.43839,-0.7431 1.2149,-1.18738 2.07595,-1.18738 3.86291,0.14252 7.25992,2.13591 9.15107,5.33436 3.01563,5.15743 1.2896,11.81973 -3.84325,14.85993 -1.7103,1.00063 -3.60735,1.51175 -5.5221,1.51175 z M 3.5617,37.77039 c -0.42659,1.84496 -0.13958,3.79018 0.85122,5.46411 1.01635,1.74077 2.63622,2.96746 4.56276,3.46482 1.93047,0.49834 3.95138,0.21133 5.69313,-0.80698 3.53658,-2.09364 4.72789,-6.69473 2.64801,-10.24999 -0.98293,-1.66115 -2.56741,-2.85345 -4.42515,-3.37931 l 2.64801,4.46643 c 0.3283,0.55339 0.31061,1.24635 -0.04325,1.78402 -1.72799,2.62737 -4.6237,4.31703 -7.74352,4.52049 -0.66446,0.03244 -1.23653,-0.27719 -1.55893,-0.82173 z"
       id="path4104"
       inkscape:connector-curvature="0" /><path
       d="m 18.25846,62.15294 c -0.61728,0 -1.21294,-0.3401 -1.50781,-0.92985 l -1.96193,-3.90026 c -1.35448,-2.6834 -2.73451,-5.41791 -4.03788,-8.10131 -0.40693,-0.83549 -0.05898,-1.84299 0.77848,-2.24894 0.83549,-0.41381 1.84398,-0.05701 2.24894,0.77848 1.29747,2.66767 2.66964,5.38646 4.01625,8.05413 l 1.96782,3.91206 c 0.4148,0.83156 0.07863,1.84201 -0.75292,2.25877 -0.24179,0.11991 -0.49932,0.17692 -0.75095,0.17692 z m 9.18646,-1.71226 c -0.54258,0 -1.07533,-0.26146 -1.39969,-0.74506 -2.31775,-3.45401 -5.81894,-8.62029 -9.33587,-13.60571 -0.53471,-0.7598 -0.35386,-1.80957 0.40497,-2.34625 0.76275,-0.53569 1.81056,-0.35287 2.34724,0.40595 3.53461,5.01294 7.05154,10.20084 9.37911,13.67058 0.51899,0.77258 0.31257,1.81842 -0.46001,2.33544 -0.28701,0.19265 -0.61335,0.28505 -0.93575,0.28505 z"
       id="path4106"
       inkscape:connector-curvature="0" /><path
       d="m 31.95264,78.35948 c -0.92985,0 -1.68278,-0.75292 -1.68278,-1.68277 V 63.26562 c 0,-0.92985 0.75292,-1.68277 1.68278,-1.68277 0.92986,0 1.68278,0.75292 1.68278,1.68277 v 13.41109 c -1e-5,0.92985 -0.75293,1.68277 -1.68278,1.68277 z"
       id="path4108"
       inkscape:connector-curvature="0" /><path
       d="m 68.07137,78.35948 c -0.92985,0 -1.68277,-0.75292 -1.68277,-1.68277 V 63.26562 c 0,-0.92985 0.75292,-1.68277 1.68277,-1.68277 0.92986,0 1.68278,0.75292 1.68278,1.68277 v 13.41109 c -10e-6,0.92985 -0.75293,1.68277 -1.68278,1.68277 z"
       id="path4110"
       inkscape:connector-curvature="0" /><path
       d="M 61.22428,88.51511 H 38.74271 c -0.92985,0 -1.68277,-0.75292 -1.68277,-1.68278 0,-0.92985 0.75292,-1.68278 1.68277,-1.68278 h 22.48157 c 0.92985,0 1.68277,0.75293 1.68277,1.68278 0,0.92986 -0.75292,1.68278 -1.68277,1.68278 z"
       id="path4112"
       inkscape:connector-curvature="0" /><path
       d="m 91.63808,74.99197 c -0.34402,0 -0.69198,-0.10419 -0.99079,-0.32436 -0.75095,-0.54848 -0.91412,-1.60021 -0.36565,-2.35117 l 4.42318,-6.05485 -1.5432,-1.12054 c -0.60745,-0.44035 -0.84925,-1.23259 -0.59369,-1.93834 0.47574,-1.30533 0.72736,-2.36886 0.81779,-3.44222 0.16513,-1.34268 0.14941,-2.53792 -0.03931,-3.62308 -0.13368,-0.76865 0.27718,-1.52551 0.99276,-1.83415 l 1.74961,-0.75489 -2.34724,-5.30978 -1.7791,0.76669 c -0.68805,0.30274 -1.48619,0.10419 -1.9639,-0.47181 -1.49405,-1.80466 -3.52872,-3.29478 -5.73048,-4.19514 -0.69592,-0.28407 -1.11858,-0.99669 -1.03601,-1.7447 l 0.21428,-1.91278 -5.78355,-0.61433 -0.21428,1.92949 c -0.08257,0.74113 -0.64284,1.33973 -1.3761,1.47144 -1.54713,0.27719 -2.82691,0.6969 -4.02805,1.32008 -0.82566,0.43249 -1.84005,0.10812 -2.27057,-0.71656 -0.42856,-0.82468 -0.10812,-1.84103 0.71754,-2.26958 1.15002,-0.5986 2.38459,-1.05567 3.74496,-1.38691 l 0.26539,-2.38459 c 0.10223,-0.91904 0.94164,-1.59333 1.84988,-1.48816 l 9.13142,0.97015 c 0.44624,0.04718 0.85515,0.27031 1.1343,0.61925 0.28111,0.34992 0.41086,0.79617 0.36172,1.24144 l -0.2654,2.3777 c 1.88133,0.93084 3.58966,2.18112 5.03064,3.68402 l 2.19586,-0.94754 c 0.83549,-0.36467 1.83218,0.01769 2.2057,0.86498 l 3.70957,8.38931 c 0.18282,0.41086 0.19266,0.87677 0.02753,1.2955 -0.16317,0.41676 -0.48753,0.75293 -0.90037,0.92985 l -2.15458,0.92985 c 0.0747,1.02618 0.04325,2.10151 -0.09436,3.21222 -0.07864,0.95344 -0.27325,1.9462 -0.59763,3.03135 l 1.91278,1.3879 c 0.36172,0.26342 0.60548,0.65856 0.67429,1.10088 0.0688,0.44232 -0.03932,0.8925 -0.30471,1.25422 l -5.41988,7.41915 c -0.32826,0.45214 -0.84136,0.69001 -1.36035,0.69001 z"
       id="path4114"
       inkscape:connector-curvature="0" /><path
       d="m 86.84336,36.24783 c -0.81976,0 -1.53731,-0.59861 -1.66312,-1.43213 l -0.10616,-0.70771 c -0.80403,-0.20838 -1.59235,-0.51997 -2.3433,-0.9269 l -0.5642,0.43347 c -0.72933,0.5642 -1.77714,0.43249 -2.34527,-0.28898 l -3.02546,-3.82261 c -0.57404,-0.72442 -0.45608,-1.77419 0.26146,-2.3551 l 0.56223,-0.45313 C 77.51731,26.31533 77.43475,25.9084 77.36595,25.46116 77.30108,25.08077 77.26372,24.6699 77.2539,24.23446 L 76.59534,23.9789 c -0.4207,-0.16218 -0.75686,-0.48557 -0.93575,-0.8984 -0.17889,-0.41185 -0.18676,-0.87874 -0.01966,-1.29648 l 1.82629,-4.56473 c 0.34206,-0.85711 1.31516,-1.27781 2.17031,-0.9446 l 0.68411,0.26441 c 0.58386,-0.58091 1.23849,-1.09891 1.94621,-1.54123 l -0.11009,-0.7254 c -0.06683,-0.44428 0.04718,-0.89643 0.31454,-1.25717 0.26933,-0.36073 0.67036,-0.5986 1.11465,-0.66151 l 4.84977,-0.68412 c 0.91413,-0.12385 1.75945,0.50129 1.90099,1.41542 l 0.10616,0.70673 c 0.79617,0.20642 1.57661,0.51309 2.31775,0.91216 l 0.56026,-0.45215 c 0.34992,-0.28308 0.80207,-0.41185 1.24439,-0.3627 0.44625,0.05013 0.85515,0.2762 1.1343,0.62908 l 3.02349,3.82261 c 0.57207,0.72344 0.45411,1.7732 -0.26343,2.35313 l -0.5701,0.46099 c 0.10419,0.38236 0.19069,0.78241 0.26146,1.20507 0.06487,0.42364 0.10223,0.8581 0.11205,1.30533 l 0.66053,0.25556 c 0.42069,0.16218 0.75686,0.48557 0.93575,0.8984 0.17889,0.41185 0.18675,0.87874 0.01965,1.29648 l -1.82628,4.56473 c -0.1671,0.41873 -0.4954,0.75292 -0.91216,0.92789 -0.41676,0.173 -0.88464,0.173 -1.3014,0 L 95.1963,31.3381 c -0.57796,0.58976 -1.2326,1.11464 -1.94621,1.56286 l 0.11205,0.72442 c 0.06684,0.44428 -0.04521,0.89741 -0.31454,1.25815 -0.26932,0.36074 -0.67036,0.59959 -1.11464,0.66249 l -4.85175,0.6851 c -0.08058,0.01082 -0.15922,0.01671 -0.23785,0.01671 z m -4.2207,-6.79204 c 0.33813,0 0.67429,0.10124 0.96524,0.30471 0.96523,0.67626 2.09364,1.11956 3.17289,1.2493 0.75096,0.08945 1.35055,0.67036 1.46457,1.41935 l 0.03539,0.23492 1.51568,-0.21428 -0.03146,-0.20052 c -0.11008,-0.73327 0.27129,-1.45277 0.93968,-1.77222 1.08122,-0.51702 2.01107,-1.26798 2.68929,-2.17228 0.46001,-0.61826 1.2896,-0.83746 1.99731,-0.54356 l 0.19069,0.0806 0.5583,-1.39576 -0.18086,-0.07077 c -0.69591,-0.26932 -1.13233,-0.96524 -1.06943,-1.70931 0.05309,-0.64185 0.03735,-1.23849 -0.04324,-1.77321 -0.10616,-0.62711 -0.2536,-1.16281 -0.46198,-1.66312 -0.28701,-0.69002 -0.08453,-1.48619 0.49737,-1.95603 l 0.18675,-0.15137 -0.93575,-1.18246 -0.1612,0.13073 c -0.58779,0.46984 -1.41345,0.49835 -2.02287,0.06782 -0.96326,-0.67429 -2.08971,-1.11759 -3.17289,-1.24832 -0.75293,-0.09043 -1.35055,-0.67134 -1.46457,-1.41935 l -0.03539,-0.23394 -1.51568,0.21329 0.03146,0.20248 c 0.11008,0.73228 -0.27129,1.4508 -0.93968,1.77026 -1.06943,0.51112 -2.00714,1.2552 -2.71485,2.14967 -0.46001,0.57993 -1.24242,0.78929 -1.9285,0.52587 l -0.21428,-0.08355 -0.576,1.43901 0.18085,0.07077 c 0.69592,0.26932 1.13234,0.96524 1.06943,1.70931 -0.05308,0.63399 -0.03931,1.2208 0.04128,1.69555 0.10616,0.68805 0.24574,1.20114 0.44232,1.63461 0.31651,0.69886 0.12188,1.52354 -0.47574,2.00616 l -0.18676,0.15039 0.95934,1.21293 0.1671,-0.12778 c 0.30078,-0.23293 0.66447,-0.3499 1.02619,-0.3499 z"
       id="path4116"
       inkscape:connector-curvature="0" /><path
       d="m 87.75945,28.14456 c -2.31185,0 -4.19318,-1.88133 -4.19318,-4.19416 0,-2.31283 1.88132,-4.19514 4.19318,-4.19514 2.31186,0 4.19318,1.88231 4.19318,4.19514 0,2.31283 -1.88133,4.19416 -4.19318,4.19416 z m 0,-5.02179 c -0.4718,0 -0.82762,0.35582 -0.82762,0.82763 0,0.44035 0.38727,0.82664 0.82762,0.82664 0.44035,0 0.82763,-0.38629 0.82763,-0.82664 -1e-5,-0.47181 -0.35583,-0.82763 -0.82763,-0.82763 z"
       id="path4118"
       inkscape:connector-curvature="0" /><path
       d="m 84.2209,64.60633 c -0.38138,0 -0.76276,-0.12778 -1.07729,-0.38924 -0.71557,-0.59566 -0.8119,-1.65722 -0.21624,-2.37083 0.89053,-1.06746 1.38003,-2.38655 1.38003,-3.71547 0,-3.16307 -2.54775,-5.73638 -5.67937,-5.73638 -3.12965,0 -5.6774,2.57331 -5.6774,5.73638 0,0.13368 -0.0079,0.30077 0.02556,0.46787 0.18085,0.91216 -0.4089,1.79876 -1.32106,1.98159 -0.91019,0.17693 -1.79679,-0.4089 -1.98158,-1.32106 -0.0806,-0.403 -0.08846,-0.806 -0.08846,-1.1284 0,-5.01884 4.05556,-9.10193 9.04295,-9.10193 4.98739,0 9.04492,4.08309 9.04492,9.10193 0,2.11526 -0.76669,4.19907 -2.15852,5.87005 -0.3342,0.39908 -0.8119,0.60549 -1.29354,0.60549 z"
       id="path4120"
       inkscape:connector-curvature="0" /></g></svg>