<?xml version="1.0" encoding="UTF-8" standalone="no"?>
<svg
   xmlns:dc="http://purl.org/dc/elements/1.1/"
   xmlns:cc="http://creativecommons.org/ns#"
   xmlns:rdf="http://www.w3.org/1999/02/22-rdf-syntax-ns#"
   xmlns:svg="http://www.w3.org/2000/svg"
   xmlns="http://www.w3.org/2000/svg"
   xmlns:sodipodi="http://sodipodi.sourceforge.net/DTD/sodipodi-0.dtd"
   xmlns:inkscape="http://www.inkscape.org/namespaces/inkscape"
   viewBox="0 0 60 60"
   x="0px"
   y="0px"
   version="1.1"
   id="svg912"
   sodipodi:docname="noun_developer_2209170.svg"
   width="60"
   height="60"
   inkscape:version="0.92.3 (2405546, 2018-03-11)">
  <metadata
     id="metadata918">
    <rdf:RDF>
      <cc:Work
         rdf:about="">
        <dc:format>image/svg+xml</dc:format>
        <dc:type
           rdf:resource="http://purl.org/dc/dcmitype/StillImage" />
        <dc:title></dc:title>
      </cc:Work>
    </rdf:RDF>
  </metadata>
  <defs
     id="defs916" />
  <sodipodi:namedview
     pagecolor="#ffffff"
     bordercolor="#666666"
     borderopacity="1"
     objecttolerance="10"
     gridtolerance="10"
     guidetolerance="10"
     inkscape:pageopacity="0"
     inkscape:pageshadow="2"
     inkscape:window-width="3706"
     inkscape:window-height="2049"
     id="namedview914"
     showgrid="false"
     fit-margin-top="0"
     fit-margin-left="0"
     fit-margin-right="0"
     fit-margin-bottom="0"
     inkscape:zoom="2.95"
     inkscape:cx="-57.79661"
     inkscape:cy="22"
     inkscape:window-x="134"
     inkscape:window-y="55"
     inkscape:window-maximized="1"
     inkscape:current-layer="svg912" />
  <g
     id="g906"
     transform="translate(-2,-2)">
    <path
       d="m 13,21 a 1,1 0 0 1 2,0 v 1 h 2 v -1 a 3,3 0 0 0 -6,0 v 1 h 2 z"
       id="path892"
       inkscape:connector-curvature="0" />
    <path
       d="m 23,21 a 1,1 0 0 1 2,0 v 1 h 2 v -1 a 3,3 0 0 0 -6,0 v 1 h 2 z"
       id="path894"
       inkscape:connector-curvature="0" />
    <path
       d="m 17,25 h -2 v 1 a 4,4 0 0 0 8,0 v -1 h -2 v 1 a 2,2 0 0 1 -4,0 z"
       id="path896"
       inkscape:connector-curvature="0" />
    <path
       d="M 60,41 A 5.006,5.006 0 0 0 55,36 H 33.886 A 7,7 0 0 0 29,34 H 24 V 32.9 A 12.065,12.065 0 0 0 25.619,32 H 35 V 18 A 16,16 0 0 0 3,18 v 14 h 9.381 A 12.065,12.065 0 0 0 14,32.9 V 34 H 9 a 7.008,7.008 0 0 0 -7,7 v 20 a 1,1 0 0 0 1,1 h 56 a 3,3 0 0 0 3,-3 v -3 h -2 z m -2,0 V 56 H 30 V 41 a 3,3 0 0 1 3,-3 h 22 a 3,3 0 0 1 3,3 z M 9,16 h 20 v 6 A 10,10 0 0 1 9,22 Z m 22,4 h 1 a 1,1 0 0 1 0,2 h -1 z m -3.081,10 a 11.942,11.942 0 0 0 2.9,-6 H 32 a 2.966,2.966 0 0 0 1,-0.184 V 30 Z M 19,4 a 14.015,14.015 0 0 1 14,14 v 0.184 A 2.966,2.966 0 0 0 32,18 H 31 V 15 A 1,1 0 0 0 30,14 H 8 a 1,1 0 0 0 -1,1 v 3 H 6 A 2.966,2.966 0 0 0 5,18.184 V 18 A 14.015,14.015 0 0 1 19,4 Z M 7,22 H 6 A 1,1 0 0 1 6,20 H 7 Z M 5,23.816 A 2.966,2.966 0 0 0 6,24 h 1.181 a 11.942,11.942 0 0 0 2.9,6 H 5 Z M 19,34 a 11.932,11.932 0 0 0 3,-0.4 V 35 a 3,3 0 0 1 -6,0 V 33.6 A 11.932,11.932 0 0 0 19,34 Z M 4,41 a 5.006,5.006 0 0 1 5,-5 h 5.1 a 5,5 0 0 0 9.8,0 H 29 A 5,5 0 0 1 31,36.422 5,5 0 0 0 28,41 v 15 h -2 v 3 a 2.966,2.966 0 0 0 0.184,1 H 12 V 47 H 10 V 60 H 4 Z m 56,18 a 1,1 0 0 1 -1,1 H 29 a 1,1 0 0 1 -1,-1 v -1 h 32 z"
       id="path898"
       inkscape:connector-curvature="0" />
    <polygon
       points="40.707,44.707 39.293,43.293 35.586,47 39.293,50.707 40.707,49.293 38.414,47 "
       id="polygon900" />
    <polygon
       points="48.707,43.293 47.293,44.707 49.586,47 47.293,49.293 48.707,50.707 52.414,47 "
       id="polygon902" />
    <rect
       x="40.838001"
       y="46"
       width="6.3249998"
       height="2"
       transform="rotate(-71.556,44.000109,46.999676)"
       id="rect904" />
  </g>
</svg>
