<?xml version="1.0" encoding="UTF-8" standalone="no"?>
<svg
   xmlns:dc="http://purl.org/dc/elements/1.1/"
   xmlns:cc="http://creativecommons.org/ns#"
   xmlns:rdf="http://www.w3.org/1999/02/22-rdf-syntax-ns#"
   xmlns:svg="http://www.w3.org/2000/svg"
   xmlns="http://www.w3.org/2000/svg"
   xmlns:sodipodi="http://sodipodi.sourceforge.net/DTD/sodipodi-0.dtd"
   xmlns:inkscape="http://www.inkscape.org/namespaces/inkscape"
   data-name="Layer 1"
   viewBox="0 0 65.127182 82.004944"
   x="0px"
   y="0px"
   version="1.1"
   id="svg9605"
   sodipodi:docname="noun_EU personal data protection_1815159.svg"
   width="65.127182"
   height="82.004944"
   inkscape:version="0.92.3 (2405546, 2018-03-11)">
  <metadata
     id="metadata9611">
    <rdf:RDF>
      <cc:Work
         rdf:about="">
        <dc:format>image/svg+xml</dc:format>
        <dc:type
           rdf:resource="http://purl.org/dc/dcmitype/StillImage" />
        <dc:title>GDPR</dc:title>
      </cc:Work>
    </rdf:RDF>
  </metadata>
  <defs
     id="defs9609" />
  <sodipodi:namedview
     pagecolor="#ffffff"
     bordercolor="#666666"
     borderopacity="1"
     objecttolerance="10"
     gridtolerance="10"
     guidetolerance="10"
     inkscape:pageopacity="0"
     inkscape:pageshadow="2"
     inkscape:window-width="1853"
     inkscape:window-height="2049"
     id="namedview9607"
     showgrid="false"
     fit-margin-top="0"
     fit-margin-left="0"
     fit-margin-right="0"
     fit-margin-bottom="0"
     inkscape:zoom="1.888"
     inkscape:cx="-104.1792"
     inkscape:cy="28.503975"
     inkscape:window-x="134"
     inkscape:window-y="55"
     inkscape:window-maximized="0"
     inkscape:current-layer="svg9605" />
  <title
     id="title9597">GDPR</title>
  <path
     d="m 36.193008,40.810968 a 4.93,4.93 0 0 0 1.81,-3.81 5,5 0 0 0 -10,0 4.93,4.93 0 0 0 1.81,3.81 8.32,8.32 0 0 0 -4.21,7.39 1,1 0 0 0 2,0 c 0,-3.42 2.4,-6.2 5.4,-6.2 3,0 5.4,2.78 5.4,6.2 a 1,1 0 0 0 2,0 8.32,8.32 0 0 0 -4.21,-7.39 z m -6.19,-3.81 a 3,3 0 1 1 3,3 3,3 0 0 1 -3,-3 z m -1.29,-13.8 a 0.27,0.27 0 0 1 0.15,-0.46 l 2.42,-0.35 a 0.3,0.3 0 0 0 0.21,-0.15 l 1.08,-2.24 a 0.28,0.28 0 0 1 0.49,0 l 1.08,2.2 a 0.3,0.3 0 0 0 0.21,0.15 l 2.42,0.35 a 0.27,0.27 0 0 1 0.15,0.46 l -1.75,1.71 a 0.24,0.24 0 0 0 -0.08,0.24 l 0.41,2.41 a 0.27,0.27 0 0 1 -0.39,0.29 l -2.17,-1.14 a 0.28,0.28 0 0 0 -0.25,0 l -2.17,1.14 a 0.27,0.27 0 0 1 -0.39,-0.29 l 0.41,-2.41 a 0.24,0.24 0 0 0 -0.08,-0.24 z m -5.79,7 -1.75,1.71 a 0.24,0.24 0 0 0 -0.08,0.24 l 0.41,2.41 a 0.27,0.27 0 0 1 -0.39,0.29 l -2.17,-1.14 a 0.28,0.28 0 0 0 -0.25,0 l -2.17,1.14 a 0.27,0.27 0 0 1 -0.39,-0.29 l 0.41,-2.41 a 0.24,0.24 0 0 0 -0.08,-0.24 l -1.75,-1.71 a 0.27,0.27 0 0 1 0.15,-0.46 l 2.42,-0.35 a 0.3,0.3 0 0 0 0.21,-0.15 l 1.08,-2.24 a 0.28,0.28 0 0 1 0.49,0 l 1.08,2.2 a 0.3,0.3 0 0 0 0.21,0.15 l 2.42,0.35 a 0.27,0.27 0 0 1 0.15,0.5 z m 28.37,0 -1.75,1.71 a 0.24,0.24 0 0 0 -0.08,0.24 l 0.41,2.41 a 0.27,0.27 0 0 1 -0.39,0.29 l -2.17,-1.14 a 0.28,0.28 0 0 0 -0.25,0 l -2.17,1.14 a 0.27,0.27 0 0 1 -0.39,-0.29 l 0.41,-2.41 a 0.24,0.24 0 0 0 -0.08,-0.24 l -1.75,-1.71 a 0.27,0.27 0 0 1 0.15,-0.46 l 2.42,-0.35 a 0.3,0.3 0 0 0 0.21,-0.15 l 1.08,-2.24 a 0.28,0.28 0 0 1 0.49,0 l 1.08,2.2 a 0.3,0.3 0 0 0 0.21,0.15 l 2.42,0.35 a 0.27,0.27 0 0 1 0.15,0.5 z m 9,21.91 a 65.65,65.65 0 0 0 3.18,-39.37 1,1 0 0 0 -0.59,-0.67 l -30,-11.99999975 a 1,1 0 0 0 -0.74,0 L 2.1430078,12.070968 a 1,1 0 0 0 -0.59,0.67 c -0.13,0.44 -11.7199998,45 30.4600002,69.13 a 1,1 0 0 0 1,0 73.51,73.51 0 0 0 9.11,-6.13 15,15 0 0 0 18.16,-23.63 z m -27.79,27.74 c -37.9300002,-22.06 -30.2500002,-61.35 -29.1500002,-66.11 L 32.503008,2.0809682 l 29.15,11.6599998 c 0.7,3 4.06,19.69 -3,37 a 15.33,15.33 0 0 0 -3.54,-1.86 60.33,60.33 0 0 0 3.16,-31.71 1,1 0 0 0 -0.62,-0.76 l -24.8,-9.9199998 a 1,1 0 0 0 -0.74,0 L 7.3130078,16.410968 a 1,1 0 0 0 -0.62,0.76 c -1.51,8.83 -4.21,38.83 25.3100002,57.66 a 1,1 0 0 0 1.08,0 c 1.62,-1 3.17,-2.14 4.65,-3.28 a 15.06,15.06 0 0 0 2.72,3 70.93,70.93 0 0 1 -7.95,5.3 z m 17.5,-31.85 a 15,15 0 0 0 -13.34,21.83 c -1.32,1 -2.71,2 -4.16,3 -27.2900002,-17.83 -25.3800002,-45.7 -23.9100002,-54.73 l 23.9100002,-9.5599998 23.91,9.5599998 a 58,58 0 0 1 -3.21,30.25 15.3,15.3 0 0 0 -3.2,-0.35 z m 0,28 a 13,13 0 1 1 13,-13 13,13 0 0 1 -13,13 z m 6,-19.33 a 1,1 0 0 1 0.28,1.38 l -8,12 a 1,1 0 0 1 -0.78,0.45 v 0 a 1,1 0 0 1 -0.77,-0.36 l -4,-4.8 a 1.0012492,1.0012492 0 1 1 1.54,-1.28 l 3.14,3.77 7.26,-10.83 a 1,1 0 0 1 1.38,-0.33 z"
     id="path9599"
     inkscape:connector-curvature="0" />
</svg>
