<?xml version="1.0" encoding="UTF-8" standalone="no"?>
<svg
   xmlns:dc="http://purl.org/dc/elements/1.1/"
   xmlns:cc="http://creativecommons.org/ns#"
   xmlns:rdf="http://www.w3.org/1999/02/22-rdf-syntax-ns#"
   xmlns:svg="http://www.w3.org/2000/svg"
   xmlns="http://www.w3.org/2000/svg"
   xmlns:sodipodi="http://sodipodi.sourceforge.net/DTD/sodipodi-0.dtd"
   xmlns:inkscape="http://www.inkscape.org/namespaces/inkscape"
   version="1.1"
   x="0px"
   y="0px"
   viewBox="0 0 80 80"
   xml:space="preserve"
   id="svg5498"
   sodipodi:docname="noun_Team Strategy_2023240.svg"
   width="80"
   height="80"
   inkscape:version="0.92.3 (2405546, 2018-03-11)"><metadata
     id="metadata5504"><rdf:RDF><cc:Work
         rdf:about=""><dc:format>image/svg+xml</dc:format><dc:type
           rdf:resource="http://purl.org/dc/dcmitype/StillImage" /><dc:title></dc:title></cc:Work></rdf:RDF></metadata><defs
     id="defs5502" /><sodipodi:namedview
     pagecolor="#ffffff"
     bordercolor="#666666"
     borderopacity="1"
     objecttolerance="10"
     gridtolerance="10"
     guidetolerance="10"
     inkscape:pageopacity="0"
     inkscape:pageshadow="2"
     inkscape:window-width="1853"
     inkscape:window-height="2049"
     id="namedview5500"
     showgrid="false"
     fit-margin-top="0"
     fit-margin-left="0"
     fit-margin-right="0"
     fit-margin-bottom="0"
     inkscape:zoom="1.888"
     inkscape:cx="-97.182203"
     inkscape:cy="27.5"
     inkscape:window-x="134"
     inkscape:window-y="55"
     inkscape:window-maximized="0"
     inkscape:current-layer="svg5498" /><path
     d="m 40.125,31.99707 c -4.412598,0 -8.00293,3.589844 -8.00293,8.00293 0,4.413086 3.590332,8.00293 8.00293,8.00293 4.412598,0 8.00293,-3.589844 8.00293,-8.00293 0,-4.413086 -3.590332,-8.00293 -8.00293,-8.00293 z m 0,14.00586 c -3.310059,0 -6.00293,-2.69336 -6.00293,-6.00293 0,-3.30957 2.692871,-6.00293 6.00293,-6.00293 3.310059,0 6.00293,2.69336 6.00293,6.00293 0,3.30957 -2.692871,6.00293 -6.00293,6.00293 z"
     id="path5474"
     inkscape:connector-curvature="0" /><path
     d="m 56.063477,37.579102 c 0.282226,-0.0293 0.538574,-0.177735 0.705078,-0.407227 0.166504,-0.229492 0.227539,-0.519531 0.167968,-0.796875 -0.435546,-2.029297 -1.230468,-3.946289 -2.362793,-5.698242 -0.153808,-0.238281 -0.401855,-0.399414 -0.68164,-0.444336 -0.279297,-0.04687 -0.56543,0.03125 -0.786621,0.209961 -0.969727,0.784179 -2.365723,0.708984 -3.248535,-0.174805 -0.882325,-0.882812 -0.957032,-2.27832 -0.173829,-3.248047 0.178223,-0.220703 0.254395,-0.506836 0.209473,-0.787109 -0.04492,-0.280274 -0.206543,-0.527344 -0.444824,-0.681641 -1.753418,-1.132812 -3.67041,-1.927734 -5.698242,-2.362305 -0.276856,-0.0625 -0.567383,9.77e-4 -0.796387,0.167969 -0.22998,0.166992 -0.37793,0.422852 -0.407715,0.705078 -0.130371,1.240235 -1.170898,2.174805 -2.42041,2.174805 -1.249512,0 -2.290039,-0.93457 -2.42041,-2.174805 -0.02979,-0.282226 -0.177735,-0.538086 -0.407715,-0.705078 -0.229492,-0.166015 -0.517578,-0.228515 -0.796387,-0.167969 -2.027832,0.434571 -3.944824,1.229493 -5.698242,2.362305 -0.238281,0.154297 -0.399902,0.401367 -0.444824,0.681641 -0.04492,0.280273 0.03125,0.566406 0.209473,0.787109 0.783203,0.969727 0.708496,2.365235 -0.173828,3.248047 -0.884278,0.882813 -2.280274,0.958008 -3.248536,0.174805 -0.220703,-0.178711 -0.505371,-0.256836 -0.786621,-0.209961 -0.279785,0.04492 -0.527832,0.206055 -0.68164,0.444336 -1.132325,1.751953 -1.927246,3.668945 -2.362793,5.698242 -0.05957,0.277344 0.0015,0.567383 0.167968,0.796875 0.166504,0.229492 0.422852,0.37793 0.705079,0.407227 1.240234,0.130859 2.175293,1.171875 2.175293,2.420898 0,1.249023 -0.935059,2.290039 -2.175293,2.420898 -0.282227,0.0293 -0.538575,0.177735 -0.705079,0.407227 -0.166503,0.229492 -0.227539,0.519531 -0.167968,0.796875 0.435547,2.029297 1.230468,3.946289 2.362793,5.698242 0.153808,0.238281 0.401855,0.399414 0.68164,0.444336 0.28125,0.04687 0.565918,-0.03027 0.786621,-0.209961 0.970704,-0.782226 2.3667,-0.708008 3.248536,0.174805 0.882324,0.882812 0.957031,2.27832 0.173828,3.248047 -0.178223,0.220703 -0.254395,0.506836 -0.209473,0.787109 0.04492,0.280274 0.206543,0.527344 0.444824,0.681641 1.753418,1.132812 3.67041,1.927734 5.698242,2.362304 0.276856,0.06152 0.566407,-9.76e-4 0.796387,-0.167968 0.229981,-0.166993 0.37793,-0.422852 0.407715,-0.705078 0.130371,-1.240235 1.170898,-2.174805 2.42041,-2.174805 1.249512,0 2.290039,0.93457 2.42041,2.174805 0.02979,0.282226 0.177735,0.538085 0.407715,0.705078 0.171875,0.125 0.37793,0.190429 0.586914,0.190429 0.06982,0 0.140137,-0.0068 0.209473,-0.02246 2.027832,-0.43457 3.944824,-1.229492 5.698242,-2.362304 0.238281,-0.154297 0.399902,-0.401367 0.444824,-0.681641 0.04492,-0.280273 -0.03125,-0.566406 -0.209472,-0.787109 -0.783203,-0.969727 -0.708496,-2.365235 0.173828,-3.248047 0.882812,-0.883789 2.278808,-0.958985 3.248535,-0.174805 0.221191,0.179688 0.507324,0.256836 0.786621,0.209961 0.279785,-0.04492 0.527832,-0.206055 0.681641,-0.444336 1.132324,-1.751953 1.927246,-3.668945 2.362793,-5.698242 0.05957,-0.277344 -0.0015,-0.567383 -0.167969,-0.796875 -0.166504,-0.229492 -0.422852,-0.37793 -0.705078,-0.407227 C 54.823242,42.290039 53.888184,41.249023 53.888184,40 c 0,-1.249023 0.935058,-2.290039 2.175293,-2.420898 z m -1.316407,6.568359 c -0.3208,1.135742 -0.773437,2.225586 -1.35205,3.258789 -1.643555,-0.741211 -3.619141,-0.419922 -4.952149,0.912109 -1.332519,1.332032 -1.653808,3.307618 -0.911621,4.952149 -1.033691,0.579101 -2.124023,1.03125 -3.258301,1.351562 -0.636719,-1.6875 -2.261719,-2.858398 -4.147949,-2.858398 -1.88623,0 -3.51123,1.170898 -4.147949,2.858398 -1.134277,-0.320312 -2.22461,-0.772461 -3.258301,-1.351562 0.742188,-1.644531 0.420898,-3.620117 -0.911621,-4.952149 -1.333008,-1.333007 -3.30957,-1.65332 -4.952148,-0.912109 -0.578614,-1.033203 -1.03125,-2.123047 -1.352051,-3.258789 1.687988,-0.636719 2.858886,-2.261719 2.858886,-4.147461 0,-1.885742 -1.170898,-3.510742 -2.858886,-4.147461 0.320801,-1.135742 0.773437,-2.225586 1.352051,-3.258789 1.642578,0.741211 3.61914,0.418945 4.952148,-0.912109 1.332519,-1.332032 1.653808,-3.307618 0.911621,-4.952149 1.033691,-0.579101 2.124023,-1.03125 3.258301,-1.351562 0.636719,1.6875 2.261719,2.858398 4.147949,2.858398 1.88623,0 3.51123,-1.170898 4.147949,-2.858398 1.134277,0.320312 2.22461,0.772461 3.258301,1.351562 -0.742188,1.644531 -0.420898,3.620117 0.911621,4.952149 1.333008,1.333007 3.308594,1.65332 4.952148,0.912109 0.578614,1.033203 1.03125,2.123047 1.352051,3.258789 -1.687988,0.636719 -2.858886,2.261719 -2.858886,4.147461 0,1.885742 1.170898,3.510742 2.858886,4.147461 z"
     id="path5476"
     inkscape:connector-curvature="0" /><path
     d="m 78.635742,14.390625 c 0,-7.182617 -5.84375,-13.026367 -13.026367,-13.026367 -7.182617,0 -13.026367,5.84375 -13.026367,13.026367 0,7.182617 5.84375,13.026367 13.026367,13.026367 7.182617,0 13.026367,-5.84375 13.026367,-13.026367 z m -19.604065,8.828613 c 0.121887,-2.801758 1.95221,-5.203125 4.657288,-6.023926 0.385742,-0.117187 0.663574,-0.454101 0.704101,-0.855468 0.04102,-0.401368 -0.162597,-0.78711 -0.516601,-0.979493 -1.271973,-0.692382 -2.0625,-2.021484 -2.0625,-3.46875 0,-2.175781 1.770508,-3.946289 3.946289,-3.946289 2.175781,0 3.945801,1.770508 3.945801,3.946289 0,1.490235 -0.828125,2.836915 -2.161133,3.515625 -0.359863,0.183594 -0.574219,0.564454 -0.543457,0.966797 0.03027,0.402344 0.299805,0.747071 0.682617,0.874024 2.613586,0.865356 4.382507,3.24414 4.503235,5.971191 -1.838867,1.373657 -4.111206,2.197754 -6.577942,2.197754 -2.466675,0 -4.738831,-0.823974 -6.577698,-2.197754 z m -4.448669,-8.828613 c 0,-6.080078 4.946289,-11.026367 11.026367,-11.026367 6.080078,0 11.026367,4.946289 11.026367,11.026367 0,2.736084 -1.00769,5.237305 -2.663574,7.166748 -0.533447,-2.290527 -1.972961,-4.270752 -4.007324,-5.46167 1.101074,-1.095703 1.741211,-2.594726 1.741211,-4.204101 0,-3.278321 -2.667481,-5.946289 -5.945801,-5.946289 -3.278809,0 -5.946289,2.667968 -5.946289,5.946289 0,1.544921 0.598144,3.000976 1.628906,4.089843 -2.140259,1.174805 -3.650207,3.201172 -4.19696,5.575196 -1.655579,-1.929444 -2.662903,-4.430176 -2.662903,-7.166016 z"
     id="path5478"
     inkscape:connector-curvature="0" /><path
     d="m 14.390625,27.416992 c 7.182617,0 13.026367,-5.84375 13.026367,-13.026367 0,-7.182617 -5.84375,-13.026367 -13.026367,-13.026367 -7.182617,0 -13.026367,5.84375 -13.026367,13.026367 0,7.182617 5.84375,13.026367 13.026367,13.026367 z M 7.812927,23.219238 c 0.121887,-2.801758 1.95221,-5.203125 4.657288,-6.023926 0.385742,-0.117187 0.663574,-0.454101 0.704101,-0.855468 0.04102,-0.401368 -0.162597,-0.78711 -0.516601,-0.979493 -1.271973,-0.692382 -2.0625,-2.021484 -2.0625,-3.46875 0,-2.175781 1.770019,-3.946289 3.945801,-3.946289 2.175781,0 3.946289,1.770508 3.946289,3.946289 0,1.490235 -0.828125,2.836915 -2.161133,3.515625 -0.359863,0.183594 -0.574219,0.564454 -0.543457,0.966797 0.03027,0.402344 0.299805,0.747071 0.682617,0.874024 2.613586,0.865356 4.382507,3.24414 4.503235,5.971191 -1.838867,1.373657 -4.111206,2.197754 -6.577942,2.197754 -2.466675,0 -4.738831,-0.823974 -6.577698,-2.197754 z m 6.577698,-19.85498 c 6.080078,0 11.026367,4.946289 11.026367,11.026367 0,2.736084 -1.00769,5.237305 -2.663574,7.166748 -0.533447,-2.290527 -1.972961,-4.270752 -4.007324,-5.46167 1.101074,-1.095703 1.741211,-2.594726 1.741211,-4.204101 0,-3.278321 -2.667481,-5.946289 -5.946289,-5.946289 -3.278321,0 -5.945801,2.667968 -5.945801,5.946289 0,1.544921 0.598144,3.000976 1.628906,4.089843 -2.140259,1.174805 -3.650208,3.201172 -4.19696,5.575196 -1.655579,-1.929444 -2.662903,-4.430176 -2.662903,-7.166016 0,-6.080078 4.946289,-11.026367 11.026367,-11.026367 z"
     id="path5480"
     inkscape:connector-curvature="0" /><path
     d="m 65.609375,52.688477 c -7.182617,0 -13.026367,5.84375 -13.026367,13.026367 0,7.182617 5.84375,13.026367 13.026367,13.026367 7.182617,0 13.026367,-5.84375 13.026367,-13.026367 0,-7.182617 -5.84375,-13.026367 -13.026367,-13.026367 z m -6.577698,21.85498 c 0.121887,-2.801758 1.95221,-5.203125 4.657288,-6.023926 0.385742,-0.117187 0.663574,-0.454101 0.704101,-0.855469 0.04102,-0.401367 -0.162597,-0.787109 -0.516601,-0.979492 -1.271973,-0.692383 -2.0625,-2.021484 -2.0625,-3.46875 0,-2.175781 1.770508,-3.946289 3.946289,-3.946289 2.175781,0 3.945801,1.770508 3.945801,3.946289 0,1.490235 -0.828125,2.836914 -2.161133,3.515625 -0.359863,0.183594 -0.574219,0.564453 -0.543457,0.966797 0.03027,0.402344 0.299805,0.74707 0.682617,0.874024 2.613586,0.865356 4.382507,3.24414 4.503235,5.971191 -1.838867,1.373657 -4.111206,2.197754 -6.577942,2.197754 -2.466675,0 -4.738831,-0.823975 -6.577698,-2.197754 z m 14.940491,-1.661865 c -0.533447,-2.290527 -1.972961,-4.270752 -4.007324,-5.46167 1.101074,-1.095703 1.741211,-2.594727 1.741211,-4.204102 0,-3.27832 -2.667481,-5.946289 -5.945801,-5.946289 -3.278809,0 -5.946289,2.667969 -5.946289,5.946289 0,1.544922 0.598144,3.000977 1.628906,4.089844 -2.140259,1.174805 -3.650207,3.201172 -4.19696,5.575195 -1.655579,-1.929443 -2.662903,-4.430175 -2.662903,-7.166015 0,-6.080078 4.946289,-11.026367 11.026367,-11.026367 6.080078,0 11.026367,4.946289 11.026367,11.026367 0,2.736084 -1.00769,5.237304 -2.663574,7.166748 z"
     id="path5482"
     inkscape:connector-curvature="0" /><path
     d="m 14.390625,52.688477 c -7.182617,0 -13.026367,5.84375 -13.026367,13.026367 0,7.182617 5.84375,13.026367 13.026367,13.026367 7.182617,0 13.026367,-5.84375 13.026367,-13.026367 0,-7.182617 -5.84375,-13.026367 -13.026367,-13.026367 z m -6.577698,21.85498 c 0.121887,-2.801758 1.95221,-5.203125 4.657288,-6.023926 0.385742,-0.117187 0.663574,-0.454101 0.704101,-0.855469 0.04102,-0.401367 -0.162597,-0.787109 -0.516601,-0.979492 -1.271973,-0.692383 -2.0625,-2.021484 -2.0625,-3.46875 0,-2.175781 1.770019,-3.946289 3.945801,-3.946289 2.175781,0 3.946289,1.770508 3.946289,3.946289 0,1.490235 -0.828125,2.836914 -2.161133,3.515625 -0.359863,0.183594 -0.574219,0.564453 -0.543457,0.966797 0.03027,0.402344 0.299805,0.74707 0.682617,0.874024 2.613586,0.865356 4.382507,3.24414 4.503235,5.971191 -1.838867,1.373657 -4.111206,2.197754 -6.577942,2.197754 -2.466675,0 -4.738831,-0.823975 -6.577698,-2.197754 z m 14.940491,-1.661865 c -0.533447,-2.290527 -1.972961,-4.270752 -4.007324,-5.46167 1.101074,-1.095703 1.741211,-2.594727 1.741211,-4.204102 0,-3.27832 -2.667481,-5.946289 -5.946289,-5.946289 -3.278321,0 -5.945801,2.667969 -5.945801,5.946289 0,1.544922 0.598144,3.000977 1.628906,4.089844 -2.140259,1.174805 -3.650208,3.201172 -4.19696,5.575195 -1.655579,-1.929443 -2.662903,-4.430175 -2.662903,-7.166015 0,-6.080078 4.946289,-11.026367 11.026367,-11.026367 6.080078,0 11.026367,4.946289 11.026367,11.026367 0,2.736084 -1.00769,5.237304 -2.663574,7.166748 z"
     id="path5484"
     inkscape:connector-curvature="0" /><path
     d="M 52.164062,2.832031 C 48.355469,0.953125 44.263184,0 40,0 35.736816,0 31.644531,0.953125 27.835937,2.832031 27.34082,3.076172 27.137207,3.675781 27.381348,4.170898 27.625977,4.666992 28.224609,4.871094 28.720703,4.625 32.251465,2.882813 36.046387,2 40,2 c 3.953613,0 7.748535,0.882813 11.279297,2.625 0.14209,0.07031 0.292969,0.103516 0.441406,0.103516 0.369141,0 0.723633,-0.204102 0.897949,-0.557618 0.244141,-0.495117 0.04053,-1.094726 -0.45459,-1.338867 z"
     id="path5486"
     inkscape:connector-curvature="0" /><path
     d="m 3.729492,52.72168 c 0.148438,0 0.299317,-0.0332 0.441406,-0.103516 0.495118,-0.244141 0.698731,-0.84375 0.45459,-1.338867 C 2.883301,47.748047 2,43.953125 2,40 2,36.046875 2.883301,32.251953 4.625488,28.720703 4.869629,28.225586 4.666018,27.625976 4.170899,27.381836 3.67627,27.137695 3.076172,27.34082 2.831543,27.835937 0.952637,31.644531 0,35.737305 0,40 c 0,4.262695 0.952637,8.355469 2.831543,12.164062 0.174316,0.353516 0.528809,0.557618 0.897949,0.557618 z"
     id="path5488"
     inkscape:connector-curvature="0" /><path
     d="M 51.279297,75.375 C 47.748535,77.117187 43.953613,78 40,78 c -3.953613,0 -7.748535,-0.882813 -11.279297,-2.625 -0.495117,-0.244141 -1.094727,-0.04102 -1.339355,0.454102 -0.244141,0.495117 -0.04053,1.094726 0.454589,1.338867 C 31.644531,79.046875 35.736816,80 40,80 c 4.263184,0 8.355469,-0.953125 12.164062,-2.832031 0.495118,-0.244141 0.698731,-0.84375 0.45459,-1.338867 C 52.374023,75.333008 51.774414,75.129883 51.279297,75.375 Z"
     id="path5490"
     inkscape:connector-curvature="0" /><path
     d="m 75.829102,27.381836 c -0.495118,0.24414 -0.698731,0.84375 -0.45459,1.338867 C 77.116699,32.251953 78,36.046875 78,40 c 0,3.953125 -0.883301,7.748047 -2.625488,11.279297 -0.244141,0.495117 -0.04053,1.094726 0.454589,1.338867 0.14209,0.07031 0.292969,0.103516 0.441407,0.103516 0.36914,0 0.723632,-0.204102 0.897949,-0.557618 C 79.047363,48.355469 80,44.262695 80,40 80,35.737305 79.047363,31.644531 77.168457,27.835937 76.924316,27.34082 76.325195,27.136719 75.829102,27.381836 Z"
     id="path5492"
     inkscape:connector-curvature="0" /></svg>