<?xml version="1.0" encoding="UTF-8" standalone="no"?>
<svg
   xmlns:dc="http://purl.org/dc/elements/1.1/"
   xmlns:cc="http://creativecommons.org/ns#"
   xmlns:rdf="http://www.w3.org/1999/02/22-rdf-syntax-ns#"
   xmlns:svg="http://www.w3.org/2000/svg"
   xmlns="http://www.w3.org/2000/svg"
   xmlns:sodipodi="http://sodipodi.sourceforge.net/DTD/sodipodi-0.dtd"
   xmlns:inkscape="http://www.inkscape.org/namespaces/inkscape"
   version="1.1"
   x="0px"
   y="0px"
   viewBox="0 0 100 100"
   xml:space="preserve"
   id="svg1720"
   sodipodi:docname="noun_mover_1974883.svg"
   width="100"
   height="100"
   inkscape:version="0.92.3 (2405546, 2018-03-11)"><metadata
     id="metadata1726"><rdf:RDF><cc:Work
         rdf:about=""><dc:format>image/svg+xml</dc:format><dc:type
           rdf:resource="http://purl.org/dc/dcmitype/StillImage" /><dc:title></dc:title></cc:Work></rdf:RDF></metadata><defs
     id="defs1724" /><sodipodi:namedview
     pagecolor="#ffffff"
     bordercolor="#666666"
     borderopacity="1"
     objecttolerance="10"
     gridtolerance="10"
     guidetolerance="10"
     inkscape:pageopacity="0"
     inkscape:pageshadow="2"
     inkscape:window-width="3706"
     inkscape:window-height="2049"
     id="namedview1722"
     showgrid="false"
     fit-margin-top="0"
     fit-margin-left="0"
     fit-margin-right="0"
     fit-margin-bottom="0"
     inkscape:zoom="1.888"
     inkscape:cx="-87.182203"
     inkscape:cy="37.5"
     inkscape:window-x="134"
     inkscape:window-y="55"
     inkscape:window-maximized="1"
     inkscape:current-layer="svg1720" /><g
     id="g1714"><path
       d="m 18.85754,28.36791 c -2.24757,0 -4.24147,-0.84947 -5.93255,-2.52581 -3.23272,-3.20519 -4.70554,-9.08858 -4.70554,-13.19929 0,-1.02055 0.13961,-1.9939 0.41687,-2.89254 0.27136,-0.88684 1.20932,-1.38433 2.10402,-1.11395 0.8888,0.27333 1.38826,1.2162 1.11297,2.105 -0.17697,0.57713 -0.26743,1.21719 -0.26743,1.90148 0,3.54341 1.27421,8.39445 3.71055,10.80818 1.06184,1.05398 2.19251,1.56228 3.61027,1.54852 5.1932,-0.04424 7.35031,-8.07 7.35031,-12.3567 0,-0.6843 -0.09045,-1.32435 -0.26743,-1.90148 -0.27529,-0.8888 0.22417,-1.83168 1.11297,-2.105 0.8947,-0.27234 1.83069,0.22515 2.10402,1.11395 0.27726,0.89863 0.41687,1.87199 0.41687,2.89254 0,6.491 -3.31531,15.66021 -10.68921,15.7251 -0.02557,0 -0.05113,0 -0.07669,0 z"
       id="path1658"
       inkscape:connector-curvature="0" /><path
       d="m 10.24285,11.93 c -0.83178,0 -1.5554,-0.61646 -1.66749,-1.46298 -0.12191,-0.92223 0.52699,-1.76875 1.44922,-1.89067 3.8128,-0.50536 7.23429,-1.28503 10.16223,-2.31639 0.88684,-0.31364 1.84053,0.15239 2.14925,1.02841 0.30872,0.877 -0.15141,1.83856 -1.02841,2.14728 -3.15013,1.10904 -6.79776,1.94376 -10.84259,2.4796 C 10.39033,11.92508 10.3156,11.93 10.24285,11.93 Z"
       id="path1660"
       inkscape:connector-curvature="0" /><path
       d="M 10.24481,11.93 C 9.60377,11.93 8.99026,11.5613 8.70907,10.93698 7.32278,7.8596 8.08377,5.58745 8.9647,4.22377 10.67348,1.579 14.39583,0 18.92046,0 c 0.9301,0 1.68322,0.7541 1.68322,1.6842 0,0.9301 -0.75312,1.6842 -1.68322,1.6842 -3.27598,0 -6.07413,1.05299 -7.12614,2.68312 -0.62334,0.96254 -0.62727,2.14138 -0.01376,3.5031 0.38148,0.84751 0.0039,1.84446 -0.84358,2.22594 C 10.71281,11.88182 10.47685,11.93 10.24481,11.93 Z"
       id="path1662"
       inkscape:connector-curvature="0" /><path
       d="m 27.59807,11.93 c -0.23203,0 -0.468,-0.04818 -0.69216,-0.14944 C 26.0584,11.39908 25.68086,10.40213 26.06234,9.55462 26.67585,8.19291 26.67192,7.01505 26.04857,6.05251 24.99459,4.4214 22.19644,3.36841 18.92046,3.36841 c -0.9301,0 -1.68322,-0.7541 -1.68322,-1.6842 C 17.23724,0.75411 17.99036,0 18.92046,0 c 4.52463,0 8.24698,1.579 9.95772,4.22377 0.88094,1.36466 1.64192,3.63681 0.25563,6.7132 -0.28119,0.62335 -0.8947,0.99303 -1.53574,0.99303 z"
       id="path1664"
       inkscape:connector-curvature="0" /><path
       d="m 27.60004,11.93 c -0.0236,0 -0.04719,-9.8e-4 -0.06882,-0.002 C 24.38109,11.80215 21.73631,10.86517 19.66965,9.14165 18.95389,8.54584 18.85754,7.484 19.45335,6.76922 20.05309,6.05346 21.11297,5.96202 21.8248,6.5539 c 1.48461,1.23783 3.45099,1.91427 5.84013,2.00964 0.9301,0.03736 1.65175,0.81998 1.61636,1.74909 C 29.24393,11.21915 28.49867,11.93 27.60004,11.93 Z"
       id="path1666"
       inkscape:connector-curvature="0" /><path
       d="m 36.15967,46.34746 c -0.93009,0 -1.68322,-0.7541 -1.68322,-1.6842 v -6.96392 c 0,-2.87976 -2.34392,-5.22171 -5.22466,-5.22171 -0.9301,0 -1.68322,-0.7541 -1.68322,-1.6842 0,-0.9301 0.75312,-1.6842 1.68322,-1.6842 4.737,0 8.59109,3.85409 8.59109,8.59011 v 6.96392 c 10e-6,0.93009 -0.75312,1.6842 -1.68321,1.6842 z m -34.47645,0 C 0.75312,46.34746 0,45.59335 0,44.66326 v -6.96392 c 0,-4.73602 3.85409,-8.59011 8.59109,-8.59011 0.9301,0 1.68322,0.7541 1.68322,1.6842 0,0.9301 -0.75312,1.6842 -1.68322,1.6842 -2.88074,0 -5.22466,2.34195 -5.22466,5.22171 v 6.96392 c 0,0.93009 -0.75312,1.6842 -1.68321,1.6842 z"
       id="path1668"
       inkscape:connector-curvature="0" /><path
       d="m 8.59109,32.47763 c -0.9301,0 -1.68322,-0.7541 -1.68322,-1.6842 0,-0.9301 0.75312,-1.6842 1.68322,-1.6842 4.34962,0 4.54233,-0.65382 5.35837,-3.40773 l 0.10618,-0.35591 c 0.26349,-0.89077 1.19949,-1.39908 2.09419,-1.13165 0.89077,0.26644 1.39809,1.2044 1.13067,2.09517 l -0.10225,0.34805 c -1.06774,3.6083 -2.05486,5.82047 -8.58716,5.82047 z"
       id="path1670"
       inkscape:connector-curvature="0" /><path
       d="m 29.25179,32.47763 c -6.53623,0 -7.52139,-2.21414 -8.58913,-5.82538 l -0.10225,-0.34412 c -0.26546,-0.89077 0.24186,-1.82873 1.13263,-2.09419 0.89667,-0.26743 1.82873,0.24186 2.09616,1.13263 l 0.10422,0.351 c 0.81408,2.75686 1.00678,3.41166 5.35837,3.41166 0.9301,0 1.68322,0.7541 1.68322,1.6842 0,0.9301 -0.75312,1.6842 -1.68322,1.6842 z"
       id="path1672"
       inkscape:connector-curvature="0" /><path
       d="M 16.8656,100 H 11.72943 C 9.66867,100 7.99135,98.34824 7.99135,96.31895 V 65.72412 c 0,-0.9301 0.75312,-1.68322 1.68322,-1.68322 0.93009,0 1.68322,0.75312 1.68322,1.68322 v 30.59483 c 0,0.14748 0.15928,0.31462 0.37164,0.31462 h 5.13617 c 0.21827,0 0.37164,-0.16518 0.37164,-0.31462 0,-0.9301 0.75312,-1.68322 1.68322,-1.68322 0.9301,0 1.68322,0.75312 1.68322,1.68322 0,2.02929 -1.67732,3.68105 -3.73808,3.68105 z M 9.67457,47.31786 c -0.9301,0 -1.68322,-0.7541 -1.68322,-1.6842 v -5.13715 c 0,-0.9301 0.75312,-1.6842 1.68322,-1.6842 0.93009,0 1.68322,0.7541 1.68322,1.6842 v 5.13715 c -10e-6,0.9301 -0.75313,1.6842 -1.68322,1.6842 z"
       id="path1674"
       inkscape:connector-curvature="0" /><path
       d="m 26.17048,100 h -5.19516 c -2.06076,0 -3.73808,-1.65176 -3.73808,-3.68105 V 72.3449 c 0,-0.93009 0.75312,-1.68322 1.68322,-1.68322 0.9301,0 1.68322,0.75313 1.68322,1.68322 v 23.97404 c 0,0.14748 0.15928,0.31462 0.37164,0.31462 h 5.19516 c 0.15338,0 0.31462,-0.16125 0.31462,-0.31462 V 65.72412 c 0,-0.9301 0.75312,-1.68322 1.68322,-1.68322 0.9301,0 1.68322,0.75312 1.68322,1.68322 v 30.59483 c 0,2.02929 -1.65176,3.68105 -3.68106,3.68105 z m 1.99784,-52.68214 c -0.9301,0 -1.68322,-0.7541 -1.68322,-1.6842 v -5.13715 c 0,-0.9301 0.75312,-1.6842 1.68322,-1.6842 0.9301,0 1.68322,0.7541 1.68322,1.6842 v 5.13715 c 0,0.9301 -0.75312,1.6842 -1.68322,1.6842 z"
       id="path1676"
       inkscape:connector-curvature="0" /><path
       d="M 9.67457,67.40733 H 7.1635 c -2.75489,0 -4.99459,-2.2397 -4.99459,-4.99263 v -3.31137 c 0,-0.9301 0.75312,-1.68322 1.68322,-1.68322 0.76492,0 1.41186,0.51126 1.61636,1.20932 0.47193,-0.32445 1.09724,-0.40114 1.66355,-0.13961 3.04985,1.41972 4.51086,3.97011 4.21984,7.37784 -0.07275,0.87111 -0.80228,1.53967 -1.67731,1.53967 z M 5.53535,61.44922 v 0.96549 c 0,0.89667 0.73149,1.62619 1.62816,1.62619 H 7.92646 C 7.6846,62.91417 6.97473,62.13155 5.71232,61.54557 5.65136,61.51608 5.59237,61.48461 5.53535,61.44922 Z"
       id="path1678"
       inkscape:connector-curvature="0" /><path
       d="M 6.42218,60.78655 H 3.85213 C 1.72844,60.78655 0,59.05811 0,56.93442 V 44.66326 c 0,-0.9301 0.75312,-1.6842 1.68322,-1.6842 0.9301,0 1.68322,0.7541 1.68322,1.6842 v 12.27116 c 0,0.26743 0.21827,0.48569 0.48569,0.48569 h 2.57005 c 0.9301,0 1.68322,0.75312 1.68322,1.68322 0,0.9301 -0.75312,1.68322 -1.68322,1.68322 z"
       id="path1680"
       inkscape:connector-curvature="0" /><path
       d="M 34.04778,60.78655 H 31.4207 c -0.9301,0 -1.68322,-0.75312 -1.68322,-1.68322 0,-0.9301 0.75312,-1.68322 1.68322,-1.68322 h 2.62708 c 0.20254,0 0.42867,-0.20844 0.42867,-0.48569 V 44.66326 c 0,-0.9301 0.75312,-1.6842 1.68322,-1.6842 0.9301,0 1.68322,0.7541 1.68322,1.6842 v 12.27116 c 0,2.12369 -1.70288,3.85213 -3.79511,3.85213 z"
       id="path1682"
       inkscape:connector-curvature="0" /><path
       d="m 18.92046,36.75843 c -0.37558,0 -0.75312,-0.12486 -1.06774,-0.38148 L 11.86118,31.4679 c -0.71969,-0.58991 -0.82391,-1.65077 -0.234,-2.36948 0.58991,-0.71969 1.64782,-0.82195 2.36948,-0.23597 l 5.99154,4.90906 c 0.71773,0.58991 0.82391,1.65077 0.234,2.36948 -0.33232,0.40704 -0.81605,0.61744 -1.30174,0.61744 z"
       id="path1684"
       inkscape:connector-curvature="0" /><path
       d="m 18.92046,36.75843 c -0.48569,0 -0.96942,-0.2104 -1.30174,-0.61744 -0.58991,-0.71969 -0.48373,-1.78055 0.234,-2.36948 l 5.99351,-4.90906 c 0.72166,-0.58795 1.77957,-0.48569 2.36948,0.23597 0.58991,0.71969 0.48373,1.78055 -0.234,2.36948 l -5.99351,4.90905 c -0.31462,0.25662 -0.69216,0.38148 -1.06774,0.38148 z"
       id="path1686"
       inkscape:connector-curvature="0" /><path
       d="M 18.92046,67.40733 H 9.67457 c -0.9301,0 -1.68322,-0.75312 -1.68322,-1.68321 0,-0.9301 0.75312,-1.68322 1.68322,-1.68322 h 9.24589 c 0.9301,0 1.68322,0.75312 1.68322,1.68322 0,0.93009 -0.75312,1.68321 -1.68322,1.68321 z M 6.42218,60.15928 c -0.9301,0 -1.68322,-0.75312 -1.68322,-1.68322 v -12.8424 c 0,-0.9301 0.75312,-1.6842 1.68322,-1.6842 h 12.49828 c 0.9301,0 1.68322,0.7541 1.68322,1.6842 0,0.9301 -0.75312,1.6842 -1.68322,1.6842 H 8.1054 v 11.1582 c 0,0.93009 -0.75312,1.68322 -1.68322,1.68322 z"
       id="path1688"
       inkscape:connector-curvature="0" /><path
       d="m 30.67938,67.40733 h -2.51106 c -0.87504,0 -1.60456,-0.66856 -1.67732,-1.53967 -0.28709,-3.37626 1.16803,-5.92469 4.20608,-7.36997 0.58598,-0.27922 1.24078,-0.18877 1.72451,0.16518 0.19467,-0.71576 0.84751,-1.24275 1.62619,-1.24275 0.9301,0 1.68322,0.75312 1.68322,1.68322 v 3.31137 c 0,2.75292 -2.26526,4.99262 -5.05162,4.99262 z M 29.92036,64.0409 h 0.75902 c 0.9124,0 1.68518,-0.74526 1.68518,-1.62619 v -1.00285 c -0.06882,0.04719 -0.14355,0.08849 -0.22023,0.12585 -1.26438,0.60171 -1.97817,1.38629 -2.22397,2.50319 z"
       id="path1690"
       inkscape:connector-curvature="0" /><path
       d="m 28.16832,67.40733 h -9.24786 c -0.9301,0 -1.68322,-0.75312 -1.68322,-1.68321 0,-0.9301 0.75312,-1.68322 1.68322,-1.68322 h 9.24786 c 0.9301,0 1.68322,0.75312 1.68322,1.68322 0,0.93009 -0.75312,1.68321 -1.68322,1.68321 z m 3.25239,-7.24805 c -0.9301,0 -1.68322,-0.75312 -1.68322,-1.68322 V 47.31786 H 18.92046 c -0.9301,0 -1.68322,-0.7541 -1.68322,-1.6842 0,-0.9301 0.75312,-1.6842 1.68322,-1.6842 h 12.50025 c 0.93009,0 1.68322,0.7541 1.68322,1.6842 v 12.8424 c -10e-6,0.93009 -0.75313,1.68322 -1.68322,1.68322 z"
       id="path1692"
       inkscape:connector-curvature="0" /><path
       d="m 18.92046,52.45305 c -0.9301,0 -1.68322,-0.75312 -1.68322,-1.68322 v -5.13617 c 0,-0.9301 0.75312,-1.6842 1.68322,-1.6842 0.9301,0 1.68322,0.7541 1.68322,1.6842 v 5.13617 c 0,0.9301 -0.75312,1.68322 -1.68322,1.68322 z"
       id="path1694"
       inkscape:connector-curvature="0" /><path
       d="M 62.30066,100 H 37.92744 c -0.9301,0 -1.68322,-0.75312 -1.68322,-1.68322 V 73.82951 c 0,-0.93009 0.75312,-1.68321 1.68322,-1.68321 h 24.37322 c 0.9301,0 1.68322,0.75312 1.68322,1.68321 0,0.9301 -0.75312,1.68322 -1.68322,1.68322 h -22.69 v 21.12083 h 22.69 c 0.9301,0 1.68322,0.75312 1.68322,1.68321 0,0.93011 -0.75313,1.68323 -1.68322,1.68323 z"
       id="path1696"
       inkscape:connector-curvature="0" /><path
       d="M 98.31678,100 H 67.95005 c -0.93009,0 -1.68321,-0.75312 -1.68321,-1.68322 V 50.54174 c 0,-0.9301 0.75312,-1.68322 1.68321,-1.68322 h 30.36673 c 0.9301,0 1.68322,0.75312 1.68322,1.68322 V 98.31678 C 100,99.24688 99.24688,100 98.31678,100 Z M 69.63327,96.63357 h 27.0003 V 52.22495 h -27.0003 z"
       id="path1698"
       inkscape:connector-curvature="0" /><path
       d="m 46.66011,69.2341 c -0.93009,0 -1.68322,-0.75313 -1.68322,-1.68322 v -9.75912 c 0,-0.9301 0.75312,-1.68322 1.68322,-1.68322 h 15.64055 c 0.9301,0 1.68322,0.75312 1.68322,1.68322 0,0.9301 -0.75312,1.68322 -1.68322,1.68322 H 48.34333 v 8.0759 c 0,0.93009 -0.75312,1.68322 -1.68322,1.68322 z"
       id="path1700"
       inkscape:connector-curvature="0" /><path
       d="m 57.27657,53.25337 c -0.9301,0 -1.68322,-0.75312 -1.68322,-1.68322 V 30.16518 c 0,-0.9301 0.75312,-1.6842 1.68322,-1.6842 h 33.33399 c 0.9301,0 1.68322,0.7541 1.68322,1.6842 v 14.09891 c 0,0.9301 -0.75312,1.6842 -1.68322,1.6842 -0.93009,0 -1.68321,-0.7541 -1.68321,-1.6842 V 31.84937 H 58.95979 v 19.72078 c 0,0.93009 -0.75312,1.68322 -1.68322,1.68322 z"
       id="path1702"
       inkscape:connector-curvature="0" /><path
       d="m 47.6315,94.29161 h -4.0527 c -0.9301,0 -1.68322,-0.75312 -1.68322,-1.68321 0,-0.9301 0.75312,-1.68322 1.68322,-1.68322 h 4.0527 c 0.9301,0 1.68322,0.75312 1.68322,1.68322 0,0.93009 -0.75312,1.68321 -1.68322,1.68321 z"
       id="path1704"
       inkscape:connector-curvature="0" /><path
       d="M 50.71281,88.69727 H 43.5788 c -0.9301,0 -1.68322,-0.75312 -1.68322,-1.68321 0,-0.9301 0.75312,-1.68322 1.68322,-1.68322 h 7.13401 c 0.9301,0 1.68322,0.75312 1.68322,1.68322 0,0.93009 -0.75312,1.68321 -1.68322,1.68321 z"
       id="path1706"
       inkscape:connector-curvature="0" /><path
       d="m 56.1931,63.29761 c -0.93009,0 -1.68322,-0.75312 -1.68322,-1.68322 v -3.82264 c 0,-0.9301 0.75312,-1.68322 1.68322,-1.68322 0.9301,0 1.68322,0.75312 1.68322,1.68322 v 3.82264 c 0,0.9301 -0.75313,1.68322 -1.68322,1.68322 z"
       id="path1708"
       inkscape:connector-curvature="0" /><path
       d="m 77.99626,38.24206 h -8.04837 c -0.93009,0 -1.68322,-0.7541 -1.68322,-1.6842 v -6.39268 c 0,-0.9301 0.75313,-1.6842 1.68322,-1.6842 0.93009,0 1.68322,0.7541 1.68322,1.6842 v 4.70848 h 4.68194 v -4.70848 c 0,-0.9301 0.75312,-1.6842 1.68321,-1.6842 0.9301,0 1.68322,0.7541 1.68322,1.6842 v 6.39268 c 0,0.9301 -0.75312,1.6842 -1.68322,1.6842 z"
       id="path1710"
       inkscape:connector-curvature="0" /><path
       d="m 83.1344,57.70524 c -0.93009,0 -1.68321,-0.75312 -1.68321,-1.68322 v -5.48029 c 0,-0.9301 0.75312,-1.68322 1.68321,-1.68322 0.9301,0 1.68322,0.75312 1.68322,1.68322 v 5.48029 c 0,0.9301 -0.75312,1.68322 -1.68322,1.68322 z"
       id="path1712"
       inkscape:connector-curvature="0" /></g></svg>