<?xml version="1.0" encoding="UTF-8" standalone="no"?>
<svg
   xmlns:dc="http://purl.org/dc/elements/1.1/"
   xmlns:cc="http://creativecommons.org/ns#"
   xmlns:rdf="http://www.w3.org/1999/02/22-rdf-syntax-ns#"
   xmlns:svg="http://www.w3.org/2000/svg"
   xmlns="http://www.w3.org/2000/svg"
   xmlns:sodipodi="http://sodipodi.sourceforge.net/DTD/sodipodi-0.dtd"
   xmlns:inkscape="http://www.inkscape.org/namespaces/inkscape"
   data-name="Layer 1"
   viewBox="0 0 168.25999 178"
   x="0px"
   y="0px"
   version="1.1"
   id="svg3130"
   sodipodi:docname="noun_hosting connections_1735012.svg"
   width="168.25999"
   height="178"
   inkscape:version="0.92.3 (2405546, 2018-03-11)">
  <metadata
     id="metadata3136">
    <rdf:RDF>
      <cc:Work
         rdf:about="">
        <dc:format>image/svg+xml</dc:format>
        <dc:type
           rdf:resource="http://purl.org/dc/dcmitype/StillImage" />
        <dc:title>server-links</dc:title>
      </cc:Work>
    </rdf:RDF>
  </metadata>
  <defs
     id="defs3134" />
  <sodipodi:namedview
     pagecolor="#ffffff"
     bordercolor="#666666"
     borderopacity="1"
     objecttolerance="10"
     gridtolerance="10"
     guidetolerance="10"
     inkscape:pageopacity="0"
     inkscape:pageshadow="2"
     inkscape:window-width="3706"
     inkscape:window-height="2049"
     id="namedview3132"
     showgrid="false"
     fit-margin-top="0"
     fit-margin-left="0"
     fit-margin-right="0"
     fit-margin-bottom="0"
     inkscape:zoom="0.944"
     inkscape:cx="-190.23441"
     inkscape:cy="63"
     inkscape:window-x="134"
     inkscape:window-y="55"
     inkscape:window-maximized="1"
     inkscape:current-layer="svg3130" />
  <title
     id="title3106">server-links</title>
  <path
     d="m 164.29,165.27 h -56 a 4.23,4.23 0 0 0 -0.5,0 v -2.81 a 2,2 0 0 0 -2,-2 h -12.9 v -16.4 a 2,2 0 0 0 -2,-2 H 88.13 V 129 h 54.72 a 12.23,12.23 0 0 0 12.21,-12.21 v -16.18 a 12,12 0 0 0 -12,-12 H 22.65 a 12,12 0 0 0 -12,12 V 117 a 12,12 0 0 0 12,12 h 57.48 v 13.15 h -2.76 a 2,2 0 0 0 -2,2 v 16.4 H 62.5 a 2,2 0 0 0 -2,2 v 2.81 a 4.23,4.23 0 0 0 -0.5,0 H 4 a 4,4 0 0 0 0,8 h 56 a 4.23,4.23 0 0 0 0.5,-0.05 V 176 a 2,2 0 0 0 2,2 h 43.26 a 2,2 0 0 0 2,-2 v -2.81 a 4.23,4.23 0 0 0 0.5,0.05 h 56 a 4,4 0 0 0 0,-8 z M 18.64,117 v -16.39 a 4,4 0 0 1 4,-4 h 120.4 a 4,4 0 0 1 4,4 v 16.14 a 4.22,4.22 0 0 1 -4.21,4.21 H 22.65 A 4,4 0 0 1 18.64,117 Z m 85.12,57 H 64.5 v -9.52 h 12.87 a 2,2 0 0 0 2,-2 v -16.4 h 0.76 v 0.49 h 8 v -0.49 h 0.76 v 16.4 a 2,2 0 0 0 2,2 h 12.87 z"
     id="path3108"
     inkscape:connector-curvature="0" />
  <path
     d="m 22.65,40.33 h 120.2 A 12.23,12.23 0 0 0 155.06,28.12 V 12 a 12,12 0 0 0 -12,-12 H 22.65 a 12,12 0 0 0 -12,12 v 16.32 a 12,12 0 0 0 12,12.01 z M 18.64,12 a 4,4 0 0 1 4,-4 h 120.4 a 4,4 0 0 1 4,4 v 16.12 a 4.22,4.22 0 0 1 -4.21,4.21 H 22.65 a 4,4 0 0 1 -4,-4 z"
     id="path3110"
     inkscape:connector-curvature="0" />
  <path
     d="m 22.65,84.64 h 120.2 a 12.22,12.22 0 0 0 12.21,-12.2 V 56.3 a 12,12 0 0 0 -12,-12 H 22.65 a 12,12 0 0 0 -12,12 v 16.33 a 12,12 0 0 0 12,12.01 z m -4,-28.34 a 4,4 0 0 1 4,-4 h 120.4 a 4,4 0 0 1 4,4 v 16.14 a 4.21,4.21 0 0 1 -4.21,4.2 H 22.65 a 4,4 0 0 1 -4,-4 z"
     id="path3112"
     inkscape:connector-curvature="0" />
  <path
     d="m 112.9,24.19 a 4.31,4.31 0 1 0 -4.31,-4.31 4.31,4.31 0 0 0 4.31,4.31 z"
     id="path3114"
     inkscape:connector-curvature="0" />
  <path
     d="m 130.47,24.19 a 4.31,4.31 0 1 0 -4.34,-4.31 4.31,4.31 0 0 0 4.34,4.31 z"
     id="path3116"
     inkscape:connector-curvature="0" />
  <path
     d="m 112.9,68.78 a 4.32,4.32 0 1 0 -4.31,-4.32 4.31,4.31 0 0 0 4.31,4.32 z"
     id="path3118"
     inkscape:connector-curvature="0" />
  <path
     d="m 130.47,68.78 a 4.32,4.32 0 1 0 -4.34,-4.32 4.31,4.31 0 0 0 4.34,4.32 z"
     id="path3120"
     inkscape:connector-curvature="0" />
  <path
     d="m 112.9,104.73 a 4.32,4.32 0 1 0 4.31,4.32 4.32,4.32 0 0 0 -4.31,-4.32 z"
     id="path3122"
     inkscape:connector-curvature="0" />
  <path
     d="m 130.47,104.73 a 4.32,4.32 0 1 0 4.32,4.32 4.32,4.32 0 0 0 -4.32,-4.32 z"
     id="path3124"
     inkscape:connector-curvature="0" />
</svg>
