<?xml version="1.0" encoding="UTF-8" standalone="no"?>
<svg
   xmlns:dc="http://purl.org/dc/elements/1.1/"
   xmlns:cc="http://creativecommons.org/ns#"
   xmlns:rdf="http://www.w3.org/1999/02/22-rdf-syntax-ns#"
   xmlns:svg="http://www.w3.org/2000/svg"
   xmlns="http://www.w3.org/2000/svg"
   xmlns:sodipodi="http://sodipodi.sourceforge.net/DTD/sodipodi-0.dtd"
   xmlns:inkscape="http://www.inkscape.org/namespaces/inkscape"
   version="1.1"
   x="0px"
   y="0px"
   viewBox="0 0 80.106361 80"
   xml:space="preserve"
   id="svg13458"
   sodipodi:docname="noun_Government_2031474.svg"
   width="80.106361"
   height="80"
   inkscape:version="0.92.3 (2405546, 2018-03-11)"><metadata
     id="metadata13464"><rdf:RDF><cc:Work
         rdf:about=""><dc:format>image/svg+xml</dc:format><dc:type
           rdf:resource="http://purl.org/dc/dcmitype/StillImage" /><dc:title></dc:title></cc:Work></rdf:RDF></metadata><defs
     id="defs13462" /><sodipodi:namedview
     pagecolor="#ffffff"
     bordercolor="#666666"
     borderopacity="1"
     objecttolerance="10"
     gridtolerance="10"
     guidetolerance="10"
     inkscape:pageopacity="0"
     inkscape:pageshadow="2"
     inkscape:window-width="1853"
     inkscape:window-height="2049"
     id="namedview13460"
     showgrid="false"
     fit-margin-top="0"
     fit-margin-left="0"
     fit-margin-right="0"
     fit-margin-bottom="0"
     inkscape:zoom="1.888"
     inkscape:cx="-97.11877"
     inkscape:cy="27.5"
     inkscape:window-x="134"
     inkscape:window-y="55"
     inkscape:window-maximized="0"
     inkscape:current-layer="svg13458" /><path
     d="m 30.117144,32.548828 c -0.552735,0 -1,0.447266 -1,1 V 36.4375 c 0,0.552734 0.447265,1 1,1 0.552734,0 1,-0.447266 1,-1 v -2.888672 c 0,-0.552734 -0.447266,-1 -1,-1 z"
     id="path13424"
     inkscape:connector-curvature="0" /><path
     d="m 35.084917,32.548828 c -0.552734,0 -1,0.447266 -1,1 V 36.4375 c 0,0.552734 0.447266,1 1,1 0.552735,0 1,-0.447266 1,-1 v -2.888672 c 0,-0.552734 -0.447265,-1 -1,-1 z"
     id="path13426"
     inkscape:connector-curvature="0" /><path
     d="m 40.052691,32.548828 c -0.552735,0 -1,0.447266 -1,1 V 36.4375 c 0,0.552734 0.447265,1 1,1 0.552734,0 1,-0.447266 1,-1 v -2.888672 c 0,-0.552734 -0.447266,-1 -1,-1 z"
     id="path13428"
     inkscape:connector-curvature="0" /><path
     d="m 45.020464,32.548828 c -0.552734,0 -1,0.447266 -1,1 V 36.4375 c 0,0.552734 0.447266,1 1,1 0.552735,0 1,-0.447266 1,-1 v -2.888672 c 0,-0.552734 -0.447265,-1 -1,-1 z"
     id="path13430"
     inkscape:connector-curvature="0" /><path
     d="m 49.988238,32.548828 c -0.552735,0 -1,0.447266 -1,1 V 36.4375 c 0,0.552734 0.447265,1 1,1 0.552734,0 1,-0.447266 1,-1 v -2.888672 c 0,-0.552734 -0.447266,-1 -1,-1 z"
     id="path13432"
     inkscape:connector-curvature="0" /><path
     d="m 39.052691,1 v 4 c 0,0.552734 0.447265,1 1,1 0.552734,0 1,-0.447266 1,-1 V 1 c 0,-0.552734 -0.447266,-1 -1,-1 -0.552735,0 -1,0.447266 -1,1 z"
     id="path13434"
     inkscape:connector-curvature="0" /><path
     d="m 26.148394,2.452148 c -0.519531,0.188477 -0.78711,0.762696 -0.597656,1.28125 l 1.368164,3.758789 c 0.147461,0.40625 0.53125,0.658204 0.939453,0.658204 0.113281,0 0.229492,-0.01953 0.341797,-0.06055 0.519531,-0.188477 0.787109,-0.762696 0.597656,-1.28125 L 27.429644,3.049802 C 27.241167,2.53027 26.665972,2.263669 26.148394,2.452145 Z"
     id="path13436"
     inkscape:connector-curvature="0" /><path
     d="m 13.919878,9.511719 c -0.422851,0.354492 -0.478515,0.985351 -0.123047,1.408203 l 2.57129,3.064453 c 0.197265,0.236328 0.480468,0.357422 0.766601,0.357422 0.226563,0 0.454102,-0.07715 0.641602,-0.234375 0.422851,-0.354492 0.478515,-0.985352 0.123047,-1.408203 L 15.328082,9.634766 C 14.974566,9.211914 14.344683,9.15625 13.919878,9.511719 Z"
     id="path13438"
     inkscape:connector-curvature="0" /><path
     d="m 5.2099173,21.694336 3.464844,2 c 0.157227,0.09082 0.329102,0.133789 0.499024,0.133789 0.345703,0 0.68164,-0.179688 0.8671867,-0.5 0.276367,-0.478516 0.112305,-1.089844 -0.3662107,-1.366211 l -3.464844,-2 c -0.477539,-0.276367 -1.089843,-0.112305 -1.366211,0.366211 -0.276367,0.478516 -0.112304,1.089844 0.366211,1.366211 z"
     id="path13440"
     inkscape:connector-curvature="0" /><path
     d="m 0.82612827,34.753906 3.93945303,0.694336 c 0.05859,0.01074 0.117188,0.01563 0.174805,0.01563 0.476563,0 0.898438,-0.34082 0.983399,-0.826172 0.09668,-0.543945 -0.266602,-1.0625 -0.810547,-1.158203 l -3.939453,-0.694336 c -0.54394603,-0.101562 -1.06250003,0.266602 -1.15820363,0.810547 -0.09668,0.543945 0.2666016,1.0625 0.8105466,1.158203 z"
     id="path13442"
     inkscape:connector-curvature="0" /><path
     d="m 80.090777,33.595703 c -0.0957,-0.543945 -0.616211,-0.912109 -1.158203,-0.810547 l -3.939453,0.694336 c -0.543946,0.0957 -0.907227,0.614258 -0.810547,1.158203 0.08496,0.485352 0.506836,0.826172 0.983398,0.826172 0.05762,0 0.116211,-0.0049 0.174805,-0.01563 l 3.939453,-0.694336 c 0.543945,-0.0957 0.907226,-0.614258 0.810547,-1.158203 z"
     id="path13444"
     inkscape:connector-curvature="0" /><path
     d="m 70.932574,23.828125 c 0.169921,0 0.341796,-0.04297 0.499023,-0.133789 l 3.463867,-2 c 0.478516,-0.276367 0.642578,-0.887695 0.366211,-1.366211 -0.277344,-0.479492 -0.889648,-0.642578 -1.366211,-0.366211 l -3.463867,2 c -0.478516,0.276367 -0.642578,0.887695 -0.366211,1.366211 0.185547,0.321289 0.521484,0.5 0.867188,0.5 z"
     id="path13446"
     inkscape:connector-curvature="0" /><path
     d="m 64.7773,9.634766 -2.571289,3.064453 c -0.355469,0.422851 -0.299805,1.053711 0.123047,1.408203 0.1875,0.157226 0.415039,0.234375 0.641602,0.234375 0.286132,0 0.569335,-0.121094 0.766601,-0.357422 L 66.30855,10.919922 C 66.664019,10.49707 66.608355,9.866211 66.185503,9.511719 65.761675,9.15625 65.131792,9.211914 64.7773,9.634766 Z"
     id="path13448"
     inkscape:connector-curvature="0" /><path
     d="M 52.676714,3.049805 51.30855,6.808594 c -0.189453,0.518554 0.07813,1.092773 0.597656,1.28125 0.112305,0.04102 0.228516,0.06055 0.341797,0.06055 0.408203,0 0.791992,-0.251953 0.939453,-0.658203 l 1.368164,-3.75879 c 0.189453,-0.518554 -0.07813,-1.092773 -0.597656,-1.28125 -0.516601,-0.1875 -1.092773,0.0791 -1.28125,0.597657 z"
     id="path13450"
     inkscape:connector-curvature="0" /><path
     d="M 7.8085503,80 H 72.297808 c 0.552734,0 1,-0.447266 1,-1 v -6.969727 c 0,-0.552734 -0.447266,-1 -1,-1 H 71.190386 V 52.180664 h 1.107422 c 0.552734,0 1,-0.447266 1,-1 v -5.510742 c 0,-0.41211 -0.251953,-0.78125 -0.635742,-0.931641 L 59.840777,39.723633 c -0.116211,-0.04492 -0.239258,-0.06836 -0.364258,-0.06836 h -3.208985 v -9.568359 h 0.530274 c 0.552734,0 1,-0.447266 1,-1 0,-9.103516 -7.40625,-16.509766 -16.509766,-16.509766 H 41.052691 V 10.375 c 0,-0.552734 -0.447266,-1 -1,-1 -0.552735,0 -1,0.447266 -1,1 v 2.202148 h -0.235352 c -9.102539,0 -16.508789,7.40625 -16.508789,16.509766 0,0.552734 0.447266,1 1,1 h 0.529297 v 9.568359 h -3.208008 c -0.125,0 -0.248047,0.02344 -0.364258,0.06836 L 7.4442923,44.738281 c -0.383789,0.150391 -0.635742,0.519531 -0.635742,0.931641 v 5.510742 c 0,0.552734 0.447266,1 1,1 h 1.397461 v 18.849609 h -1.397461 c -0.552734,0 -1,0.447266 -1,1 V 79 c 0,0.552734 0.447266,1 1,1 z M 69.190386,71.030273 H 56.928667 V 54.393555 h 1.391602 c 0.552734,0 1,-0.447266 1,-1 v -1.212891 h 9.870117 V 71.030273 Z M 22.785113,52.393555 v -2.825196 l 17.267578,-3.445312 17.267578,3.445312 v 2.825196 z m 11.169922,2 V 71.030273 H 25.46773 V 54.393555 Z m 2,0 h 8.486328 v 16.636718 h -8.486328 z m 10.486328,0 h 8.487304 V 71.030273 H 46.441363 Z M 38.817339,14.577148 h 2.470703 c 7.665039,0 13.960938,5.973633 14.475586,13.509766 H 24.34273 C 24.857378,20.550781 31.153277,14.577148 38.817339,14.577148 Z M 25.837847,30.086914 h 28.429688 v 9.568359 H 25.837847 Z M 8.8085503,46.352539 20.818316,41.655273 h 38.469726 l 12.009766,4.697266 v 3.828125 H 59.320269 v -1.432617 c 0,-0.476563 -0.336914,-0.887695 -0.804688,-0.980469 L 40.248003,44.123047 c -0.128906,-0.02539 -0.261719,-0.02539 -0.390625,0 L 21.5898,47.767578 c -0.467773,0.09277 -0.804687,0.503906 -0.804687,0.980469 v 1.432617 H 8.8085503 Z m 2.3974607,5.828125 h 9.579102 v 1.212891 c 0,0.552734 0.447265,1 1,1 H 23.46773 V 71.030274 H 11.206011 Z M 8.8085503,73.030273 H 71.297808 V 78 H 8.8085503 Z"
     id="path13452"
     inkscape:connector-curvature="0" /></svg>