<?xml version="1.0" encoding="UTF-8" standalone="no"?>
<svg
   xmlns:dc="http://purl.org/dc/elements/1.1/"
   xmlns:cc="http://creativecommons.org/ns#"
   xmlns:rdf="http://www.w3.org/1999/02/22-rdf-syntax-ns#"
   xmlns:svg="http://www.w3.org/2000/svg"
   xmlns="http://www.w3.org/2000/svg"
   xmlns:sodipodi="http://sodipodi.sourceforge.net/DTD/sodipodi-0.dtd"
   xmlns:inkscape="http://www.inkscape.org/namespaces/inkscape"
   version="1.1"
   x="0px"
   y="0px"
   viewBox="0 0 80.069336 80"
   xml:space="preserve"
   id="svg8"
   sodipodi:docname="noun_Candidate_2003972.svg"
   width="80.069336"
   height="80"
   inkscape:version="0.92.3 (2405546, 2018-03-11)"><metadata
     id="metadata14"><rdf:RDF><cc:Work
         rdf:about=""><dc:format>image/svg+xml</dc:format><dc:type
           rdf:resource="http://purl.org/dc/dcmitype/StillImage" /><dc:title></dc:title></cc:Work></rdf:RDF></metadata><defs
     id="defs12" /><sodipodi:namedview
     pagecolor="#ffffff"
     bordercolor="#666666"
     borderopacity="1"
     objecttolerance="10"
     gridtolerance="10"
     guidetolerance="10"
     inkscape:pageopacity="0"
     inkscape:pageshadow="2"
     inkscape:window-width="3706"
     inkscape:window-height="2049"
     id="namedview10"
     showgrid="false"
     fit-margin-top="0"
     fit-margin-left="0"
     fit-margin-right="0"
     fit-margin-bottom="0"
     inkscape:zoom="7.552"
     inkscape:cx="35.363053"
     inkscape:cy="11.456096"
     inkscape:window-x="134"
     inkscape:window-y="55"
     inkscape:window-maximized="1"
     inkscape:current-layer="svg8" /><path
     d="M 1.0000001,80 H 79.069336 c 0.552734,0 1,-0.447754 1,-1 v -6.12207 c 0,-11.511719 -7.627198,-18.423645 -20.415039,-18.573304 l 0.366211,-0.660583 c 0.231445,-0.417969 0.134765,-0.941895 -0.231446,-1.25 L 54.40332,47.86084 c -0.208984,-0.175781 -0.478516,-0.256836 -0.750977,-0.229004 -0.271484,0.0293 -0.518554,0.167969 -0.685546,0.384277 l -1.354493,1.760376 v -6.860412 c 0.655152,-0.402466 1.288636,-0.837464 1.89856,-1.302857 0.819214,4.978699 5.048218,8.787171 10.140503,8.787171 5.676758,0 10.294922,-4.728028 10.294922,-10.540039 0,-0.332032 -0.165039,-0.642579 -0.439453,-0.828125 -0.276367,-0.186524 -0.625977,-0.223145 -0.932617,-0.100098 -0.02637,0.01074 -2.63086,1.030762 -4.398438,-0.431641 -1.37207,-1.13623 -2.682617,-4.152832 -1.12793,-12.067383 0.168946,-0.859375 0.419922,-1.697265 0.686524,-2.584472 0.223633,-0.745606 0.455078,-1.516602 0.634765,-2.304688 0.674805,-2.972656 1.324219,-6.691894 1.025391,-11.735351 C 69.05957,4.125 64.723633,0 59.083984,0 56.228149,0 53.584167,1.27356 51.746887,3.489502 48.288208,1.331482 44.221435,0.083984 39.87207,0.083984 c -4.362549,0 -8.44049,1.25586 -11.905945,3.42627 C 26.128235,1.28125 23.476196,0 20.611328,0 14.97168,0 10.635742,4.125 10.300781,9.808594 c -0.297851,5.046875 0.351563,8.764648 1.025391,11.735351 0.179687,0.788086 0.411133,1.559082 0.634765,2.304688 0.266602,0.887207 0.517579,1.725098 0.686524,2.584473 1.552734,7.901367 0.249023,10.919433 -1.118164,12.060058 -1.7480469,1.457031 -4.3847659,0.447754 -4.4072269,0.438965 -0.307617,-0.121582 -0.657227,-0.08594 -0.932617,0.100098 -0.274414,0.185547 -0.439453,0.496093 -0.439453,0.828125 0,5.812011 4.6181639,10.540039 10.2949219,10.540039 5.103393,0 9.339844,-3.826477 10.144836,-8.82251 0.793518,0.608643 1.629334,1.162292 2.498718,1.662964 v 6.619385 l -1.418945,-1.844117 c -0.166992,-0.216308 -0.414062,-0.35498 -0.685547,-0.384277 -0.270508,-0.02881 -0.542969,0.05322 -0.750976,0.229004 l -5.385743,4.533203 c -0.36621,0.308106 -0.46289,0.832031 -0.231445,1.25 l 0.363159,0.655029 C 7.6904301,54.390198 0,61.316162 0,72.87793 V 79 c 0,0.552246 0.4472661,1 1.0000001,1 z M 59.238281,56.290527 c 16.996094,0 18.831055,11.600098 18.831055,16.587403 V 78 H 62.770508 v -4.211914 c 0,-0.552246 -0.447266,-1 -1,-1 -0.552735,0 -1,0.447754 -1,1 V 78 H 41.149414 V 67.328491 l 6.774414,5.678345 c 0.181641,0.151855 0.40918,0.233398 0.642578,0.233398 0.06055,0 0.12207,-0.0054 0.182617,-0.0166 0.292969,-0.05469 0.546875,-0.237305 0.692383,-0.498536 l 9.111817,-16.43457 z m -5.323242,-6.226562 3.957031,3.330078 -9.592773,17.301269 -6.22461,-5.217773 z M 19.132812,23.160644 c 0,-1.01123 0.0946,-1.998168 0.230774,-2.971801 0.663269,0.06879 1.745972,0.150024 3.162781,0.150024 4.677063,0 12.989075,-0.890442 21.825073,-6.02771 1.33606,1.957642 6.091553,7.776062 16.219849,9.67273 -0.43042,11.238525 -9.536133,20.252929 -20.699219,20.252929 -11.435547,0 -20.739258,-9.454589 -20.739258,-21.076172 z m 41.418702,-1.220886 c -8.919373,-1.799865 -13.257325,-6.945984 -14.482911,-8.673645 2.488465,-1.59552 5.001465,-3.546692 7.472474,-5.916321 4.041259,3.61261 6.680725,8.785828 7.010437,14.589966 z M 59.083984,2 c 4.620117,0 8.039063,3.259277 8.314453,7.926758 0.28418,4.793457 -0.335937,8.338867 -0.980468,11.174804 -0.163086,0.721192 -0.375,1.425782 -0.598633,2.171875 -0.268555,0.894044 -0.546875,1.818848 -0.734375,2.773926 -1.399414,7.128907 -0.789063,11.836914 1.815429,13.993653 1.636719,1.355468 3.622071,1.354004 4.947266,1.134277 -0.615234,4.087402 -4.056641,7.225098 -8.196289,7.225098 -4.518311,0 -8.19696,-3.739686 -8.286499,-8.369446 4.454468,-4.215393 7.247436,-10.216675 7.247436,-16.8703 0,-7.585144 -3.626037,-14.325806 -9.210144,-18.534668 C 54.852112,2.956726 56.889954,2 59.083984,2 Z M 51.970642,6.076599 C 38.43988,18.907776 23.295166,18.507141 19.735535,18.206177 21.937134,8.971497 30.118164,2.083984 39.87207,2.083984 c 4.517151,0 8.688782,1.491639 12.098572,3.992615 z m -35.92572,42.323792 c -4.139649,0 -7.5800779,-3.138184 -8.1962889,-7.225098 1.326172,0.219727 3.3095699,0.221191 4.9472649,-1.134277 2.604493,-2.156739 3.214844,-6.864746 1.814453,-13.993653 -0.1875,-0.955078 -0.46582,-1.879882 -0.734375,-2.773926 C 13.652344,22.527344 13.44043,21.822754 13.277344,21.101562 12.633789,18.26709 12.013672,14.723144 12.296875,9.926758 12.572266,5.259277 15.991211,2 20.611328,2 c 2.203674,0 4.249634,0.96521 5.700684,2.648132 -5.566834,4.210388 -9.1792,10.94104 -9.1792,18.512513 0,6.629821 2.773377,12.61145 7.199891,16.824462 -0.06567,4.651001 -3.755433,8.415284 -8.287781,8.415284 z m 14.643554,-4.136658 c 2.81073,1.264709 5.916382,1.973083 9.183594,1.973083 3.483887,0 6.786011,-0.801452 9.740235,-2.228576 v 8.367492 l -9.494141,12.33899 -9.429688,-12.255188 z m -4.367187,5.800232 11.860352,15.413574 -6.22461,5.217773 -9.592773,-17.301269 z M 2.0000001,72.87793 c 0,-4.987305 1.834961,-16.587403 18.8310549,-16.587403 h 0.85205 l 9.111817,16.434571 c 0.145508,0.26123 0.399414,0.443847 0.692383,0.498535 0.06055,0.01123 0.12207,0.0166 0.182617,0.0166 0.233398,0 0.460937,-0.08154 0.642578,-0.233399 l 6.836914,-5.730711 V 78 H 18.973633 v -4.211914 c 0,-0.552246 -0.447266,-1 -1,-1 -0.552735,0 -1,0.447754 -1,1 V 78 H 2.0000001 Z"
     id="path2"
     inkscape:connector-curvature="0" /></svg>