<?xml version="1.0" encoding="UTF-8" standalone="no"?>
<svg
   width="60pt"
   height="60pt"
   version="1.1"
   viewBox="0 0 60 60"
   id="svg5682"
   sodipodi:docname="noun-management-1923376.svg"
   inkscape:version="1.2 (1:1.2+202206011326+fc4e4096c5)"
   xmlns:inkscape="http://www.inkscape.org/namespaces/inkscape"
   xmlns:sodipodi="http://sodipodi.sourceforge.net/DTD/sodipodi-0.dtd"
   xmlns="http://www.w3.org/2000/svg"
   xmlns:svg="http://www.w3.org/2000/svg">
  <sodipodi:namedview
     id="namedview5684"
     pagecolor="#ffffff"
     bordercolor="#666666"
     borderopacity="1.0"
     inkscape:showpageshadow="2"
     inkscape:pageopacity="0.0"
     inkscape:pagecheckerboard="0"
     inkscape:deskcolor="#d1d1d1"
     inkscape:document-units="pt"
     showgrid="false"
     inkscape:zoom="0.715188"
     inkscape:cx="328.58493"
     inkscape:cy="463.51449"
     inkscape:window-width="2048"
     inkscape:window-height="1088"
     inkscape:window-x="0"
     inkscape:window-y="0"
     inkscape:window-maximized="1"
     inkscape:current-layer="svg5682" />
  <defs
     id="defs5586">
    <symbol
       id="t"
       overflow="visible">
      <path
         d="m 18.766,-1.125 c -0.96875,0.5 -1.9805,0.875 -3.0312,1.125 -1.043,0.25781 -2.1367,0.39062 -3.2812,0.39062 -3.3984,0 -6.0898,-0.94531 -8.0781,-2.8438 -1.9922,-1.9062 -2.9844,-4.4844 -2.9844,-7.7344 0,-3.2578 0.99219,-5.8359 2.9844,-7.7344 1.9883,-1.9062 4.6797,-2.8594 8.0781,-2.8594 1.1445,0 2.2383,0.13281 3.2812,0.39062 1.0508,0.25 2.0625,0.625 3.0312,1.125 v 4.2188 c -0.98047,-0.65625 -1.9453,-1.1406 -2.8906,-1.4531 -0.94922,-0.3125 -1.9492,-0.46875 -3,-0.46875 -1.875,0 -3.3516,0.60547 -4.4219,1.8125 -1.0742,1.1992 -1.6094,2.8555 -1.6094,4.9688 0,2.1055 0.53516,3.7617 1.6094,4.9688 1.0703,1.1992 2.5469,1.7969 4.4219,1.7969 1.0508,0 2.0508,-0.14844 3,-0.45312 0.94531,-0.3125 1.9102,-0.80078 2.8906,-1.4688 z"
         id="path5526" />
    </symbol>
    <symbol
       id="e"
       overflow="visible">
      <path
         d="m 13.734,-11.141 c -0.4375,-0.19531 -0.87109,-0.34375 -1.2969,-0.4375 -0.41797,-0.10156 -0.83984,-0.15625 -1.2656,-0.15625 -1.2617,0 -2.2305,0.40625 -2.9062,1.2188 -0.67969,0.80469 -1.0156,1.9531 -1.0156,3.4531 v 7.0625 H 2.3591 v -15.312 h 4.8906 v 2.5156 c 0.625,-1 1.3438,-1.7266 2.1562,-2.1875 0.82031,-0.46875 1.8008,-0.70312 2.9375,-0.70312 0.16406,0 0.34375,0.01172 0.53125,0.03125 0.19531,0.01172 0.47656,0.03906 0.84375,0.07813 z"
         id="path5529" />
    </symbol>
    <symbol
       id="a"
       overflow="visible">
      <path
         d="m 17.641,-7.7031 v 1.4062 H 6.188 c 0.125,1.1484 0.53906,2.0078 1.25,2.5781 0.70703,0.57422 1.7031,0.85938 2.9844,0.85938 1.0312,0 2.082,-0.14844 3.1562,-0.45312 1.082,-0.3125 2.1914,-0.77344 3.3281,-1.3906 v 3.7656 c -1.1562,0.4375 -2.3125,0.76562 -3.4688,0.98438 -1.1562,0.22656 -2.3125,0.34375 -3.4688,0.34375 -2.7734,0 -4.9297,-0.70312 -6.4688,-2.1094 -1.5312,-1.4062 -2.2969,-3.3789 -2.2969,-5.9219 0,-2.5 0.75391,-4.4609 2.2656,-5.8906 1.5078,-1.4375 3.582,-2.1562 6.2188,-2.1562 2.4062,0 4.332,0.73047 5.7812,2.1875 1.4453,1.4492 2.1719,3.3828 2.1719,5.7969 z m -5.0312,-1.625 c 0,-0.92578 -0.27344,-1.6719 -0.8125,-2.2344 -0.54297,-0.57031 -1.25,-0.85938 -2.125,-0.85938 -0.94922,0 -1.7188,0.26562 -2.3125,0.79688 -0.5937,0.53126 -0.96484,1.2969 -1.1094,2.2969 z"
         id="path5532" />
    </symbol>
    <symbol
       id="d"
       overflow="visible">
      <path
         d="m 9.2188,-6.8906 c -1.0234,0 -1.793,0.17188 -2.3125,0.51562 -0.51172,0.34375 -0.76562,0.85547 -0.76562,1.5312 0,0.625 0.20703,1.1172 0.625,1.4688 0.41406,0.34375 0.98828,0.51562 1.7188,0.51562 0.92578,0 1.7031,-0.32812 2.3281,-0.98438 0.63281,-0.66406 0.95312,-1.4922 0.95312,-2.4844 v -0.5625 z m 7.4688,-1.8438 V 0 h -4.9219 v -2.2656 c -0.65625,0.92969 -1.3984,1.6055 -2.2188,2.0312 -0.82422,0.41406 -1.8242,0.625 -3,0.625 -1.5859,0 -2.8711,-0.45703 -3.8594,-1.375 -0.99219,-0.92578 -1.4844,-2.1289 -1.4844,-3.6094 0,-1.7891 0.61328,-3.1016 1.8438,-3.9375 1.2383,-0.84375 3.1797,-1.2656 5.8281,-1.2656 h 2.8906 v -0.39062 c 0,-0.76953 -0.30859,-1.332 -0.92188,-1.6875 -0.61719,-0.36328 -1.5703,-0.54688 -2.8594,-0.54688 -1.0547,0 -2.0312,0.10547 -2.9375,0.3125 -0.89844,0.21094 -1.7305,0.52344 -2.5,0.9375 v -3.7344 c 1.0391,-0.25 2.0859,-0.44141 3.1406,-0.57812 1.0625,-0.13281 2.125,-0.20312 3.1875,-0.20312 2.7578,0 4.75,0.54688 5.9688,1.6406 1.2266,1.0859 1.8438,2.8555 1.8438,5.3125 z"
         id="path5535" />
    </symbol>
    <symbol
       id="c"
       overflow="visible">
      <path
         d="m 7.7031,-19.656 v 4.3438 H 12.75 v 3.5 H 7.7031 v 6.5 c 0,0.71094 0.14062,1.1875 0.42188,1.4375 0.28126,0.25 0.83594,0.375 1.6719,0.375 h 2.5156 v 3.5 h -4.1875 c -1.9375,0 -3.3125,-0.39844 -4.125,-1.2031 -0.80469,-0.8125 -1.2031,-2.1797 -1.2031,-4.1094 v -6.5 h -2.4219 v -3.5 h 2.4219 v -4.3438 z"
         id="path5538" />
    </symbol>
    <symbol
       id="b"
       overflow="visible">
      <path
         d="m 12.766,-13.078 v -8.2031 h 4.9219 V -10e-5 H 12.766 v -2.2188 c -0.66797,0.90625 -1.4062,1.5703 -2.2188,1.9844 -0.8126,0.4141 -1.7578,0.625 -2.8281,0.625 -1.8867,0 -3.4336,-0.75 -4.6406,-2.25 -1.2109,-1.5 -1.8125,-3.4258 -1.8125,-5.7812 0,-2.3633 0.60156,-4.2969 1.8125,-5.7969 1.207,-1.5 2.7539,-2.25 4.6406,-2.25 1.0625,0 2,0.21484 2.8125,0.64062 0.82031,0.42969 1.5664,1.0859 2.2344,1.9688 z m -3.2188,9.9219 c 1.0391,0 1.8359,-0.37891 2.3906,-1.1406 0.55078,-0.76953 0.82812,-1.8828 0.82812,-3.3438 0,-1.457 -0.27734,-2.5664 -0.82812,-3.3281 -0.55469,-0.76953 -1.3516,-1.1562 -2.3906,-1.1562 -1.043,0 -1.8398,0.38672 -2.3906,1.1562 -0.55469,0.76172 -0.82812,1.8711 -0.82812,3.3281 0,1.4609 0.27344,2.5742 0.82812,3.3438 0.55078,0.76172 1.3477,1.1406 2.3906,1.1406 z"
         id="path5541" />
    </symbol>
    <symbol
       id="i"
       overflow="visible">
      <path
         d="m 10.5,-3.1562 c 1.0508,0 1.8516,-0.37891 2.4062,-1.1406 0.55078,-0.76953 0.82812,-1.8828 0.82812,-3.3438 0,-1.457 -0.27734,-2.5664 -0.82812,-3.3281 -0.55469,-0.76953 -1.3555,-1.1562 -2.4062,-1.1562 -1.0547,0 -1.8594,0.38672 -2.4219,1.1562 -0.55469,0.77344 -0.82812,1.8828 -0.82812,3.3281 0,1.4492 0.27344,2.5586 0.82812,3.3281 0.5625,0.77344 1.3672,1.1562 2.4219,1.1562 z m -3.25,-9.9219 c 0.67578,-0.88281 1.4219,-1.5391 2.2344,-1.9688 0.82031,-0.42578 1.7656,-0.64062 2.8281,-0.64062 1.8945,0 3.4453,0.75 4.6562,2.25 1.207,1.5 1.8125,3.4336 1.8125,5.7969 0,2.3555 -0.60547,4.2812 -1.8125,5.7812 -1.2109,1.5 -2.7617,2.25 -4.6562,2.25 -1.0625,0 -2.0078,-0.21094 -2.8281,-0.625 C 8.6719,-0.6602 7.9258,-1.32032 7.25,-2.21882 V -2e-5 H 2.3594 v -21.281 H 7.25 Z"
         id="path5544" />
    </symbol>
    <symbol
       id="h"
       overflow="visible">
      <path
         d="m 0.34375,-15.312 h 4.8906 l 4.125,10.391 3.5,-10.391 h 4.8906 l -6.4375,16.766 c -0.64844,1.6953 -1.4023,2.8828 -2.2656,3.5625 -0.86719,0.6875 -2,1.0312 -3.4062,1.0312 H 2.79685 V 2.8289 h 1.5312 c 0.83203,0 1.4375,-0.13672 1.8125,-0.40625 C 6.52336,2.16093 6.82024,1.69218 7.03117,1.01645 L 7.17179,0.59457 Z"
         id="path5547" />
    </symbol>
    <symbol
       id="g"
       overflow="visible">
      <path
         d="m 2.5781,-20.406 h 6.6875 l 4.6562,10.922 4.6719,-10.922 h 6.6875 V 0 H 20.2968 V -14.938 L 15.5937,-3.922 H 12.2656 L 7.5625,-14.938 V 0 H 2.5781 Z"
         id="path5550" />
    </symbol>
    <symbol
       id="s"
       overflow="visible">
      <path
         d="m 6.2188,-7.8281 -5.5156,-7.4844 h 5.1719 l 3.1406,4.5312 3.1719,-4.5312 h 5.1719 L 11.8439,-7.8594 17.6408,0 H 12.4533 L 9.0158,-4.8438 5.6096,0 H 0.4221 Z"
         id="path5553" />
    </symbol>
    <symbol
       id="r"
       overflow="visible">
      <path
         d="m 12.422,-21.281 v 3.2188 H 9.7189 c -0.6875,0 -1.1719,0.125 -1.4531,0.375 -0.27344,0.25 -0.40625,0.6875 -0.40625,1.3125 v 1.0625 h 4.1875 v 3.5 H 7.85955 V -2e-4 h -4.8906 v -11.812 h -2.4375 v -3.5 h 2.4375 v -1.0625 c 0,-1.6641 0.46094,-2.8984 1.3906,-3.7031 0.92578,-0.80078 2.3672,-1.2031 4.3281,-1.2031 z"
         id="path5556" />
    </symbol>
    <symbol
       id="f"
       overflow="visible">
      <path
         d="m 9.6406,-12.188 c -1.0859,0 -1.9141,0.39062 -2.4844,1.1719 -0.57422,0.78125 -0.85938,1.9062 -0.85938,3.375 0,1.4688 0.28516,2.5938 0.85938,3.375 0.57031,0.77344 1.3984,1.1562 2.4844,1.1562 1.0625,0 1.875,-0.38281 2.4375,-1.1562 0.57031,-0.78125 0.85938,-1.9062 0.85938,-3.375 0,-1.4688 -0.28906,-2.5938 -0.85938,-3.375 -0.5625,-0.78125 -1.375,-1.1719 -2.4375,-1.1719 z m 0,-3.5 c 2.6328,0 4.6914,0.71484 6.1719,2.1406 1.4766,1.418 2.2188,3.3867 2.2188,5.9062 0,2.5117 -0.74219,4.4805 -2.2188,5.9062 C 14.332,-0.317 12.2734,0.39 9.6406,0.39 6.9922,0.39 4.9258,-0.31703 3.4375,-1.735 1.9453,-3.1608 1.2031,-5.1295 1.2031,-7.6412 c 0,-2.5195 0.74219,-4.4883 2.2344,-5.9062 1.4883,-1.4258 3.5547,-2.1406 6.2031,-2.1406 z"
         id="path5559" />
    </symbol>
    <symbol
       id="q"
       overflow="visible">
      <path
         d="m 16.547,-12.766 c 0.61328,-0.94531 1.3477,-1.6719 2.2031,-2.1719 0.85156,-0.5 1.7891,-0.75 2.8125,-0.75 1.7578,0 3.0977,0.54688 4.0156,1.6406 0.92578,1.0859 1.3906,2.6562 1.3906,4.7188 V -4e-4 h -4.9219 v -7.9844 -0.35938 c 0.0078,-0.13281 0.01563,-0.32031 0.01563,-0.5625 0,-1.082 -0.16406,-1.8633 -0.48438,-2.3438 -0.3125,-0.48828 -0.82422,-0.73438 -1.5312,-0.73438 -0.92969,0 -1.6484,0.38672 -2.1562,1.1562 -0.51172,0.76172 -0.77344,1.8672 -0.78125,3.3125 v 7.5156 h -4.9219 v -7.9844 c 0,-1.6953 -0.14844,-2.7852 -0.4375,-3.2656 -0.29297,-0.48828 -0.8125,-0.73438 -1.5625,-0.73438 -0.9375,0 -1.6641,0.38672 -2.1719,1.1562 -0.51172,0.76172 -0.76562,1.8594 -0.76562,3.2969 v 7.5312 h -4.9219 v -15.312 h 4.9219 v 2.2344 c 0.60156,-0.86328 1.2891,-1.5156 2.0625,-1.9531 0.78125,-0.4375 1.6406,-0.65625 2.5781,-0.65625 1.0625,0 2,0.25781 2.8125,0.76562 0.8125,0.51172 1.4258,1.2305 1.8438,2.1562 z"
         id="path5562" />
    </symbol>
    <symbol
       id="p"
       overflow="visible">
      <path
         d="M 17.75,-9.3281 V 0 h -4.9219 v -7.1094 c 0,-1.3438 -0.03125,-2.2656 -0.09375,-2.7656 -0.0625,-0.5 -0.16797,-0.86719 -0.3125,-1.1094 -0.1875,-0.3125 -0.44922,-0.55469 -0.78125,-0.73438 -0.32422,-0.17578 -0.69531,-0.26562 -1.1094,-0.26562 -1.0234,0 -1.8242,0.39844 -2.4062,1.1875 -0.58594,0.78125 -0.875,1.8711 -0.875,3.2656 V -1e-4 H 2.3594 v -21.281 H 7.25 v 8.2031 c 0.73828,-0.88281 1.5195,-1.5391 2.3438,-1.9688 0.83203,-0.42578 1.75,-0.64062 2.75,-0.64062 1.7695,0 3.1133,0.54688 4.0312,1.6406 0.91406,1.0859 1.375,2.6562 1.375,4.7188 z"
         id="path5565" />
    </symbol>
    <symbol
       id="o"
       overflow="visible">
      <path
         d="m 2.5781,-20.406 h 5.875 l 7.4219,14 v -14 h 4.9844 V 0 h -5.875 L 7.5625,-14 V 0 H 2.5781 Z"
         id="path5568" />
    </symbol>
    <symbol
       id="n"
       overflow="visible">
      <path
         d="m 2.1875,-5.9688 v -9.3438 h 4.9219 v 1.5312 c 0,0.83594 -0.00781,1.875 -0.015625,3.125 -0.011719,1.25 -0.015625,2.0859 -0.015625,2.5 0,1.2422 0.03125,2.1328 0.09375,2.6719 0.070313,0.54297 0.17969,0.93359 0.32812,1.1719 0.20703,0.32422 0.47266,0.57422 0.79688,0.75 0.32031,0.16797 0.69141,0.25 1.1094,0.25 1.0195,0 1.8203,-0.39062 2.4062,-1.1719 0.58203,-0.78125 0.875,-1.8672 0.875,-3.2656 v -7.5625 h 4.8906 V -6e-4 H 12.6875 V -2.2194 C 11.94531,-1.32096 11.1641,-0.6608 10.3437,-0.235 9.51948,0.17906 8.6093,0.39 7.6093,0.39 5.8476,0.39 4.5038,-0.14906 3.5781,-1.235 2.64841,-2.317 2.1875,-3.8952 2.1875,-5.9694 Z"
         id="path5571" />
    </symbol>
    <symbol
       id="m"
       overflow="visible">
      <path
         d="M 17.75,-9.3281 V 0 h -4.9219 v -7.1406 c 0,-1.3203 -0.03125,-2.2344 -0.09375,-2.7344 -0.0625,-0.5 -0.16797,-0.86719 -0.3125,-1.1094 -0.1875,-0.3125 -0.44922,-0.55469 -0.78125,-0.73438 -0.32422,-0.17578 -0.69531,-0.26562 -1.1094,-0.26562 -1.0234,0 -1.8242,0.39844 -2.4062,1.1875 -0.58594,0.78125 -0.875,1.8711 -0.875,3.2656 V -1e-4 H 2.3594 v -15.312 H 7.25 v 2.2344 c 0.73828,-0.88281 1.5195,-1.5391 2.3438,-1.9688 0.83203,-0.42578 1.75,-0.64062 2.75,-0.64062 1.7695,0 3.1133,0.54688 4.0312,1.6406 0.91406,1.0859 1.375,2.6562 1.375,4.7188 z"
         id="path5574" />
    </symbol>
    <symbol
       id="l"
       overflow="visible">
      <path
         d="m 2.5781,-20.406 h 8.7344 c 2.5938,0 4.582,0.57812 5.9688,1.7344 1.3945,1.1484 2.0938,2.7891 2.0938,4.9219 0,2.1367 -0.69922,3.7812 -2.0938,4.9375 -1.3867,1.1562 -3.375,1.7344 -5.9688,1.7344 H 7.8281 V 3e-4 h -5.25 z m 5.25,3.8125 v 5.7031 H 10.75 c 1.0195,0 1.8047,-0.25 2.3594,-0.75 0.5625,-0.5 0.84375,-1.2031 0.84375,-2.1094 0,-0.91406 -0.28125,-1.6172 -0.84375,-2.1094 -0.55469,-0.48828 -1.3398,-0.73438 -2.3594,-0.73438 z"
         id="path5577" />
    </symbol>
    <symbol
       id="k"
       overflow="visible">
      <path
         d="M 2.3594,-15.312 H 7.25 v 15.031 c 0,2.0508 -0.49609,3.6172 -1.4844,4.7031 -0.98047,1.082 -2.4062,1.625 -4.2812,1.625 H -0.9375 V 2.8283 h 0.85938 c 0.92578,0 1.5625,-0.21094 1.9062,-0.625 0.35156,-0.41797 0.53125,-1.2461 0.53125,-2.4844 z m 0,-5.9688 H 7.25 v 4 H 2.3594 Z"
         id="path5580" />
    </symbol>
    <symbol
       id="j"
       overflow="visible">
      <path
         d="m 14.719,-14.828 v 3.9844 c -0.65625,-0.45703 -1.3242,-0.79688 -2,-1.0156 -0.66797,-0.21875 -1.3594,-0.32812 -2.0781,-0.32812 -1.3672,0 -2.4336,0.40234 -3.2031,1.2031 -0.76172,0.79297 -1.1406,1.9062 -1.1406,3.3438 0,1.4297 0.37891,2.543 1.1406,3.3438 0.76953,0.79297 1.8359,1.1875 3.2031,1.1875 0.75781,0 1.4844,-0.10938 2.1719,-0.32812 0.6875,-0.22656 1.3203,-0.56641 1.9062,-1.0156 v 4 c -0.76172,0.28125 -1.5391,0.48828 -2.3281,0.625 -0.78125,0.14453 -1.5742,0.21875 -2.375,0.21875 -2.7617,0 -4.9219,-0.70703 -6.4844,-2.125 -1.5547,-1.4141 -2.3281,-3.3828 -2.3281,-5.9062 0,-2.5312 0.77344,-4.5039 2.3281,-5.9219 1.5625,-1.4141 3.7227,-2.125 6.4844,-2.125 0.80078,0 1.5938,0.07422 2.375,0.21875 0.78125,0.13672 1.5547,0.35156 2.3281,0.64062 z"
         id="path5583" />
    </symbol>
  </defs>
  <g
     id="g5927"
     transform="matrix(0.10643421,0,0,0.10643421,-6.8617024,-2.3818453)"
     style="stroke-width:9.39546">
    <rect
       style="fill:#ffffff;stroke-width:79.8985;stroke-linecap:round;paint-order:markers fill stroke"
       id="rect5849"
       width="563.72852"
       height="563.72852"
       x="64.468956"
       y="22.378569" />
    <g
       id="g5913"
       transform="translate(-3.6661362,24.241866)"
       style="stroke-width:9.39546">
      <path
         d="m 350.7,187.54 c -50.984,0 -92.465,41.48 -92.465,92.465 0,50.985 41.48,92.465 92.465,92.465 50.985,0 92.465,-41.48 92.465,-92.465 0,-50.985 -41.48,-92.465 -92.465,-92.465 z m 0,173.73 c -44.812,0 -81.266,-36.453 -81.266,-81.266 0,-44.813 36.457,-81.266 81.266,-81.266 44.812,0 81.266,36.453 81.266,81.266 0,44.813 -36.453,81.266 -81.266,81.266 z"
         id="path5588"
         style="stroke-width:9.39546" />
      <path
         d="m 409.47,262.72 c -0.66016,-2.0273 -2.4102,-3.5078 -4.5273,-3.8125 l -34.035,-4.9258 -15.219,-30.711 c -1.8906,-3.8164 -8.1484,-3.8164 -10.035,0 l -15.219,30.711 -34.035,4.9258 c -2.1133,0.30469 -3.8672,1.7852 -4.5273,3.8125 -0.66016,2.0312 -0.10547,4.2617 1.4258,5.7461 l 24.613,23.902 -5.8086,33.738 c -0.36328,2.1016 0.49609,4.2227 2.2188,5.4766 0.97656,0.71484 2.1367,1.0742 3.2969,1.0742 0.88672,0 1.7812,-0.21094 2.5977,-0.64062 l 30.445,-15.941 30.449,15.941 c 1.8867,0.99219 4.1758,0.82422 5.8945,-0.43359 1.7227,-1.2539 2.5859,-3.375 2.2188,-5.4766 l -5.8086,-33.738 24.613,-23.902 c 1.5469,-1.4883 2.1016,-3.7148 1.4414,-5.7461 z m -35.961,23.668 c -1.3242,1.2891 -1.9297,3.1445 -1.6172,4.9688 l 4.3867,25.48 -23.008,-12.043 c -0.81641,-0.42578 -1.707,-0.64062 -2.5977,-0.64062 -0.8907,0 -1.7852,0.21484 -2.5977,0.64062 l -23.004,12.043 4.3867,-25.48 c 0.3125,-1.8242 -0.28906,-3.6797 -1.6172,-4.9688 l -18.566,-18.027 25.68,-3.7148 c 1.8242,-0.26563 3.3984,-1.4062 4.2148,-3.0586 l 11.504,-23.219 11.508,23.219 c 0.81641,1.6523 2.3945,2.793 4.2148,3.0586 l 25.68,3.7148 z"
         id="path5590"
         style="stroke-width:9.39546" />
      <path
         d="m 493.41,209.54 c 40.223,0 72.949,-32.727 72.949,-72.949 0,-40.223 -32.727,-72.949 -72.949,-72.949 -40.223,0 -72.949,32.727 -72.949,72.949 0,40.223 32.727,72.949 72.949,72.949 z m -36.836,-23.508 c 0.68359,-15.688 10.934,-29.133 26.082,-33.73 2.1602,-0.65625 3.7148,-2.5469 3.9414,-4.7891 0.23047,-2.2461 -0.91016,-4.4062 -2.8945,-5.4883 -7.125,-3.8789 -11.551,-11.32 -11.551,-19.422 0,-12.184 9.9141,-22.098 22.098,-22.098 12.1839,0 22.098,9.9141 22.098,22.098 0,8.3398 -4.6367,15.883 -12.102,19.684 -2.0156,1.0273 -3.2148,3.1602 -3.043,5.4141 0.16797,2.2539 1.6797,4.1797 3.8242,4.8906 14.637,4.8477 24.543,18.168 25.219,33.441 -10.297,7.6914 -23.023,12.309 -36.836,12.309 -13.816,0 -26.539,-4.6172 -36.836,-12.309 z M 493.41,74.842 c 34.047,0 61.746,27.699 61.746,61.746 0,15.324 -5.6445,29.328 -14.914,40.133 -2.9883,-12.828 -11.047,-23.914 -22.441,-30.586 6.1641,-6.1367 9.75,-14.527 9.75,-23.539 0,-18.363 -14.938,-33.301 -33.297,-33.301 -18.363,0 -33.301,14.938 -33.301,33.301 0,8.6523 3.3477,16.805 9.1211,22.902 -11.984,6.5781 -20.441,17.926 -23.504,31.219 -9.2695,-10.805 -14.914,-24.809 -14.914,-40.129 0.004,-34.047 27.703,-61.746 61.754,-61.746 z"
         id="path5592"
         style="stroke-width:9.39546" />
      <path
         d="m 206.59,209.54 c 40.223,0 72.949,-32.727 72.949,-72.949 0,-40.223 -32.727,-72.949 -72.949,-72.949 -40.223,0 -72.949,32.727 -72.949,72.949 0.004,40.223 32.727,72.949 72.949,72.949 z m -36.832,-23.508 c 0.68359,-15.688 10.934,-29.133 26.082,-33.73 2.1602,-0.65625 3.7148,-2.5469 3.9414,-4.7891 0.23047,-2.2461 -0.91016,-4.4062 -2.8945,-5.4883 -7.125,-3.8789 -11.551,-11.32 -11.551,-19.422 0,-12.184 9.9102,-22.098 22.098,-22.098 12.184,0 22.098,9.9141 22.098,22.098 0,8.3398 -4.6367,15.883 -12.102,19.684 -2.0156,1.0273 -3.2148,3.1602 -3.043,5.4141 0.16797,2.2539 1.6797,4.1797 3.8242,4.8906 14.637,4.8477 24.543,18.168 25.219,33.441 -10.297,7.6914 -23.023,12.309 -36.836,12.309 -13.816,0 -26.539,-4.6172 -36.836,-12.309 z M 206.59,74.842 c 34.047,0 61.746,27.699 61.746,61.746 0,15.324 -5.6445,29.328 -14.914,40.133 -2.9883,-12.828 -11.047,-23.914 -22.441,-30.586 6.1641,-6.1367 9.75,-14.527 9.75,-23.539 0,-18.363 -14.938,-33.301 -33.301,-33.301 -18.359,0 -33.297,14.938 -33.297,33.301 0,8.6523 3.3477,16.805 9.1211,22.902 -11.984,6.5781 -20.441,17.926 -23.504,31.219 -9.2695,-10.805 -14.914,-24.809 -14.914,-40.129 0.008,-34.047 27.707,-61.746 61.754,-61.746 z"
         id="path5594"
         style="stroke-width:9.39546" />
      <path
         d="m 493.41,351.05 c -40.223,0 -72.949,32.727 -72.949,72.949 0,40.222 32.727,72.949 72.949,72.949 40.223,0 72.949,-32.727 72.949,-72.949 -0.004,-40.223 -32.727,-72.949 -72.949,-72.949 z m -36.836,122.39 c 0.68359,-15.688 10.934,-29.133 26.082,-33.73 2.1602,-0.65625 3.7148,-2.5469 3.9414,-4.7891 0.23047,-2.2461 -0.91016,-4.4062 -2.8945,-5.4883 -7.125,-3.8789 -11.551,-11.32 -11.551,-19.422 0,-12.184 9.9141,-22.098 22.098,-22.098 12.1839,0 22.098,9.9141 22.098,22.098 0,8.3398 -4.6367,15.883 -12.102,19.684 -2.0156,1.0273 -3.2148,3.1602 -3.043,5.4141 0.16797,2.2539 1.6797,4.1797 3.8242,4.8906 14.637,4.8477 24.543,18.168 25.219,33.441 -10.297,7.6914 -23.023,12.309 -36.836,12.309 -13.816,-0.004 -26.539,-4.6172 -36.836,-12.309 z m 83.668,-9.3086 c -2.9883,-12.828 -11.047,-23.914 -22.441,-30.586 6.1641,-6.1367 9.75,-14.527 9.75,-23.539 0,-18.363 -14.938,-33.301 -33.297,-33.301 -18.363,0 -33.301,14.938 -33.301,33.301 0,8.6523 3.3477,16.805 9.1211,22.902 -11.984,6.5781 -20.441,17.926 -23.504,31.219 -9.2695,-10.805 -14.914,-24.809 -14.914,-40.129 0,-34.047 27.699,-61.746 61.746,-61.746 34.047,0 61.746,27.699 61.746,61.746 0.008,15.32 -5.6367,29.328 -14.906,40.133 z"
         id="path5596"
         style="stroke-width:9.39546" />
      <path
         d="m 206.59,351.05 c -40.223,0 -72.949,32.727 -72.949,72.949 0,40.222 32.727,72.949 72.949,72.949 40.223,0 72.949,-32.727 72.949,-72.949 0,-40.222 -32.727,-72.949 -72.949,-72.949 z m -36.832,122.39 c 0.68359,-15.688 10.934,-29.133 26.082,-33.73 2.1602,-0.65625 3.7148,-2.5469 3.9414,-4.7891 0.23047,-2.2461 -0.91016,-4.4062 -2.8945,-5.4883 -7.125,-3.8789 -11.551,-11.32 -11.551,-19.422 0,-12.184 9.9102,-22.098 22.098,-22.098 12.184,0 22.098,9.9141 22.098,22.098 0,8.3398 -4.6367,15.883 -12.102,19.684 -2.0156,1.0273 -3.2148,3.1602 -3.043,5.4141 0.16797,2.2539 1.6797,4.1797 3.8242,4.8906 14.637,4.8477 24.543,18.168 25.219,33.441 -10.297,7.6914 -23.023,12.309 -36.836,12.309 -13.816,-0.004 -26.539,-4.6172 -36.836,-12.309 z m 83.664,-9.3086 c -2.9883,-12.828 -11.047,-23.914 -22.441,-30.586 6.1641,-6.1367 9.75,-14.527 9.75,-23.539 0,-18.363 -14.938,-33.301 -33.301,-33.301 -18.359,0 -33.297,14.938 -33.297,33.301 0,8.6523 3.3477,16.805 9.1211,22.902 -11.984,6.5781 -20.441,17.926 -23.504,31.219 -9.2695,-10.805 -14.914,-24.809 -14.914,-40.129 0,-34.047 27.699,-61.746 61.746,-61.746 34.047,0 61.746,27.699 61.746,61.746 0.0117,15.32 -5.6328,29.328 -14.906,40.133 z"
         id="path5598"
         style="stroke-width:9.39546" />
      <path
         d="m 286.84,81.902 c 19.773,-9.7539 41.023,-14.703 63.164,-14.703 22.141,0 43.391,4.9453 63.164,14.703 0.79688,0.39062 1.6406,0.57812 2.4727,0.57812 2.0664,0 4.0508,-1.1445 5.0273,-3.1211 1.3672,-2.7734 0.22656,-6.1289 -2.5469,-7.5 -21.328,-10.523 -44.242,-15.859 -68.117,-15.859 -23.875,0 -46.789,5.3359 -68.117,15.855 -2.7734,1.3711 -3.9141,4.7266 -2.5469,7.5 1.3711,2.7773 4.7344,3.9141 7.5,2.5469 z"
         id="path5600"
         style="stroke-width:9.39546" />
      <path
         d="m 146.89,351.24 c 0.83203,0 1.6758,-0.1875 2.4727,-0.57813 2.7734,-1.3711 3.9141,-4.7266 2.5469,-7.5 -9.7578,-19.773 -14.707,-41.023 -14.707,-63.164 0,-22.141 4.9453,-43.391 14.703,-63.164 1.3672,-2.7734 0.22656,-6.1289 -2.5469,-7.5 -2.7734,-1.3516 -6.1289,-0.22266 -7.5,2.5469 -10.52,21.328 -15.855,44.242 -15.855,68.117 0,23.875 5.3359,46.789 15.855,68.117 0.97656,1.9766 2.9609,3.125 5.0312,3.125 z"
         id="path5602"
         style="stroke-width:9.39546" />
      <path
         d="m 413.16,478.1 c -19.773,9.7539 -41.023,14.703 -63.164,14.703 -22.141,0 -43.391,-4.9453 -63.164,-14.703 -2.7656,-1.3633 -6.1289,-0.22266 -7.5,2.5469 -1.3672,2.7734 -0.22656,6.1289 2.5469,7.5 21.328,10.52 44.242,15.855 68.117,15.855 23.875,0 46.789,-5.3359 68.117,-15.855 2.7734,-1.3711 3.9141,-4.7266 2.5469,-7.5 -1.3672,-2.7773 -4.7305,-3.9141 -7.5,-2.5469 z"
         id="path5604"
         style="stroke-width:9.39546" />
      <path
         d="m 558.14,211.88 c -1.3711,-2.7695 -4.7266,-3.9062 -7.5,-2.5469 -2.7734,1.3711 -3.9141,4.7266 -2.5469,7.5 9.7539,19.773 14.703,41.023 14.703,63.164 0,22.141 -4.9453,43.391 -14.703,63.164 -1.3672,2.7734 -0.22656,6.1289 2.5469,7.5 0.79688,0.39063 1.6406,0.57813 2.4727,0.57813 2.0664,0 4.0508,-1.1445 5.0273,-3.1211 10.52,-21.332 15.855,-44.246 15.855,-68.121 0,-23.875 -5.3359,-46.789 -15.855,-68.117 z"
         id="path5606"
         style="stroke-width:9.39546" />
    </g>
  </g>
</svg>
