<?xml version="1.0" encoding="UTF-8" standalone="no"?>
<svg
   xmlns:dc="http://purl.org/dc/elements/1.1/"
   xmlns:cc="http://creativecommons.org/ns#"
   xmlns:rdf="http://www.w3.org/1999/02/22-rdf-syntax-ns#"
   xmlns:svg="http://www.w3.org/2000/svg"
   xmlns="http://www.w3.org/2000/svg"
   xmlns:sodipodi="http://sodipodi.sourceforge.net/DTD/sodipodi-0.dtd"
   xmlns:inkscape="http://www.inkscape.org/namespaces/inkscape"
   version="1.1"
   x="0px"
   y="0px"
   viewBox="0 0 100 87.099609"
   xml:space="preserve"
   id="svg4804"
   sodipodi:docname="noun_secretary_1974852.svg"
   width="100"
   height="87.099609"
   inkscape:version="0.92.3 (2405546, 2018-03-11)"><metadata
     id="metadata4810"><rdf:RDF><cc:Work
         rdf:about=""><dc:format>image/svg+xml</dc:format><dc:type
           rdf:resource="http://purl.org/dc/dcmitype/StillImage" /><dc:title></dc:title></cc:Work></rdf:RDF></metadata><defs
     id="defs4808" /><sodipodi:namedview
     pagecolor="#ffffff"
     bordercolor="#666666"
     borderopacity="1"
     objecttolerance="10"
     gridtolerance="10"
     guidetolerance="10"
     inkscape:pageopacity="0"
     inkscape:pageshadow="2"
     inkscape:window-width="1853"
     inkscape:window-height="2049"
     id="namedview4806"
     showgrid="false"
     fit-margin-top="0"
     fit-margin-left="0"
     fit-margin-right="0"
     fit-margin-bottom="0"
     inkscape:zoom="1.888"
     inkscape:cx="-87.182203"
     inkscape:cy="31.0498"
     inkscape:window-x="134"
     inkscape:window-y="55"
     inkscape:window-maximized="0"
     inkscape:current-layer="svg4804" /><g
     id="g4798"
     transform="translate(0,-6.45019)"><path
       d="m 69.8771,48.97404 c -3.24059,0 -6.10756,-1.21129 -8.52423,-3.60142 -5.26202,-5.20303 -7.12811,-14.97984 -7.12811,-21.77072 0,-10.09832 6.48904,-17.15171 15.78016,-17.15171 0.9301,0 1.68322,0.7541 1.68322,1.6842 0,0.9301 -0.75312,1.6842 -1.68322,1.6842 -7.42503,0 -12.41372,5.53928 -12.41372,13.78331 0,6.62767 1.89558,15.18926 6.13116,19.37666 1.813,1.79333 3.85803,2.61135 6.26291,2.62708 0.0079,-9.8e-4 0.01376,-9.8e-4 0.01966,-9.8e-4 0.92223,0 1.67339,0.74231 1.68322,1.66552 0.0118,0.92911 -0.73543,1.69207 -1.66355,1.7019 -0.04918,0.002 -0.09834,0.002 -0.1475,0.002 z"
       id="path4768"
       inkscape:connector-curvature="0" /><path
       d="m 41.75204,87.10009 c -0.9301,0 -1.68322,-0.75312 -1.68322,-1.68322 0,-3.40576 0.2163,-6.59915 0.64497,-9.49169 0.13568,-0.92223 1.01268,-1.54557 1.91132,-1.41972 0.92027,0.13568 1.5554,0.99302 1.41972,1.91132 -0.40311,2.7313 -0.60958,5.75951 -0.60958,9.0001 10e-6,0.93009 -0.75311,1.68321 -1.68321,1.68321 z m 11.64291,-28.7661 c -0.79638,0 -1.50428,-0.56631 -1.65372,-1.37843 -0.16911,-0.91436 0.43653,-1.79137 1.3509,-1.96048 l 1.10707,-0.19074 c 2.32426,-0.38934 4.33192,-0.72559 5.77328,-2.47763 1.16016,-1.3686 1.08741,-4.16282 0.87504,-7.67476 -0.05506,-0.92911 0.65087,-1.72647 1.579,-1.78252 0.92223,-0.09439 1.72648,0.6489 1.7835,1.579 0.22417,3.71153 0.4562,7.5499 -1.65372,10.03736 -2.22593,2.7077 -5.18926,3.20126 -7.80257,3.63976 l -1.05201,0.18091 c -0.10227,0.01966 -0.20649,0.02753 -0.30677,0.02753 z"
       id="path4770"
       inkscape:connector-curvature="0" /><path
       d="m 98.31678,87.10009 c -0.93009,0 -1.68321,-0.75312 -1.68321,-1.68322 0,-9.76109 -1.97031,-18.59601 -5.40556,-24.2395 -1.40596,-2.29279 -3.44706,-2.64281 -6.03088,-3.08328 -2.56219,-0.43653 -5.46455,-0.93206 -7.69639,-3.62403 -2.09812,-2.47173 -1.86609,-6.36712 -1.64192,-10.1347 0.05505,-0.92813 0.86716,-1.64094 1.78153,-1.58097 0.92813,0.05604 1.63602,0.85341 1.58096,1.78154 -0.21433,3.57684 -0.28513,6.42218 0.85931,7.77111 1.44725,1.74614 3.4097,2.08043 5.68282,2.4678 2.87288,0.48963 6.13116,1.04611 8.33743,4.64851 C 97.85075,65.58205 100,75.05604 100,85.41687 c 0,0.9301 -0.75312,1.68322 -1.68322,1.68322 z"
       id="path4772"
       inkscape:connector-curvature="0" /><path
       d="M 98.31678,87.10009 H 41.75204 c -0.9301,0 -1.68322,-0.75312 -1.68322,-1.68322 0,-0.93009 0.75312,-1.68321 1.68322,-1.68321 h 56.56474 c 0.9301,0 1.68322,0.75312 1.68322,1.68321 0,0.9301 -0.75312,1.68322 -1.68322,1.68322 z"
       id="path4774"
       inkscape:connector-curvature="0" /><path
       d="m 56.02202,28.31137 c -0.67447,0 -1.31157,-0.40901 -1.56916,-1.07561 -0.33625,-0.86717 0.09438,-1.84249 0.96156,-2.17875 8.5262,-3.30351 12.74801,-8.85065 12.90729,-16.95605 0.01769,-0.9183 0.76885,-1.65077 1.68321,-1.65077 0.0098,0 0.02163,9.8e-4 0.03343,9.8e-4 0.93009,0.0177 1.66749,0.78655 1.64979,1.71665 -0.18484,9.49071 -5.25219,16.22948 -15.0585,20.0295 -0.19861,0.07768 -0.40508,0.11405 -0.60762,0.11405 z"
       id="path4776"
       inkscape:connector-curvature="0" /><path
       d="m 84.0468,28.31137 c -0.20254,0 -0.409,-0.03638 -0.60761,-0.11405 C 73.65844,24.40714 68.57143,17.6723 68.3217,8.17865 68.2981,7.24954 69.03156,6.47577 69.95969,6.45119 c 0.01573,0 0.03146,-9.8e-4 0.04523,-9.8e-4 0.91043,0 1.65962,0.72559 1.68322,1.63996 0.21433,8.11916 4.4558,13.66926 12.96628,16.96687 0.86717,0.33625 1.29781,1.31157 0.96156,2.17875 -0.2576,0.66658 -0.89471,1.07558 -1.56918,1.07558 z"
       id="path4778"
       inkscape:connector-curvature="0" /><path
       d="m 70.00491,87.10009 c -0.93009,0 -1.68321,-0.75312 -1.68321,-1.68322 V 67.38128 c 0,-0.93009 0.75312,-1.68321 1.68321,-1.68321 0.9301,0 1.68322,0.75312 1.68322,1.68321 v 18.03559 c 0,0.9301 -0.75312,1.68322 -1.68322,1.68322 z"
       id="path4780"
       inkscape:connector-curvature="0" /><path
       d="m 70.00491,69.0645 c -0.15731,0 -0.31658,-0.02163 -0.47389,-0.06686 L 56.68862,65.23006 C 55.79982,64.96853 55.28856,64.0404 55.54419,63.1516 l 2.51303,-8.7897 c 0.17107,-0.60171 0.66267,-1.05988 1.27618,-1.18573 0.61154,-0.12781 1.24471,0.09439 1.64192,0.57812 l 10.32936,12.55727 c 0.46996,0.57025 0.51323,1.3804 0.10422,1.99784 -0.31658,0.47981 -0.84947,0.7551 -1.40399,0.7551 z m -10.76393,-6.59522 5.98761,1.75597 -4.81565,-5.8539 z"
       id="path4782"
       inkscape:connector-curvature="0" /><path
       d="m 70.00491,69.0645 c -0.55451,0 -1.0874,-0.27529 -1.40595,-0.75509 -0.40704,-0.61744 -0.36378,-1.42759 0.10618,-1.99784 L 79.03648,53.7543 c 0.39524,-0.48176 1.02841,-0.70986 1.63799,-0.58008 0.61154,0.12585 1.10313,0.57811 1.27814,1.17786 l 2.56808,8.7897 c 0.12585,0.42867 0.07472,0.8888 -0.13962,1.28011 -0.21433,0.39328 -0.57614,0.68233 -1.00481,0.80818 l -12.89942,3.76758 c -0.15534,0.04522 -0.31462,0.06685 -0.47193,0.06685 z m 9.60772,-10.71085 -4.83728,5.87946 6.0407,-1.76384 z"
       id="path4784"
       inkscape:connector-curvature="0" /><path
       d="m 70.13273,48.97404 c -0.04916,0 -0.09832,0 -0.14748,-0.002 -0.92813,-0.0098 -1.67535,-0.77279 -1.66355,-1.7019 0.0098,-0.92321 0.76099,-1.66552 1.68321,-1.66552 0.0295,-0.002 0.08456,9.8e-4 0.12782,9.8e-4 2.37932,0 4.41254,-0.86619 6.21375,-2.64772 4.52463,-4.47449 6.13116,-13.22289 6.13116,-19.35601 0,-8.24403 -5.01229,-13.78331 -12.47272,-13.78331 -0.93009,0 -1.68321,-0.7541 -1.68321,-1.6842 0,-0.9301 0.75312,-1.6842 1.68321,-1.6842 9.32652,0 15.83915,7.05339 15.83915,17.15171 0,6.78104 -1.86609,16.54606 -7.12811,21.75105 -2.43045,2.40292 -5.31708,3.62109 -8.58323,3.62109 z"
       id="path4786"
       inkscape:connector-curvature="0" /><path
       d="M 42.55235,72.88713 H 1.68322 C 0.75312,72.88713 0,72.13401 0,71.20391 V 30.67987 c 0,-0.9301 0.75312,-1.6842 1.68322,-1.6842 h 40.86914 c 0.9301,0 1.68322,0.7541 1.68322,1.6842 v 40.52404 c -10e-6,0.9301 -0.75313,1.68322 -1.68323,1.68322 z M 3.36643,69.5207 h 37.5027 V 32.36407 H 3.36643 Z"
       id="path4788"
       inkscape:connector-curvature="0" /><path
       d="m 48.5439,72.88713 h -5.99155 c -0.93009,0 -1.68322,-0.75312 -1.68322,-1.68322 V 30.67987 c 0,-0.9301 0.75312,-1.6842 1.68322,-1.6842 h 5.99155 c 0.9301,0 1.68322,0.7541 1.68322,1.6842 v 40.52404 c 0,0.9301 -0.75312,1.68322 -1.68322,1.68322 z M 44.23557,69.5207 h 2.62511 V 32.36407 h -2.62511 z"
       id="path4790"
       inkscape:connector-curvature="0" /><path
       d="M 98.31678,93.5498 H 1.68322 C 0.75312,93.5498 0,92.79668 0,91.86658 v -6.44971 c 0,-0.93009 0.75312,-1.68321 1.68322,-1.68321 h 96.63356 c 0.9301,0 1.68322,0.75312 1.68322,1.68321 v 6.44971 c 0,0.9301 -0.75312,1.68322 -1.68322,1.68322 z M 3.36643,90.18336 H 96.63357 V 87.10009 H 3.36643 Z"
       id="path4792"
       inkscape:connector-curvature="0" /><path
       d="m 10.64595,87.10009 c -0.4562,0 -0.9124,-0.18484 -1.24472,-0.54862 -0.62531,-0.68626 -0.57811,-1.75204 0.11012,-2.37931 4.269,-3.89539 7.05732,-8.39445 8.29024,-13.37331 0.2222,-0.90257 1.14247,-1.44726 2.03913,-1.22899 0.90257,0.2222 1.45315,1.13657 1.22898,2.03913 -1.39416,5.63367 -4.51873,10.69904 -9.28916,15.0526 -0.32247,0.29298 -0.72951,0.4385 -1.13459,0.4385 z"
       id="path4794"
       inkscape:connector-curvature="0" /><path
       d="m 33.01937,87.10009 c -0.40311,0 -0.80621,-0.14158 -1.12673,-0.4326 -4.83532,-4.35749 -7.96578,-9.43074 -9.30095,-15.0762 -0.21433,-0.90453 0.34608,-1.81103 1.25061,-2.02536 0.89667,-0.2104 1.81103,0.34412 2.02537,1.25061 1.17589,4.96706 3.96225,9.45827 8.27844,13.34972 0.69216,0.62334 0.74722,1.68715 0.12388,2.37734 -0.33233,0.36968 -0.79049,0.55649 -1.25062,0.55649 z"
       id="path4796"
       inkscape:connector-curvature="0" /></g></svg>