<?xml version="1.0" encoding="UTF-8" standalone="no"?>
<svg
   xmlns:dc="http://purl.org/dc/elements/1.1/"
   xmlns:cc="http://creativecommons.org/ns#"
   xmlns:rdf="http://www.w3.org/1999/02/22-rdf-syntax-ns#"
   xmlns:svg="http://www.w3.org/2000/svg"
   xmlns="http://www.w3.org/2000/svg"
   xmlns:sodipodi="http://sodipodi.sourceforge.net/DTD/sodipodi-0.dtd"
   xmlns:inkscape="http://www.inkscape.org/namespaces/inkscape"
   version="1.1"
   x="0px"
   y="0px"
   viewBox="0 0 77.467613 100"
   xml:space="preserve"
   id="svg3430"
   sodipodi:docname="noun_Judge_1974854.svg"
   width="77.467613"
   height="100"
   inkscape:version="0.92.3 (2405546, 2018-03-11)"><metadata
     id="metadata3436"><rdf:RDF><cc:Work
         rdf:about=""><dc:format>image/svg+xml</dc:format><dc:type
           rdf:resource="http://purl.org/dc/dcmitype/StillImage" /><dc:title></dc:title></cc:Work></rdf:RDF></metadata><defs
     id="defs3434" /><sodipodi:namedview
     pagecolor="#ffffff"
     bordercolor="#666666"
     borderopacity="1"
     objecttolerance="10"
     gridtolerance="10"
     guidetolerance="10"
     inkscape:pageopacity="0"
     inkscape:pageshadow="2"
     inkscape:window-width="1853"
     inkscape:window-height="2049"
     id="namedview3432"
     showgrid="false"
     fit-margin-top="0"
     fit-margin-left="0"
     fit-margin-right="0"
     fit-margin-bottom="0"
     inkscape:zoom="1.888"
     inkscape:cx="-98.448403"
     inkscape:cy="37.5"
     inkscape:window-x="134"
     inkscape:window-y="55"
     inkscape:window-maximized="0"
     inkscape:current-layer="svg3430" /><g
     id="g3424"
     transform="translate(-11.2662)"><path
       d="m 49.87717,61.43816 c -4.1604,0 -7.86094,-1.57808 -11.00335,-4.69495 -6.2691,-6.21604 -9.12459,-17.74411 -9.12459,-25.82515 0,-3.52956 0.90597,-6.14824 2.76705,-8.00539 3.44309,-3.43621 9.31914,-3.42835 16.08938,-3.40575 l 1.39532,0.002 1.39532,-0.002 c 6.74075,-0.0088 12.59912,-0.03046 16.03042,3.39298 1.86108,1.85616 2.76705,4.47975 2.76705,8.01816 0,9.90184 -4.93274,30.39039 -20.17903,30.5201 -0.0452,0 -0.09237,0 -0.13757,0 z M 47.25555,22.92741 c -5.44763,0 -10.0679,0.15918 -12.32203,2.4084 -1.18504,1.18209 -1.76085,3.00779 -1.76085,5.58225 0,7.62904 2.7867,18.11554 8.11052,23.39612 2.50568,2.48406 5.45942,3.71822 8.70403,3.70054 12.55785,-0.10612 16.78311,-18.65205 16.78311,-27.09666 0,-2.5833 -0.57581,-4.41294 -1.76085,-5.59502 -2.42314,-2.41822 -7.57205,-2.39562 -13.60532,-2.39366 l -1.40318,0.003 -1.40318,-0.003 c -0.452,-9.8e-4 -0.90204,-0.002 -1.34225,-0.002 z"
       id="path3386"
       inkscape:connector-curvature="0" /><path
       d="m 12.97792,100 c -0.94528,0 -1.71172,-0.76644 -1.71172,-1.71172 0,-10.91491 2.83387,-20.84132 7.77447,-27.23225 2.77295,-3.62586 6.89208,-4.18792 10.52383,-4.68316 2.9793,-0.40681 5.79351,-0.79002 7.78823,-2.69434 1.47393,-1.43266 1.39139,-4.31566 1.12804,-7.93562 -0.06682,-0.94331 0.64067,-1.76282 1.58398,-1.8316 0.92759,-0.0393 1.76085,0.64263 1.8316,1.58398 0.26924,3.73984 0.57778,7.97886 -2.16962,10.64764 -2.80635,2.68255 -6.46759,3.18172 -9.69843,3.62193 -3.40968,0.46379 -6.35361,0.86667 -8.27364,3.37823 -4.49253,5.8112 -7.06502,14.97313 -7.06502,25.14518 0,0.94529 -0.76644,1.71173 -1.71172,1.71173 z"
       id="path3388"
       inkscape:connector-curvature="0" /><path
       d="m 87.02208,100 c -0.94527,0 -1.71172,-0.76644 -1.71172,-1.71172 0,-10.12489 -2.59411,-19.28878 -7.11611,-25.13731 -1.92789,-2.5214 -4.86396,-2.92231 -8.26185,-3.3861 -3.22495,-0.44218 -6.87832,-0.94135 -9.69843,-3.60424 -2.71006,-2.63538 -2.41528,-6.77417 -2.13032,-10.77735 0.06682,-0.94331 0.89615,-1.6449 1.82964,-1.58595 0.94331,0.06878 1.65276,0.88632 1.58595,1.82964 -0.27514,3.8381 -0.35767,6.66214 1.08284,8.06336 2.00257,1.89055 4.81679,2.27574 7.79412,2.68254 3.62389,0.49524 7.73123,1.0573 10.51204,4.69102 4.97008,6.43024 7.82557,16.35665 7.82557,27.2244 C 88.7338,99.23356 87.96735,100 87.02208,100 Z"
       id="path3390"
       inkscape:connector-curvature="0" /><path
       d="M 87.02208,100 H 12.97792 c -0.94528,0 -1.71172,-0.76644 -1.71172,-1.71172 0,-0.94527 0.76644,-1.71172 1.71172,-1.71172 h 74.04416 c 0.94527,0 1.71172,0.76644 1.71172,1.71172 0,0.94528 -0.76645,1.71172 -1.71172,1.71172 z"
       id="path3392"
       inkscape:connector-curvature="0" /><path
       d="m 49.99902,69.40326 c -4.13878,0 -8.27757,-1.4189 -11.65384,-4.26064 -0.72321,-0.60725 -0.81557,-1.68813 -0.20635,-2.41134 0.60922,-0.72321 1.68421,-0.81754 2.41134,-0.20635 5.47711,4.60847 13.42649,4.60651 18.89967,0 0.72517,-0.61119 1.80408,-0.51686 2.41134,0.20635 0.60922,0.72321 0.51686,1.80408 -0.20635,2.41134 -3.37628,2.84174 -7.51506,4.26064 -11.65581,4.26064 z"
       id="path3394"
       inkscape:connector-curvature="0" /><path
       d="m 33.91357,100 c -0.66818,0 -1.30492,-0.39501 -1.57809,-1.0514 -3.14241,-7.50916 -5.08603,-17.7952 -5.77975,-30.57317 -0.0511,-0.94331 0.67408,-1.75102 1.61739,-1.80212 0.9158,-0.0098 1.74906,0.67407 1.80212,1.61739 0.67015,12.38491 2.52729,22.2897 5.51641,29.43726 0.36553,0.87257 -0.0452,1.87483 -0.91777,2.2384 C 34.35771,99.95676 34.13367,100 33.91357,100 Z"
       id="path3396"
       inkscape:connector-curvature="0" /><path
       d="m 66.02944,100 c -0.22404,0 -0.452,-0.04324 -0.67211,-0.13757 -0.86864,-0.37143 -1.27348,-1.37566 -0.90205,-2.24626 3.02253,-7.08664 4.89737,-16.9875 5.56948,-29.42547 0.05305,-0.94331 0.86273,-1.63311 1.80212,-1.61739 0.94331,0.05109 1.66849,0.85881 1.61739,1.80212 C 72.73876,81.39315 70.82855,91.39816 67.60359,98.96038 67.32649,99.61089 66.69369,100 66.02944,100 Z"
       id="path3398"
       inkscape:connector-curvature="0" /><path
       d="m 44.63982,100 c -0.13757,0 -0.27513,-0.01572 -0.4127,-0.05109 -0.91777,-0.22601 -1.47786,-1.15359 -1.24989,-2.07136 L 48.34036,76.201 c 0.226,-0.91973 1.16145,-1.48572 2.07136,-1.24989 0.91777,0.226 1.47786,1.15359 1.24989,2.07136 L 46.29849,98.69901 C 46.10589,99.47921 45.40823,100 44.63982,100 Z"
       id="path3400"
       inkscape:connector-curvature="0" /><path
       d="m 55.36018,100 c -0.76841,0 -1.46607,-0.52079 -1.65866,-1.30099 L 48.34036,77.02247 c -0.22797,-0.91777 0.33213,-1.84536 1.24989,-2.07136 0.90008,-0.2378 1.84339,0.33015 2.07136,1.24989 l 5.36116,21.67654 C 57.25074,98.7953 56.69065,99.72289 55.77288,99.9489 55.63531,99.98428 55.49775,100 55.36018,100 Z"
       id="path3402"
       inkscape:connector-curvature="0" /><path
       d="m 49.99902,78.32346 c -0.34784,0 -0.69962,-0.10612 -1.00227,-0.32623 -4.3471,-3.15224 -6.71521,-6.99231 -7.03554,-11.41605 -0.06681,-0.94331 0.64067,-1.76282 1.58398,-1.8316 0.98655,-0.03341 1.76282,0.64263 1.8316,1.58398 0.24566,3.41755 2.08708,6.3261 5.62843,8.89269 0.76448,0.55419 0.93545,1.62524 0.38126,2.38972 -0.3341,0.46183 -0.85685,0.70749 -1.38746,0.70749 z"
       id="path3404"
       inkscape:connector-curvature="0" /><path
       d="m 50.00295,78.32346 c -0.53061,0 -1.05337,-0.24565 -1.38745,-0.70748 -0.5542,-0.76448 -0.38519,-1.83553 0.38125,-2.38972 3.49812,-2.53712 5.32186,-5.44567 5.56948,-8.89269 0.06878,-0.94135 0.85095,-1.62132 1.8316,-1.58398 0.94331,0.06878 1.65079,0.88828 1.58398,1.8316 -0.3223,4.45126 -2.67075,8.2933 -6.97658,11.41605 -0.30266,0.2201 -0.65443,0.32622 -1.00228,0.32622 z"
       id="path3406"
       inkscape:connector-curvature="0" /><path
       d="m 26.09783,28.97935 c -0.94528,0 -1.71172,-0.76644 -1.71172,-1.71172 C 24.38611,12.2326 35.87684,0 50.00098,0 c 0.94528,0 1.71172,0.76644 1.71172,1.71172 0,0.94528 -0.76644,1.71172 -1.71172,1.71172 -12.23752,0 -22.19143,10.69579 -22.19143,23.8442 0,0.94527 -0.76644,1.71171 -1.71172,1.71171 z"
       id="path3408"
       inkscape:connector-curvature="0" /><path
       d="m 23.24627,39.47567 c -5.53607,0 -10.04039,-4.47877 -10.04039,-9.98339 0,-5.53607 4.50432,-10.04038 10.04039,-10.04038 1.38353,0 2.73954,0.27612 4.0307,0.8195 0.8706,0.36652 1.27937,1.37075 0.91384,2.24135 -0.36946,0.87256 -1.37763,1.2774 -2.24233,0.91285 -0.86667,-0.36553 -1.77657,-0.55027 -2.7022,-0.55027 -3.64944,0 -6.61695,2.96849 -6.61695,6.61695 0,3.61701 2.9675,6.55995 6.61695,6.55995 3.618,0 6.55996,-2.94294 6.55996,-6.55995 0,-0.94528 0.76644,-1.71172 1.71172,-1.71172 0.94528,0 1.71172,0.76644 1.71172,1.71172 -1e-5,5.50463 -4.47878,9.98339 -9.98341,9.98339 z"
       id="path3410"
       inkscape:connector-curvature="0" /><path
       d="m 24.32912,50.42695 c -5.5341,0 -10.03842,-4.47877 -10.03842,-9.98241 0,-2.11852 0.66425,-4.1604 1.91807,-5.90553 0.55027,-0.76743 1.61739,-0.94429 2.38776,-0.3901 0.76841,0.55125 0.94331,1.62132 0.39108,2.38874 -0.83326,1.15851 -1.27347,2.50961 -1.27347,3.90689 0,3.61702 2.96751,6.55898 6.61498,6.55898 3.618,0 6.55995,-2.94196 6.55995,-6.55898 0,-0.94527 0.76644,-1.71172 1.71172,-1.71172 0.94528,0 1.71172,0.76645 1.71172,1.71172 0,5.50364 -4.47877,9.98241 -9.98339,9.98241 z"
       id="path3412"
       inkscape:connector-curvature="0" /><path
       d="m 27.35361,59.15652 c -5.53607,0 -10.04039,-4.47877 -10.04039,-9.98339 0,-0.80574 0.10809,-1.60854 0.33606,-2.52631 0.22993,-0.91678 1.15949,-1.46999 2.07529,-1.24596 0.91776,0.22895 1.47392,1.1585 1.24596,2.07529 -0.16115,0.64754 -0.23386,1.17226 -0.23386,1.69698 0,3.618 2.96751,6.55996 6.61695,6.55996 3.618,0 6.55996,-2.94196 6.55996,-6.55996 0,-0.94528 0.76644,-1.71172 1.71172,-1.71172 0.94528,0 1.71172,0.76644 1.71172,1.71172 -1e-5,5.50462 -4.47878,9.98339 -9.98341,9.98339 z"
       id="path3414"
       inkscape:connector-curvature="0" /><path
       d="m 73.90217,28.97935 c -0.94527,0 -1.71172,-0.76644 -1.71172,-1.71172 0,-13.1484 -9.95392,-23.8442 -22.18947,-23.8442 -0.94528,0 -1.71172,-0.76644 -1.71172,-1.71172 C 48.28926,0.76643 49.05571,0 50.00098,0 c 14.12218,0 25.61291,12.2326 25.61291,27.26764 0,0.94527 -0.76644,1.71171 -1.71172,1.71171 z"
       id="path3416"
       inkscape:connector-curvature="0" /><path
       d="m 76.75372,39.47567 c -5.53606,0 -10.04038,-4.47877 -10.04038,-9.98339 0,-0.94528 0.76644,-1.71172 1.71172,-1.71172 0.94527,0 1.71172,0.76644 1.71172,1.71172 0,3.61701 2.96751,6.55995 6.61694,6.55995 3.618,0 6.55996,-2.94294 6.55996,-6.55995 0,-3.64846 -2.94196,-6.61695 -6.55996,-6.61695 -0.97083,0 -1.86893,0.1808 -2.67075,0.53651 -0.86273,0.38224 -1.87286,-0.003 -2.26002,-0.86863 -0.38322,-0.86274 0.0059,-1.87483 0.86864,-2.25805 1.24399,-0.55322 2.60983,-0.83326 4.06213,-0.83326 5.50462,0 9.9834,4.50432 9.9834,10.04038 0,5.50463 -4.47877,9.98339 -9.9834,9.98339 z"
       id="path3418"
       inkscape:connector-curvature="0" /><path
       d="m 75.67088,50.42695 c -5.53607,0 -10.04039,-4.47877 -10.04039,-9.98241 0,-0.94527 0.76644,-1.71172 1.71172,-1.71172 0.94527,0 1.71172,0.76645 1.71172,1.71172 0,3.61702 2.96751,6.55898 6.61695,6.55898 3.61603,0 6.55799,-2.94196 6.55799,-6.55898 0,-1.39728 -0.44022,-2.74838 -1.27348,-3.90689 -0.55223,-0.76742 -0.37733,-1.83749 0.39108,-2.38874 0.76251,-0.55223 1.83749,-0.37536 2.38776,0.3901 1.25382,1.74513 1.91808,3.78701 1.91808,5.90553 0,5.50364 -4.47877,9.98241 -9.98143,9.98241 z"
       id="path3420"
       inkscape:connector-curvature="0" /><path
       d="m 72.64639,59.15652 c -5.53606,0 -10.04039,-4.47877 -10.04039,-9.98339 0,-0.94528 0.76644,-1.71172 1.71172,-1.71172 0.94528,0 1.71172,0.76644 1.71172,1.71172 0,3.618 2.9675,6.55996 6.61694,6.55996 3.618,0 6.55995,-2.94196 6.55995,-6.55996 0,-0.52472 -0.07271,-1.04943 -0.23386,-1.69698 -0.22797,-0.91678 0.3282,-1.84634 1.24596,-2.07529 0.91776,-0.22207 1.84732,0.33016 2.07529,1.24596 0.22797,0.91777 0.33605,1.72057 0.33605,2.52631 1e-5,5.50462 -4.47876,9.98339 -9.98338,9.98339 z"
       id="path3422"
       inkscape:connector-curvature="0" /></g></svg>