<?xml version="1.0" encoding="UTF-8" standalone="no"?>
<svg
   xmlns:dc="http://purl.org/dc/elements/1.1/"
   xmlns:cc="http://creativecommons.org/ns#"
   xmlns:rdf="http://www.w3.org/1999/02/22-rdf-syntax-ns#"
   xmlns:svg="http://www.w3.org/2000/svg"
   xmlns="http://www.w3.org/2000/svg"
   xmlns:sodipodi="http://sodipodi.sourceforge.net/DTD/sodipodi-0.dtd"
   xmlns:inkscape="http://www.inkscape.org/namespaces/inkscape"
   data-name="Layer 1"
   viewBox="0 0 185.63 142.61"
   x="0px"
   y="0px"
   version="1.1"
   id="svg8160"
   sodipodi:docname="noun_web coding_1734983.svg"
   width="185.63"
   height="142.61"
   inkscape:version="0.92.3 (2405546, 2018-03-11)">
  <metadata
     id="metadata8166">
    <rdf:RDF>
      <cc:Work
         rdf:about="">
        <dc:format>image/svg+xml</dc:format>
        <dc:type
           rdf:resource="http://purl.org/dc/dcmitype/StillImage" />
        <dc:title>coding</dc:title>
      </cc:Work>
    </rdf:RDF>
  </metadata>
  <defs
     id="defs8164" />
  <sodipodi:namedview
     pagecolor="#ffffff"
     bordercolor="#666666"
     borderopacity="1"
     objecttolerance="10"
     gridtolerance="10"
     guidetolerance="10"
     inkscape:pageopacity="0"
     inkscape:pageshadow="2"
     inkscape:window-width="1853"
     inkscape:window-height="2049"
     id="namedview8162"
     showgrid="false"
     fit-margin-top="0"
     fit-margin-left="0"
     fit-margin-right="0"
     fit-margin-bottom="0"
     inkscape:zoom="0.944"
     inkscape:cx="-181.14441"
     inkscape:cy="46.3"
     inkscape:window-x="134"
     inkscape:window-y="55"
     inkscape:window-maximized="0"
     inkscape:current-layer="svg8160" />
  <title
     id="title8142">coding</title>
  <path
     d="M 173.62,4.1701432e-6 H 12 A 12,12 0 0 0 0,12.000004 V 130.61 a 12,12 0 0 0 12,12 h 161.43 a 12.22,12.22 0 0 0 12.2,-12.21 V 12.010004 A 12,12 0 0 0 173.62,4.1701432e-6 Z M 177.62,130.41 a 4.21,4.21 0 0 1 -4.2,4.21 H 12 a 4,4 0 0 1 -4,-4 V 12.010004 A 4,4 0 0 1 12,8.0100042 H 61 L 79.54,30.440004 a 9.08,9.08 0 0 0 7,3.32 h 91.06 z m 0,-100.649996 H 86.57 a 5.09,5.09 0 0 1 -3.94,-1.86 L 66.22,8.0000042 h 107.4 a 4,4 0 0 1 4,3.9999998 z"
     id="path8144"
     inkscape:connector-curvature="0" />
  <circle
     cx="25.359999"
     cy="18.600004"
     r="5.7199998"
     id="circle8146" />
  <circle
     cx="48.66"
     cy="18.600004"
     r="5.7199998"
     id="circle8148" />
  <path
     d="m 75.92,97.160004 -20.76,-10.15 19.06,-8.76 a 4.0027272,4.0027272 0 0 0 -3.33,-7.28 l -26.75,12.34 a 4,4 0 0 0 -0.09,7.23 L 72.41,104.31 a 3.94,3.94 0 0 0 1.75,0.41 4,4 0 0 0 1.76,-7.589996 z"
     id="path8150"
     inkscape:connector-curvature="0" />
  <path
     d="m 111.46,104.75 a 4,4 0 0 0 1.76,-0.44 l 28.35,-13.849996 a 4,4 0 0 0 -0.08,-7.23 l -26.79,-12.26 a 4.0048096,4.0048096 0 0 0 -3.34,7.28 l 19.11,8.76 -20.76,10.15 a 4,4 0 0 0 1.75,7.589996 z"
     id="path8152"
     inkscape:connector-curvature="0" />
  <path
     d="m 81.37,121.21 a 4.12,4.12 0 0 0 1.24,0.2 4,4 0 0 0 3.8,-2.77 l 19.34,-59.449996 a 4.0004062,4.0004062 0 0 0 -7.61,-2.47 L 78.8,116.17 a 4,4 0 0 0 2.57,5.04 z"
     id="path8154"
     inkscape:connector-curvature="0" />
</svg>
