<?xml version="1.0" encoding="UTF-8" standalone="no"?>
<svg
   xmlns:dc="http://purl.org/dc/elements/1.1/"
   xmlns:cc="http://creativecommons.org/ns#"
   xmlns:rdf="http://www.w3.org/1999/02/22-rdf-syntax-ns#"
   xmlns:svg="http://www.w3.org/2000/svg"
   xmlns="http://www.w3.org/2000/svg"
   xmlns:sodipodi="http://sodipodi.sourceforge.net/DTD/sodipodi-0.dtd"
   xmlns:inkscape="http://www.inkscape.org/namespaces/inkscape"
   version="1.1"
   x="0px"
   y="0px"
   viewBox="0 0 80 79.970703"
   xml:space="preserve"
   id="svg1013"
   sodipodi:docname="noun_government building_2031469.svg"
   width="80"
   height="79.970703"
   inkscape:version="0.92.3 (2405546, 2018-03-11)"><metadata
     id="metadata1019"><rdf:RDF><cc:Work
         rdf:about=""><dc:format>image/svg+xml</dc:format><dc:type
           rdf:resource="http://purl.org/dc/dcmitype/StillImage" /><dc:title></dc:title></cc:Work></rdf:RDF></metadata><defs
     id="defs1017" /><sodipodi:namedview
     pagecolor="#ffffff"
     bordercolor="#666666"
     borderopacity="1"
     objecttolerance="10"
     gridtolerance="10"
     guidetolerance="10"
     inkscape:pageopacity="0"
     inkscape:pageshadow="2"
     inkscape:window-width="1853"
     inkscape:window-height="2049"
     id="namedview1015"
     showgrid="false"
     fit-margin-top="0"
     fit-margin-left="0"
     fit-margin-right="0"
     fit-margin-bottom="0"
     inkscape:zoom="1.888"
     inkscape:cx="-97.182203"
     inkscape:cy="27.470703"
     inkscape:window-x="134"
     inkscape:window-y="55"
     inkscape:window-maximized="0"
     inkscape:current-layer="svg1013" /><path
     d="m 4.640625,65.643555 c -0.552246,0 -1,0.447265 -1,1 v 5.024414 H 1 c -0.552246,0 -1,0.447265 -1,1 v 6.302734 c 0,0.552735 0.447754,1 1,1 h 78 c 0.552246,0 1,-0.447265 1,-1 v -6.302734 c 0,-0.552735 -0.447754,-1 -1,-1 h -2.576172 v -5.024414 c 0,-0.552735 -0.447754,-1 -1,-1 H 71.499023 V 34.084961 h 3.860352 c 0.552246,0 1,-0.447266 1,-1 v -6.820313 c 0,-0.552734 -0.447754,-1 -1,-1 h -2.858887 c -0.01965,-0.01813 -0.02936,-0.04279 -0.05078,-0.05957 L 40.649902,0.21386695 c -0.362304,-0.285156 -0.873047,-0.285156 -1.235351,0 L 7.615234,25.205078 c -0.02142,0.01678 -0.03113,0.04144 -0.05078,0.05957 H 4.576173 c -0.552246,0 -1,0.447266 -1,1 v 6.820313 c 0,0.552734 0.447754,1 1,1 H 8.436525 V 65.643555 Z M 78,77.970703 H 2 V 73.667969 H 78 Z M 74.423828,71.667969 H 5.640625 V 67.643555 H 74.423828 Z M 34.769531,34.084961 V 65.643555 H 18.686523 V 34.084961 Z m 10.25,31.558594 V 34.084961 h 16.229492 v 31.558594 z m -2,0 h -6.25 V 34.084961 h 6.25 z m 26.479492,0 h -6.25 V 34.084961 h 6.25 z M 40.032227,2.271484 69.289551,25.264648 h -12.75177 c -0.05322,-0.0733 -0.1026,-0.149352 -0.177429,-0.208007 l -15.71045,-12.34668 c -0.362304,-0.285156 -0.873047,-0.285156 -1.235351,0 L 23.514648,25.205078 c -0.02142,0.01678 -0.03113,0.04144 -0.05078,0.05957 H 10.775391 Z M 53.389099,25.264648 H 26.674866 l 13.35736,-10.49707 z m -47.812927,2 h 68.783203 v 4.820313 H 5.576172 Z m 4.860351,6.820313 h 6.25 v 31.558594 h -6.25 z"
     id="path1007"
     inkscape:connector-curvature="0" /></svg>