<?xml version="1.0" encoding="UTF-8" standalone="no"?>
<svg
   xmlns:dc="http://purl.org/dc/elements/1.1/"
   xmlns:cc="http://creativecommons.org/ns#"
   xmlns:rdf="http://www.w3.org/1999/02/22-rdf-syntax-ns#"
   xmlns:svg="http://www.w3.org/2000/svg"
   xmlns="http://www.w3.org/2000/svg"
   xmlns:sodipodi="http://sodipodi.sourceforge.net/DTD/sodipodi-0.dtd"
   xmlns:inkscape="http://www.inkscape.org/namespaces/inkscape"
   data-name="Layer 1"
   viewBox="0 0 176.84 149.95"
   x="0px"
   y="0px"
   version="1.1"
   id="svg3755"
   sodipodi:docname="noun_server technical_1735015.svg"
   width="176.84"
   height="149.95"
   inkscape:version="0.92.3 (2405546, 2018-03-11)">
  <metadata
     id="metadata3761">
    <rdf:RDF>
      <cc:Work
         rdf:about="">
        <dc:format>image/svg+xml</dc:format>
        <dc:type
           rdf:resource="http://purl.org/dc/dcmitype/StillImage" />
        <dc:title>server-technical</dc:title>
      </cc:Work>
    </rdf:RDF>
  </metadata>
  <defs
     id="defs3759" />
  <sodipodi:namedview
     pagecolor="#ffffff"
     bordercolor="#666666"
     borderopacity="1"
     objecttolerance="10"
     gridtolerance="10"
     guidetolerance="10"
     inkscape:pageopacity="0"
     inkscape:pageshadow="2"
     inkscape:window-width="1853"
     inkscape:window-height="2049"
     id="namedview3757"
     showgrid="false"
     inkscape:measure-start="0,0"
     inkscape:measure-end="0,0"
     fit-margin-top="0"
     fit-margin-left="0"
     fit-margin-right="0"
     fit-margin-bottom="0"
     inkscape:zoom="0.944"
     inkscape:cx="-183.94441"
     inkscape:cy="47.95"
     inkscape:window-x="134"
     inkscape:window-y="55"
     inkscape:window-maximized="0"
     inkscape:current-layer="svg3755" />
  <title
     id="title3741">server-technical</title>
  <path
     d="m 32.83,81.27 a 2.0026233,2.0026233 0 1 0 -0.72,3.94 213.76,213.76 0 0 0 25.73,2.94 h 0.11 a 2.0008998,2.0008998 0 0 0 0.12,-4 207.6,207.6 0 0 1 -25.24,-2.88 z"
     id="path3743"
     inkscape:connector-curvature="0" />
  <path
     d="m 73.86,132.94 c -17.42,0 -35,-2.33 -48.22,-6.38 -1.77,-0.54 -3.35,-1.08 -4.79,-1.61 V 97.12 a 2,2 0 0 0 -4,0 v 26.2 C 9.71,120.1 8,117.39 8,116.68 V 77.5 a 47.14,47.14 0 0 0 10.25,4.39 h 0.06 a 2.26,2.26 0 0 0 0.53,0.08 v 0 a 1.91,1.91 0 0 0 0.54,-0.09 h 0.11 a 1.74,1.74 0 0 0 0.49,-0.25 h 0.06 a 2,2 0 0 0 0.36,-0.36 0.18,0.18 0 0 0 0.05,-0.07 1.83,1.83 0 0 0 0.26,-0.5 c 0,0 0,0 0,0 0,0 0,-0.06 0,-0.09 0,-0.03 0,-0.14 0,-0.21 0,-0.07 0,-0.13 0,-0.2 0,-0.07 0,-0.07 0,-0.1 V 47.29 a 2,2 0 0 0 -4,0 v 29.9 A 29.73,29.73 0 0 1 7.86,72.61 V 27.42 c 11.74,7.63 39.5,11.68 66,11.68 26.5,0 54.25,-4.05 65.85,-11.68 v 45.15 c -2.8,2.42 -8.74,5.21 -19.21,7.57 a 2.0120636,2.0120636 0 0 0 0.44,4 2.3,2.3 0 0 0 0.45,0 c 7.05,-1.59 14.95,-4 19.78,-7.54 h 6.54 V 21.27 C 147.71,4.46 99.42,0 73.86,0 48.3,0 0,4.46 0,21.27 v 95.41 c 0,14.51 38.19,24.26 73.86,24.26 a 197.75,197.75 0 0 0 36.85,-3.37 l -1.51,-7.85 a 190.31,190.31 0 0 1 -35.34,3.22 z M 25.42,13 C 38.31,9.77 55.51,8 73.86,8 c 18.35,0 35.56,1.77 48.43,5 14.46,3.57 17.42,7.47 17.42,8.32 v 1.14 c -2.42,2.39 -7.73,5.14 -17.22,7.56 -13,3.3 -30.24,5.13 -48.63,5.13 C 55.47,35.15 38.19,33.27 25.22,30 15.74,27.55 10.42,24.8 8,22.41 V 21.27 C 8,20.42 10.96,16.52 25.42,13 Z"
     id="path3745"
     inkscape:connector-curvature="0" />
  <path
     d="m 175.55,125.91 1.29,-5.91 -7.07,-3.66 -0.35,-5.34 6.47,-4.63 -2.11,-5.66 -7.92,0.73 -3.2,-4.27 2.94,-7.39 -4.84,-3.62 -6.26,4.9 -5,-1.86 -1.53,-7.81 -6,-0.43 -2.62,7.51 -5.22,1.13 -5.5,-5.74 -5.3,2.9 1.85,7.73 -3.77,3.77 -7.73,-1.85 -2.9,5.3 5.74,5.5 -1.13,5.22 -7.51,2.62 0.43,6 7.81,1.53 1.86,5 -4.9,6.26 3.62,4.84 7.39,-2.94 4.27,3.2 -0.73,7.92 5.66,2.11 4.63,-6.47 5.32,0.39 3.66,7.06 5.91,-1.29 0.4,-7.94 4.68,-2.56 6.9,4 4.27,-4.27 -4,-6.9 2.56,-4.68 z m -33.23,7.83 a 18.27,18.27 0 1 1 18.27,-18.27 18.27,18.27 0 0 1 -18.27,18.27 z"
     id="path3747"
     inkscape:connector-curvature="0" />
  <path
     d="m 115.93,92.12 v -5 l -7.43,-2.61 -1.53,-3.63 3.35,-7.13 -3.54,-3.52 -7.11,3.41 -3.64,-1.49 -2.67,-7.41 h -5 l -2.64,7.47 -3.63,1.52 -7.13,-3.35 -3.54,3.55 3.42,7.1 -1.42,3.65 -7.42,2.67 v 5 l 7.42,2.65 1.53,3.62 -3.35,7.14 3.55,3.52 7.1,-3.42 3.64,1.49 2.68,7.41 h 5 l 2.61,-7.44 3.63,-1.52 7.13,3.35 3.52,-3.55 -3.42,-7.1 1.49,-3.64 z m -25,8.85 A 11.24,11.24 0 1 1 102.17,89.74 11.23,11.23 0 0 1 90.94,101 Z"
     id="path3749"
     inkscape:connector-curvature="0" />
</svg>
