<?xml version="1.0" encoding="UTF-8" standalone="no"?>
<svg
   xmlns:dc="http://purl.org/dc/elements/1.1/"
   xmlns:cc="http://creativecommons.org/ns#"
   xmlns:rdf="http://www.w3.org/1999/02/22-rdf-syntax-ns#"
   xmlns:svg="http://www.w3.org/2000/svg"
   xmlns="http://www.w3.org/2000/svg"
   xmlns:sodipodi="http://sodipodi.sourceforge.net/DTD/sodipodi-0.dtd"
   xmlns:inkscape="http://www.inkscape.org/namespaces/inkscape"
   version="1.1"
   x="0px"
   y="0px"
   viewBox="0 0 69.366913 100"
   xml:space="preserve"
   id="svg12767"
   sodipodi:docname="noun_operator_1974933.svg"
   width="69.366913"
   height="100"
   inkscape:version="0.92.3 (2405546, 2018-03-11)"><metadata
     id="metadata12773"><rdf:RDF><cc:Work
         rdf:about=""><dc:format>image/svg+xml</dc:format><dc:type
           rdf:resource="http://purl.org/dc/dcmitype/StillImage" /><dc:title></dc:title></cc:Work></rdf:RDF></metadata><defs
     id="defs12771" /><sodipodi:namedview
     pagecolor="#ffffff"
     bordercolor="#666666"
     borderopacity="1"
     objecttolerance="10"
     gridtolerance="10"
     guidetolerance="10"
     inkscape:pageopacity="0"
     inkscape:pageshadow="2"
     inkscape:window-width="1853"
     inkscape:window-height="2049"
     id="namedview12769"
     showgrid="false"
     fit-margin-top="0"
     fit-margin-left="0"
     fit-margin-right="0"
     fit-margin-bottom="0"
     inkscape:zoom="1.888"
     inkscape:cx="-102.49875"
     inkscape:cy="37.5"
     inkscape:window-x="134"
     inkscape:window-y="55"
     inkscape:window-maximized="0"
     inkscape:current-layer="svg12767" /><g
     id="g12761"
     transform="translate(-15.31655)"><path
       d="m 49.88307,55.6191 c -3.7536,0 -7.06305,-1.39827 -9.84779,-4.15746 -6.0765,-6.01853 -8.23237,-17.34811 -8.23237,-25.22084 0,-11.62142 7.48362,-19.73784 18.19808,-19.73784 10.71249,0 18.19611,8.11642 18.19611,19.73784 0,3.7762 -0.47166,7.68505 -1.35994,11.30403 -0.22601,0.91777 -1.15359,1.47982 -2.07136,1.25284 -0.91776,-0.22502 -1.47786,-1.15261 -1.25382,-2.07037 0.8254,-3.35564 1.26168,-6.9815 1.26168,-10.48649 0,-9.75838 -5.93697,-16.3144 -14.77267,-16.3144 -8.83766,0 -14.77464,6.55602 -14.77464,16.3144 0,7.21438 1.89056,17.51221 7.21634,22.78887 2.14997,2.12737 4.63403,3.16894 7.54257,3.16599 3.03825,-0.0452 5.73456,-1.30197 8.0044,-3.73395 0.64656,-0.69373 1.72548,-0.73107 2.4192,-0.08352 0.69176,0.6446 0.7291,1.72744 0.08451,2.41822 -2.8889,3.09525 -6.50886,4.76176 -10.46684,4.8217 -0.04716,9.8e-4 -0.0963,9.8e-4 -0.14346,9.8e-4 z"
       id="path12729"
       inkscape:connector-curvature="0" /><path
       d="m 17.02827,100 c -0.94528,0 -1.71172,-0.76644 -1.71172,-1.71172 0,-12.03117 2.50371,-23.02273 6.8685,-30.15652 2.47423,-4.08965 6.21211,-4.72246 9.50977,-5.28255 2.70809,-0.45987 5.04672,-0.85684 6.77416,-2.9567 1.37173,-1.63016 1.31278,-4.96025 1.09267,-9.14719 -0.04913,-0.94331 0.67604,-1.74906 1.61935,-1.79819 0.92956,-0.05699 1.74906,0.67408 1.80016,1.61935 0.22404,4.29601 0.45594,8.73842 -1.88269,11.51628 -2.52533,3.06969 -5.87605,3.63962 -8.8298,4.14075 -3.06773,0.52079 -5.49087,0.93153 -7.15935,3.68678 -4.05035,6.61891 -6.36933,16.95998 -6.36933,28.37799 0,0.94528 -0.76644,1.71172 -1.71172,1.71172 z"
       id="path12731"
       inkscape:connector-curvature="0" /><path
       d="m 82.97173,100 c -0.94528,0 -1.71172,-0.76644 -1.71172,-1.71172 0,-11.33744 -2.32094,-21.68047 -6.36932,-28.37995 -1.69207,-2.7533 -4.11717,-3.16403 -7.18884,-3.68482 -2.95178,-0.50113 -6.29858,-1.06908 -8.8632,-4.14861 -2.27575,-2.70121 -2.05367,-7.03357 -1.81981,-11.62043 0.04913,-0.94331 0.81164,-1.69207 1.79819,-1.62132 0.94331,0.04815 1.66848,0.85291 1.62132,1.79623 -0.20045,3.89411 -0.38912,7.57107 1.02389,9.24839 1.76085,2.11361 4.10144,2.51157 6.81347,2.97144 3.29373,0.55813 7.02768,1.1929 9.53728,5.27862 4.36872,7.22813 6.87046,18.21774 6.87046,30.16046 0,0.94527 -0.76644,1.71171 -1.71172,1.71171 z"
       id="path12733"
       inkscape:connector-curvature="0" /><path
       d="M 82.97173,100 H 17.02827 c -0.94528,0 -1.71172,-0.76644 -1.71172,-1.71172 0,-0.94527 0.76644,-1.71172 1.71172,-1.71172 h 65.94347 c 0.94527,0 1.71172,0.76644 1.71172,1.71172 C 84.68345,99.23356 83.91701,100 82.97173,100 Z"
       id="path12735"
       inkscape:connector-curvature="0" /><path
       d="m 71.56354,24.986 c -0.94527,0 -1.71172,-0.76644 -1.71172,-1.71172 0,-10.94636 -8.90448,-19.85084 -19.85084,-19.85084 -10.97781,0 -19.9098,8.90448 -19.9098,19.85084 0,0.94528 -0.76644,1.71172 -1.71172,1.71172 -0.94528,0 -1.71172,-0.76644 -1.71172,-1.71172 C 26.66775,10.44129 37.13459,0 50.00098,0 c 12.83298,0 23.27428,10.44129 23.27428,23.27428 0,0.94528 -0.76644,1.71172 -1.71172,1.71172 z"
       id="path12737"
       inkscape:connector-curvature="0" /><path
       d="m 28.37947,39.64665 h -3.19351 c -2.67468,0 -4.8502,-2.20107 -4.8502,-4.90621 v -8.27167 c 0,-2.70514 2.17552,-4.90621 4.8502,-4.90621 h 3.19351 c 0.94528,0 1.71172,0.76644 1.71172,1.71172 v 14.66065 c 0,0.94528 -0.76644,1.71172 -1.71172,1.71172 z M 25.18596,24.986 c -0.7743,0 -1.42676,0.67899 -1.42676,1.48277 v 8.27167 c 0,0.80378 0.65246,1.48277 1.42676,1.48277 h 1.48179 V 24.986 Z"
       id="path12739"
       inkscape:connector-curvature="0" /><path
       d="m 74.75705,39.64665 h -3.19351 c -0.94527,0 -1.71172,-0.76644 -1.71172,-1.71172 V 23.27428 c 0,-0.94528 0.76644,-1.71172 1.71172,-1.71172 h 3.19351 c 2.70612,0 4.90719,2.20106 4.90719,4.90621 v 8.27167 c 0,2.70515 -2.20107,4.90621 -4.90719,4.90621 z m -1.48179,-3.42344 h 1.48179 c 0.81754,0 1.48375,-0.66523 1.48375,-1.48277 v -8.27167 c 0,-0.81754 -0.66621,-1.48277 -1.48375,-1.48277 h -1.48179 z"
       id="path12741"
       inkscape:connector-curvature="0" /><path
       d="m 33.62861,31.54595 c -0.68193,0 -1.32457,-0.40975 -1.59184,-1.08186 -0.34785,-0.87944 0.08254,-1.87287 0.96296,-2.22072 10.02074,-3.96584 15.02226,-10.53268 15.2915,-20.07684 0.02555,-0.94528 0.79592,-1.67536 1.75692,-1.66259 0.94528,0.02653 1.6901,0.81361 1.66259,1.75889 -0.30658,10.90804 -6.1787,18.70118 -17.45325,23.16226 -0.20635,0.08254 -0.4186,0.12086 -0.62888,0.12086 z"
       id="path12743"
       inkscape:connector-curvature="0" /><path
       d="m 66.3144,31.54595 c -0.21028,0 -0.42449,-0.0393 -0.6328,-0.12185 C 54.38346,26.92962 48.53295,19.13353 48.28926,8.253 c -0.01965,-0.94528 0.7291,-1.72842 1.67438,-1.74906 1.00227,-0.01277 1.72744,0.7291 1.74906,1.67241 0.21224,9.50977 5.19411,16.07366 15.2345,20.068 0.87846,0.34883 1.30688,1.34422 0.95707,2.22268 -0.26727,0.67015 -0.9099,1.07892 -1.58987,1.07892 z"
       id="path12745"
       inkscape:connector-curvature="0" /><path
       d="m 50.16999,47.74637 c -0.91973,0 -1.68028,-0.73205 -1.70779,-1.65866 -0.02948,-0.94429 0.71141,-1.73432 1.65669,-1.7638 8.70599,-0.27022 15.5116,-2.82404 20.22816,-7.59269 0.66621,-0.67211 1.75102,-0.67702 2.4192,-0.01277 0.67211,0.66425 0.678,1.74807 0.01376,2.42019 -5.3533,5.41226 -12.94304,8.30803 -22.555,8.60675 -0.01768,-1e-5 -0.03537,9.8e-4 -0.05502,9.8e-4 z"
       id="path12747"
       inkscape:connector-curvature="0" /><path
       d="m 50.00098,100 c -0.94528,0 -1.71172,-0.76644 -1.71172,-1.71172 V 77.29564 c 0,-0.94527 0.76644,-1.71172 1.71172,-1.71172 0.94528,0 1.71172,0.76644 1.71172,1.71172 V 98.28828 C 51.7127,99.23356 50.94626,100 50.00098,100 Z"
       id="path12749"
       inkscape:connector-curvature="0" /><path
       d="m 50.00098,79.00736 c -0.16115,0 -0.32623,-0.02358 -0.48738,-0.07075 l -15.00457,-4.4493 c -0.90205,-0.26727 -1.4189,-1.21648 -1.15556,-2.12049 l 2.9675,-10.15437 c 0.17884,-0.60923 0.67801,-1.06909 1.29902,-1.19683 0.61512,-0.1297 1.26168,0.09728 1.66455,0.5876 L 51.32162,76.2069 c 0.47755,0.58171 0.52079,1.40514 0.10612,2.03402 -0.32229,0.48737 -0.86273,0.76644 -1.42676,0.76644 z m -12.88408,-7.31657 8.00244,2.37204 -6.42042,-7.78822 z"
       id="path12751"
       inkscape:connector-curvature="0" /><path
       d="m 50.00098,79.00736 c -0.56403,0 -1.10447,-0.27907 -1.42676,-0.76644 -0.41467,-0.62691 -0.37339,-1.45231 0.10612,-2.03402 l 12.0351,-14.60366 c 0.40091,-0.49033 1.04158,-0.71829 1.66455,-0.5876 0.62101,0.12774 1.12019,0.5876 1.29902,1.19683 l 2.9675,10.15437 c 0.26334,0.90401 -0.25352,1.85322 -1.15556,2.12049 l -15.00261,4.4493 c -0.16113,0.04715 -0.32621,0.07073 -0.48736,0.07073 z m 11.3001,-12.73276 -6.41846,7.78822 8.00047,-2.37204 z"
       id="path12753"
       inkscape:connector-curvature="0" /><path
       d="M 72.36143,94.4659 H 57.75777 c -0.94528,0 -1.71172,-0.76644 -1.71172,-1.71172 v -9.92641 c 0,-0.94527 0.76644,-1.71172 1.71172,-1.71172 h 14.60366 c 0.94527,0 1.71172,0.76644 1.71172,1.71172 v 9.92641 c -1e-5,0.94528 -0.76645,1.71172 -1.71172,1.71172 z M 59.46949,91.04246 H 70.6497 V 84.5395 H 59.46949 Z"
       id="path12755"
       inkscape:connector-curvature="0" /><path
       d="m 67.05726,89.50368 h -3.93637 c -0.94528,0 -1.71172,-0.76644 -1.71172,-1.71172 0,-0.94528 0.76644,-1.71172 1.71172,-1.71172 h 3.93637 c 0.94527,0 1.71172,0.76644 1.71172,1.71172 -1e-5,0.94528 -0.76645,1.71172 -1.71172,1.71172 z"
       id="path12757"
       inkscape:connector-curvature="0" /><path
       d="m 65.06058,84.5395 c -0.94527,0 -1.71172,-0.76644 -1.71172,-1.71172 v -2.16765 c 0,-0.94528 0.76645,-1.71172 1.71172,-1.71172 0.94528,0 1.71172,0.76644 1.71172,1.71172 v 2.16765 c 0,0.94528 -0.76644,1.71172 -1.71172,1.71172 z"
       id="path12759"
       inkscape:connector-curvature="0" /></g></svg>