<?xml version="1.0" encoding="UTF-8" standalone="no"?>
<svg
   xmlns:dc="http://purl.org/dc/elements/1.1/"
   xmlns:cc="http://creativecommons.org/ns#"
   xmlns:rdf="http://www.w3.org/1999/02/22-rdf-syntax-ns#"
   xmlns:svg="http://www.w3.org/2000/svg"
   xmlns="http://www.w3.org/2000/svg"
   xmlns:sodipodi="http://sodipodi.sourceforge.net/DTD/sodipodi-0.dtd"
   xmlns:inkscape="http://www.inkscape.org/namespaces/inkscape"
   viewBox="0 0 120 92"
   version="1.1"
   x="0px"
   y="0px"
   id="svg1614"
   sodipodi:docname="noun_roadmap_2199768.svg"
   width="120"
   height="92"
   inkscape:version="0.92.3 (2405546, 2018-03-11)">
  <metadata
     id="metadata1620">
    <rdf:RDF>
      <cc:Work
         rdf:about="">
        <dc:format>image/svg+xml</dc:format>
        <dc:type
           rdf:resource="http://purl.org/dc/dcmitype/StillImage" />
        <dc:title>roadmap-ic</dc:title>
      </cc:Work>
    </rdf:RDF>
  </metadata>
  <defs
     id="defs1618" />
  <sodipodi:namedview
     pagecolor="#ffffff"
     bordercolor="#666666"
     borderopacity="1"
     objecttolerance="10"
     gridtolerance="10"
     guidetolerance="10"
     inkscape:pageopacity="0"
     inkscape:pageshadow="2"
     inkscape:window-width="3706"
     inkscape:window-height="2049"
     id="namedview1616"
     showgrid="false"
     fit-margin-top="0"
     fit-margin-left="0"
     fit-margin-right="0"
     fit-margin-bottom="0"
     inkscape:zoom="2.0521739"
     inkscape:cx="-62.207627"
     inkscape:cy="31.5"
     inkscape:window-x="134"
     inkscape:window-y="55"
     inkscape:window-maximized="1"
     inkscape:current-layer="svg1614" />
  <title
     id="title1558">roadmap-ic</title>
  <desc
     id="desc1560">Created with Sketch.</desc>
  <path
     d="m 28,22 c 2.209139,0 4,-1.790861 4,-4 0,-2.209139 -1.790861,-4 -4,-4 -2.209139,0 -4,1.790861 -4,4 0,2.209139 1.790861,4 4,4 z m 0,4 c -4.418278,0 -8,-3.581722 -8,-8 0,-4.418278 3.581722,-8.0000002 8,-8.0000002 4.418278,0 8,3.5817222 8,8.0000002 0,4.418278 -3.581722,8 -8,8 z"
     id="path1564"
     inkscape:connector-curvature="0"
     style="fill:#000000;fill-rule:nonzero;stroke:none;stroke-width:1" />
  <path
     d="m 37.899495,27.899495 c 5.46734,-5.46734 5.46734,-14.33165 0,-19.7989902 -5.46734,-5.46734 -14.33165,-5.46734 -19.79899,0 -5.46734,5.4673402 -5.46734,14.3316502 0,19.7989902 L 28,37.79899 Z m 2.828427,2.828427 -11.313708,11.313708 c -0.781049,0.781049 -2.047379,0.781049 -2.828428,0 L 15.272078,30.727922 c -7.029437,-7.029437 -7.029437,-18.426407 0,-25.4558442 7.029437,-7.029437 18.426407,-7.029437 25.455844,0 7.029437,7.0294372 7.029437,18.4264072 0,25.4558442 z"
     id="path1566"
     inkscape:connector-curvature="0"
     style="fill:#000000;fill-rule:nonzero;stroke:none;stroke-width:1" />
  <path
     d="m 30,88 h 10 c 1.10457,0 2,0.89543 2,2 0,1.10457 -0.89543,2 -2,2 H 28 c -1.10457,0 -2,-0.89543 -2,-2 V 70 c 0,-1.10457 0.89543,-2 2,-2 1.104569,0 2,0.89543 2,2 z"
     id="path1568"
     inkscape:connector-curvature="0"
     style="fill:#000000;fill-rule:evenodd;stroke:none;stroke-width:1" />
  <path
     d="m 58,92 c -1.10457,0 -2,-0.89543 -2,-2 0,-1.10457 0.89543,-2 2,-2 h 8 c 1.10457,0 2,0.89543 2,2 0,1.10457 -0.89543,2 -2,2 z"
     id="path1570"
     inkscape:connector-curvature="0"
     style="fill:#000000;fill-rule:evenodd;stroke:none;stroke-width:1" />
  <path
     d="m 50,84 c -1.10457,0 -2,-0.89543 -2,-2 0,-1.10457 0.89543,-2 2,-2 h 16 c 1.10457,0 2,0.89543 2,2 0,1.10457 -0.89543,2 -2,2 z"
     id="path1572"
     inkscape:connector-curvature="0"
     style="fill:#000000;fill-rule:evenodd;stroke:none;stroke-width:1" />
  <path
     d="m 58,76 c -1.10457,0 -2,-0.89543 -2,-2 0,-1.10457 0.89543,-2 2,-2 h 8 c 1.10457,0 2,0.89543 2,2 0,1.10457 -0.89543,2 -2,2 z"
     id="path1574"
     inkscape:connector-curvature="0"
     style="fill:#000000;fill-rule:evenodd;stroke:none;stroke-width:1" />
  <path
     d="m 98,28 c -1.10457,0 -2,-0.89543 -2,-2 0,-1.10457 0.89543,-2 2,-2 h 8 c 1.10457,0 2,0.89543 2,2 0,1.10457 -0.89543,2 -2,2 z"
     id="path1576"
     inkscape:connector-curvature="0"
     style="fill:#000000;fill-rule:evenodd;stroke:none;stroke-width:1" />
  <path
     d="m 90,20 c -1.10457,0 -2,-0.895431 -2,-2 0,-1.104569 0.89543,-2 2,-2 h 16 c 1.10457,0 2,0.895431 2,2 0,1.104569 -0.89543,2 -2,2 z"
     id="path1578"
     inkscape:connector-curvature="0"
     style="fill:#000000;fill-rule:evenodd;stroke:none;stroke-width:1" />
  <path
     d="m 98,12 c -1.10457,0 -2,-0.895431 -2,-2.0000002 0,-1.10457 0.89543,-2 2,-2 h 8 c 1.10457,0 2,0.89543 2,2 C 108,11.104569 107.10457,12 106,12 Z"
     id="path1580"
     inkscape:connector-curvature="0"
     style="fill:#000000;fill-rule:evenodd;stroke:none;stroke-width:1" />
  <path
     d="m 70,12 v 26 c 0,1.10457 -0.89543,2 -2,2 -1.10457,0 -2,-0.89543 -2,-2 V 9.9999998 c 0,-1.10457 0.89543,-2 2,-2 h 12 c 1.10457,0 2,0.89543 2,2 C 82,11.104569 81.10457,12 80,12 Z"
     id="path1582"
     inkscape:connector-curvature="0"
     style="fill:#000000;fill-rule:evenodd;stroke:none;stroke-width:1" />
  <path
     d="m 8,60 c 2.209139,0 4,-1.790861 4,-4 0,-2.209139 -1.790861,-4 -4,-4 -2.209139,0 -4,1.790861 -4,4 0,2.209139 1.790861,4 4,4 z m 0,4 c -4.418278,0 -8,-3.581722 -8,-8 0,-4.418278 3.581722,-8 8,-8 4.418278,0 8,3.581722 8,8 0,4.418278 -3.581722,8 -8,8 z"
     id="path1584"
     inkscape:connector-curvature="0"
     style="fill:#000000;fill-rule:nonzero;stroke:none;stroke-width:1" />
  <path
     d="m 48,60 c 2.209139,0 4,-1.790861 4,-4 0,-2.209139 -1.790861,-4 -4,-4 -2.209139,0 -4,1.790861 -4,4 0,2.209139 1.790861,4 4,4 z m 0,4 c -4.418278,0 -8,-3.581722 -8,-8 0,-4.418278 3.581722,-8 8,-8 4.418278,0 8,3.581722 8,8 0,4.418278 -3.581722,8 -8,8 z"
     id="path1586"
     inkscape:connector-curvature="0"
     style="fill:#000000;fill-rule:nonzero;stroke:none;stroke-width:1" />
  <path
     d="m 68,60 c 2.209139,0 4,-1.790861 4,-4 0,-2.209139 -1.790861,-4 -4,-4 -2.209139,0 -4,1.790861 -4,4 0,2.209139 1.790861,4 4,4 z m 0,4 c -4.418278,0 -8,-3.581722 -8,-8 0,-4.418278 3.581722,-8 8,-8 4.418278,0 8,3.581722 8,8 0,4.418278 -3.581722,8 -8,8 z"
     id="path1588"
     inkscape:connector-curvature="0"
     style="fill:#000000;fill-rule:nonzero;stroke:none;stroke-width:1" />
  <path
     d="m 84,40 v 32 h 32 V 40 Z m 0,-4 h 32 c 2.20914,0 4,1.790861 4,4 v 32 c 0,2.209139 -1.79086,4 -4,4 H 84 c -2.209139,0 -4,-1.790861 -4,-4 V 40 c 0,-2.209139 1.790861,-4 4,-4 z"
     id="path1590"
     inkscape:connector-curvature="0"
     style="fill:#000000;fill-rule:nonzero;stroke:none;stroke-width:1" />
  <path
     d="m 96,40 v 8 h 8 v -8 z m 0,-4 h 8 c 2.20914,0 4,1.790861 4,4 v 8 c 0,2.209139 -1.79086,4 -4,4 h -8 c -2.209139,0 -4,-1.790861 -4,-4 v -8 c 0,-2.209139 1.790861,-4 4,-4 z"
     id="path1592"
     inkscape:connector-curvature="0"
     style="fill:#000000;fill-rule:nonzero;stroke:none;stroke-width:1" />
  <path
     d="m 106,68 c -1.10457,0 -2,-0.89543 -2,-2 0,-1.10457 0.89543,-2 2,-2 h 4 c 1.10457,0 2,0.89543 2,2 0,1.10457 -0.89543,2 -2,2 z"
     id="path1594"
     inkscape:connector-curvature="0"
     style="fill:#000000;fill-rule:evenodd;stroke:none;stroke-width:1" />
  <circle
     cx="50"
     cy="90"
     r="2"
     id="circle1596"
     style="fill:#000000;fill-rule:evenodd;stroke:none;stroke-width:1" />
  <circle
     cx="50"
     cy="74"
     r="2"
     id="circle1598"
     style="fill:#000000;fill-rule:evenodd;stroke:none;stroke-width:1" />
  <circle
     cx="90"
     cy="26"
     r="2"
     id="circle1600"
     style="fill:#000000;fill-rule:evenodd;stroke:none;stroke-width:1" />
  <circle
     cx="90"
     cy="10"
     r="2"
     id="circle1602"
     style="fill:#000000;fill-rule:evenodd;stroke:none;stroke-width:1" />
  <circle
     cx="28"
     cy="56"
     r="2"
     id="circle1604"
     style="fill:#000000;fill-rule:evenodd;stroke:none;stroke-width:1" />
</svg>
