<?xml version="1.0" encoding="UTF-8" standalone="no"?>
<svg
   xmlns:dc="http://purl.org/dc/elements/1.1/"
   xmlns:cc="http://creativecommons.org/ns#"
   xmlns:rdf="http://www.w3.org/1999/02/22-rdf-syntax-ns#"
   xmlns:svg="http://www.w3.org/2000/svg"
   xmlns="http://www.w3.org/2000/svg"
   xmlns:sodipodi="http://sodipodi.sourceforge.net/DTD/sodipodi-0.dtd"
   xmlns:inkscape="http://www.inkscape.org/namespaces/inkscape"
   version="1.1"
   x="0px"
   y="0px"
   viewBox="0 0 48 62"
   xml:space="preserve"
   id="svg11494"
   sodipodi:docname="noun_Cowboy_1943527.svg"
   width="48"
   height="62"
   inkscape:version="0.92.3 (2405546, 2018-03-11)"><metadata
     id="metadata11500"><rdf:RDF><cc:Work
         rdf:about=""><dc:format>image/svg+xml</dc:format><dc:type
           rdf:resource="http://purl.org/dc/dcmitype/StillImage" /><dc:title></dc:title></cc:Work></rdf:RDF></metadata><defs
     id="defs11498" /><sodipodi:namedview
     pagecolor="#ffffff"
     bordercolor="#666666"
     borderopacity="1"
     objecttolerance="10"
     gridtolerance="10"
     guidetolerance="10"
     inkscape:pageopacity="0"
     inkscape:pageshadow="2"
     inkscape:window-width="1853"
     inkscape:window-height="2049"
     id="namedview11496"
     showgrid="false"
     fit-margin-top="0"
     fit-margin-left="0"
     fit-margin-right="0"
     fit-margin-bottom="0"
     inkscape:zoom="2.95"
     inkscape:cx="-63.79661"
     inkscape:cy="23"
     inkscape:window-x="134"
     inkscape:window-y="55"
     inkscape:window-maximized="0"
     inkscape:current-layer="svg11494" /><g
     id="g11488"
     transform="translate(-8,-1)"><path
       d="m 47,28 v -7.021 c 3.749,-1.6 6.871,-4.484 8.737,-8.215 C 55.909,12.418 56,12.032 56,11.646 V 11.5 C 56,10.122 54.878,9 53.5,9 52.963,9 52.431,9.177 52,9.5 l -0.4,0.3 c -1.587,1.19 -3.494,1.924 -5.462,2.132 L 44.893,6.058 C 44.265,3.127 41.633,1 38.635,1 37.367,1 36.14,1.372 35.085,2.075 34.177,2.68 33.12,3 31.971,3 30.88,3 29.824,2.68 28.915,2.075 27.86,1.372 26.633,1 25.365,1 22.367,1 19.735,3.127 19.107,6.059 l -1.258,5.872 C 15.885,11.721 13.983,10.988 12.4,9.8 L 11.999,9.499 C 11.569,9.177 11.037,9 10.5,9 9.122,9 8,10.122 8,11.5 v 0.146 c 0,0.386 0.091,0.772 0.264,1.118 1.866,3.731 4.987,6.615 8.736,8.214 V 28 c 0,2.555 1.934,4.645 4.411,4.94 0.469,1.685 1.328,3.205 2.477,4.463 -0.12,0.046 -0.24,0.09 -0.355,0.144 C 22.517,34.846 19.933,33 17,33 h -5 v 1 c 0,2.548 1.373,4.775 3.413,6 -1.883,1.13 -3.193,3.116 -3.384,5.419 C 9.613,46.557 8,49.024 8,51.752 V 63 H 56 V 51.752 c 0,-3.264 -2.219,-6.066 -5.397,-6.814 L 44,43.384 v -0.238 c 0,-0.905 -0.214,-1.811 -0.618,-2.617 L 43.236,40.236 C 42.569,38.902 41.446,37.917 40.112,37.403 41.26,36.146 42.12,34.626 42.589,32.941 45.066,32.645 47,30.555 47,28 Z m -4.042,2.829 C 42.979,30.554 43,30.28 43,30 v -4.816 c 1.161,0.414 2,1.514 2,2.816 0,1.317 -0.859,2.427 -2.042,2.829 z M 45,24.026 c -0.584,-0.442 -1.257,-0.773 -2,-0.924 v -0.96 c 0.679,-0.112 1.347,-0.262 2,-0.45 z M 44.92,15.733 C 43.884,16.219 39.945,17 32,17 24.055,17 20.116,16.219 19.08,15.733 l 0.382,-1.781 C 21.957,14.607 26.548,15 32,15 37.455,15 42.043,14.606 44.538,13.951 Z M 21.063,6.478 C 21.495,4.462 23.304,3 25.365,3 26.237,3 27.08,3.255 27.805,3.739 29.043,4.564 30.483,5 32.029,5 33.516,5 34.956,4.564 36.194,3.739 36.919,3.255 37.763,3 38.635,3 c 2.061,0 3.87,1.462 4.302,3.478 l 1.183,5.52 C 42.167,12.529 37.976,13 32,13 26.027,13 21.833,12.529 19.881,11.997 Z m -11.01,5.393 C 10.019,11.801 10,11.723 10,11.646 V 11.5 c 0,-0.385 0.493,-0.63 0.799,-0.4 l 0.4,0.3 c 1.815,1.361 3.983,2.215 6.229,2.493 L 17.021,15.791 17,16 c 0,1.991 5.047,3 15,3 9.953,0 15,-1.009 15,-3 l -0.446,-2.105 c 2.252,-0.275 4.427,-1.13 6.247,-2.495 l 0.398,-0.299 C 53.509,10.869 54,11.115 54,11.5 v 0.146 c 0,0.077 -0.019,0.155 -0.053,0.224 -2.259,4.518 -6.593,7.641 -11.593,8.355 l -0.546,0.078 c -6.476,0.925 -13.141,0.925 -19.616,0 l -0.546,-0.078 c -5,-0.714 -9.334,-3.838 -11.593,-8.354 z M 21,22.141 v 0.96 c -0.743,0.152 -1.416,0.482 -2,0.924 v -2.334 c 0.653,0.189 1.321,0.339 2,0.45 z M 19,28 c 0,-1.302 0.839,-2.402 2,-2.816 V 30 c 0,0.28 0.021,0.554 0.042,0.829 C 19.859,30.427 19,29.317 19,28 Z m 22.017,26 h 4.024 C 45.02,54.333 45,54.666 45,55 v 1 h -5.617 c 0.599,-0.631 1.147,-1.297 1.634,-2 z m -3.921,4 H 45 v 3 H 32.277 l 3.571,-2.143 c 0.433,-0.26 0.84,-0.559 1.248,-0.857 z M 19,58 h 7.904 c 0.408,0.298 0.815,0.597 1.249,0.857 L 31.723,61 H 19 Z m 0,-2 v -1 c 0,-0.334 -0.02,-0.667 -0.041,-1 h 4.024 c 0.488,0.703 1.035,1.369 1.634,2 z M 18.701,52 C 18.363,50.244 17.733,48.551 16.839,47 H 17 c 1.087,0 2.146,-0.252 3.103,-0.725 0.215,2.013 0.794,3.944 1.693,5.725 z m -4.6,-17 H 17 c 2.256,0 4.242,1.52 4.829,3.695 l 0.089,-0.024 C 21.809,38.778 21.701,38.885 21.6,39 H 19 c -2.415,0 -4.435,-1.721 -4.899,-4 z M 19,41 h 1.416 C 20.147,41.682 20,42.413 20,43.146 v 0.828 C 19.136,44.627 18.093,45 17,45 H 14.101 C 14.565,42.721 16.585,41 19,41 Z M 10,51.752 C 10,49.587 11.425,47.658 13.476,47 h 0.999 C 16.1,49.335 17,52.153 17,55 v 6 h -7 z m 44,0 V 61 h -7 v -6 c 0,-2.938 0.954,-5.847 2.679,-8.224 l 0.466,0.11 C 52.415,47.419 54,49.42 54,51.752 Z m -10.047,-6.324 3.639,0.856 C 46.466,48.021 45.69,49.97 45.299,52 h -3.095 c 1.023,-2.03 1.617,-4.255 1.749,-6.572 z m -2.506,-4.299 0.146,0.294 C 41.859,41.955 42,42.55 42,43.146 v 1.313 c 0,3.951 -1.539,7.666 -4.333,10.459 -0.854,0.854 -1.813,1.603 -2.849,2.224 L 32,58.834 29.182,57.143 C 28.146,56.521 27.187,55.773 26.333,54.919 23.539,52.125 22,48.41 22,44.459 v -1.313 c 0,-0.596 0.141,-1.191 0.408,-1.725 l 0.145,-0.291 c 0.512,-1.023 1.428,-1.739 2.502,-2.008 0.26,3.067 1.572,5.918 3.774,8.12 L 32,50.414 35.171,47.243 c 2.202,-2.202 3.514,-5.053 3.774,-8.12 1.074,0.269 1.991,0.984 2.502,2.006 z M 27.167,39.866 C 28.628,40.585 30.265,41 32,41 c 1.735,0 3.372,-0.415 4.833,-1.134 -0.38,2.246 -1.432,4.319 -3.076,5.962 L 32,47.586 30.243,45.829 C 28.599,44.185 27.547,42.113 27.167,39.866 Z M 32,39 c -4.962,0 -9,-4.038 -9,-9 v -7.581 c 2.981,0.379 6.001,0.581 9,0.581 2.999,0 6.019,-0.202 9,-0.581 V 30 c 0,4.962 -4.038,9 -9,9 z"
       id="path11480"
       inkscape:connector-curvature="0" /><path
       d="m 32,34 c -1.103,0 -2,-0.897 -2,-2 h -2 c 0,2.206 1.794,4 4,4 2.206,0 4,-1.794 4,-4 h -2 c 0,1.103 -0.897,2 -2,2 z"
       id="path11482"
       inkscape:connector-curvature="0" /><circle
       cx="37"
       cy="26"
       r="1"
       id="circle11484" /><circle
       cx="27"
       cy="26"
       r="1"
       id="circle11486" /></g></svg>