<?xml version="1.0" encoding="UTF-8" standalone="no"?>
<svg
   xmlns:dc="http://purl.org/dc/elements/1.1/"
   xmlns:cc="http://creativecommons.org/ns#"
   xmlns:rdf="http://www.w3.org/1999/02/22-rdf-syntax-ns#"
   xmlns:svg="http://www.w3.org/2000/svg"
   xmlns="http://www.w3.org/2000/svg"
   xmlns:sodipodi="http://sodipodi.sourceforge.net/DTD/sodipodi-0.dtd"
   xmlns:inkscape="http://www.inkscape.org/namespaces/inkscape"
   version="1.1"
   x="0px"
   y="0px"
   viewBox="0 0 80 79.996826"
   xml:space="preserve"
   id="svg10878"
   sodipodi:docname="noun_government conference_2039165.svg"
   width="80"
   height="79.996826"
   inkscape:version="0.92.3 (2405546, 2018-03-11)"><metadata
     id="metadata10884"><rdf:RDF><cc:Work
         rdf:about=""><dc:format>image/svg+xml</dc:format><dc:type
           rdf:resource="http://purl.org/dc/dcmitype/StillImage" /><dc:title></dc:title></cc:Work></rdf:RDF></metadata><defs
     id="defs10882" /><sodipodi:namedview
     pagecolor="#ffffff"
     bordercolor="#666666"
     borderopacity="1"
     objecttolerance="10"
     gridtolerance="10"
     guidetolerance="10"
     inkscape:pageopacity="0"
     inkscape:pageshadow="2"
     inkscape:window-width="1853"
     inkscape:window-height="2049"
     id="namedview10880"
     showgrid="false"
     fit-margin-top="0"
     fit-margin-left="0"
     fit-margin-right="0"
     fit-margin-bottom="0"
     inkscape:zoom="1.888"
     inkscape:cx="-97.182203"
     inkscape:cy="27.500977"
     inkscape:window-x="134"
     inkscape:window-y="55"
     inkscape:window-maximized="0"
     inkscape:current-layer="svg10878" /><path
     d="m 25.017578,77.996827 c -0.552246,0 -1,0.447265 -1,1 0,0.552734 0.447754,1 1,1 h 29.964844 c 0.552246,0 1,-0.447266 1,-1 0,-0.552735 -0.447754,-1 -1,-1 h -0.80127 v -8.166016 h 0.80127 c 0.552246,0 1,-0.447266 1,-1 0,-0.552734 -0.447754,-1 -1,-1 h -2.005371 v -8.319336 h 0.204101 c 0.552247,0 1,-0.447266 1,-1 v -1.75293 C 54.181152,49.35431 48.322449,43.309876 41,42.97522 v -2.45105 c 0,-0.552734 -0.447754,-1 -1,-1 -0.552246,0 -1,0.447266 -1,1 v 2.45105 c -7.322449,0.334656 -13.181152,6.37909 -13.181152,13.783325 v 1.75293 c 0,0.552734 0.447754,1 1,1 h 0.204101 v 8.319336 h -2.005371 c -0.552246,0 -1,0.447265 -1,1 0,0.552734 0.447754,1 1,1 h 1.097657 v 8.166015 z m 11.523926,-8.166016 v 8.166015 h -3.213379 v -8.166015 z m 10.426758,0 v 8.166015 h -3.213379 v -8.166015 z m -5.213379,8.166016 h -3.213379 v -8.166016 h 3.213379 z m 10.426269,0 h -3.21289 v -8.166016 h 3.21289 z M 27.818848,56.758545 c 0,-6.514648 5.300293,-11.815429 11.814941,-11.815429 h 0.732422 c 6.514648,0 11.814941,5.300781 11.814941,11.815429 v 0.75293 H 27.818848 Z m 1.204101,2.75293 h 21.954102 v 8.319336 H 29.022949 Z m -0.907715,10.319336 h 3.212891 v 8.166015 h -3.212891 z"
     id="path10862"
     inkscape:connector-curvature="0" /><path
     d="m 33.052734,61.035889 c -0.552246,0 -1,0.447266 -1,1 v 3.21875 c 0,0.552735 0.447754,1 1,1 0.552246,0 1,-0.447265 1,-1 v -3.21875 c 0,-0.552734 -0.447753,-1 -1,-1 z"
     id="path10864"
     inkscape:connector-curvature="0" /><path
     d="m 37.684082,61.035889 c -0.552246,0 -1,0.447266 -1,1 v 3.21875 c 0,0.552735 0.447754,1 1,1 0.552246,0 1,-0.447265 1,-1 v -3.21875 c 0,-0.552734 -0.447754,-1 -1,-1 z"
     id="path10866"
     inkscape:connector-curvature="0" /><path
     d="m 42.315918,61.035889 c -0.552246,0 -1,0.447266 -1,1 v 3.21875 c 0,0.552735 0.447754,1 1,1 0.552246,0 1,-0.447265 1,-1 v -3.21875 c 0,-0.552734 -0.447754,-1 -1,-1 z"
     id="path10868"
     inkscape:connector-curvature="0" /><path
     d="m 46.947266,61.035889 c -0.552246,0 -1,0.447266 -1,1 v 3.21875 c 0,0.552735 0.447754,1 1,1 0.552246,0 1,-0.447265 1,-1 v -3.21875 c 0,-0.552734 -0.447754,-1 -1,-1 z"
     id="path10870"
     inkscape:connector-curvature="0" /><path
     d="m 79,27.24585 h -9.459045 c -0.132386,-3.40918 -1.591919,-6.677734 -4.078553,-9.030273 l -0.463073,-0.438111 1.496277,-1.491577 c 0.379882,-0.378906 0.393066,-0.990234 0.03027,-1.384766 L 56.018555,3.4743657 c -5.5e-4,-6.11e-4 -0.0014,-7.94e-4 -0.002,-0.0014 -0.27649,-0.694214 -0.687439,-1.335083 -1.220703,-1.86676 -2.149415,-2.1416021 -5.646485,-2.1416021 -7.796875,0 -1.042481,1.039062 -1.616211,2.420898 -1.615723,3.891601 0,1.46875 0.57373,2.850586 1.615723,3.888672 0.533325,0.532104 1.176025,0.9418343 1.87268,1.2171633 7.94e-4,7.32e-4 10e-4,0.0018 0.0018,0.0026 l 11.462891,10.473632 c 0.191406,0.174805 0.432617,0.261719 0.674316,0.261719 0.25586,0 0.511231,-0.09766 0.706055,-0.291992 l 1.86554,-1.859619 0.506042,0.47876 c 2.088684,1.975647 3.321594,4.714966 3.452637,7.577148 H 41 v -2.813171 c 2.606811,-0.339173 4.633789,-2.5495 4.633789,-5.247376 v -5.242187 c 0,-2.931641 -2.384766,-5.3164073 -5.316406,-5.3164073 h -0.270996 c -2.931153,0 -5.315918,2.3847663 -5.315918,5.3164073 v 5.242187 c 0,2.573303 1.838073,4.722962 4.269531,5.210571 V 27.24585 H 12.684082 v -0.677734 c 0,-2.976563 1.161133,-5.773438 3.269043,-7.874024 l 1.049927,-1.046631 0.177124,0.176514 c 0.83789,0.834961 1.937988,1.25293 3.038086,1.25293 1.100097,0 2.200683,-0.417969 3.038086,-1.25293 l 8.787109,-8.7587893 c 0.8125,-0.80957 1.260254,-1.886719 1.260254,-3.033203 0,-1.145508 -0.447754,-2.222656 -1.260254,-3.032227 L 30.41748,1.3786617 c -1.674804,-1.6699215 -4.400879,-1.6699215 -6.075683,0 l -8.787598,8.7597663 c -0.812012,0.80957 -1.259277,1.885742 -1.259766,3.03125 0,1.146484 0.447266,2.223633 1.259766,3.03418 l 0.03223,0.0321 -1.045411,1.042115 c -2.487304,2.478515 -3.856933,5.77832 -3.856933,9.290039 V 27.24585 H 1 c -0.552246,0 -1,0.447266 -1,1 v 8.539062 c 0,0.552735 0.447754,1 1,1 h 3.166992 v 41.211915 c 0,0.552734 0.447754,1 1,1 0.552246,0 1,-0.447266 1,-1 V 37.784912 H 74 v 41.211915 c 0,0.552734 0.447754,1 1,1 0.552246,0 1,-0.447266 1,-1 V 37.784912 h 3 c 0.552246,0 1,-0.447265 1,-1 V 28.24585 c 0,-0.552734 -0.447754,-1 -1,-1 z M 47.383301,5.4968267 c -4.89e-4,-0.934571 0.364746,-1.813477 1.027832,-2.47461 1.371094,-1.365234 3.601562,-1.365234 4.972656,0 0.27771,0.276734 0.484497,0.608032 0.654785,0.956848 l -4.661133,4.646851 C 49.024902,8.4558107 48.69043,8.2487187 48.411133,7.9704587 47.748047,7.3093267 47.383301,6.4313967 47.383301,5.4968267 Z M 60.980469,18.959717 50.996094,9.8366697 55.250977,5.5944827 64.40332,15.547608 Z m -24.25,0.225586 v -5.242187 c 0,-1.829102 1.487304,-3.316407 3.315918,-3.316407 h 0.270996 c 1.828613,0 3.316406,1.487305 3.316406,3.316407 v 5.242187 c 0,1.829102 -1.487793,3.316406 -3.316406,3.316406 h -0.270996 c -1.828614,0 -3.315918,-1.487304 -3.315918,-3.316406 z m -19.76416,-7.630859 8.787597,-8.7597663 c 0.448242,-0.446289 1.03711,-0.669922 1.625977,-0.669922 0.588867,0 1.177734,0.223633 1.625976,0.669922 l 1.625489,1.621094 c 0.433594,0.432617 0.672363,1.006836 0.672363,1.616211 0,0.610352 -0.238769,1.18457 -0.672363,1.617187 l -8.78711,8.7587893 c -0.896484,0.892579 -2.355468,0.892579 -3.251953,0 l -1.625976,-1.620117 c -0.433106,-0.432617 -0.671875,-1.006836 -0.671875,-1.617187 0,-0.610352 0.238769,-1.184571 0.671875,-1.616211 z M 78,35.784912 H 2 V 29.24585 h 76 z"
     id="path10872"
     inkscape:connector-curvature="0" /></svg>