<?xml version="1.0" encoding="UTF-8" standalone="no"?>
<svg
   sodipodi:docname="object-back.svg"
   inkscape:version="1.2 (1:1.2+202206011326+fc4e4096c5)"
   id="svg8"
   version="1.1"
   viewBox="0 0 69 94"
   height="94mm"
   width="69mm"
   xmlns:inkscape="http://www.inkscape.org/namespaces/inkscape"
   xmlns:sodipodi="http://sodipodi.sourceforge.net/DTD/sodipodi-0.dtd"
   xmlns="http://www.w3.org/2000/svg"
   xmlns:svg="http://www.w3.org/2000/svg"
   xmlns:rdf="http://www.w3.org/1999/02/22-rdf-syntax-ns#"
   xmlns:cc="http://creativecommons.org/ns#"
   xmlns:dc="http://purl.org/dc/elements/1.1/">
  <defs
     id="defs2" />
  <sodipodi:namedview
     inkscape:window-maximized="1"
     inkscape:window-y="0"
     inkscape:window-x="0"
     inkscape:window-height="1088"
     inkscape:window-width="2048"
     showgrid="false"
     inkscape:document-rotation="0"
     inkscape:current-layer="layer1"
     inkscape:document-units="mm"
     inkscape:cy="331.83511"
     inkscape:cx="422.74884"
     inkscape:zoom="0.98994949"
     inkscape:pageshadow="2"
     inkscape:pageopacity="0.0"
     borderopacity="1.0"
     bordercolor="#666666"
     pagecolor="#ffffff"
     id="base"
     inkscape:showpageshadow="2"
     inkscape:pagecheckerboard="0"
     inkscape:deskcolor="#d1d1d1" />
  <metadata
     id="metadata5">
    <rdf:RDF>
      <cc:Work
         rdf:about="">
        <dc:format>image/svg+xml</dc:format>
        <dc:type
           rdf:resource="http://purl.org/dc/dcmitype/StillImage" />
      </cc:Work>
    </rdf:RDF>
  </metadata>
  <g
     id="layer1"
     inkscape:groupmode="layer"
     inkscape:label="Layer 1">
    <rect
       style="stroke-width:0.191891"
       id="rect4852"
       fill="#5b57ca"
       height="94"
       width="69.099998"
       x="0"
       y="0" />
    <g
       transform="matrix(0.90351537,0,0,0.90351537,2.2558327,17.753153)"
       id="g5071">
      <circle
         cx="14.724881"
         cy="24.431786"
         r="3.9485714"
         fill="#ff9999"
         id="circle4854"
         style="stroke-width:0.164524" />
      <circle
         style="fill:none;stroke-width:0.164524"
         cx="14.724881"
         cy="24.431786"
         r="2.3033333"
         stroke="#fff500"
         id="circle4856" />
      <path
         style="fill:none;stroke-width:0.164524"
         d="m 8.3907143,24.431786 c 0,-3.49827 2.8358967,-6.334167 6.3341667,-6.334167"
         stroke="#fff500"
         stroke-linecap="round"
         id="path4858" />
      <circle
         cx="27.886786"
         cy="10.611786"
         r="2.7969048"
         fill="#000000"
         id="circle4860"
         style="stroke-width:0.164524" />
      <circle
         cx="37.017857"
         cy="26.159286"
         r="2.4678571"
         fill="#000000"
         id="circle4862"
         style="stroke-width:0.164524" />
      <circle
         cx="50.179764"
         cy="28.95619"
         r="2.632381"
         fill="#fff500"
         id="circle4864"
         style="stroke-width:0.164524" />
      <circle
         cx="40.308334"
         cy="4.7711906"
         r="0.82261902"
         fill="#fff500"
         id="circle4866"
         style="stroke-width:0.164524" />
      <circle
         style="fill:none;stroke-width:0.164524"
         cx="42.282619"
         cy="4.7711906"
         r="0.74035716"
         stroke="#fff500"
         id="circle4868" />
      <circle
         style="fill:none;stroke-width:0.164524"
         cx="44.256905"
         cy="4.7711906"
         r="0.74035716"
         stroke="#fff500"
         id="circle4870" />
      <circle
         style="fill:none;stroke-width:0.164524"
         cx="46.23119"
         cy="4.7711906"
         r="0.74035716"
         stroke="#fff500"
         id="circle4872" />
      <circle
         cx="27.557737"
         cy="20.647738"
         r="0.41130951"
         fill="#fff500"
         id="circle4874"
         style="stroke-width:0.164524" />
      <circle
         cx="28.05131"
         cy="21.799404"
         r="0.41130951"
         fill="#fff500"
         id="circle4876"
         style="stroke-width:0.164524" />
      <circle
         cx="28.544882"
         cy="22.951071"
         r="0.41130951"
         fill="#fff500"
         id="circle4878"
         style="stroke-width:0.164524" />
      <circle
         cx="41.130951"
         cy="32.082142"
         r="0.49357143"
         fill="#fff500"
         id="circle4880"
         style="stroke-width:0.164524" />
      <circle
         cx="42.282619"
         cy="32.082142"
         r="0.32904762"
         fill="#fff500"
         id="circle4882"
         style="stroke-width:0.164524" />
      <circle
         cx="36.030716"
         cy="32.082142"
         r="0.32904762"
         fill="#fff500"
         id="circle4884"
         style="stroke-width:0.164524" />
      <circle
         cx="43.10524"
         cy="32.082142"
         r="0.16452381"
         fill="#fff500"
         id="circle4886"
         style="stroke-width:0.164524" />
      <circle
         cx="35.208096"
         cy="32.082142"
         r="0.16452381"
         fill="#fff500"
         id="circle4888"
         style="stroke-width:0.164524" />
      <circle
         cx="39.814762"
         cy="32.082142"
         r="0.49357143"
         fill="#fff500"
         id="circle4890"
         style="stroke-width:0.164524" />
      <circle
         cx="38.498573"
         cy="32.082142"
         r="0.49357143"
         fill="#fff500"
         id="circle4892"
         style="stroke-width:0.164524" />
      <circle
         cx="37.182381"
         cy="32.082142"
         r="0.49357143"
         fill="#fff500"
         id="circle4894"
         style="stroke-width:0.164524" />
      <circle
         cx="28.873928"
         cy="23.938215"
         r="0.24678572"
         fill="#fff500"
         id="circle4896"
         style="stroke-width:0.164524" />
      <circle
         cx="54.210594"
         cy="17.68631"
         r="8.966548"
         fill="#000000"
         id="circle4898"
         style="stroke-width:0.164524" />
      <path
         fill-rule="evenodd"
         clip-rule="evenodd"
         d="m 51.989524,43.59881 c 0,-3.180246 -2.578088,-5.758334 -5.758333,-5.758334 -3.180246,0 -5.758334,2.578088 -5.758334,5.758334 v 5.758333 h 5.758334 c 3.180245,0 5.758333,-2.578088 5.758333,-5.758333 z"
         fill="#000000"
         id="path4900"
         style="stroke-width:0.164524" />
      <path
         d="m 40.472857,49.357143 h -0.08226 v 0.08226 h 0.08226 z m 5.758334,-11.434405 c 3.134836,0 5.676071,2.541235 5.676071,5.676072 h 0.164524 c 0,-3.225654 -2.614942,-5.840596 -5.840595,-5.840596 z m -5.676072,5.676072 c 0,-3.134837 2.541235,-5.676072 5.676072,-5.676072 v -0.164524 c -3.225654,0 -5.840596,2.614942 -5.840596,5.840596 z m 0,5.758333 V 43.59881 h -0.164524 v 5.758333 z m 5.676072,-0.08226 h -5.758334 v 0.164524 h 5.758334 z m 5.676071,-5.676071 c 0,3.134836 -2.541235,5.676071 -5.676071,5.676071 v 0.164524 c 3.225653,0 5.840595,-2.614942 5.840595,-5.840595 z"
         fill="#fff500"
         id="path4902"
         style="stroke-width:0.164524" />
      <rect
         style="fill:none;stroke-width:0.164524"
         x="-48.945835"
         y="43.022976"
         width="1.1516666"
         height="1.1516666"
         rx="0.57583332"
         transform="scale(-1,1)"
         stroke="#ffffff"
         id="rect4904" />
      <rect
         style="fill:none;stroke-width:0.164524"
         x="-46.807022"
         y="43.022976"
         width="1.1516666"
         height="1.1516666"
         rx="0.57583332"
         transform="scale(-1,1)"
         stroke="#ffffff"
         id="rect4906" />
      <rect
         style="fill:none;stroke-width:0.164524"
         x="-44.668217"
         y="43.022976"
         width="1.1516666"
         height="1.1516666"
         rx="0.57583332"
         transform="scale(-1,1)"
         stroke="#ffffff"
         id="rect4908" />
      <circle
         cx="27.228691"
         cy="19.660595"
         r="0.24678572"
         fill="#fff500"
         id="circle4910"
         style="stroke-width:0.164524" />
      <circle
         style="fill:none;stroke-width:0.164524"
         cx="54.210594"
         cy="17.68631"
         r="5.8405952"
         stroke="#fff500"
         id="circle4912" />
      <circle
         cx="27.886786"
         cy="49.274879"
         r="9.2133331"
         fill="#fff500"
         id="circle4914"
         style="stroke-width:0.164524" />
      <path
         style="fill:none;stroke-width:0.164524"
         d="m 40.472857,49.357143 c 0,6.269673 -5.119323,11.352143 -11.434405,11.352143 -6.315081,0 -11.352142,-5.08247 -11.352142,-11.352143"
         stroke="#fff500"
         id="path4916" />
      <path
         style="fill:none;stroke-width:0.164524"
         d="M 32.493452,10.858571 31.275976,8.7714389 C 30.315815,7.1254933 28.309941,6.4099957 26.524858,7.076712 v 0 c -2.052928,0.7667632 -3.076431,3.069307 -2.270429,5.107115 l 13.263416,33.53043 c 1.683572,4.256066 0.220627,9.111328 -3.533971,11.728902 l -0.441911,0.307989 c -4.25146,2.963896 -10.070832,2.135354 -13.326264,-1.897124 L 19.865756,55.420503 C 16.281145,50.980335 17.256409,44.392802 21.921975,41.107097 v 0 c 1.941052,-1.366864 4.277619,-2.114954 6.651533,-2.114954 h 8.965725 c 4.171008,0 7.681781,-3.12151 8.169759,-7.263891 l 1.724045,-14.636038 c 0.180647,-1.533345 0.872634,-2.961132 1.964414,-4.052879 l 0.162879,-0.162863 c 2.474603,-2.474602 6.447359,-2.59686 9.069375,-0.279114 v 0 c 2.573152,2.274426 2.980842,6.138284 0.939266,8.899652 l -6.839748,9.250845 c -0.620419,0.839236 -1.602133,1.334288 -2.645872,1.334288 H 30.272875 c -2.681574,0 -5.19484,-1.307142 -6.734783,-3.502547 l -4.892609,-6.97581 c -0.621077,-0.885303 -1.523819,-1.53402 -2.561125,-1.840034 v 0 c -2.027032,-0.598209 -4.218868,0.224904 -5.372098,1.996003 v 0 c -2.118293,3.252964 0.184234,7.607745 4.066206,7.607745 h 22.284306 c 2.499117,0 4.085949,-2.676144 2.887229,-4.868753 z"
         stroke="#fff500"
         id="path4918" />
      <path
         d="m 37.827643,20.704005 0.844666,1.626812 0.146097,-0.07568 -0.84483,-1.626976 z m -0.830351,-9.084511 v 5.683475 h 0.164524 v -5.683475 z m 3.22878,-6.9305654 v 3.7017857 h 0.164523 V 4.6889286 Z m 0,3.7017857 c 0,0.8461789 -0.6859,1.532128 -1.532046,1.532128 v 0.1645237 c 0.936963,0 1.696569,-0.7596228 1.696569,-1.6966517 z m -3.064256,3.2287797 c 0,-0.846179 0.685899,-1.532128 1.53221,-1.532128 V 9.9228423 c -0.937128,0 -1.696734,0.7596227 -1.696734,1.6966517 z m 0.81176,9.008666 c -0.533386,-1.027287 -0.81176,-2.167766 -0.81176,-3.325191 h -0.164524 c 0,1.183913 0.28479,2.350387 0.830351,3.401036 z"
         fill="#fff500"
         id="path4920"
         style="stroke-width:0.164524" />
      <circle
         cx="54.210594"
         cy="17.68631"
         r="4.1953573"
         fill="#fff500"
         id="circle4922"
         style="stroke-width:0.164524" />
      <line
         style="fill:none;stroke-width:0.164524"
         x1="27.947496"
         y1="46.724762"
         x2="27.947496"
         y2="52.109463"
         stroke="#ff6666"
         id="line4924" />
      <line
         style="fill:none;stroke-width:0.164524"
         x1="30.360565"
         y1="49.433647"
         x2="25.50119"
         y2="49.433647"
         stroke="#ff6666"
         id="line4926" />
      <line
         style="fill:none;stroke-width:0.164524"
         x1="29.023645"
         y1="50.494827"
         x2="26.887632"
         y2="48.358978"
         stroke="#ff6666"
         id="line4928" />
      <line
         style="fill:none;stroke-width:0.164524"
         x1="29.008675"
         y1="48.358978"
         x2="26.872662"
         y2="50.494827"
         stroke="#ff6666"
         id="line4930" />
      <path
         d="m 37.945442,25.394908 c 0.03208,-0.03225 0.03208,-0.08424 0,-0.116483 -0.03208,-0.03208 -0.08424,-0.03208 -0.116318,0 z m -1.808445,1.575645 c -0.03208,0.03208 -0.03208,0.08424 0,0.116318 0.03225,0.03208 0.08424,0.03208 0.116483,0 z m 1.692127,-1.692128 -1.692127,1.692128 0.116483,0.116318 1.691962,-1.691963 z"
         fill="#ffffff"
         id="path4932"
         style="stroke-width:0.164524" />
      <path
         d="m 37.829124,27.086871 c 0.03208,0.03208 0.08424,0.03208 0.116318,0 0.03208,-0.03208 0.03208,-0.08424 0,-0.116318 z M 36.25348,25.278425 c -0.03225,-0.03208 -0.08424,-0.03208 -0.116483,0 -0.03208,0.03225 -0.03208,0.08424 0,0.116483 z m 1.691962,1.692128 -1.691962,-1.692128 -0.116483,0.116483 1.692127,1.691963 z"
         fill="#ffffff"
         id="path4934"
         style="stroke-width:0.164524" />
    </g>
  </g>
  <g
     style="display:none"
     inkscape:label="guides"
     id="layer2"
     inkscape:groupmode="layer">
    <rect
       y="6.0999985"
       x="6.0999985"
       height="81.800003"
       width="56.900002"
       id="rect5074"
       style="fill:none;stroke:#ff0000;stroke-width:0.79375;stroke-linecap:round;stroke-linejoin:round" />
  </g>
</svg>
