<?xml version="1.0" encoding="UTF-8" standalone="no"?>
<svg
   sodipodi:docname="scenario-back.svg"
   inkscape:version="1.2 (1:1.2+202206011326+fc4e4096c5)"
   id="svg8"
   version="1.1"
   viewBox="0 0 69 94"
   height="94mm"
   width="69mm"
   xmlns:inkscape="http://www.inkscape.org/namespaces/inkscape"
   xmlns:sodipodi="http://sodipodi.sourceforge.net/DTD/sodipodi-0.dtd"
   xmlns="http://www.w3.org/2000/svg"
   xmlns:svg="http://www.w3.org/2000/svg"
   xmlns:rdf="http://www.w3.org/1999/02/22-rdf-syntax-ns#"
   xmlns:cc="http://creativecommons.org/ns#"
   xmlns:dc="http://purl.org/dc/elements/1.1/">
  <defs
     id="defs2">
    <clipPath
       id="clip0">
      <rect
         y="0"
         x="0"
         id="rect9454"
         fill="#ffffff"
         height="842"
         width="595" />
    </clipPath>
  </defs>
  <sodipodi:namedview
     inkscape:window-maximized="1"
     inkscape:window-y="0"
     inkscape:window-x="0"
     inkscape:window-height="1088"
     inkscape:window-width="2048"
     showgrid="false"
     inkscape:document-rotation="0"
     inkscape:current-layer="layer1"
     inkscape:document-units="mm"
     inkscape:cy="236.12316"
     inkscape:cx="221.47594"
     inkscape:zoom="1.979899"
     inkscape:pageshadow="2"
     inkscape:pageopacity="0.0"
     borderopacity="1.0"
     bordercolor="#666666"
     pagecolor="#ffffff"
     id="base"
     inkscape:showpageshadow="2"
     inkscape:pagecheckerboard="0"
     inkscape:deskcolor="#d1d1d1" />
  <metadata
     id="metadata5">
    <rdf:RDF>
      <cc:Work
         rdf:about="">
        <dc:format>image/svg+xml</dc:format>
        <dc:type
           rdf:resource="http://purl.org/dc/dcmitype/StillImage" />
      </cc:Work>
    </rdf:RDF>
  </metadata>
  <g
     id="layer1"
     inkscape:groupmode="layer"
     inkscape:label="Layer 1">
    <g
       id="g7017">
      <g
         style="fill:none"
         id="g10461"
         clip-path="url(#clip0)"
         transform="scale(0.11613445,0.11532114)">
        <rect
           id="rect10243"
           height="815.11505"
           width="595"
           x="0"
           y="0"
           style="fill:#00ba8d;stroke-width:1.0004" />
        <path
           id="path10245"
           d="m 275.383,549.165 v 53.142 c 0,6.15 -2.83,11.958 -7.673,15.749 l -34.18,26.753 c -5.231,4.094 -8.287,10.368 -8.287,17.011 v 0 c 0,5.965 -4.836,10.801 -10.801,10.801 H -121"
           inkscape:connector-curvature="0"
           style="stroke:#fff500;stroke-linecap:round;stroke-linejoin:round" />
        <path
           id="path10247"
           d="m 280.755,549.165 v 54.579 c 0,5.317 -2.117,10.416 -5.884,14.169 l -27.626,27.52 c -3.767,3.753 -5.885,8.852 -5.885,14.169 v 155.51308"
           inkscape:connector-curvature="0"
           style="stroke:#fff500;stroke-linecap:round;stroke-linejoin:round"
           sodipodi:nodetypes="csccsc" />
        <path
           id="path10249"
           d="m 296.872,549.165 v 62.885 l -0.432,39.246 v 163.81908"
           inkscape:connector-curvature="0"
           style="stroke:#fff500;stroke-linecap:round;stroke-linejoin:round"
           sodipodi:nodetypes="cccc" />
        <path
           id="path10251"
           d="m 291.5,549.165 v 59.667 c 0,2.132 -0.341,4.25 -1.01,6.274 l -10.948,33.134 c -0.668,2.024 -1.009,4.142 -1.009,6.274 v 160.60108"
           inkscape:connector-curvature="0"
           style="stroke:#fff500;stroke-linecap:round;stroke-linejoin:round"
           sodipodi:nodetypes="csccsc" />
        <path
           id="path10253"
           d="m 286.126,549.165 v 56.614 c 0,4.083 -1.249,8.068 -3.58,11.419 l -20.132,28.949 c -2.331,3.352 -3.58,7.337 -3.58,11.419 v 13.502 c 0,11.046 -8.954,20 -20,20 h -82.347 c -5.523,0 -10,4.477 -10,10 v 114.04708"
           inkscape:connector-curvature="0"
           style="stroke:#fff500;stroke-linecap:round;stroke-linejoin:round"
           sodipodi:nodetypes="csccsssssc" />
        <path
           id="path10255"
           d="M 179.125,691.068 H 85.1144 c -5.486,0 -9.9332,4.448 -9.9332,9.934 v 0 c 0,5.486 -4.4473,9.933 -9.9333,9.933 h -84.0776 c -5.486,0 -9.9332,4.447 -9.9332,9.933 v 0"
           inkscape:connector-curvature="0"
           style="stroke:#fff500;stroke-linecap:round;stroke-linejoin:round" />
        <path
           id="path10257"
           d="m 325.523,549.165 v 53.142 c 0,6.15 2.829,11.958 7.672,15.749 l 34.794,27.234 c 4.843,3.791 7.673,9.599 7.673,15.749 v 154.07608"
           inkscape:connector-curvature="0"
           style="stroke:#fff500;stroke-linecap:round;stroke-linejoin:round"
           sodipodi:nodetypes="csccsc" />
        <path
           id="path10259"
           d="m 320.15,549.165 0.001,54.574 c 0,5.318 2.117,10.417 5.884,14.169 l 27.626,27.521 c 3.767,3.753 5.885,8.852 5.885,14.169 v 155.51708"
           inkscape:connector-curvature="0"
           style="stroke:#fff500;stroke-linecap:round;stroke-linejoin:round"
           sodipodi:nodetypes="ccccsc" />
        <path
           id="path10261"
           d="m 304.034,549.165 0.433,265.95008"
           inkscape:connector-curvature="0"
           style="stroke:#fff500;stroke-linecap:round;stroke-linejoin:round"
           sodipodi:nodetypes="cc" />
        <path
           id="path10263"
           d="m 309.406,549.165 v 61.061 c 0,1.214 0.111,2.425 0.33,3.618 l 9.624,52.328 c 1.746,9.491 10.02,16.382 19.67,16.382 h 194.72 c 11.045,0 20,8.955 20,20 v 17.605 94.95608"
           inkscape:connector-curvature="0"
           style="stroke:#fff500;stroke-linecap:round;stroke-linejoin:round"
           sodipodi:nodetypes="csccssscc" />
        <path
           id="path10265"
           d="m 314.779,549.165 v 56.615 c 0,4.082 1.249,8.067 3.58,11.418 l 17.744,25.516 c 3.739,5.376 9.872,8.582 16.42,8.582 h 370.801"
           inkscape:connector-curvature="0"
           style="stroke:#fff500;stroke-linecap:round;stroke-linejoin:round" />
        <circle
           id="circle10267"
           r="4.2570901"
           cy="672.62097"
           cx="121.655"
           style="fill:#fff500" />
        <circle
           id="circle10269"
           r="4.2570901"
           cy="682.55402"
           cx="476.41199"
           style="fill:#fff500" />
        <circle
           id="circle10271"
           r="4.2570901"
           cy="651.336"
           cx="571.48798"
           style="fill:#fff500" />
        <circle
           id="circle10273"
           r="4.2570901"
           cy="654.17401"
           cx="279.16699"
           style="fill:#fff500" />
        <circle
           id="circle10275"
           r="2.8380599"
           cy="651.336"
           cx="459.384"
           style="fill:#fff500" />
        <circle
           id="circle10277"
           r="3.54758"
           cy="639.27399"
           cx="304"
           style="fill:#fff500" />
        <circle
           id="circle10279"
           r="2.8380599"
           cy="678.297"
           cx="296.19501"
           style="fill:#fff500" />
        <circle
           id="circle10281"
           r="2.8380599"
           cy="651.336"
           cx="487.76501"
           style="fill:#fff500" />
        <circle
           id="circle10283"
           r="2.8380599"
           cy="651.336"
           cx="551.62097"
           style="fill:#fff500" />
        <path
           id="path10285"
           d="m 380.411,0 v 237.001 c 0,6.004 -2.698,11.691 -7.348,15.489 l -16.506,13.482 c -4.65,3.798 -7.348,9.485 -7.348,15.49 v 35.692"
           inkscape:connector-curvature="0"
           style="stroke:#fff500;stroke-linecap:round;stroke-linejoin:round" />
        <path
           id="path10287"
           d="m 387.345,0 v 241.521 c 0,5.929 -2.631,11.552 -7.182,15.352 l -16.26,13.576 c -4.551,3.8 -7.182,9.424 -7.182,15.353 v 31.027"
           inkscape:connector-curvature="0"
           style="stroke:#fff500;stroke-linecap:round;stroke-linejoin:round" />
        <path
           id="path10289"
           d="m 374.633,0 v 241.521 c 0,5.929 -2.631,11.552 -7.182,15.352 l -16.26,13.576 c -4.551,3.8 -7.182,9.424 -7.182,15.353 v 31.027"
           inkscape:connector-curvature="0"
           style="stroke:#fff500;stroke-linecap:round;stroke-linejoin:round" />
        <path
           id="path10291"
           d="m 394.856,0 v 246.3 c 0,6.022 -2.714,11.724 -7.388,15.522 l -16.425,13.346 c -4.674,3.798 -7.388,9.5 -7.388,15.522 v 26.139"
           inkscape:connector-curvature="0"
           style="stroke:#fff500;stroke-linecap:round;stroke-linejoin:round" />
        <path
           id="path10293"
           d="m 368.855,0 v 246.3 c 0,6.022 -2.714,11.724 -7.388,15.522 l -16.426,13.346 c -4.674,3.798 -7.388,9.5 -7.388,15.522 v 26.139"
           inkscape:connector-curvature="0"
           style="stroke:#fff500;stroke-linecap:round;stroke-linejoin:round" />
        <path
           id="path10295"
           d="m 402.368,0 v 250.835 c 0,6.022 -2.714,11.723 -7.387,15.521 l -16.428,13.35 c -4.673,3.798 -7.387,9.5 -7.387,15.522 v 21.601"
           inkscape:connector-curvature="0"
           style="stroke:#fff500;stroke-linecap:round;stroke-linejoin:round" />
        <path
           id="path10297"
           d="m 363.655,0 v 250.835 c 0,6.022 -2.714,11.723 -7.387,15.521 l -16.428,13.35 c -4.674,3.798 -7.387,9.5 -7.387,15.522 v 21.601"
           inkscape:connector-curvature="0"
           style="stroke:#fff500;stroke-linecap:round;stroke-linejoin:round" />
        <path
           id="path10299"
           d="m 409.302,0 v 255.78 c 0,5.927 -2.63,11.549 -7.179,15.349 l -16.266,13.587 c -4.55,3.8 -7.179,9.422 -7.179,15.35 v 26.696"
           inkscape:connector-curvature="0"
           style="stroke:#fff500;stroke-linecap:round;stroke-linejoin:round" />
        <path
           id="path10301"
           d="m 356.721,0 v 255.78 c 0,5.927 -2.629,11.549 -7.179,15.349 l -16.266,13.587 c -4.549,3.8 -7.179,9.422 -7.179,15.35 v 16.763"
           inkscape:connector-curvature="0"
           style="stroke:#fff500;stroke-linecap:round;stroke-linejoin:round" />
        <path
           id="path10303"
           d="m 416.813,0 v 260.419 c 0,6.009 -2.702,11.7 -7.359,15.498 l -16.483,13.445 c -4.657,3.798 -7.36,9.489 -7.36,15.498 v 26.159"
           inkscape:connector-curvature="0"
           style="stroke:#fff500;stroke-linecap:round;stroke-linejoin:round" />
        <path
           id="path10305"
           d="m 351.521,0 v 260.419 c 0,6.009 -2.703,11.7 -7.359,15.498 l -16.484,13.445 c -4.657,3.798 -7.359,9.489 -7.359,15.498 v 11.969"
           inkscape:connector-curvature="0"
           style="stroke:#fff500;stroke-linecap:round;stroke-linejoin:round" />
        <path
           id="path10307"
           d="m 226.17,0 v 155.161 c 0,3.378 0.856,6.701 2.488,9.66 l 26.226,47.546 c 1.632,2.958 2.488,6.282 2.488,9.66 v 95.127"
           inkscape:connector-curvature="0"
           style="stroke:#fff500;stroke-linecap:round;stroke-linejoin:round" />
        <path
           id="path10309"
           d="m 219.236,0 v 164.999 c 0,3.316 0.825,6.58 2.399,9.498 l 25.826,47.859 c 1.575,2.918 2.399,6.182 2.399,9.498 v 84.58"
           inkscape:connector-curvature="0"
           style="stroke:#fff500;stroke-linecap:round;stroke-linejoin:round" />
        <path
           id="path10311"
           d="m 231.948,0 v 164.999 c 0,3.316 0.825,6.58 2.399,9.498 l 25.826,47.859 c 1.575,2.918 2.399,6.182 2.399,9.498 v 84.58"
           inkscape:connector-curvature="0"
           style="stroke:#fff500;stroke-linecap:round;stroke-linejoin:round" />
        <path
           id="path10313"
           d="m 211.725,0 v 175.847 c 0,3.393 0.863,6.731 2.509,9.699 l 26.183,47.218 c 1.646,2.968 2.51,6.306 2.51,9.699 v 73.97"
           inkscape:connector-curvature="0"
           style="stroke:#fff500;stroke-linecap:round;stroke-linejoin:round" />
        <path
           id="path10315"
           d="m 237.726,0 v 175.847 c 0,3.393 0.864,6.731 2.509,9.699 l 26.184,47.218 c 1.646,2.968 2.509,6.306 2.509,9.699 v 73.97"
           inkscape:connector-curvature="0"
           style="stroke:#fff500;stroke-linecap:round;stroke-linejoin:round" />
        <path
           id="path10317"
           d="m 204.213,0 v 185.911 c 0,3.393 0.864,6.731 2.509,9.698 l 26.185,47.229 c 1.645,2.968 2.508,6.305 2.508,9.698 v 63.898"
           inkscape:connector-curvature="0"
           style="stroke:#fff500;stroke-linecap:round;stroke-linejoin:round" />
        <path
           id="path10319"
           d="m 242.926,0 v 185.911 c 0,3.393 0.864,6.731 2.509,9.698 l 26.185,47.229 c 1.645,2.968 2.508,6.305 2.508,9.698 v 63.898"
           inkscape:connector-curvature="0"
           style="stroke:#fff500;stroke-linecap:round;stroke-linejoin:round" />
        <path
           id="path10321"
           d="m 197.28,0 v 196.644 c 0,3.314 0.824,6.577 2.397,9.495 l 25.829,47.882 c 1.574,2.918 2.398,6.181 2.398,9.495 v 52.918"
           inkscape:connector-curvature="0"
           style="stroke:#fff500;stroke-linecap:round;stroke-linejoin:round" />
        <path
           id="path10323"
           d="m 249.86,0 v 196.644 c 0,3.314 0.824,6.577 2.398,9.495 l 25.829,47.882 c 1.573,2.918 2.397,6.181 2.397,9.495 v 52.918"
           inkscape:connector-curvature="0"
           style="stroke:#fff500;stroke-linecap:round;stroke-linejoin:round" />
        <path
           id="path10325"
           d="m 189.768,0 v 207.151 c 0,3.382 0.858,6.71 2.494,9.671 l 26.214,47.455 c 1.636,2.961 2.494,6.288 2.494,9.671 v 56.686"
           inkscape:connector-curvature="0"
           style="stroke:#fff500;stroke-linecap:round;stroke-linejoin:round" />
        <path
           id="path10327"
           d="m 255.061,0 v 207.151 c 0,3.382 0.857,6.71 2.493,9.671 l 26.215,47.455 c 1.635,2.961 2.493,6.288 2.493,9.671 v 42.486"
           inkscape:connector-curvature="0"
           style="stroke:#fff500;stroke-linecap:round;stroke-linejoin:round" />
        <circle
           id="circle10329"
           r="3.54758"
           cy="207.888"
           cx="403.332"
           style="fill:#fff500" />
        <circle
           id="circle10331"
           r="4.2570901"
           cy="211.436"
           cx="189.76801"
           style="fill:#fff500" />
        <circle
           id="circle10333"
           r="4.2570901"
           cy="244.073"
           cx="219.56799"
           style="fill:#fff500" />
        <circle
           id="circle10335"
           r="2.1285501"
           cy="203.631"
           cx="224.534"
           style="fill:#fff500" />
        <circle
           id="circle10337"
           r="2.1285501"
           cy="124.165"
           cx="197.573"
           style="fill:#fff500" />
        <circle
           id="circle10339"
           r="4.2570901"
           cy="221.369"
           cx="246.52901"
           style="fill:#fff500" />
        <circle
           id="circle10341"
           r="3.54758"
           cy="284.51599"
           cx="257.172"
           style="fill:#fff500" />
        <circle
           id="circle10343"
           r="3.54758"
           cy="305.80099"
           cx="363.599"
           style="fill:#fff500" />
        <path
           id="path10345"
           d="M -121,493.823 H 27.0723 c 6.3793,0 12.376,-3.043 16.1423,-8.192 l 44.0669,-60.244 c 3.7663,-5.148 9.763,-8.192 16.1425,-8.192 h 90.601"
           inkscape:connector-curvature="0"
           style="stroke:#fff500;stroke-linecap:round;stroke-linejoin:round" />
        <path
           id="path10347"
           d="M -121,510.851 H 37.7624 c 6.2938,0 12.2206,-2.962 15.9978,-7.997 L 98.1875,443.64 c 3.7775,-5.035 9.7035,-7.997 15.9975,-7.997 h 79.84"
           inkscape:connector-curvature="0"
           style="stroke:#fff500;stroke-linecap:round;stroke-linejoin:round" />
        <path
           id="path10349"
           d="M -121,479.633 H 37.1175 c 6.3165,0 12.2617,-2.984 16.0363,-8.049 l 44.055,-59.112 c 3.7742,-5.064 9.7202,-8.048 16.0362,-8.048 h 80.78"
           inkscape:connector-curvature="0"
           style="stroke:#fff500;stroke-linecap:round;stroke-linejoin:round" />
        <path
           id="path10351"
           d="M -121,529.299 H 48.5065 c 6.3855,0 12.3873,-3.049 16.1527,-8.207 l 43.9648,-60.215 c 3.765,-5.157 9.767,-8.206 16.153,-8.206 h 69.248"
           inkscape:connector-curvature="0"
           style="stroke:#fff500;stroke-linecap:round;stroke-linejoin:round" />
        <path
           id="path10353"
           d="M -121,465.442 H 47.7296 c 6.3337,0 12.2931,-3 16.0655,-8.088 l 44.8239,-60.452 c 3.772,-5.087 9.731,-8.087 16.065,-8.087 h 69.341"
           inkscape:connector-curvature="0"
           style="stroke:#fff500;stroke-linecap:round;stroke-linejoin:round" />
        <path
           id="path10355"
           d="M -121,547.746 H 58.514 c 6.385,0 12.3863,-3.048 16.1518,-8.205 l 43.9732,-60.217 c 3.766,-5.157 9.767,-8.206 16.152,-8.206 h 59.234"
           inkscape:connector-curvature="0"
           style="stroke:#fff500;stroke-linecap:round;stroke-linejoin:round" />
        <path
           id="path10357"
           d="M -121,452.671 H 56.9474 c 6.337,0 12.2992,-3.003 16.0711,-8.095 l 44.7685,-60.437 c 3.772,-5.092 9.734,-8.096 16.071,-8.096 h 60.167"
           inkscape:connector-curvature="0"
           style="stroke:#fff500;stroke-linecap:round;stroke-linejoin:round" />
        <path
           id="path10359"
           d="M -121,564.775 H 69.2272 c 6.2926,0 12.2182,-2.962 15.9956,-7.995 l 44.4492,-59.22 c 3.777,-5.033 9.703,-7.994 15.995,-7.994 h 48.358"
           inkscape:connector-curvature="0"
           style="stroke:#fff500;stroke-linecap:round;stroke-linejoin:round" />
        <path
           id="path10361"
           d="M -121,435.643 H 69.2272 c 6.2926,0 12.2182,-2.962 15.9956,-7.995 l 44.4492,-59.22 c 3.777,-5.033 9.703,-7.994 15.995,-7.994 h 48.358"
           inkscape:connector-curvature="0"
           style="stroke:#fff500;stroke-linecap:round;stroke-linejoin:round" />
        <path
           id="path10363"
           d="M -121,583.222 H 79.6379 c 6.3728,0 12.3641,-3.037 16.1313,-8.177 l 44.1758,-60.274 c 3.767,-5.14 9.758,-8.177 16.131,-8.177 h 37.233"
           inkscape:connector-curvature="0"
           style="stroke:#fff500;stroke-linecap:round;stroke-linejoin:round" />
        <path
           id="path10365"
           d="m 208.216,346.244 h -51.728 c -6.296,0 -12.223,2.964 -16,8 l -45.4711,60.627 c -3.7771,5.036 -9.7049,8 -16,8 H -32.0732 c -12.0494,0 -23.6935,-4.351 -32.79,-12.253 l -20.7899,-18.06 c -12.2198,-10.615 -4.7124,-30.705 11.4742,-30.705 v 0 c 16.3561,0 23.7689,20.444 11.2138,30.927 l -22.1234,18.472 c -8.9912,7.507 -20.3325,11.619 -32.0455,11.619 H -121"
           inkscape:connector-curvature="0"
           style="stroke:#fff500;stroke-linecap:round;stroke-linejoin:round" />
        <circle
           id="circle10367"
           r="2.8380599"
           cy="547.74597"
           cx="33.674599"
           style="fill:#fff500" />
        <circle
           id="circle10369"
           r="4.2570901"
           cy="446.995"
           cx="73.407501"
           style="fill:#fff500" />
        <circle
           id="circle10371"
           r="4.2570901"
           cy="435.64301"
           cx="147.19701"
           style="fill:#fff500" />
        <path
           id="path10373"
           d="M 723.324,353.458 H 572.459 c -4.396,0 -8.668,1.448 -12.158,4.12 l -44.975,34.433 c -3.49,2.672 -7.763,4.12 -12.158,4.12 h -92.031"
           inkscape:connector-curvature="0"
           style="stroke:#fff500;stroke-linecap:round;stroke-linejoin:round" />
        <path
           id="path10375"
           d="m 723.324,343.975 h -160.58 c -4.323,0 -8.53,1.401 -11.99,3.992 l -45.259,33.898 c -3.46,2.592 -7.666,3.993 -11.989,3.993 h -81.659"
           inkscape:connector-curvature="0"
           style="stroke:#fff500;stroke-linecap:round;stroke-linejoin:round" />
        <path
           id="path10377"
           d="m 723.324,361.36 h -160.58 c -4.323,0 -8.53,1.401 -11.99,3.992 l -45.259,33.899 c -3.46,2.591 -7.666,3.992 -11.989,3.992 h -81.659"
           inkscape:connector-curvature="0"
           style="stroke:#fff500;stroke-linecap:round;stroke-linejoin:round" />
        <path
           id="path10379"
           d="M 723.324,333.702 H 552.081 c -4.413,0 -8.702,1.459 -12.199,4.151 l -44.658,34.371 c -3.497,2.691 -7.785,4.151 -12.198,4.151 h -71.179"
           inkscape:connector-curvature="0"
           style="stroke:#fff500;stroke-linecap:round;stroke-linejoin:round" />
        <path
           id="path10381"
           d="M 723.324,369.263 H 552.081 c -4.413,0 -8.702,1.459 -12.199,4.15 l -44.658,34.372 c -3.497,2.691 -7.785,4.151 -12.198,4.151 h -71.179"
           inkscape:connector-curvature="0"
           style="stroke:#fff500;stroke-linecap:round;stroke-linejoin:round" />
        <path
           id="path10383"
           d="M 723.324,323.429 H 648.19 c -2.001,0 -3.622,-1.622 -3.622,-3.623 v 0 c 0,-2.921 -3.281,-4.64 -5.683,-2.979 l -7.402,5.121 c -1.395,0.964 -3.05,1.481 -4.745,1.481 h -84.575 c -4.412,0 -8.7,1.459 -12.197,4.15 l -44.668,34.373 c -3.496,2.691 -7.785,4.15 -12.197,4.15 h -61.254"
           inkscape:connector-curvature="0"
           style="stroke:#fff500;stroke-linecap:round;stroke-linejoin:round" />
        <path
           id="path10385"
           d="M 721.195,376.375 H 542.163 c -4.412,0 -8.7,1.459 -12.197,4.15 l -44.668,34.373 c -3.496,2.691 -7.785,4.15 -12.197,4.15 h -61.254"
           inkscape:connector-curvature="0"
           style="stroke:#fff500;stroke-linecap:round;stroke-linejoin:round" />
        <path
           id="path10387"
           d="m 723.324,313.946 h -58.125 c -5.125,0 -9.279,-4.155 -9.279,-9.279 v 0 c 0,-8.25 -9.959,-12.398 -15.815,-6.587 l -11.333,11.244 c -2.983,2.961 -7.016,4.622 -11.219,4.622 h -85.99 c -4.322,0 -8.527,1.4 -11.987,3.99 l -45.282,33.903 c -3.46,2.59 -7.665,3.99 -11.987,3.99 h -50.46"
           inkscape:connector-curvature="0"
           style="stroke:#fff500;stroke-linecap:round;stroke-linejoin:round" />
        <path
           id="path10389"
           d="M 722.614,385.858 H 531.563 c -4.322,0 -8.527,1.399 -11.987,3.99 l -45.282,33.902 c -3.46,2.59 -7.665,3.99 -11.987,3.99 h -50.46"
           inkscape:connector-curvature="0"
           style="stroke:#fff500;stroke-linecap:round;stroke-linejoin:round" />
        <path
           id="path10391"
           d="m 721.905,303.673 h -34.904 c -8.937,0 -16.181,-7.245 -16.181,-16.181 v 0 c 0,-14.809 -18.244,-21.837 -28.179,-10.857 l -18.51,20.457 c -3.792,4.19 -9.179,6.581 -14.83,6.581 h -88.069 c -4.4,0 -8.678,1.451 -12.17,4.128 l -44.887,34.416 c -3.491,2.678 -7.769,4.129 -12.169,4.129 H 392.69"
           inkscape:connector-curvature="0"
           style="stroke:#fff500;stroke-linecap:round;stroke-linejoin:round" />
        <path
           id="path10393"
           d="M 723.324,392.97 H 521.232 c -4.4,0 -8.678,1.451 -12.169,4.128 l -44.887,34.416 c -3.492,2.678 -7.77,4.129 -12.17,4.129 h -40.159"
           inkscape:connector-curvature="0"
           style="stroke:#fff500;stroke-linecap:round;stroke-linejoin:round" />
        <circle
           id="circle10395"
           r="2.8380599"
           cy="313.60599"
           cx="571.48798"
           style="fill:#fff500" />
        <path
           id="path10397"
           d="M 79.0835,95.0751 H 152.873 V 201.503 H 79.0835 Z"
           inkscape:connector-curvature="0"
           style="fill:#5b57ca" />
        <path
           id="path10399"
           d="M 81.9215,97.9132 H 155.711 V 204.341 H 81.9215 Z"
           inkscape:connector-curvature="0"
           style="fill:#5b57ca" />
        <path
           id="path10401"
           d="M 84.7596,100.751 H 158.549 V 207.179 H 84.7596 Z"
           inkscape:connector-curvature="0"
           style="fill:#5b57ca" />
        <path
           id="path10403"
           d="M 87.5977,103.589 H 161.387 V 210.017 H 87.5977 Z"
           inkscape:connector-curvature="0"
           style="fill:#5b57ca" />
        <path
           id="path10405"
           d="M 90.4357,106.427 H 164.225 V 212.855 H 90.4357 Z"
           inkscape:connector-curvature="0"
           style="fill:#5b57ca" />
        <path
           id="path10407"
           d="M 93.2738,109.265 H 167.063 V 215.693 H 93.2738 Z"
           inkscape:connector-curvature="0"
           style="fill:#5b57ca" />
        <path
           id="path10409"
           d="m 130.352,181.098 v 0 l -0.677,-0.087 0.121,0.672 v 0 0 l 0.001,0.001 0.001,0.006 0.004,0.028 c 0.004,0.026 0.011,0.067 0.018,0.12 0.015,0.108 0.035,0.268 0.053,0.473 0.037,0.411 0.068,1.002 0.044,1.712 -0.047,1.424 -0.312,3.309 -1.178,5.188 -0.862,1.871 -2.324,3.744 -4.784,5.155 -2.466,1.414 -5.964,2.379 -10.922,2.379 h -0.085 -0.084 -0.085 -0.084 -0.085 -0.086 -0.085 -0.086 -0.085 -0.086 -0.086 -0.086 -0.087 -0.086 -0.087 -0.087 -0.087 -0.087 -0.087 -0.088 -0.088 -0.087 -0.088 -0.089 -0.088 -0.088 -0.089 -0.089 -0.088 -0.089 -0.09 -0.089 -0.089 -0.09 -0.09 -0.09 -0.09 -0.09 -0.09 -0.09 -0.091 -0.091 -0.09 -0.091 -0.091 -0.091 -0.092 -0.091 -0.092 -0.091 -0.092 -0.092 -0.092 -0.092 -0.092 -0.092 -0.093 -0.092 -0.093 -0.093 -0.093 -0.093 -0.093 -0.093 -0.093 -0.093 -0.094 -0.093 -0.094 -0.094 -0.093 -0.094 -0.094 -0.094 -0.094 -0.095 -0.094 -0.094 -0.095 -0.094 -0.095 -0.094 -0.095 -0.095 -0.095 -0.095 -0.095 -0.095 -0.095 -0.095 -0.096 -0.095 -0.095 -0.096 -0.095 -0.096 -0.096 -0.095 -0.096 -0.096 -0.096 -0.096 -0.095 -0.096 -0.096 -0.096 -0.097 -0.096 -0.096 -0.096 -0.096 -0.096 -0.097 -0.096 -0.096 -0.097 -0.096 -0.097 -0.096 -0.097 -0.096 -0.097 -0.096 -0.097 -0.096 -0.097 -0.097 -0.096 -0.097 -0.096 -0.097 -0.097 -0.096 -0.097 -0.097 -0.096 -0.097 -0.097 -0.096 -0.097 -0.0965 -0.0966 -0.0966 -0.0966 -0.0966 -0.0966 -0.0966 -0.0965 -0.0965 -0.0966 -0.0964 -0.0965 -0.0965 -0.0964 -0.0964 -0.0964 -0.0963 -0.0963 -0.0963 -0.0963 -0.0962 -0.0962 -0.0961 -0.0961 -0.0961 -0.096 -0.096 -0.096 -0.0959 -0.0958 -0.0958 -0.0958 -0.0957 -0.0957 -0.0956 -0.0955 -0.0955 -0.0955 -0.0953 -0.0954 -0.0952 -0.0952 -0.0952 -0.095 -0.095 -0.095 -0.0948 -0.0948 -0.0948 -0.0946 -0.0946 -0.0945 -0.0944 -0.0944 -0.0942 -0.0942 -0.0941 -0.094 -0.094 -0.0938 -0.0938 -0.0936 -0.0936 -0.0935 -0.0934 -0.0933 -0.0932 -0.0931 -0.093 -0.0929 -0.0928 -0.0927 -0.0926 -0.0925 -0.0923 -0.0923 -0.0922 -0.092 -0.092 -0.0918 -0.0917 -0.0916 -0.0915 -0.0913 -0.0913 -0.0911 -0.091 -0.0908 -0.0908 -0.0906 -0.0904 -0.0904 -0.0902 -0.0901 -0.09 -0.0898 -0.0896 -0.0896 -0.0894 -0.0892 -0.0892 -0.0889 -0.0889 -0.0886 -0.0886 -0.0883 -0.0883 -0.0881 -0.0879 -0.0878 -0.0876 -0.0874 -0.0873 -0.0872 -0.0869 -0.0869 -0.0866 -0.0865 -0.0863 -0.0861 -0.086 -0.0858 -0.0857 -0.0854 -0.0853 -0.0851 -0.0849 -0.0848 -0.0846 -0.0843 -0.0843 -0.084 -0.0838 -0.0836 -0.0835 -0.0833 -0.083 -0.0829 -0.0827 -0.0825 -0.0823 -0.0821 -0.0819 -0.0817 -0.0815 -0.0813 -0.081 -0.0809 -0.0807 -0.0805 -0.0802 -0.08 -0.0799 -0.0796 -0.0794 -0.0791 -0.079 -0.0787 -0.0785 -0.0783 -0.0781 -0.0778 -0.0776 -0.0774 -0.0772 -0.0769 -0.0767 -0.0765 -0.0762 -0.076 -0.0757 -0.0755 -0.0753 -0.075 -0.0748 -0.0745 -0.0743 -0.0741 -0.0738 -0.0735 -0.0733 -0.073 -0.0728 -0.0725 -0.0723 -0.072 -0.0718 -0.0715 -0.0712 -0.071 -0.0707 -0.0704 -0.0702 -0.0699 -0.0696 -0.0694 -0.069 -0.0688 -0.0686 -0.0682 -0.068 H 82.5452 82.4778 82.4107 82.3438 82.2773 82.211 82.145 82.0793 82.0139 81.9488 81.884 81.8194 81.7552 81.6913 81.6277 81.5643 81.5013 81.4386 81.3762 81.3141 81.2523 81.1908 81.1296 81.0687 81.0081 80.9479 80.888 80.8284 80.7691 80.7101 80.6514 80.5931 80.5351 80.4774 80.42 80.363 80.3063 80.25 80.1939 80.1382 80.0828 80.0278 79.9731 79.9188 79.8647 79.8111 79.7577 79.7047 79.6521 79.5998 79.5479 79.4963 79.445 79.3941 79.3436 79.2934 79.2436 79.1941 79.145 79.0962 79.0479 78.9998 78.9522 78.9049 78.8579 78.8114 78.7652 78.7194 78.6739 78.6289 78.5842 78.5399 78.4959 78.4524 78.4092 78.3664 78.324 78.282 78.2403 78.1991 78.1582 78.1177 78.0776 78.038 77.9987 77.9598 77.9213 77.8832 77.8455 77.8082 77.7713 77.7348 77.6987 77.663 77.6277 77.5929 77.5584 77.5244 77.4908 77.4576 77.4248 77.3924 77.3604 77.3289 77.2978 77.2671 77.2368 77.207 77.1776 77.1486 77.12 77.0919 77.0642 77.037 77.0101 76.9838 76.9578 76.9323 76.9072 76.8826 76.8584 76.8347 76.8114 76.7886 76.7662 76.7454 V 91.318 h 72.7896 v 0.0169 0.037 0.0382 0.0394 0.0406 0.0418 0.0431 0.0442 0.0455 0.0466 0.0478 0.0491 0.0502 0.0514 0.0525 0.0538 0.0549 0.056 0.0572 0.0584 0.0595 0.0607 0.0618 0.0629 0.0641 0.0651 0.0663 0.0674 0.0686 0.0696 0.0707 0.0719 0.0729 0.074 0.0751 0.0762 0.0772 0.0783 0.0794 0.0804 0.0815 0.0826 0.0836 0.0846 0.0857 0.0867 0.0877 0.0888 0.0897 0.0908 0.0918 0.0928 0.0938 0.0948 0.0958 0.0968 0.0978 0.0987 0.0997 0.1007 0.1017 0.1026 0.1035 0.1046 0.1054 0.1064 0.1074 0.1082 0.1092 0.1102 0.111 0.112 0.1128 0.1138 0.1147 0.1156 0.1164 0.1174 0.1182 0.1191 0.12 0.1208 0.1217 0.1226 0.1234 0.1243 0.1251 0.126 0.1268 0.1277 0.1284 0.1293 0.1301 0.1309 0.1317 0.1326 0.1333 0.1341 0.1349 0.136 0.136 0.138 0.138 0.138 0.14 0.14 0.141 0.142 0.143 0.143 0.144 0.145 0.145 0.147 0.147 0.147 0.149 0.149 0.15 0.15 0.151 0.152 0.153 0.153 0.154 0.154 0.155 0.156 0.157 0.157 0.158 0.158 0.159 0.16 0.161 0.161 0.161 0.162 0.163 0.164 0.164 0.164 0.165 0.166 0.167 0.167 0.167 0.168 0.169 0.169 0.17 0.17 0.171 0.172 0.171 0.173 0.173 0.173 0.175 0.174 0.175 0.176 0.176 0.176 0.177 0.178 0.178 0.178 0.179 0.18 0.18 0.18 0.181 0.181 0.182 0.182 0.183 0.183 0.183 0.184 0.184 0.185 0.185 0.185 0.186 0.187 0.186 0.187 0.188 0.188 0.188 0.188 0.189 0.19 0.189 0.19 0.19 0.191 0.191 0.191 0.192 0.192 0.192 0.193 0.193 0.193 0.194 0.193 0.195 0.194 0.195 0.195 0.195 0.195 0.196 0.196 0.196 0.197 0.196 0.197 0.198 0.197 0.198 0.198 0.198 0.198 0.199 0.198 0.199 0.199 0.2 0.199 0.2 0.2 0.2 0.2 0.2 0.201 0.201 0.2 0.201 0.201 0.202 0.201 0.201 0.202 0.202 0.202 0.202 0.202 0.202 0.202 0.202 0.203 0.202 0.203 0.202 0.203 0.203 0.203 0.202 0.203 0.203 0.203 0.203 0.203 0.203 0.204 0.203 0.203 0.203 0.203 0.203 0.203 0.203 0.204 0.203 0.203 0.203 0.203 0.203 0.203 0.202 0.203 0.203 0.203 0.202 0.203 0.202 0.203 0.202 0.202 0.202 0.202 0.202 0.202 0.202 0.202 0.201 0.201 0.202 0.201 0.201 0.2 0.201 0.201 0.2 0.2 0.2 0.2 0.2 0.199 0.199 0.199 0.199 0.199 0.199 0.198 0.198 0.198 0.198 0.197 0.197 0.197 0.197 0.196 0.197 0.196 0.195 0.196 0.195 0.195 0.194 0.195 0.194 0.194 0.193 0.193 0.193 0.193 0.192 0.192 0.192 0.191 0.191 0.191 0.19 0.19 0.189 0.19 0.189 0.188 0.188 0.188 0.187 0.188 0.186 0.186 0.186 0.186 0.185 0.184 0.185 0.184 0.183 0.183 0.182 0.183 0.181 0.181 0.181 0.181 0.179 0.18 0.179 0.178 0.178 0.178 0.177 0.176 0.176 0.176 0.175 0.174 0.174 0.174 0.173 0.172 0.172 0.171 0.171 0.17 0.17 0.169 0.169 0.168 0.168 0.166 0.167 0.166 0.165 0.164 0.164 0.164 0.162 0.163 0.161 0.161 0.16 0.16 0.159 0.159 0.157 0.157 0.157 0.156 0.155 0.154 0.154 0.153 0.153 0.152 0.151 0.15 0.15 0.149 0.148 0.148 0.147 0.146 0.145 0.145 0.144 0.143 0.143 0.142 0.141 0.14 0.14 0.138 0.138 0.137 0.137 0.135 0.135 0.134 0.134 0.132 0.132 0.131 0.13 0.129 0.128 0.128 0.127 0.126 0.125 0.124 0.123 0.123 0.121 0.121 0.12 0.119 0.118 0.117 0.117 0.115 0.115 0.114 0.112 0.112 0.111 0.11 0.109 0.109 0.107 0.106 0.106 0.104 0.104 0.102 0.102 0.1 0.1 c 0,4.126 -1.201,7.019 -2.964,9.059 -1.77,2.047 -4.143,3.276 -6.553,3.998 -2.409,0.722 -4.828,0.93 -6.651,0.956 -0.91,0.013 -1.668,-0.02 -2.196,-0.055 -0.265,-0.018 -0.471,-0.037 -0.611,-0.051 -0.07,-0.007 -0.123,-0.013 -0.158,-0.017 l -0.039,-0.004 -0.009,-0.001 z"
           inkscape:connector-curvature="0"
           style="stroke:#fff500" />
        <path
           id="path10411"
           d="m 76.2454,90.818 h 0.5 v 0.5 h -0.5 z m -26.9616,0 v 0.5 z m 0,-53.4232 c -14.6144,0 -26.4616,11.8473 -26.4616,26.4616 h -1 c 0,-15.1666 12.2949,-27.4616 27.4616,-27.4616 z m 26.4616,26.4616 c 0,-14.6143 -11.8473,-26.4616 -26.4616,-26.4616 v -1 c 15.1666,0 27.4616,12.295 27.4616,27.4616 z m 0,26.9616 V 63.8564 h 1 V 90.818 Z m -26.4616,-0.5 h 26.9616 v 1 H 49.2838 Z M 22.8222,63.8564 c 0,14.6144 11.8472,26.4616 26.4616,26.4616 v 1 c -15.1667,0 -27.4616,-12.295 -27.4616,-27.4616 z"
           inkscape:connector-curvature="0"
           style="fill:#fff500" />
        <rect
           id="rect10413"
           rx="3.0813301"
           height="6.1626501"
           width="6.1626501"
           y="60.775101"
           x="36.188202"
           style="fill:#fff500" />
        <rect
           id="rect10415"
           rx="3.0813301"
           height="6.1626501"
           width="6.1626501"
           y="60.775101"
           x="46.202499"
           style="fill:#fff500" />
        <rect
           id="rect10417"
           rx="3.0813301"
           height="6.1626501"
           width="6.1626601"
           y="60.775101"
           x="56.216801"
           style="fill:#fff500" />
        <line
           id="line10419"
           y2="172.62199"
           x2="113.64"
           y1="115.442"
           x1="113.64"
           style="stroke:#fff500;stroke-linecap:round;stroke-linejoin:round" />
        <line
           id="line10421"
           transform="matrix(-0.999819,-0.0190427,0,-1,140.102,144.322)"
           y2="-0.5"
           x2="52.013699"
           y1="-0.5"
           x1="0.5"
           style="stroke:#fff500;stroke-linecap:round;stroke-linejoin:round" />
        <line
           id="line10423"
           y2="132.677"
           x2="103.207"
           y1="155.048"
           x1="125.578"
           style="stroke:#fff500;stroke-linecap:round;stroke-linejoin:round" />
        <line
           id="line10425"
           y2="155.048"
           x2="102.495"
           y1="132.677"
           x1="124.866"
           style="stroke:#fff500;stroke-linecap:round;stroke-linejoin:round" />
        <path
           id="path10427"
           d="m 115.269,215.693 v 114.232 0 c 0,16.36 19.712,24.63 31.384,13.166 l 2.531,-2.485 c 3.729,-3.663 8.746,-5.715 13.973,-5.715 h 54.992"
           inkscape:connector-curvature="0"
           style="stroke:#fff500" />
        <circle
           id="circle10429"
           r="4.96661"
           cy="216.40199"
           cx="115.269"
           style="fill:#fff500" />
        <circle
           id="circle10431"
           r="252.588"
           cy="414.35699"
           cx="304.70999"
           style="fill:#fff500;fill-opacity:0.1" />
        <circle
           id="circle10433"
           r="201.502"
           cy="414.35699"
           cx="304.70999"
           style="fill:#fff500;fill-opacity:0.1" />
        <circle
           id="circle10435"
           r="146.16"
           cy="421.452"
           cx="301.87201"
           style="fill:#fff500" />
        <rect
           id="rect10437"
           height="61.045101"
           width="94.770798"
           y="121.396"
           x="480.97"
           style="fill:#5b57ca" />
        <rect
           id="rect10439"
           height="16.648701"
           width="30.800501"
           y="121.396"
           x="480.97"
           style="fill:#ff0f00" />
        <path
           id="path10441"
           d="m 490.921,125.36 -4.422,4.439 4.422,4.439"
           inkscape:connector-curvature="0"
           style="stroke:#000000;stroke-linecap:round;stroke-linejoin:round" />
        <path
           id="path10443"
           d="m 501.845,125.36 4.422,4.439 -4.422,4.439"
           inkscape:connector-curvature="0"
           style="stroke:#000000;stroke-linecap:round;stroke-linejoin:round" />
        <line
           id="line10445"
           transform="matrix(-0.498561,0.866854,-0.865192,-0.50144,498.415,125.36)"
           y2="-0.5"
           x2="9.4127703"
           y1="-0.5"
           x1="0.5"
           style="stroke:#000000;stroke-linecap:round;stroke-linejoin:round" />
        <rect
           id="rect10447"
           height="61.0452"
           width="94.770798"
           y="77"
           x="417"
           style="stroke:#fff500" />
        <path
           id="path10449"
           d="m 511.771,92.0631 h -0.5 v 0.5 h 0.5 z m 15.005,-29.6262 c 8.009,0 14.505,6.5183 14.505,14.5631 h 1 c 0,-8.5934 -6.94,-15.5631 -15.505,-15.5631 z M 512.271,77 c 0,-8.0448 6.496,-14.5631 14.505,-14.5631 v -1 c -8.565,0 -15.505,6.9697 -15.505,15.5631 z m 0,15.0631 V 77 h -1 v 15.0631 z m 14.505,-0.5 h -15.005 v 1 h 15.005 z M 541.281,77 c 0,8.0448 -6.496,14.5631 -14.505,14.5631 v 1 c 8.565,0 15.505,-6.9696 15.505,-15.5631 z"
           inkscape:connector-curvature="0"
           style="fill:#5b57ca" />
        <rect
           id="rect10451"
           transform="matrix(-1,0,0,1,534.064,75.2785)"
           rx="1.7149"
           height="3.4429901"
           width="3.4298"
           x="0"
           y="0"
           style="fill:#5b57ca" />
        <rect
           id="rect10453"
           transform="matrix(-1,0,0,1,528.491,75.2785)"
           rx="1.7149"
           height="3.4429901"
           width="3.42979"
           x="0"
           y="0"
           style="fill:#5b57ca" />
        <rect
           id="rect10455"
           transform="matrix(-1,0,0,1,523.098,75.4144)"
           rx="1.7149"
           height="3.4429901"
           width="3.42981"
           x="0"
           y="0"
           style="fill:#5b57ca" />
        <path
           id="path10457"
           d="M 291.339,580.795 161.653,519.09 c -5.584,-2.657 -7.256,-9.811 -3.428,-14.668 6,-7.613 15.978,-10.889 25.323,-8.315 l 94.247,25.968 c 7.819,2.154 16.178,1.051 23.171,-3.06 l 113.478,-66.702 c 4.91,-2.887 1.945,-10.425 -3.616,-9.192 l -40.128,8.892 c -7.104,1.574 -14.358,2.368 -21.635,2.368 h -58.852 c -7.49,0 -13.975,-5.204 -15.595,-12.517 -1.862,-8.402 3.267,-16.769 11.6,-18.922 l 49.1,-12.684 c 16.381,-4.232 32.084,-10.752 46.645,-19.369 l 42.45,-25.12 c 17.519,-10.366 37.783,-15.14 58.087,-13.682 l 126.963,9.114 v 136.176 h -85.357 c -8.126,0 -16.168,1.651 -23.638,4.852 l -184.421,79.05 c -7.923,3.396 -16.924,3.219 -24.708,-0.484 z"
           inkscape:connector-curvature="0"
           style="fill:#5b57ca" />
        <path
           id="path10459"
           d="m 572.907,354.791 c 0,-2.761 2.238,-5 5,-5 h 145.417 v 189.402 l -146.208,-23.41 c -2.425,-0.389 -4.209,-2.481 -4.209,-4.938 z"
           inkscape:connector-curvature="0"
           style="fill:#5f5ae0" />
      </g>
    </g>
  </g>
  <g
     sodipodi:insensitive="true"
     style="display:none"
     inkscape:label="guides"
     id="layer2"
     inkscape:groupmode="layer">
    <rect
       y="6.0999985"
       x="6.0999985"
       height="81.800003"
       width="56.900002"
       id="rect5074"
       style="fill:none;stroke:#ff0000;stroke-width:0.79375;stroke-linecap:round;stroke-linejoin:round" />
  </g>
</svg>
