<?xml version="1.0" encoding="UTF-8" standalone="no"?>
<svg
   sodipodi:docname="state-back.svg"
   inkscape:version="1.2 (1:1.2+202206011326+fc4e4096c5)"
   id="svg8"
   version="1.1"
   viewBox="0 0 69 94"
   height="94mm"
   width="69mm"
   xmlns:inkscape="http://www.inkscape.org/namespaces/inkscape"
   xmlns:sodipodi="http://sodipodi.sourceforge.net/DTD/sodipodi-0.dtd"
   xmlns="http://www.w3.org/2000/svg"
   xmlns:svg="http://www.w3.org/2000/svg"
   xmlns:rdf="http://www.w3.org/1999/02/22-rdf-syntax-ns#"
   xmlns:cc="http://creativecommons.org/ns#"
   xmlns:dc="http://purl.org/dc/elements/1.1/">
  <defs
     id="defs2" />
  <sodipodi:namedview
     inkscape:window-maximized="1"
     inkscape:window-y="0"
     inkscape:window-x="0"
     inkscape:window-height="1088"
     inkscape:window-width="2048"
     showgrid="false"
     inkscape:document-rotation="0"
     inkscape:current-layer="layer1"
     inkscape:document-units="mm"
     inkscape:cy="332.84526"
     inkscape:cx="422.74884"
     inkscape:zoom="0.98994949"
     inkscape:pageshadow="2"
     inkscape:pageopacity="0.0"
     borderopacity="1.0"
     bordercolor="#666666"
     pagecolor="#ffffff"
     id="base"
     inkscape:showpageshadow="2"
     inkscape:pagecheckerboard="0"
     inkscape:deskcolor="#d1d1d1" />
  <metadata
     id="metadata5">
    <rdf:RDF>
      <cc:Work
         rdf:about="">
        <dc:format>image/svg+xml</dc:format>
        <dc:type
           rdf:resource="http://purl.org/dc/dcmitype/StillImage" />
      </cc:Work>
    </rdf:RDF>
  </metadata>
  <g
     id="layer1"
     inkscape:groupmode="layer"
     inkscape:label="Layer 1">
    <rect
       style="stroke-width:0.191891"
       id="rect6105"
       fill="#fdbbab"
       height="94"
       width="69.099998"
       x="0"
       y="0" />
    <g
       transform="matrix(0.91073447,0,0,0.91073447,3.2339609,16.35823)"
       id="g6299">
      <circle
         cx="57.994644"
         cy="14.560357"
         r="3.7017858"
         fill="#fff500"
         id="circle6107"
         style="stroke-width:0.164524" />
      <path
         d="m 53.305714,19.249286 h -0.164523 v 0.164524 h 0.164523 z m 4.688929,-9.213334 c 2.498788,0 4.524405,2.02565 4.524405,4.524405 h 0.329047 c 0,-2.680488 -2.17303,-4.8534522 -4.853452,-4.8534522 z m -4.524405,4.524405 c 0,-2.498755 2.025617,-4.524405 4.524405,-4.524405 V 9.7069048 c -2.680422,0 -4.853452,2.1729642 -4.853452,4.8534522 z m 0,4.688929 v -4.688929 h -0.329047 v 4.688929 z m 4.524405,-0.164524 h -4.688929 v 0.329048 h 4.688929 z m 4.524405,-4.524405 c 0,2.498788 -2.025617,4.524405 -4.524405,4.524405 v 0.329048 c 2.680422,0 4.853452,-2.173031 4.853452,-4.853453 z"
         fill="#5b57ca"
         id="path6109"
         style="stroke-width:0.164524" />
      <path
         d="m 56.656077,14.206499 c -0.05166,-0.07464 -0.154159,-0.09317 -0.228852,-0.04138 -0.07469,0.05181 -0.09329,0.154307 -0.04146,0.228967 z m 1.067924,1.827514 -0.135238,0.0938 c 0.03192,0.04603 0.08522,0.07265 0.141161,0.07063 0.05594,-0.002 0.107105,-0.03241 0.135568,-0.08062 z m 1.885937,-2.86352 c 0.04623,-0.0782 0.0204,-0.179101 -0.05791,-0.225381 -0.07815,-0.04628 -0.179001,-0.02042 -0.225233,0.05778 z m -3.224173,1.223596 1.202998,1.733719 0.270312,-0.187573 -1.202998,-1.733736 z m 1.479727,1.723733 1.744446,-2.947329 -0.283146,-0.1676 -1.744446,2.947328 z"
         fill="#5b57ca"
         id="path6111"
         style="stroke-width:0.164524" />
      <path
         d="m 26.474349,17.790453 0.343526,1.96244 c 0.04491,0.256986 -0.125532,0.502127 -0.382025,0.549674 -0.207135,0.03833 -0.414929,-0.06433 -0.510353,-0.25205 L 25.076226,18.380765 C 24.638099,17.519318 23.64421,17.097643 22.720245,17.380953 l -0.969046,0.29713 c -0.726372,0.222766 -1.509177,-0.0969 -1.871952,-0.764377 l -1.023338,-1.882679 5.493286,0.722769 c 1.077302,0.141738 1.937761,0.96643 2.125154,2.036657 z"
         fill="#0d06c1"
         id="path6113"
         style="stroke-width:0.164524" />
      <path
         d="m 28.363411,17.860047 0.636214,3.382609 c 0.0561,0.297953 -0.140668,0.584553 -0.438621,0.639504 -0.241027,0.04442 -0.482219,-0.07683 -0.590476,-0.296636 l -1.166309,-2.371117 c -0.871976,-1.772415 -2.898251,-2.653934 -4.789453,-2.083365 l -0.78774,0.237737 c -1.049168,0.316543 -2.108701,-0.461819 -2.120382,-1.557531 l -0.0181,-1.68196 5.715722,0.504184 c 1.775376,0.15661 3.229767,1.47512 3.559143,3.226575 z"
         fill="#241ed3"
         id="path6115"
         style="stroke-width:0.164524" />
      <path
         d="m 28.554588,16.872246 2.28721,3.5394 c 0.185089,0.286436 0.09477,0.669283 -0.198745,0.842527 -0.243989,0.144123 -0.555268,0.09789 -0.747102,-0.11056 l -2.505698,-2.725502 c -1.28707,-1.399768 -3.263823,-1.935787 -5.081647,-1.377886 l -1.064798,0.326744 C 20.192501,17.6896 19.126551,16.909757 19.115857,15.81008 l -0.01448,-1.497298 5.90114,0.447653 c 1.449126,0.109934 2.763342,0.891307 3.552069,2.111811 z"
         fill="#403add"
         id="path6117"
         style="stroke-width:0.164524" />
      <path
         d="m 35.701667,49.531045 c -3.542033,0 -6.974494,-1.228171 -9.712663,-3.475237 -2.738006,-2.247066 -4.612261,-5.374006 -5.303261,-8.847926 -0.691,-3.474085 -0.156133,-7.080282 1.513619,-10.204095 1.669752,-3.123814 4.370904,-5.572093 7.643447,-6.92744 3.272379,-1.355512 6.91362,-1.534514 10.303139,-0.50624 3.38952,1.028274 6.317715,3.199824 8.285584,6.144965 1.967869,2.94514 2.853666,6.48158 2.50652,10.006502 -0.347145,3.525087 -1.905844,6.820664 -4.410554,9.32521 L 35.701667,34.220952 Z"
         fill="#ff6666"
         id="path6119"
         style="stroke-width:0.164524" />
      <path
         d="m 35.701667,24.779589 c 1.657248,0 3.285376,0.436153 4.720681,1.264859 1.435306,0.828707 2.627117,2.020517 3.455823,3.455823 0.828707,1.435306 1.264859,3.063433 1.264859,4.720681 0,1.657249 -0.436152,3.285376 -1.264859,4.720682 -0.828706,1.435306 -2.020517,2.627116 -3.455823,3.455823 -1.435305,0.828706 -3.063433,1.264859 -4.720681,1.264859 -1.657249,0 -3.285376,-0.436153 -4.720682,-1.264859 -1.435306,-0.828707 -2.627116,-2.020517 -3.455823,-3.455823 l 8.176505,-4.720682 z"
         fill="#fff500"
         id="path6121"
         style="stroke-width:0.164524" />
      <path
         d="m 35.701667,37.511429 c -0.650856,0 -1.286905,-0.192987 -1.828024,-0.55461 -0.541119,-0.361459 -0.962958,-0.875431 -1.212047,-1.476601 -0.248925,-0.601335 -0.314076,-1.262885 -0.187228,-1.901237 0.127012,-0.638188 0.44043,-1.224551 0.900603,-1.684724 0.460173,-0.460173 1.046536,-0.773591 1.684724,-0.900604 0.638352,-0.126847 1.299902,-0.0617 1.901237,0.187229 0.60117,0.249089 1.115142,0.670928 1.476601,1.212046 0.361624,0.541119 0.55461,1.177168 0.55461,1.828024 h -3.290476 z"
         fill="#5b57ca"
         id="path6123"
         style="stroke-width:0.164524" />
      <path
         d="m 39.624902,55.741983 -1.639645,-4.167717 c -0.142477,-0.362282 0.03472,-0.771617 0.396338,-0.91574 0.332996,-0.132606 0.712553,0.0049 0.883328,0.319999 l 0.821797,1.516581 c 1.066937,1.969021 3.257078,3.053891 5.469923,2.709542 l 2.933624,-0.456718 -2.056877,4.282226 -2.545018,-0.170447 c -1.904528,-0.127341 -3.564738,-1.341527 -4.26347,-3.117726 z"
         fill="#0d06c1"
         id="path6125"
         style="stroke-width:0.164524" />
      <path
         d="m 37.850677,57.387386 -4.69551,-4.272355 c -0.323947,-0.294662 -0.289891,-0.813899 0.06976,-1.063811 0.225069,-0.156297 0.52187,-0.162714 0.753519,-0.01596 l 1.625989,1.029919 c 2.245257,1.421979 4.841607,2.191457 7.49916,2.222552 l 3.69504,0.04294 -0.974639,4.701268 -5.883042,-1.515593 c -0.7782,-0.200552 -1.495853,-0.588006 -2.090277,-1.12896 z"
         fill="#241ed3"
         id="path6127"
         style="stroke-width:0.164524" />
      <path
         d="M 37.547953,58.707689 30.00503,55.196258 c -0.315721,-0.14692 -0.480081,-0.499495 -0.390086,-0.835781 0.104143,-0.388277 0.506569,-0.615155 0.892542,-0.503279 l 5.002346,1.450771 c 1.745762,0.506404 3.553221,0.769149 5.37088,0.780995 l 4.482451,0.02912 0.179989,3.722516 -6.445549,-0.700871 c -0.536677,-0.05824 -1.060192,-0.204339 -1.54965,-0.43204 z"
         fill="#403add"
         id="path6129"
         style="stroke-width:0.164524" />
      <path
         d="M 36.965045,60.040497 30.11559,57.430162 c -0.407032,-0.154982 -0.630784,-0.592779 -0.518086,-1.013467 0.118787,-0.443227 0.568266,-0.712059 1.014948,-0.606928 l 6.476809,1.52349 c 0.761909,0.179331 1.555737,0.174725 2.315508,-0.01316 l 4.569484,-1.130443 c 0.536348,-0.13277 0.579453,-0.878557 0.06186,-1.072037 L 43.376538,54.870994 C 42.66925,54.60644 41.923464,54.459026 41.168793,54.434348 l -2.546006,-0.08292 c -0.531576,-0.01727 -0.94667,-0.465274 -0.923472,-0.996521 0.0204,-0.463793 0.371166,-0.845817 0.831503,-0.905704 l 6.113705,-0.794156 c 1.849083,-0.240205 3.725477,-0.164359 5.549059,0.224411 l 9.583183,2.042563 c 1.503254,0.320492 2.577759,1.648199 2.577759,3.185181 0,1.798738 -1.45801,3.256748 -3.256749,3.256748 H 50.179762 38.722653 c -0.600676,0 -1.196253,-0.109572 -1.757608,-0.323453 z"
         fill="#5b57ca"
         id="path6131"
         style="stroke-width:0.164524" />
      <circle
         cx="16.205595"
         cy="33.809643"
         r="1.2339286"
         fill="#fff500"
         id="circle6133"
         style="stroke-width:0.164524" />
      <circle
         cx="55.197739"
         cy="33.809643"
         r="1.2339286"
         fill="#fff500"
         id="circle6135"
         style="stroke-width:0.164524" />
      <ellipse
         style="fill:none"
         cx="35.783928"
         cy="34.220951"
         rx="19.496071"
         ry="19.578333"
         stroke="#5b57ca"
         stroke-width="0.329048"
         id="ellipse6137" />
      <path
         fill-rule="evenodd"
         clip-rule="evenodd"
         d="m 5.9228572,54.786429 c 0,-3.180246 2.5780881,-5.758334 5.7583338,-5.758334 3.180245,0 5.758333,2.578088 5.758333,5.758334 v 5.593809 c 0,0.09082 -0.07371,0.164524 -0.164524,0.164524 h -5.593809 c -3.1802457,0 -5.7583338,-2.578088 -5.7583338,-5.758333 z"
         fill="#5b57ca"
         id="path6139"
         style="stroke-width:0.164524" />
      <rect
         style="fill:none;stroke-width:0.164524"
         x="8.966548"
         y="54.210594"
         width="1.1516666"
         height="1.1516666"
         rx="0.57583332"
         stroke="#ffffff"
         id="rect6141" />
      <rect
         style="fill:none;stroke-width:0.164524"
         x="11.105357"
         y="54.210594"
         width="1.1516666"
         height="1.1516666"
         rx="0.57583332"
         stroke="#ffffff"
         id="rect6143" />
      <rect
         style="fill:none;stroke-width:0.164524"
         x="13.244166"
         y="54.210594"
         width="1.1516666"
         height="1.1516666"
         rx="0.57583332"
         stroke="#ffffff"
         id="rect6145" />
      <circle
         cx="35.619404"
         cy="14.560357"
         r="2.2210715"
         fill="#fff500"
         id="circle6147"
         style="stroke-width:0.164524" />
      <path
         style="fill:none"
         d="M 32.861492,6.91 31.095,8.6375 32.861492,10.365"
         stroke="#fff500"
         stroke-width="0.329048"
         stroke-linecap="round"
         stroke-linejoin="round"
         id="path6149" />
      <path
         style="fill:none"
         d="m 38.541841,6.91 1.766492,1.7275 -1.766492,1.7275"
         stroke="#fff500"
         stroke-width="0.329048"
         stroke-linecap="round"
         stroke-linejoin="round"
         id="path6151" />
      <circle
         cx="35.619404"
         cy="8.6374998"
         r="1.2339286"
         fill="#fff500"
         id="circle6153"
         style="stroke-width:0.164524" />
      <ellipse
         style="fill:none"
         cx="35.701668"
         cy="34.138691"
         rx="4.9357142"
         ry="4.8534522"
         stroke="#5b57ca"
         stroke-width="0.329048"
         id="ellipse6155" />
      <circle
         style="fill:none"
         cx="16.287857"
         cy="33.891907"
         r="7.2390475"
         stroke="#5b57ca"
         stroke-width="0.329048"
         id="circle6157" />
      <circle
         cx="35.701668"
         cy="34.220951"
         r="0.98714286"
         fill="#ff6666"
         id="circle6159"
         style="stroke-width:0.164524" />
      <circle
         cx="35.537144"
         cy="53.799286"
         r="1.9742857"
         fill="#fff500"
         id="circle6161"
         style="stroke-width:0.164524" />
      <path
         d="m 56.760714,56.92458 c -0.09082,0 -0.164523,0.07371 -0.164523,0.164524 0,0.09098 0.07371,0.164524 0.164523,0.164524 z m 3.94742,0.329048 c 0.09082,0 0.164524,-0.07354 0.164524,-0.164524 0,-0.09082 -0.07371,-0.164524 -0.164524,-0.164524 z m -3.94742,0 h 3.94742 V 56.92458 h -3.94742 z"
         fill="#f55c5c"
         id="path6163"
         style="stroke-width:0.164524" />
      <path
         d="m 58.898866,55.115476 c 0,-0.09082 -0.07354,-0.164523 -0.164524,-0.164523 -0.09082,0 -0.164524,0.07371 -0.164524,0.164523 z m -0.329048,3.94742 c 0,0.09082 0.07371,0.164524 0.164524,0.164524 0.09098,0 0.164524,-0.07371 0.164524,-0.164524 z m 0,-3.94742 v 3.94742 h 0.329048 v -3.94742 z"
         fill="#f55c5c"
         id="path6165"
         style="stroke-width:0.164524" />
      <path
         d="m 16.309969,26.489814 c -0.09004,-0.01217 -0.172931,0.05084 -0.185138,0.140997 -0.01221,0.08999 0.05089,0.172915 0.140914,0.185089 z m 19.369652,2.958467 c 0.08999,0.01217 0.172914,-0.05084 0.185089,-0.140997 0.01217,-0.08999 -0.05084,-0.172914 -0.140997,-0.185089 z M 16.265745,26.8159 l 19.413876,2.632381 0.04409,-0.326086 -19.413744,-2.632381 z"
         fill="#5b57ca"
         id="path6167"
         style="stroke-width:0.164524" />
      <path
         d="m 35.024816,38.828771 c 0.09016,-0.01053 0.171763,0.05429 0.182128,0.144616 0.01053,0.09016 -0.05429,0.171763 -0.144617,0.182128 z m -18.553679,2.465554 c -0.09023,0.01053 -0.171813,-0.05429 -0.18221,-0.144617 -0.01038,-0.09016 0.05438,-0.171763 0.144649,-0.182128 z m 18.59119,-2.13881 -18.59119,2.13881 -0.03756,-0.326745 18.59124,-2.138809 z"
         fill="#5b57ca"
         id="path6169"
         style="stroke-width:0.164524" />
      <circle
         cx="21.14131"
         cy="33.809643"
         r="1.8920238"
         fill="#fff500"
         id="circle6171"
         style="stroke-width:0.164524" />
      <path
         d="m 28.77505,15.98181 3.479678,3.589942 c 0.289562,0.298776 0.223588,0.789715 -0.134745,1.001292 -0.217336,0.128493 -0.489787,0.117799 -0.696429,-0.02731 l -3.390836,-2.378685 c -1.240674,-0.870495 -2.812534,-1.12271 -4.263305,-0.683925 L 21.36572,18.20999 c -0.704491,0.212894 -0.805179,1.168777 -0.160575,1.523984 l 3.219566,1.774389 c 0.485675,0.26768 0.626178,0.900933 0.299105,1.348766 -0.217336,0.297788 -0.591464,0.43714 -0.950784,0.354056 L 18.183665,21.91852 C 15.685832,21.280497 13.406798,19.979442 11.587379,18.153064 L 7.643694,14.194407 C 6.1875595,12.732728 6.4992663,10.290487 8.2758438,9.2413847 9.3650737,8.5981788 10.732875,8.6662423 11.752874,9.4143979 l 3.257703,2.3894451 c 1.283976,0.941784 2.77675,1.558978 4.350914,1.79892 l 6.814247,1.038672 c 0.989611,0.150835 1.902554,0.621636 2.599312,1.340375 z"
         fill="#5b57ca"
         id="path6173"
         style="stroke-width:0.164524" />
      <path
         d="m 10.073579,10.200476 c 0,-0.09087 -0.073657,-0.164524 -0.1645238,-0.164524 -0.090866,0 -0.1645238,0.07366 -0.1645238,0.164524 z m -0.3290476,3.36573 c 0,0.09087 0.073657,0.164523 0.1645238,0.164523 0.090867,0 0.1645238,-0.07366 0.1645238,-0.164523 z m 0,-3.36573 v 3.36573 h 0.3290476 v -3.36573 z"
         fill="#f55c5c"
         id="path6175"
         style="stroke-width:0.164524" />
      <path
         d="m 11.59192,12.047881 c 0.09087,0 0.164524,-0.07367 0.164524,-0.164524 0,-0.09087 -0.07366,-0.164523 -0.164524,-0.164523 z M 8.2261905,11.718834 c -0.090866,0 -0.1645238,0.07366 -0.1645238,0.164523 0,0.09085 0.073657,0.164524 0.1645238,0.164524 z m 3.3657295,0 H 8.2261905 v 0.329047 H 11.59192 Z"
         fill="#f55c5c"
         id="path6177"
         style="stroke-width:0.164524" />
    </g>
  </g>
  <g
     sodipodi:insensitive="true"
     style="display:none"
     inkscape:label="guides"
     id="layer2"
     inkscape:groupmode="layer">
    <rect
       y="6.0999985"
       x="6.0999985"
       height="81.800003"
       width="56.900002"
       id="rect5074"
       style="fill:none;stroke:#ff0000;stroke-width:0.79375;stroke-linecap:round;stroke-linejoin:round" />
  </g>
</svg>
