<?xml version="1.0" encoding="UTF-8" standalone="no"?>
<svg
   xmlns:dc="http://purl.org/dc/elements/1.1/"
   xmlns:cc="http://creativecommons.org/ns#"
   xmlns:rdf="http://www.w3.org/1999/02/22-rdf-syntax-ns#"
   xmlns:svg="http://www.w3.org/2000/svg"
   xmlns="http://www.w3.org/2000/svg"
   xmlns:sodipodi="http://sodipodi.sourceforge.net/DTD/sodipodi-0.dtd"
   xmlns:inkscape="http://www.inkscape.org/namespaces/inkscape"
   sodipodi:docname="actor-back.svg"
   inkscape:version="1.0 (1.0+r73+1)"
   id="svg8"
   version="1.1"
   viewBox="0 0 69.099998 94"
   height="94mm"
   width="69.099998mm">
  <defs
     id="defs2" />
  <sodipodi:namedview
     inkscape:window-maximized="1"
     inkscape:window-y="27"
     inkscape:window-x="67"
     inkscape:window-height="1097"
     inkscape:window-width="1981"
     showgrid="false"
     inkscape:document-rotation="0"
     inkscape:current-layer="layer1"
     inkscape:document-units="mm"
     inkscape:cy="331.58869"
     inkscape:cx="421.34359"
     inkscape:zoom="0.98994949"
     inkscape:pageshadow="2"
     inkscape:pageopacity="0.0"
     borderopacity="1.0"
     bordercolor="#666666"
     pagecolor="#ffffff"
     id="base" />
  <metadata
     id="metadata5">
    <rdf:RDF>
      <cc:Work
         rdf:about="">
        <dc:format>image/svg+xml</dc:format>
        <dc:type
           rdf:resource="http://purl.org/dc/dcmitype/StillImage" />
        <dc:title></dc:title>
      </cc:Work>
    </rdf:RDF>
  </metadata>
  <g
     id="layer1"
     inkscape:groupmode="layer"
     inkscape:label="Layer 1">
    <rect
       style="stroke-width:0.191891"
       id="rect5831"
       fill="#5b57ca"
       height="94"
       width="69.099998"
       x="0"
       y="0" />
    <g
       transform="matrix(0.77818686,0,0,0.77818686,7.6636431,18.87175)"
       id="g5967">
      <g
         style="fill:none"
         mask="url(#mask0)"
         id="g5856"
         transform="scale(0.16452381)">
        <circle
           cx="210"
           cy="210"
           r="185"
           fill="#ff6666"
           id="circle5836" />
        <path
           d="m 271.792,288.114 -54.537,-21.455 c -3.698,-1.455 -7.875,0.353 -9.345,4.044 -1.354,3.398 0.049,7.272 3.265,9.014 l 15.477,8.387 c 20.094,10.888 31.165,33.239 27.65,55.821 l -4.66,29.938 43.701,-20.989 -2.6,-38.846 c -0.775,-11.576 -8.155,-21.667 -18.951,-25.914 z"
           fill="#0d06c1"
           id="path5838" />
        <path
           d="m 279.978,269.021 -47,-51.655 c -3.007,-3.305 -8.306,-2.958 -10.856,0.712 -1.596,2.297 -1.661,5.327 -0.164,7.69 l 14.489,22.876 c 11.912,18.806 18.357,40.553 18.617,62.812 l 0.526,45.145 47.977,-9.947 -16.728,-64.928 c -1.218,-4.73 -3.574,-9.092 -6.861,-12.705 z"
           fill="#241ed3"
           id="path5840" />
        <path
           d="m 291.472,265.246 -37.255,-80.027 c -1.499,-3.221 -5.097,-4.9 -8.529,-3.981 -3.962,1.062 -6.278,5.17 -5.136,9.109 l 17.955,61.908 c 3.078,10.612 4.675,21.597 4.747,32.646 l 0.37,57.05 37.99,1.837 -7.516,-69.123 c -0.354,-3.262 -1.242,-6.444 -2.626,-9.419 z"
           fill="#403add"
           id="path5842" />
        <path
           d="m 148.894,224.885 54.538,-21.455 c 3.698,-1.455 7.875,0.353 9.345,4.044 1.354,3.398 -0.049,7.272 -3.265,9.015 l -15.477,8.386 c -20.094,10.888 -31.165,33.24 -27.65,55.822 l 4.659,29.938 -43.7,-20.99 2.6,-38.846 c 0.775,-11.575 8.154,-21.667 18.95,-25.914 z"
           fill="#0d06c1"
           id="path5844" />
        <path
           d="m 140.709,205.793 47,-51.656 c 3.007,-3.305 8.306,-2.957 10.856,0.712 1.596,2.298 1.661,5.327 0.164,7.691 l -14.489,22.875 c -11.912,18.806 -18.357,40.554 -18.617,62.813 l -0.526,45.144 -47.977,-9.947 16.728,-64.927 c 1.218,-4.731 3.574,-9.092 6.861,-12.705 z"
           fill="#241ed3"
           id="path5846" />
        <path
           d="m 129.215,202.018 37.255,-80.027 c 1.499,-3.222 5.097,-4.901 8.529,-3.981 3.962,1.061 6.278,5.17 5.136,9.109 l -17.955,61.908 c -3.078,10.611 -4.675,21.597 -4.747,32.645 l -0.37,57.051 -37.99,1.837 7.516,-69.124 c 0.354,-3.262 1.242,-6.443 2.626,-9.418 z"
           fill="#403add"
           id="path5848" />
        <circle
           cx="210.32201"
           cy="210.321"
           r="56.779701"
           transform="rotate(15,210.322,210.321)"
           fill="#fff500"
           fill-opacity="0.9"
           id="circle5850" />
        <path
           d="m 115.932,195.909 27.74,-72.791 c 1.582,-4.153 6.05,-6.437 10.343,-5.286 4.524,1.212 7.267,5.798 6.194,10.357 l -16.674,70.882 c -1.089,4.631 -1.062,9.455 0.081,14.074 l 13.287,53.711 c 1.18,4.771 7.815,5.154 9.537,0.55 l 3.35,-8.958 c 2.699,-7.218 4.203,-14.828 4.454,-22.53 l 0.847,-25.983 c 0.176,-5.424 4.748,-9.66 10.17,-9.423 4.733,0.208 8.632,3.787 9.242,8.485 l 7.873,60.606 c 2.565,19.747 -0.823,39.81 -9.732,57.619 l -31.862,63.697 -73.3615,-19.657 17.7525,-22.196 c 9.052,-11.317 13.702,-25.528 13.091,-40.007 l -4.272,-101.202 c -0.172,-4.073 0.489,-8.139 1.94,-11.948 z"
           fill="#5b57ca"
           id="path5852" />
        <path
           d="m 304.755,259.137 -27.74,-72.791 c -1.583,-4.153 -6.05,-6.436 -10.343,-5.286 -4.524,1.212 -7.267,5.799 -6.194,10.358 l 16.674,70.881 c 1.089,4.632 1.062,9.456 -0.081,14.074 l -13.287,53.711 c -1.18,4.771 -7.815,5.154 -9.537,0.551 l -3.35,-8.958 c -2.699,-7.218 -4.204,-14.828 -4.454,-22.53 l -0.847,-25.983 c -0.176,-5.424 -4.748,-9.66 -10.17,-9.423 -4.733,0.207 -8.632,3.786 -9.242,8.484 l -9.258,71.266 c -1.684,12.965 -0.809,26.135 2.574,38.764 l 8.614,32.145 36.68,-9.828 c 21.828,-5.849 37.33,-25.193 38.283,-47.77 l 3.617,-85.717 c 0.172,-4.073 -0.488,-8.138 -1.939,-11.948 z"
           fill="#5b57ca"
           id="path5854" />
      </g>
    </g>
  </g>
  <g
     sodipodi:insensitive="true"
     style="display:none"
     inkscape:label="guides"
     id="layer2"
     inkscape:groupmode="layer">
    <rect
       y="6.0999985"
       x="6.0999985"
       height="81.800003"
       width="56.900002"
       id="rect5074"
       style="fill:none;stroke:#ff0000;stroke-width:0.79375;stroke-linecap:round;stroke-linejoin:round" />
  </g>
</svg>
